<?xml version="1.0" encoding="utf-8"?>
<!-- Generator: Adobe Illustrator 24.2.1, SVG Export Plug-In . SVG Version: 6.00 Build 0)  -->
<svg version="1.1" id="f885adbf-893a-4cbc-9f2f-51541a368feb"
	 xmlns="http://www.w3.org/2000/svg" xmlns:xlink="http://www.w3.org/1999/xlink" x="0px" y="0px" viewBox="0 0 505.8 512"
	 style="enable-background:new 0 0 505.8 512;" xml:space="preserve">
<style type="text/css">
	.st0{fill:#041147;}
</style>
<path class="st0" d="M485.7,466.9c-2.3-8.9-2.3-18.3,0-27.1c26.6-3.6,26.7-41.1,0.1-44.9c12.1-10.6,19.8-26.1,20-43.2
	c0.2-22.8-13.4-44.3-34.1-53.9c10.8-15.3-1.6-36.7-20.1-35.6c-2.3-8.8-2.3-18.1,0-26.8c29.9,1.6,31.9-45.2,1.6-45.2h-54.7l-21.4-72
	l102.6-26.9c17.7-4.6,17.7-30.6,0-35.3l-199-52.3c-18.2-4.8-37.4-4.8-55.5,0l-74,19.4c-9.1,2.4-5.7,17,3.8,14.5l74-19.4
	c15.7-4.1,32.2-4.1,47.9,0l199,52.3c3.2,0.8,3.2,5.4,0,6.2l-153.2,40.2l-48.2-43.7V55.8c-1.2-29.6-43.4-29.6-44.7,0v21.3
	c0,2.6,1.4,5,3.6,6.4c10.2,6.2,22.1,7.1,32.8,2.4l39.1,35.5l-28.5,7.5c-15.7,4.1-32.2,4.1-47.9,0l-199-52.3c-3.2-0.8-3.2-5.4,0-6.2
	L117,47.5c9.1-2.4,5.7-17-3.8-14.5L26.1,55.9c-17.7,4.6-17.7,30.6,0,35.3L128.7,118l-21.4,72H89.2c-32.3,0-58.9,26.1-59.2,58.1
	c-0.2,16.8,7.1,33,19.5,44.2H22.6c-28.5,1-30.6,41.1-2.5,45.1c2.3,8.9,2.3,18.2,0,27.1c-26.6,3.6-26.7,41.1-0.2,44.9
	C7.9,420.2,0.2,435.6,0,452.8c-0.2,15.8,5.9,30.6,17,41.8C28.1,505.8,42.9,512,58.6,512h424.5C511.6,511.1,513.8,471,485.7,466.9
	L485.7,466.9z M259.5,72.5c-4.8,1.9-9.9,1.9-14.7,0V55.8c0.3-9.7,14.3-9.7,14.7,0V72.5z M447.1,337.6c17.8,0.7,17.8,26.1,0,26.8
	H133.1v-26.8H447.1z M118.1,427.9l-20.7,10.8V337.6h20.7V427.9z M82.4,364.5H35.5c1.8-8.9,1.8-18,0-26.8h46.9V364.5z M86,457.6
	c2.4,1.4,4.9,1.4,7.4,0.2l34-17.9h342.8c-1.8,8.8-1.8,18,0,26.8H58.6c-7.4,0-13.4-6-13.4-13.4c0-7.4,6-13.4,13.4-13.4h23.7v11.2
	C82.4,453.8,83.8,456.2,86,457.6L86,457.6z M436.2,262.2H88.6c-7.4,0-13.4-6-13.4-13.4c0-7.4,6-13.4,13.4-13.4h203.2
	c-0.2,5.3-0.2,13.2,7.4,13.2h43.2c7.6,0,7.6-7.8,7.4-13.2h86.5C434.4,244.2,434.4,253.3,436.2,262.2L436.2,262.2z M320.8,183.4
	c6.6,0,12.9,23.5,13.9,50.1h-27.9C307.9,206.8,314.2,183.4,320.8,183.4L320.8,183.4z M460.8,212.7c0,4.2-3.4,7.6-7.6,7.6H348.7
	c-0.5-5.1-1.1-10.2-2.1-15.2h106.5C457.4,205.1,460.8,208.5,460.8,212.7L460.8,212.7z M382.8,190.1h-39.9
	c-3.6-10.5-8.5-17.2-14.7-20.1v-39.1l34.3-9L382.8,190.1z M143.2,121.9l81.9,21.5c18.1,4.8,37.4,4.8,55.5,0l32.6-8.6V170
	c-6.2,2.9-11.1,9.6-14.7,20.1H122.9L143.2,121.9z M57.6,279.4c-8.3-8.3-12.8-19.4-12.6-31.1c0.2-23.8,20.1-43.2,44.2-43.2h205.6
	c-0.9,5-1.6,10.1-2.1,15.2H88.6c-15.7,0-28.4,12.8-28.4,28.4s12.8,28.4,28.4,28.4h364.5c9.5,0,10,15.2,0,15.2H88.6
	C76.9,292.4,65.9,287.8,57.6,279.4z M15,315c0-4.2,3.4-7.6,7.6-7.6h424.5c23.9,0,43.9,20.1,43.6,44.1c-0.2,23.8-20.1,43.2-44.2,43.2
	h-39.3c-9.4,0-9.8,15,0,15h75.9c4.2,0,7.6,3.4,7.6,7.6c0,4.2-3.4,7.6-7.6,7.6H133.1v-15.2h234.6c9.4,0,9.8-15,0-15H133.1v-15.2
	h314.1c15.7,0,28.4-12.8,28.4-28.4s-12.8-28.4-28.4-28.4H22.6C18.4,322.6,15,319.2,15,315L15,315z M22.6,394.7
	c-10.1-0.4-10.1-14.9,0-15.2h59.8v15.2H22.6z M483.2,497H58.6c-11.7,0-22.7-4.6-31-13c-8.3-8.4-12.8-19.4-12.6-31.1
	c0.2-23.8,20.1-43.2,44.2-43.2h23.2v15.2H58.6c-37.7,1.6-37.7,55.3,0,56.8h424.5C493.2,482.1,493.2,496.6,483.2,497L483.2,497z"/>
</svg>
