<?xml version="1.0" encoding="utf-8"?>
<!-- Generator: Adobe Illustrator 24.2.1, SVG Export Plug-In . SVG Version: 6.00 Build 0)  -->
<svg version="1.1" id="f7e01b52-fe13-4534-b7fc-d479bcd2a427"
	 xmlns="http://www.w3.org/2000/svg" xmlns:xlink="http://www.w3.org/1999/xlink" x="0px" y="0px" viewBox="0 0 779.1 452.3"
	 style="enable-background:new 0 0 779.1 452.3;" xml:space="preserve">
<style type="text/css">
	.st0{fill:#041147;}
</style>
<g>
	<path class="st0" d="M707.7,11.2L695.6,0C697.3,6.9,707.7,11.2,707.7,11.2z"/>
	<path class="st0" d="M221,378.2c12,0,21.7-9.7,21.7-21.7s-9.7-21.7-21.7-21.7s-21.7,9.7-21.7,21.7C199.3,368.5,209,378.2,221,378.2
		z M221,348.7c4.3,0,7.8,3.5,7.8,7.8s-3.5,7.8-7.8,7.8s-7.8-3.5-7.8-7.8C213.1,352.2,216.6,348.7,221,348.7z"/>
	<path class="st0" d="M779.1,342V209.2c0-16-13-29.1-29.1-29.1H568v-3.4c0-4.5-1.6-8.6-4.2-11.8c2-2.4,3.3-5.3,3.9-8.4
		c7.4-4.4,12.1-12.4,12.1-21.1c0-4.1-1.1-8.2-3.1-11.8c2-3.6,3.1-7.7,3.1-11.8c0-8.7-4.7-16.7-11.9-21c0.1-0.9,0.1-1.7,0.1-2.6
		c0-12.4-9.3-22.7-21.3-24.4c-4.4-7.4-12.3-12-21.1-12c-1.1,0-2.3,0.1-3.4,0.3c-4.9-4-11-6.2-17.3-6.2c-0.8,0-1.7,0-2.5,0.1
		c-5.3-3.9-11.6-6-18.1-6c-6.6,0-12.9,2.1-18.1,6c-0.9-0.1-1.7-0.1-2.5-0.1c-6.3,0-12.3,2.1-17.2,6c-7.8,0.8-14.7,5.2-18.7,11.9
		c-12,1.6-21.3,12-21.3,24.4c0,0.9,0,1.7,0.1,2.6c-7.3,4.4-11.9,12.3-11.9,21c0,4.1,1.1,8.2,3.1,11.8c-2,3.6-3.1,7.7-3.1,11.8
		c0,8.8,4.7,16.8,12.1,21.1c0.3,1.7,0.9,3.4,1.7,4.9c-4.8,3.4-7.9,9-7.9,15.3v11.8c0,10.3,8.4,18.7,18.7,18.7h3.1l0.5,3.1
		c1.2,7.3,4.9,13.9,10.6,18.6l2.5,2.1v19.6c0,2.2-1.4,4-3.5,4.7l-51.7,15.9c-12.9,4-21.6,15.7-21.6,29.2v85.9
		c0,8.4,2.9,16.2,7.7,22.4h-28.4v-99.4c0-14.8-8.8-28-22.4-33.6l-47.5-19.8c15.1-2.9,29-7.3,40.7-12.7c5.9-2.8,9.7-8.8,9.7-15.2
		c-0.4-54.7-6.4-93-18.8-120.7c-15.7-35-42.4-52.7-79.4-52.7s-63.7,17.7-79.4,52.7C129,135,123,173.4,122.6,228
		c0,6.5,3.8,12.5,9.7,15.2c11.6,5.4,25.6,9.8,40.7,12.7l-47.5,19.8c-13.6,5.7-22.4,18.9-22.4,33.6v99.4H14.3
		C6.4,408.7,0,415.1,0,423v14.8c0,7.9,6.4,14.3,14.3,14.3h335c0.7,0.1,1.5,0.2,2.2,0.2h413.2c7.9,0,14.3-6.4,14.3-14.3v-14.8
		c0-7.9-6.4-14.3-14.3-14.3h-75.1l-5-37.8H750C766,371.1,779.1,358,779.1,342z M419.4,193.4c-2.7,0-4.9-2.2-4.9-4.9v-11.8
		c0-1.8,1-3.3,2.4-4.2l3.3,20.9H419.4z M420.4,153.3c0-0.2,0.1-0.4,0.1-0.6c0.3-3.2-1.6-6.1-4.6-7.2c-4.3-1.5-7.3-5.6-7.3-10.1
		c0-3.3,1.5-5.7,2.8-7.2c2.4-2.6,2.4-6.6,0-9.3c-1.3-1.4-2.8-3.8-2.8-7.2c0-4.8,3.3-9.1,8-10.4c1.9-0.5,3.5-1.8,4.4-3.6
		c0.9-1.8,1-3.8,0.2-5.7c-0.5-1.3-0.8-2.7-0.8-4c0-5.9,4.7-10.7,10.5-10.8c0.3,0,0.6,0.1,0.9,0.1c3.1,0.2,5.9-1.7,6.9-4.6
		c1.5-4.3,5.5-7.2,9.9-7.3c0.1,0,0.3,0,0.4,0c1.9,0,3.6-0.7,5-2c2.6-2.5,6-3.9,9.6-3.9c0.9,0,1.9,0.1,3,0.4c2.2,0.5,4.6-0.1,6.3-1.7
		c3.1-2.9,7.2-4.6,11.4-4.6s8.2,1.6,11.4,4.6c1.7,1.6,4,2.2,6.3,1.7c1.1-0.2,2.1-0.4,3-0.4c3.9,0,7.5,1.6,10.1,4.6
		c1.8,2,4.7,2.8,7.3,1.9c1.1-0.4,2.2-0.6,3.2-0.6c4.5,0,8.6,2.9,10.1,7.3c1,2.9,3.8,4.8,6.9,4.6c0.3,0,0.6,0,0.9-0.1
		c5.8,0.1,10.5,4.9,10.5,10.8c0,1.3-0.3,2.7-0.8,4c-0.7,1.8-0.7,3.9,0.2,5.7c0.9,1.8,2.5,3.1,4.4,3.6c4.7,1.3,8,5.5,8,10.4
		c0,3.3-1.5,5.7-2.8,7.2c-2.4,2.6-2.4,6.6,0,9.3c1.3,1.4,2.8,3.8,2.8,7.2c0,4.5-2.9,8.6-7.3,10.1c-3,1-4.9,4-4.6,7.2
		c0,0.2,0,0.4,0.1,0.6c-0.1,2.1-1.6,3.9-3.6,4.5c-0.2,0.1-6.8,0.2-6.8,0.2l-4-23.9c-0.6-3.5-3.8-6-7.3-5.8c-0.3,0-0.6,0.1-1,0.1l0,0
		c-3.5-0.1-6.8-1.9-8.8-4.8c-1.3-1.9-3.4-3.1-5.8-3.1c-2.3,0-4.5,1.2-5.8,3.1c-2,3-5.4,4.8-9,4.8s-7-1.8-9-4.8
		c-1.3-1.9-3.4-3.1-5.8-3.1c-2.3,0-4.5,1.2-5.8,3.1c-2,3-5.4,4.8-9,4.8s-7-1.8-9-4.8c-1.3-1.9-3.4-3.1-5.8-3.1
		c-2.3,0-4.5,1.2-5.8,3.1c-2,3-5.3,4.8-8.8,4.8l0,0c-0.3,0-0.6-0.1-1-0.1c-3.6-0.3-6.8,2.2-7.3,5.8l-4,23.9c0,0-6.6-0.1-6.8-0.2
		C422,157.2,420.5,155.4,420.4,153.3z M554.2,176.7v3.4h-3.6l1.2-7.6C553.2,173.4,554.2,174.9,554.2,176.7z M430.8,171.8h0.9
		c6.3,0,11.6-4.5,12.6-10.7l3.2-19.2c3.7-0.7,7.2-2.2,10.2-4.5c4.2,3.2,9.4,4.9,14.8,4.9c5.4,0,10.6-1.8,14.8-4.9
		c4.2,3.2,9.4,4.9,14.8,4.9c5.4,0,10.6-1.8,14.8-4.9c3,2.2,6.5,3.8,10.2,4.5l3.2,19.2c0.8,4.5,3.8,8.1,7.8,9.8l-1.5,9.2h-7.9
		c-16,0-29.1,13-29.1,29.1v30.7c-1.2,0.5-2.6,0.7-3.9,0.7h-22.6c-2.5,0-5-0.9-6.9-2.5l-23.7-19.7c-3.1-2.6-5.2-6.2-5.8-10.2
		L430.8,171.8z M436.7,268.5c7.9-2.4,13.2-9.6,13.2-17.9v-8l7.3,6.1c4.4,3.7,10,5.7,15.8,5.7h22.6c1.3,0,2.6-0.1,3.9-0.3v44.5
		c-4.1,0.7-8.2,1-12.3,1c-23.1,0-44.8-10.6-59.2-28.5L436.7,268.5z M373.2,386.3v-85.9c0-7.4,4.7-13.8,11.8-16l29-8.9
		c16.8,23.8,44.1,38,73.2,38c4.1,0,8.3-0.3,12.3-0.9V342c0,16,13,29.1,29.1,29.1h30v37.4c0,0.2,0,0.3,0,0.5h-37.8v-7.8
		c0-16-13-29.1-29.1-29.1h-73.8c-0.3,0-0.5-0.2-0.5-0.5v-44.3c0-3.8-3.1-6.9-6.9-6.9c-3.8,0-6.9,3.1-6.9,6.9v44.3
		c0,7.9,6.4,14.3,14.3,14.3h44.7V409h-32.9c-0.7-0.1-1.4-0.2-2.2-0.2h-34.6C381.8,407.3,373.2,397.8,373.2,386.3z M506.9,401v7.8
		h-30.4v-23.1h15.2C500.1,385.8,506.9,392.6,506.9,401z M278.2,274.8l32.8,13.7c8.4,3.5,13.9,11.7,13.9,20.9v99.4h-17.3
		c0.9-2.4,1.5-5.1,1.5-7.8v-88.6c0-12-9.7-21.7-21.7-21.7h-23.5C268.9,285.7,273.7,280.4,278.2,274.8z M195.3,248.3v-4.2l9.7,5.4
		c5,2.8,10.5,4.2,16,4.2s11-1.4,16-4.2l9.7-5.4v4.2c0,8.1,4.8,15.3,12.3,18.4l5.9,2.5c-6.8,8-14.1,15.2-21.8,21.4H199
		c-7.7-6.2-15-13.3-21.8-21.4l5.9-2.5C190.4,263.7,195.3,256.4,195.3,248.3z M177.7,218.6c-5.5-3.1-9.2-8.7-9.8-15l-4.7-51.2
		c17.6-2,64.7-8.5,93.7-22.7c3.6,6.4,10.5,15.6,21.9,21l-4.8,52.9c-0.6,6.3-4.2,11.9-9.8,15l-34,18.9c-5.8,3.2-12.8,3.2-18.6,0
		L177.7,218.6z M287.4,304.5L287.4,304.5c4.3,0,7.8,3.5,7.8,7.8v88.6c0,4.3-3.5,7.8-7.8,7.8H154.5c-4.3,0-7.8-3.5-7.8-7.8v-88.6
		c0-4.3,3.5-7.8,7.8-7.8H287.4z M138.3,230.6c-1-0.5-1.7-1.5-1.7-2.6c0.4-52.7,6-89.3,17.6-115.2c13.5-30,35.3-44.5,66.8-44.5
		s53.3,14.6,66.8,44.5c11.6,25.9,17.2,62.5,17.6,115.2c0,1.1-0.7,2.1-1.7,2.6c-12.1,5.6-26.9,10-43.1,12.7v-6.9l10.5-5.8
		c9.6-5.3,15.9-15,16.8-25.9l5.3-58c0.3-3.2-1.7-6.2-4.7-7.2c-15.9-5.3-21.7-21.6-21.7-21.7c-0.7-2-2.2-3.6-4.2-4.3
		c-2-0.7-4.2-0.5-6,0.6c-30.9,18.5-100.7,25.1-101.4,25.1c-3.8,0.3-6.6,3.7-6.3,7.5l5.3,58c1,10.9,7.3,20.6,16.8,25.9l10.5,5.8v6.9
		C165.2,240.6,150.3,236.3,138.3,230.6z M117,309.3c0-9.2,5.5-17.3,13.9-20.9l32.8-13.7c4.5,5.6,9.3,10.9,14.3,15.8h-23.5
		c-12,0-21.7,9.7-21.7,21.7v88.6c0,2.8,0.5,5.4,1.5,7.8H117L117,309.3L117,309.3z M764.8,422.7c0.3,0,0.5,0.2,0.5,0.5V438
		c0,0.3-0.2,0.5-0.5,0.5H481v0.4h-39.2H337.3h-72.2v-0.6H14.3c-0.3,0-0.5-0.2-0.5-0.5V423c0-0.3,0.2-0.5,0.5-0.5h250.8v-0.1h72.2
		h104.6H481v0.3L764.8,422.7L764.8,422.7z M572.4,408.9L572.4,408.9c0-0.2,0-0.3,0-0.5V371H594l-5,37.8h-16.6V408.9z M602.9,408.9
		l12-90c0.5-3.9,3.9-6.8,7.8-6.8h33.2c3.9,0,7.3,2.9,7.8,6.8l12,90H602.9z M683.6,357.2c-0.3,0-0.6,0-0.8,0.1l-5.4-40.3
		c-1.4-10.7-10.7-18.8-21.5-18.8h-33.2c-10.8,0-20.1,8.1-21.5,18.8l-5.4,40.3c-0.3,0-0.5-0.1-0.8-0.1h-66.4
		c-8.4,0-15.2-6.8-15.2-15.2V209.2c0-8.4,6.8-15.2,15.2-15.2H750c8.4,0,15.2,6.8,15.2,15.2V342c0,8.4-6.8,15.2-15.2,15.2
		L683.6,357.2L683.6,357.2z"/>
</g>
</svg>
