<?xml version="1.0" encoding="utf-8"?>
<!-- Generator: Adobe Illustrator 24.2.1, SVG Export Plug-In . SVG Version: 6.00 Build 0)  -->
<svg version="1.1" id="b1d80de4-06cb-4b2d-9c4c-b14d42818646"
	 xmlns="http://www.w3.org/2000/svg" xmlns:xlink="http://www.w3.org/1999/xlink" x="0px" y="0px" viewBox="0 0 414.6 441.5"
	 style="enable-background:new 0 0 414.6 441.5;" xml:space="preserve">
<style type="text/css">
	.st0{fill:#041147;}
</style>
<g>
	<g>
		<g>
			<g>
				<path class="st0" d="M251.9,168.5c0,1-0.1,2.1-0.2,3.1c21.6-13.2,50.2-10.5,68.8,8.2c21.8,21.8,21.8,57.4,0,79.2
					c-8.3,8.3-18.7,13.7-30.1,15.6V285c14.1-2,27.1-8.5,37.4-18.7c25.9-25.9,25.9-68,0-93.8c-20.8-20.8-52.1-24.9-77-12.2
					C251.5,162.9,251.9,165.6,251.9,168.5z"/>
				<path class="st0" d="M250.6,222.7c0.2,0,0.4,0.1,0.6,0.1c-1-8.8,1.9-17.9,8.6-24.6h0c5.8-5.8,13.5-8.8,21.2-8.8
					c7.7,0,15.3,2.9,21.2,8.8c11.7,11.7,11.7,30.7,0,42.4c-4.4,4.4-9.8,7.1-15.4,8.2c1.4,3.1,2.4,6.4,3,9.9
					c7.2-1.6,14.1-5.2,19.7-10.8c15.7-15.7,15.7-41.3,0-57c-15.7-15.7-41.3-15.7-57,0c-5,5-8.5,11.1-10.3,17.5
					C246.1,212.3,249,217.2,250.6,222.7z"/>
			</g>
		</g>
	</g>
	<g>
		<path class="st0" d="M150.3,129.4c-9.1-9.1-11.1-23.3-4.8-34.5c1.4-2.5,0.5-5.6-2-7c-2.5-1.4-5.6-0.5-7,2
			c-8.1,14.4-6.1,32.5,4.7,44.9h16.5C155,133.4,152.5,131.6,150.3,129.4z"/>
		<path class="st0" d="M404.7,196.1h-18.4c-2.7-12.5-7.6-24.2-14.4-34.9l13-13c1.9-1.9,2.9-4.4,2.9-7s-1-5.1-2.9-7l-18.8-18.8
			c-1.9-1.9-4.4-2.9-7-2.9c-2.6,0-5.1,1-7,2.9l-13,13c-10.7-6.9-22.4-11.7-34.9-14.4V95.6c0-5.5-4.4-9.9-9.9-9.9h-26.6
			c-3.1,0-5.8,1.4-7.6,3.6h-3.4c-2.2-9.6-6-18.7-11.2-27.1l9.9-9.9c3.5-3.5,3.5-9.2,0-12.7l-15.2-15.2c-1.7-1.7-4-2.6-6.4-2.6
			s-4.7,0.9-6.4,2.6l-9.9,9.9c-8.3-5.2-17.4-9-27.1-11.2V9c0-5-4-9-9-9h-21.5c-5,0-9,4-9,9v14.1c-9.6,2.2-18.7,6-27.1,11.2l-9.9-9.9
			c-1.7-1.7-4-2.6-6.4-2.6s-4.7,0.9-6.4,2.6L86,39.5c-3.5,3.5-3.5,9.2,0,12.7l9.9,9.9c-5.2,8.3-9,17.4-11.2,27.1H70.6c-5,0-9,4-9,9
			v21.5c0,5,4,9,9,9h14.1c0.5,2,1,4,1.6,6h10.9c-1-3-1.9-6.1-2.6-9.2c-0.9-4.1-4.6-7.1-8.8-7.1H72V99.6h13.8c4.2,0,7.9-3,8.8-7.1
			c2-9.2,5.5-17.8,10.6-25.6c2.3-3.5,1.8-8.3-1.2-11.2l-9.8-9.8l13.3-13.3l9.8,9.8c3,3,7.7,3.5,11.2,1.2c7.8-5.1,16.5-8.6,25.6-10.6
			c4.1-0.9,7.1-4.6,7.1-8.8V10.3h18.8v13.8c0,4.2,3,7.9,7.1,8.8c9.2,2,17.8,5.5,25.6,10.6c3.5,2.3,8.3,1.8,11.2-1.2l9.8-9.8
			l13.3,13.3l-9.8,9.8c-3,3-3.5,7.7-1.2,11.2c5.1,7.8,8.6,16.5,10.6,25.6c0.9,4.1,4.6,7.1,8.8,7.1h2.2v14.3
			c-12.5,2.7-24.2,7.6-34.9,14.4l-13-13c-0.2-0.2-0.3-0.3-0.5-0.4c1.8-11.9-1.8-24.5-11-33.6c-10.8-10.8-27.1-14.4-41.4-9
			c-2.7,1-4,4-3,6.7c1,2.7,4,4,6.7,3c10.6-3.9,22.5-1.3,30.5,6.6c6.7,6.7,9.4,15.9,8.1,24.6c-1.2,0.5-2.4,1.2-3.3,2.2L177,134.2
			c-0.2,0.2-0.3,0.4-0.5,0.5h14.6l11.7-11.7l11.7,11.7h3.6c3.9,0,7.6,0.7,11,1.9c9.5-6,20-10.3,31.1-12.6c4.5-1,7.8-5,7.8-9.7V96
			h25.7v18.3c0,4.6,3.3,8.7,7.8,9.7c11.5,2.5,22.3,6.9,32.1,13.3c3.9,2.5,9.1,2,12.4-1.3l12.9-12.9l18.2,18.2l-12.9,12.9
			c-3.3,3.3-3.8,8.5-1.3,12.4c6.3,9.8,10.8,20.6,13.3,32.1c1,4.5,5,7.8,9.7,7.8h18.3v25.7H386c-4.6,0-8.7,3.3-9.7,7.8
			c-2.5,11.5-6.9,22.3-13.3,32.1c-2.5,3.9-2,9.1,1.3,12.4l12.9,12.9l-18.2,18.2l-12.9-12.9c-3.3-3.3-8.5-3.8-12.4-1.3
			c-9.8,6.3-20.6,10.8-32.1,13.3c-2.6,0.6-4.7,2.1-6.1,4.2h4c5.1,0,10,1.2,14.3,3.2c8.9-2.8,17.3-6.8,25.2-11.8l13,13
			c1.9,1.9,4.4,2.9,7,2.9c2.6,0,5.1-1,7-2.9l18.8-18.8c1.9-1.9,2.9-4.4,2.9-7c0-2.6-1-5.1-2.9-7l-13-13
			c6.9-10.7,11.7-22.4,14.4-34.9h18.4c5.5,0,9.9-4.4,9.9-9.9V206C414.6,200.6,410.2,196.1,404.7,196.1z"/>
	</g>
	<g>
		<path class="st0" d="M299.5,408.6h-8.1c-5.6-13.4-5.6-26.5,0-39.8h8.1c9.1,0,16.5-7.4,16.5-16.5c0-9.1-7.4-16.5-16.5-16.5h-32.7
			c4.2-4.8,6.7-11,6.7-17.8v-51.6c0-14.9-12.1-27-27-27h-13.3c1.1-2.3,1.8-4.8,1.8-7.5c0-9.2-7.5-16.8-16.7-16.8h-4.6
			c-4.1-10.1-4.1-20,0-30h4.6c9.2,0,16.7-7.5,16.7-16.8c0-9.2-7.5-16.7-16.7-16.7H62c-26.7,0-48.5,21.7-48.5,48.5
			c0,12.9,5.1,25.1,14.2,34.3c1.8,1.8,3.8,3.5,5.8,5H30c-9.1,0-16.5,7.4-16.5,16.5s7.4,16.5,16.5,16.5h8.1c5.6,13.3,5.6,26.4,0,39.8
			H30c-9.1,0-16.5,7.4-16.5,16.5c0,3.5,1.1,6.7,2.9,9.3C6.8,342.1,0,351.7,0,362.9v51.6c0,14.9,12.1,27,27,27h272.5
			c9.1,0,16.5-7.4,16.5-16.5C316,416,308.6,408.6,299.5,408.6L299.5,408.6z M299.5,345.1c4,0,7.2,3.2,7.2,7.2s-3.2,7.2-7.2,7.2H216
			c-2.6,0-4.6,2.1-4.6,4.6c0,2.6,2.1,4.6,4.6,4.6h65.5c-1.8,5.1-2.9,10.2-3.3,15.3c0,0-1.8,9.2,3.3,24.5H34.2
			c-0.7,0-1.3-0.6-1.3-1.3v-37.2c0-0.7,0.6-1.3,1.3-1.3h45.9l0,15.2c-0.3,4.6,1.9,6.3,3.3,7c1.4,0.7,4.2,1.3,7.7-1.9
			c0,0,0,0,0.1-0.1l12.9-12.3l12.9,12.3c0,0,0,0,0.1,0.1c2,1.9,3.9,2.4,5.3,2.4c1,0,1.9-0.3,2.4-0.6c1.4-0.7,3.6-2.5,3.3-7l0-15.2
			h65c2.6,0,4.6-2.1,4.6-4.6s-2.1-4.6-4.6-4.6h-65l0-14.4L299.5,345.1L299.5,345.1z M51.4,287.7c-0.4-5.1-1.5-10.2-3.4-15.3h191.2
			c0.7,0,1.3,0.6,1.3,1.3v37.2c0,0.7-0.6,1.3-1.3,1.3H128.2l0-15.3h32.4c2.6,0,4.6-2.1,4.6-4.6c0-2.6-2.1-4.6-4.6-4.6L51.4,287.7
			L51.4,287.7z M80.1,312.2H48c1.8-5.1,2.9-10.2,3.4-15.3h28.7L80.1,312.2z M118.9,296.9l0,81.1l-11.6-11c-1.8-1.7-4.6-1.7-6.4,0
			l-11.6,11l0-81.1L118.9,296.9L118.9,296.9z M22.8,200.2c0-21.6,17.6-39.2,39.2-39.2h156.1c4.1,0,7.5,3.4,7.5,7.5
			c0,4.1-3.4,7.5-7.5,7.5h-85.3c-2.6,0-4.6,2.1-4.6,4.6s2.1,4.6,4.6,4.6h70.9c-3.3,10-3.3,20,0,30H62c-4,0-7.7-1.6-10.6-4.4
			c-2.8-2.9-4.4-6.6-4.4-10.6c0-8.3,6.7-15,15-15h48c2.6,0,4.6-2.1,4.6-4.6s-2.1-4.6-4.6-4.6H62c-13.4,0-24.3,10.9-24.3,24.2
			c0,6.4,2.5,12.5,7.1,17.2c4.6,4.6,10.7,7.1,17.1,7.1h156.1c4.1,0,7.5,3.4,7.5,7.5c0,4.1-3.4,7.5-7.5,7.5H62
			c-10.5,0-20.3-4.1-27.7-11.5C26.9,220.5,22.8,210.7,22.8,200.2L22.8,200.2z M30,263.1c-4,0-7.2-3.2-7.2-7.2c0-4,3.2-7.2,7.2-7.2
			h216.5c9.8,0,17.8,8,17.8,17.8v51.6c0,9.8-8,17.8-17.8,17.8H128.2l0-14.4h111.1c5.8,0,10.6-4.8,10.6-10.6v-37.2
			c0-5.8-4.8-10.6-10.6-10.6L30,263.1L30,263.1z M30,321.5h50.1l0,14.4H30c-4,0-7.2-3.2-7.2-7.2C22.8,324.7,26,321.5,30,321.5
			L30,321.5z M299.5,432.3H27c-9.8,0-17.8-8-17.8-17.8v-51.6c0-9.8,8-17.8,17.8-17.8h53.1l0,14.4H34.2c-5.8,0-10.6,4.8-10.6,10.6
			v37.2c0,5.8,4.8,10.6,10.6,10.6h265.3c4,0,7.2,3.2,7.2,7.2S303.5,432.3,299.5,432.3L299.5,432.3z"/>
	</g>
</g>
</svg>
