<?xml version="1.0" encoding="utf-8"?>
<!-- Generator: Adobe Illustrator 24.2.1, SVG Export Plug-In . SVG Version: 6.00 Build 0)  -->
<svg version="1.1" id="a7bd42df-0eaf-4f58-b315-9606670bfe25"
	 xmlns="http://www.w3.org/2000/svg" xmlns:xlink="http://www.w3.org/1999/xlink" x="0px" y="0px" viewBox="0 0 496 496"
	 style="enable-background:new 0 0 496 496;" xml:space="preserve">
<style type="text/css">
	.st0{fill:#041147;}
</style>
<g>
	<path class="st0" d="M496,276c0-20-16.3-36.3-36.3-36.3c-9.7,0-18.8,3.8-25.7,10.6L400,284.4V0H84.7L0,84.7V496h400V387l85.4-85.4
		C492.2,294.8,496,285.6,496,276z M300,415l20.8,20.8l-29.1,8.5L300,415z M336,428.3l-8.7-8.7l114.2-114.2l8.7,8.7L336,428.3z
		 M316,408.4l-8.7-8.7l114.2-114.2l8.7,8.7L316,408.4z M80,27.3V80H27.3L80,27.3z M384,480H16V96h80V16h288v284.4l-95.1,95.1
		l-20.5,72.3l71.9-21L384,403V480z M474.1,290.3l-12.5,12.5l-28.7-28.7l12.5-12.5c3.8-3.8,8.9-5.9,14.3-5.9
		c11.2,0,20.3,9.1,20.3,20.3C480,281.4,477.9,286.5,474.1,290.3z"/>
	<path class="st0" d="M162.1,330.6l-34.4,37.9C117.5,358.3,103.5,352,88,352c-30.9,0-56,25.1-56,56s25.1,56,56,56s56-25.1,56-56
		c0-9.5-2.4-18.5-6.6-26.4l36.6-40.2L162.1,330.6z M128,408c0,22.1-17.9,40-40,40s-40-17.9-40-40s17.9-40,40-40
		c11.3,0,21.5,4.8,28.8,12.4l-30.1,33.1l-18.3-12.2l-8.9,13.3l29.7,19.8l36.2-39.9C127,398.8,128,403.3,128,408z"/>
	<path class="st0" d="M127.6,224.5C117.5,214.3,103.5,208,88,208c-30.9,0-56,25.1-56,56s25.1,56,56,56s56-25.1,56-56
		c0-9.5-2.4-18.5-6.6-26.4l36.6-40.2l-11.8-10.8L127.6,224.5z M128,264c0,22.1-17.9,40-40,40s-40-17.9-40-40s17.9-40,40-40
		c11.3,0,21.5,4.8,28.8,12.4l-30.1,33.1l-18.3-12.2l-8.9,13.3l29.7,19.8l36.2-39.9C127,254.8,128,259.3,128,264z"/>
	<path class="st0" d="M352,256h16v16h-16V256z"/>
	<path class="st0" d="M176,256h160v16H176V256z"/>
	<path class="st0" d="M176,224h192v16H176V224z"/>
	<path class="st0" d="M176,288h192v16H176V288z"/>
	<path class="st0" d="M176,400h88v16h-88V400z"/>
	<path class="st0" d="M176,432h88v16h-88V432z"/>
	<path class="st0" d="M176,368h88v16h-88V368z"/>
	<path class="st0" d="M152,176h176c22.1,0,40-17.9,40-40V72c0-22.1-17.9-40-40-40H152c-22.1,0-40,17.9-40,40v64
		C112,158.1,129.9,176,152,176z M128,72c0-13.2,10.8-24,24-24h176c13.2,0,24,10.8,24,24v64c0,13.2-10.8,24-24,24H152
		c-13.2,0-24-10.8-24-24V72z"/>
	<path class="st0" d="M336,80h-48v48h48V80z M320,112h-16V96h16V112z"/>
	<path class="st0" d="M264,80h-48v48h48V80z M248,112h-16V96h16V112z"/>
	<path class="st0" d="M192,80h-48v48h48V80z M176,112h-16V96h16V112z"/>
</g>
</svg>
