<?xml version="1.0" encoding="utf-8"?>
<!-- Generator: Adobe Illustrator 24.2.1, SVG Export Plug-In . SVG Version: 6.00 Build 0)  -->
<svg version="1.1" id="a31e7729-94ce-4b70-883a-94bdaa3e886c"
	 xmlns="http://www.w3.org/2000/svg" xmlns:xlink="http://www.w3.org/1999/xlink" x="0px" y="0px" viewBox="0 0 379 512"
	 style="enable-background:new 0 0 379 512;" xml:space="preserve">
<style type="text/css">
	.st0{fill:#041147;}
</style>
<g>
	<path class="st0" d="M53.5,24.5C41.1,24.5,31,34.6,31,47s10.1,22.5,22.5,22.5S76,59.4,76,47S65.9,24.5,53.5,24.5z M53.5,54.5
		c-4.1,0-7.5-3.4-7.5-7.5s3.4-7.5,7.5-7.5S61,42.9,61,47S57.6,54.5,53.5,54.5z"/>
	<path class="st0" d="M113.5,69.5c12.4,0,22.5-10.1,22.5-22.5s-10.1-22.5-22.5-22.5S91,34.6,91,47S101.1,69.5,113.5,69.5z
		 M113.5,39.5c4.1,0,7.5,3.4,7.5,7.5s-3.4,7.5-7.5,7.5S106,51.1,106,47S109.4,39.5,113.5,39.5z"/>
	<path class="st0" d="M196,47c0-12.4-10.1-22.5-22.5-22.5S151,34.6,151,47s10.1,22.5,22.5,22.5S196,59.4,196,47z M166,47
		c0-4.1,3.4-7.5,7.5-7.5s7.5,3.4,7.5,7.5s-3.4,7.5-7.5,7.5S166,51.1,166,47z"/>
	<path class="st0" d="M371.5,128.5c-4.1,0-7.5,3.4-7.5,7.5v361H15v-17.2c0-4.1-3.4-7.5-7.5-7.5S0,475.6,0,479.8v24.8
		c0,4.1,3.4,7.5,7.5,7.5h364c4.1,0,7.5-3.4,7.5-7.5V136C379,131.9,375.6,128.5,371.5,128.5z"/>
	<path class="st0" d="M371.5,0H7.5C3.4,0,0,3.4,0,7.5v440c0,4.1,3.4,7.5,7.5,7.5s7.5-3.4,7.5-7.5V95h46.5c4.1,0,7.5-3.4,7.5-7.5
		S65.6,80,61.5,80H15V15h349v65H93.6c-4.1,0-7.5,3.4-7.5,7.5s3.4,7.5,7.5,7.5H364v8.8c0,4.1,3.4,7.5,7.5,7.5s7.5-3.4,7.5-7.5V7.5
		C379,3.4,375.6,0,371.5,0z"/>
	<path class="st0" d="M46.1,170.3c-1.6,4.8-0.3,10,3.4,13.6l12,11.6L58.8,212c-0.9,5,1.1,10,5.2,12.9c4.1,3,9.5,3.4,14,1.1l15-7.8
		l15,7.8c2,1,4.1,1.5,6.2,1.5c2.8,0,5.5-0.9,7.9-2.6c4.1-3,6.1-8,5.2-12.9l-2.8-16.4l12-11.6c3.7-3.5,5-8.7,3.4-13.6
		c-1.6-4.9-5.7-8.3-10.8-9.1l-16.7-2.4l-7.5-15c-2.3-4.5-6.8-7.4-11.9-7.4s-9.7,2.8-11.9,7.4l-7.5,15l-16.7,2.4
		C51.8,162,47.7,165.5,46.1,170.3z M76.6,173.6c4.3-0.6,8.1-3.3,10-7.2l6.4-12.8l6.4,12.8c1.9,3.9,5.7,6.6,10,7.2l14.1,2l-10.1,9.8
		c-3.2,3.1-4.6,7.5-3.8,11.8l2.4,13.9l-12.7-6.6c-3.9-2-8.5-2-12.3,0l-12.7,6.6l2.4-13.9c0.7-4.3-0.7-8.7-3.9-11.8l-10.1-9.8
		L76.6,173.6z"/>
	<path class="st0" d="M332.9,170.3c-1.6-4.9-5.7-8.3-10.8-9.1l-16.7-2.4l-7.5-15c-2.3-4.5-6.8-7.4-11.9-7.4s-9.7,2.8-11.9,7.4
		l-7.5,15l-16.7,2.4c-5.1,0.7-9.2,4.2-10.8,9.1c-1.6,4.8-0.3,10,3.4,13.6l12,11.6l-2.8,16.4c-0.9,5,1.1,10,5.2,12.9
		c4.1,3,9.5,3.4,14,1.1l15-7.8l15,7.8c2,1,4.1,1.5,6.2,1.5c2.8,0,5.5-0.9,7.9-2.6c4.1-3,6.1-8,5.2-12.9l-2.8-16.4l12-11.6
		C333.1,180.4,334.4,175.2,332.9,170.3z M306.3,185.4c-3.2,3.1-4.6,7.5-3.9,11.8l2.4,13.9l-12.7-6.6c-3.9-2-8.5-2-12.3,0l-12.7,6.6
		l2.4-13.9c0.7-4.3-0.7-8.7-3.9-11.8l-10.1-9.8l14.1-2c4.3-0.6,8.1-3.3,10-7.2l6.4-12.8l6.4,12.8c1.9,3.9,5.7,6.6,10,7.2l14.1,2
		L306.3,185.4z"/>
	<path class="st0" d="M236.4,138.3c-1.6-4.9-5.7-8.3-10.8-9.1l-16.7-2.4l-7.5-15c-2.3-4.5-6.8-7.4-11.9-7.4s-9.7,2.8-11.9,7.4
		l-7.5,15l-16.7,2.4c-5.1,0.7-9.2,4.2-10.8,9.1c-1.6,4.8-0.3,10,3.4,13.6l12,11.6l-2.8,16.4c-0.9,5,1.1,10,5.2,12.9
		c4.1,3,9.5,3.4,14,1.1l15-7.8l15,7.8c2,1,4.1,1.5,6.2,1.5c2.8,0,5.5-0.9,7.9-2.6c4.1-3,6.1-8,5.2-12.9l-2.8-16.4l12-11.6
		C236.6,148.4,237.9,143.2,236.4,138.3z M209.8,153.4c-3.2,3.1-4.6,7.5-3.9,11.8l2.4,13.9l-12.7-6.6c-3.9-2-8.5-2-12.3,0l-12.7,6.6
		l2.4-13.9c0.7-4.3-0.7-8.7-3.9-11.8l-10.1-9.8l14.1-2c4.3-0.6,8.1-3.3,10-7.2l6.4-12.8l6.4,12.8c1.9,3.9,5.7,6.6,10,7.2l14.1,2
		L209.8,153.4z"/>
	<path class="st0" d="M129.7,254.6V280c0,3-6,7.1-10.4,7.1l-34.8,0.1c-9.9,0-17.9,8.3-17.9,18.4c0,3.6,1,7.1,2.8,10
		c-3.1,3.2-4.8,7.2-4.8,11.9c0,4.9,1.9,9.5,5.1,12.8c-1.2,2.4-2,5.3-2,9c0,9,6.2,16.4,14.5,18.1c-0.1,0.7-0.1,1.4-0.1,2
		c0,4.2,1.4,8.1,4.1,11.1c3.1,3.6,7.8,5.6,12.7,5.6h79.3c2.2,0,4.3-0.4,6.2-1.2c1.9,1.5,4.3,2.4,7,2.4h22.4c4,0,7.5-2.1,9.5-5.2
		h83.6c4.1,0,7.5-3.4,7.5-7.5v-70c0-4.1-3.4-7.5-7.5-7.5h-82.7c-1.7-4-5.7-6.8-10.4-6.8h-22.4c-2.2,0-4.3,0.6-6,1.7
		c-2.7-7.3-7.3-18.7-13.5-28.2c-2.8-4.3-4.2-9.4-4.2-14.8v-10.5c0-6.7-5.4-12.2-12-12.2h-4.9C140.3,226.2,129.7,235,129.7,254.6z
		 M299.4,367.1h-74.3v-55h74.3V367.1z M195.1,305.3h15v67h-15V305.3z M144.7,280v-25.4c0-8,2.5-13.3,6.1-13.3h1.8v7.7
		c0,8.3,2.3,16.3,6.6,23c6.4,10,11.2,22.8,12.9,27.9c1.2,3.4,3.2,6.3,6,8.5c1.2,0.9,1.9,2.5,1.9,4.1v56.4c0,1.3-0.9,2.3-1.9,2.3
		H98.9c-0.6,0-1.2-0.2-1.5-0.5c-0.1-0.2-0.4-0.4-0.4-1.2c0-0.9,0.2-1.7,0.6-2.1c2.1-2.7,2.5-6.4,1-9.5c-1.5-3.1-4.7-5.1-8.1-5.1
		h-4.9c-1.6,0-2.9-1.5-2.9-3.4c0-2.2,0.8-3,1.5-3.5c2.8-1.8,4.2-5,3.7-8.3c-0.5-3.3-2.9-5.9-6.1-6.8c-1.1-0.3-2.3-1.5-2.3-3.3
		c0-0.6,0-2,3.8-3.1c3.5-1,5.8-4,5.9-7.6c0.1-3.6-2.2-6.8-5.6-7.9c-1-0.3-2.2-1.5-2.2-3.3c0-1.9,1.3-3.4,2.9-3.4l34.8-0.1
		C131.1,302,144.7,292.4,144.7,280z"/>
	<path class="st0" d="M307,425c0-4.1-3.4-7.5-7.5-7.5h-220c-4.1,0-7.5,3.4-7.5,7.5s3.4,7.5,7.5,7.5h220
		C303.6,432.5,307,429.1,307,425z"/>
	<path class="st0" d="M79.5,450.8c-4.1,0-7.5,3.4-7.5,7.5c0,4.1,3.4,7.5,7.5,7.5h56.1c4.1,0,7.5-3.4,7.5-7.5c0-4.1-3.4-7.5-7.5-7.5
		H79.5z"/>
</g>
</svg>
