<?xml version="1.0" encoding="utf-8"?>
<!-- Generator: Adobe Illustrator 24.2.1, SVG Export Plug-In . SVG Version: 6.00 Build 0)  -->
<svg version="1.1" id="afc98551-3d88-4acb-87ed-36f06011ac7a"
	 xmlns="http://www.w3.org/2000/svg" xmlns:xlink="http://www.w3.org/1999/xlink" x="0px" y="0px" viewBox="0 0 462 492"
	 style="enable-background:new 0 0 462 492;" xml:space="preserve">
<style type="text/css">
	.st0{fill:#041147;}
</style>
<g>
	<path class="st0" d="M66.4,82.6c23.4,0,42.5-18.5,42.5-41.3S89.8,0,66.4,0S24,18.5,24,41.3S43,82.6,66.4,82.6z M66.4,12
		c16.8,0,30.5,13.1,30.5,29.3S83.2,70.6,66.4,70.6S36,57.4,36,41.3S49.6,12,66.4,12z"/>
	<path class="st0" d="M6,183.9h120.8c3.3,0,6-2.7,6-6v-29.6c0-30.6-24.9-55.5-55.5-55.5H55.5C24.9,92.9,0,117.7,0,148.3v29.6
		C0,181.2,2.7,183.9,6,183.9z M12,148.3c0-24,19.5-43.5,43.5-43.5h21.9c24,0,43.5,19.5,43.5,43.5v23.6H12V148.3z"/>
	<path class="st0" d="M374.7,82.6c23.4,0,42.5-18.5,42.5-41.3S398.1,0,374.7,0s-42.5,18.5-42.5,41.3S351.2,82.6,374.7,82.6z
		 M374.7,12c16.8,0,30.5,13.1,30.5,29.3s-13.7,29.3-30.5,29.3s-30.5-13.1-30.5-29.3S357.9,12,374.7,12z"/>
	<path class="st0" d="M314.2,183.9h120.8c3.3,0,6-2.7,6-6v-29.6c0-30.6-24.9-55.5-55.5-55.5h-21.9c-30.6,0-55.5,24.9-55.5,55.5v29.6
		C308.2,181.2,310.9,183.9,314.2,183.9z M320.2,148.3c0-24,19.5-43.5,43.5-43.5h21.9c24,0,43.5,19.5,43.5,43.5v23.6H320.2
		L320.2,148.3z"/>
	<path class="st0" d="M220.5,82.6C244,82.6,263,64,263,41.3S244,0,220.5,0s-42.5,18.5-42.5,41.3S197.1,82.6,220.5,82.6L220.5,82.6z
		 M220.5,12c16.8,0,30.5,13.1,30.5,29.3s-13.7,29.3-30.5,29.3s-30.5-13.1-30.5-29.3S203.7,12,220.5,12L220.5,12z"/>
	<path class="st0" d="M160.1,183.9H281c3.3,0,6-2.7,6-6v-29.6c0-30.6-24.9-55.5-55.5-55.5h-21.9c-30.6,0-55.5,24.9-55.5,55.5v29.6
		C154.1,181.2,156.8,183.9,160.1,183.9L160.1,183.9z M166.1,148.3c0-24,19.5-43.5,43.5-43.5h21.9c24,0,43.5,19.5,43.5,43.5v23.6
		H166.1L166.1,148.3z"/>
	<path class="st0" d="M223.1,298.2c21.5,0,39-17,39-38s-17.5-38-39-38s-39,17-39,38S201.6,298.2,223.1,298.2L223.1,298.2z
		 M223.1,234.3c14.9,0,27,11.6,27,26c0,14.3-12.1,26-27,26s-27-11.6-27-26S208.2,234.3,223.1,234.3L223.1,234.3z"/>
	<path class="st0" d="M168.4,390h109.5c3.3,0,6-2.7,6-6v-22.1c0-30.6-24.9-55.5-55.5-55.5h-10.5c-30.6,0-55.5,24.9-55.5,55.5V384
		C162.4,387.4,165,390,168.4,390L168.4,390z M174.4,361.9c0-24,19.5-43.5,43.5-43.5h10.5c24,0,43.5,19.5,43.5,43.5V378h-97.5V361.9z
		"/>
	<path class="st0" d="M105.5,331.6c9,57.3,60,98.3,117.9,98.3c6.2,0,12.5-0.5,18.7-1.4c28.8-4.2,55.1-18.7,74-40.9l27.2,19.7
		c-3.9,8-1.4,17.7,5.8,22.8l80.5,58.3c8.3,5.9,19.8,4.2,26-4l2.7-3.6c6-8.1,4.4-19.5-3.7-25.5c-0.1-0.1-0.2-0.2-0.4-0.3l-80.5-58.3
		c-7.1-5-16.6-4.6-23.2,1l-27.1-19.7c16.8-24,23.6-53.7,19.1-82.6c-10-63.4-71.3-106.8-136.6-96.9c-32.3,4.9-60.6,21.9-79.6,47.8
		C108.3,270.9,100.8,301.6,105.5,331.6L105.5,331.6z M362.9,405.3c1.4,0,2.8,0.4,3.9,1.3l80.5,58.3c1.4,1,2.3,2.5,2.6,4.2
		c0.3,1.7-0.2,3.3-1.2,4.7l-2.7,3.6c-2.2,2.9-6.4,3.6-9.4,1.4l-80.5-58.3c-1.4-1-2.3-2.5-2.6-4.2c-0.3-1.7,0.2-3.3,1.2-4.7l2.7-3.6
		C358.8,406.3,360.8,405.3,362.9,405.3z M207.8,210.5c5.6-0.9,11.2-1.3,16.9-1.3c52.2,0,98,36.8,106.1,88.1
		c4.2,26.9-2.5,54.3-18.7,76.2c-17.2,23.4-43,38.9-71.7,43.1c-58.8,8.9-114-30-122.9-86.9c-4.2-26.9,2.5-54.3,18.7-76.2
		C153.2,230.2,179.1,214.7,207.8,210.5L207.8,210.5z"/>
</g>
</svg>
