<?xml version="1.0" encoding="utf-8"?>
<!-- Generator: Adobe Illustrator 24.2.1, SVG Export Plug-In . SVG Version: 6.00 Build 0)  -->
<svg version="1.1" id="b759170a-51c3-4e2f-999d-77dec9fd6d11"
	 xmlns="http://www.w3.org/2000/svg" xmlns:xlink="http://www.w3.org/1999/xlink" x="0px" y="0px" viewBox="0 0 458.4 457.1"
	 style="enable-background:new 0 0 458.4 457.1;" xml:space="preserve">
<style type="text/css">
	.st0{fill:#041147;}
</style>
<g>
	<path class="st0" d="M41.7,46.2c-2.8,0.4-4.8,2.9-4.6,5.7c0.2,2.9,2.5,5.1,5.3,5.1C57.6,57.9,62.6,78.6,63,80.6l0.1,0.3
		c0.6,2.6,2.7,4.4,5.3,4.4h0.4l0.1,0c2.8-0.2,5-2.6,5-5.3c0.3-14.2,20-22.2,22.5-23.2l0.4-0.1c2.5-0.9,4-3.3,3.6-5.8
		c-0.2-2.7-2.4-4.8-5.1-4.8c-14.5-0.9-20.7-20-21.3-22.1L74,23.4c-0.7-2.5-3.1-4.2-5.8-4c-2.6,0.2-4.8,2.4-5,5
		C62.8,28.6,60.2,42.6,41.7,46.2L41.7,46.2z M57.9,51.4c4-2.4,8.4-6.1,11.6-11.3c2.7,4.3,6.4,8.9,11.5,12.2
		c-4.3,2.8-9.1,6.6-12.6,11.5C66,59.5,62.7,54.9,57.9,51.4z"/>
	<path class="st0" d="M6.6,83.2c9.5,0.5,12.7,13.7,13.1,15.2l0.1,0.3c0.6,2.6,2.7,4.4,5.3,4.4h0.3l0.1,0c2.7-0.2,4.9-2.4,5.1-5.2
		l0-0.1c0.2-9,13.1-14.2,14.9-14.9l0.3-0.1c2.5-0.9,4-3.3,3.6-5.9c-0.4-2.7-2.6-4.7-5.2-4.7c-9-0.6-13.2-13-13.6-14.5l-0.1-0.2
		c-0.7-2.5-3.1-4.2-5.8-4c-2.7,0.2-4.8,2.3-5,5C18.8,69.9,7.2,72.1,6,72.3c-2.8,0.4-4.9,2.9-4.7,5.7C1.5,80.9,3.8,83.2,6.6,83.2z
		 M20.3,77.8c1.8-1.4,3.7-3.1,5.4-5.3c1.6,2.3,3.4,4.2,5.4,5.7c-2.3,1.7-4.3,3.5-5.9,5.4C24,81.6,22.4,79.6,20.3,77.8z"/>
	<path class="st0" d="M6.6,29.9c9.5,0.5,12.7,13.7,13.1,15.2l0.1,0.3c0.6,2.6,2.7,4.4,5.3,4.4h0.3l0.1,0c2.7-0.2,4.9-2.4,5.1-5.2
		l0-0.1c0.2-9,13.1-14.2,14.9-14.9l0.3-0.1c2.5-0.9,4-3.3,3.6-5.9c-0.4-2.6-2.5-4.7-5.1-4.9l0,0C35.2,18.2,31,5.7,30.6,4.2L30.5,4
		c-0.7-2.5-3.1-4.2-5.8-4c-2.7,0.2-4.8,2.3-5,5C18.8,16.6,7.2,18.8,6,19c-2.8,0.4-4.9,2.9-4.7,5.7C1.5,27.6,3.8,29.9,6.6,29.9z
		 M20.3,24.4c1.8-1.4,3.7-3.1,5.4-5.3c1.6,2.3,3.5,4.2,5.4,5.8c-2.3,1.7-4.3,3.5-5.9,5.3C24,28.3,22.4,26.2,20.3,24.4z"/>
	<path class="st0" d="M437.6,278.2c-4.3-0.2-8.8,0.8-12.7,2.8l-66,34.3H254.1c-24.2,0-47.8,6.8-68.3,19.7l-15,9.4
		c-3.9,2.4-8.2,3.9-12.6,4.5v-10.2c0-11.9-9.6-21.5-21.5-21.5H100c-0.3,0-0.7,0-1,0.1H62.9c-3.1,0-5.5,2.4-5.5,5.5s2.4,5.5,5.5,5.5
		h31.6v117.8H11V328.3h23.5c3.1,0,5.5-2.4,5.5-5.5s-2.4-5.5-5.5-5.5h-29c-3.1,0-5.5,2.4-5.5,5.5v128.8c0,3.1,2.4,5.5,5.5,5.5H100
		c0.3,0,0.7,0,1-0.1h35.7c11.9,0,21.5-9.6,21.5-21.5v-12.3l137.4-4.2c13.2-0.8,26-5.3,37-12.9l118.3-91c4.8-3.4,7.4-8.4,7.6-14.5
		C458.6,288.9,449.1,278.7,437.6,278.2z M158.2,399.9v-0.2c0-3.1-2.4-5.5-5.5-5.5s-5.5,2.4-5.5,5.5v0.2v18v17.6
		c0,5.8-4.7,10.5-10.5,10.5h-31.2V328.3h31.2c5.8,0,10.5,4.7,10.5,10.5v15.8v15.7v0.1c0,0,0,0.1,0,0.1c0,0.2,0,0.4,0.1,0.7
		c0.3,1.8,1.4,3.3,2.9,4c0,0,0.1,0,0.1,0.1c0.1,0.1,0.3,0.1,0.4,0.2c0.2,0.1,0.5,0.2,0.8,0.2c0.1,0,0.1,0,0.2,0
		c0.3,0.1,0.7,0.1,1,0.1c0,0,0,0,0,0c0,0,0,0,0,0c0.1,0,0.2,0,0.3,0c0.2,0,0.3-0.1,0.5-0.1c0.1,0,0.3,0,0.4-0.1
		c0.2-0.1,0.5-0.1,0.7-0.2c0.1,0,0.2-0.1,0.3-0.1c0.2-0.1,0.4-0.2,0.6-0.3c0.1-0.1,0.2-0.1,0.3-0.2c0.2-0.1,0.4-0.3,0.5-0.4
		c0.1-0.1,0.2-0.2,0.3-0.2c0.2-0.2,0.3-0.3,0.4-0.5c0.1-0.1,0.2-0.2,0.2-0.3c0.1-0.2,0.2-0.4,0.3-0.6c0.1-0.1,0.1-0.2,0.2-0.3
		c0.1-0.2,0.1-0.5,0.2-0.7c0-0.1,0.1-0.2,0.1-0.3c0.1-0.4,0.1-0.7,0.1-1.1V360c6.6-0.6,13-2.7,18.4-6.2l15-9.4
		c18.8-11.8,40.4-18,62.5-18h101.7c1.3,4.4-1.5,9.8-5,12.8c-4.7,4-11.5,6.1-17.6,7.9l-0.4,0.1c-14.8,4.4-28.2,7.1-41.2,9.8
		c-13.4,2.7-27.4,5.5-44.5,10.1c-1.4,0.4-2.6,1.3-3.4,2.6c-0.7,1.3-0.9,2.7-0.5,4.1l0,0.1c0.7,2.3,2.9,4,5.3,4c0.4,0,0.9,0,1.5-0.2
		c16.8-4.6,30.5-7.3,43.8-10c13.3-2.7,27-5.4,42.2-10l0.4-0.1c7.1-2.1,15.1-4.5,21.6-10.1c5.9-5.2,10.7-14.5,8.4-23.5l63.5-33.1
		c2.3-1.2,4.8-1.7,7.1-1.5c5.7,0.2,10.4,5.3,10.3,11c-0.1,2.6-1,4.5-3,5.8L326,397.1c-9.2,6.4-19.9,10.2-31,10.9l-136.8,4.2V399.9z"
		/>
	<path class="st0" d="M126.3,407.3c-9.7,0-17.6,7.9-17.6,17.6c0,9.7,7.9,17.6,17.6,17.6s17.6-7.9,17.6-17.6
		C143.9,415.2,136,407.3,126.3,407.3z M132.9,424.8c0,3.6-3,6.6-6.6,6.6s-6.6-3-6.6-6.6c0-3.6,3-6.6,6.6-6.6
		S132.9,421.2,132.9,424.8z"/>
	<path class="st0" d="M78.5,148.1c-0.2,0.9-0.2,1.8-0.2,2.7c0,0.9,0.1,1.8,0.2,2.7c1.5,81.2,67.5,147,148.8,148
		c0.6,0.1,1.3,0.1,1.9,0.1s1.3,0,1.9-0.1c82.1-1,148.6-68.1,148.8-150.5c0-0.1,0-0.1,0-0.2c0,0,0,0,0,0c0,0,0,0,0-0.1
		C379.9,67.6,312.3,0,229.2,0c-0.2,0-0.4,0-0.5,0c-0.1,0-0.2,0-0.4,0c-0.3,0-0.5,0-0.8,0C146,0.9,79.9,66.8,78.5,148.1z
		 M228.3,290.4c-5.2-1.1-13.3-11.5-20.3-38.1c6.9,0.7,14,1,21.2,1c7.2,0,14.3-0.4,21.2-1c-6.8,26.3-14.9,36.8-20.1,38.1
		c-0.6,0-1.3,0-1.9,0C228.4,290.4,228.3,290.4,228.3,290.4z M319.9,150.7c0,8.2-0.5,16.2-1.4,24c-14.1,2.9-30,5.1-47.1,6.4
		c0.5-9.9,0.8-20,0.8-30.4c0-10.4-0.3-20.6-0.8-30.6c17.1,1.4,33,3.5,47.1,6.4C319.4,134.5,319.9,142.5,319.9,150.7z M198.7,193.1
		c9.9,0.5,20,0.8,30.4,0.8c10.4,0,20.6-0.3,30.6-0.8c-1.4,17.3-3.6,33.5-6.6,47.8c-7.8,0.9-15.7,1.3-23.9,1.3
		c-8.1,0-16.1-0.5-23.9-1.3C202.3,226.6,200.1,210.4,198.7,193.1z M229.2,118.6c10.6,0,21.1,0.3,31.2,0.9
		c0.6,10.1,0.9,20.6,0.9,31.2c0,10.6-0.3,21.1-0.9,31.2c-10.1,0.6-20.6,0.9-31.2,0.9c-10.6,0-21.1-0.3-31.2-0.9
		c-0.6-10.1-0.9-20.5-0.9-31.1c0-10.7,0.3-21.1,0.9-31.3C208.1,118.9,218.6,118.6,229.2,118.6z M186.9,181.2
		c-17.7-1.4-34.2-3.7-48.7-6.8c-0.9-7.7-1.3-15.6-1.3-23.7c0-7.9,0.5-15.9,1.4-23.7c14.5-3.1,31-5.4,48.7-6.8
		c-0.5,9.9-0.8,20.2-0.8,30.6C186.1,161.1,186.4,171.3,186.9,181.2z M229.2,59.2c8.1,0,16.1,0.5,23.9,1.3c3,14.3,5.2,30.6,6.6,48
		c-9.9-0.5-20.2-0.8-30.6-0.8c-10.3,0-20.5,0.3-30.4,0.8c1.4-17.4,3.6-33.6,6.6-48C213.1,59.7,221.1,59.2,229.2,59.2z M127,171.7
		c-27.6-7.3-37.5-15.8-37.5-21c0,0,0,0,0,0c0-5.1,9.9-13.6,37.5-21c-0.7,6.9-1,14-1,21C126,157.8,126.3,164.9,127,171.7z
		 M139.9,186.1c14.4,2.9,30.5,5,47.8,6.3c1.3,16.9,3.3,32.7,6.1,46.8c-15.2-2.6-29.3-6.8-42-12.4
		C146.4,214.4,142.4,200.7,139.9,186.1z M264.7,239.2c2.8-14.1,4.8-30,6.1-46.9c16.6-1.3,32.2-3.3,46.1-6
		c-2.6,14.9-6.7,28.8-12.1,41.2C292.5,232.8,279.1,236.7,264.7,239.2z M316.9,115.2c-14-2.7-29.6-4.7-46.2-6
		c-1.3-16.9-3.4-32.8-6.2-47.1c14.4,2.5,27.9,6.4,40.1,11.6C310.2,86.3,314.3,100.3,316.9,115.2z M229,11c0.2,0,0.4,0,0.6,0
		c5.2,0.5,13.6,10.7,20.9,38.3c-6.9-0.7-14-1-21.3-1c-7.2,0-14.3,0.4-21.3,1C215.3,21.4,223.8,11.3,229,11z M261.1,254.9
		c0.3-1.3,0.7-2.7,1-4.1c12.4-1.9,24.3-4.8,35.4-8.7c-12.5,22-29.4,37.9-48.5,44.7C253.5,279.2,257.6,268.5,261.1,254.9z M330.5,172
		L330.5,172c-0.2,0-0.3,0.1-0.5,0.1c0.7-7,1-14.1,1-21.4c0-7.3-0.4-14.4-1-21.4c0.2,0,0.3,0.1,0.5,0.1c28.4,7.3,38.4,16,38.4,21.3
		C368.9,156,358.8,164.7,330.5,172z M125,182.7c1.1,0.3,2.3,0.6,3.5,0.9c1.9,12.7,4.9,24.7,8.9,36c-22.1-12.6-38-29.8-44.6-49.2
		C100.5,175,111.2,179.2,125,182.7z M158.9,241.4c11.6,4.2,24.2,7.4,37.4,9.4c0.3,1.4,0.7,2.8,1,4.1c3.6,14,7.8,24.9,12.5,32.6
		C189.6,281.1,171.8,264.5,158.9,241.4z M297.7,59.5c-11.1-3.9-23-6.8-35.5-8.7c-0.3-1.4-0.7-2.8-1-4.1l0,0
		c-3.6-13.7-7.7-24.5-12.3-32.2C268.1,21.3,285.1,37.4,297.7,59.5z M137.1,82c-0.6,1.6-1.1,3.3-1.7,5c-0.9,2.9,0.7,6,3.6,6.9
		c2.9,0.9,6-0.7,6.9-3.6c1.7-5.5,3.7-10.7,5.8-15.7c12.7-5.5,26.8-9.8,41.9-12.4c-2.8,14.2-4.9,30.1-6.1,47
		c-17.2,1.3-33.4,3.4-47.8,6.3c0.3-2,0.7-3.9,1.1-5.8c0.6-3-1.4-5.9-4.3-6.4c-1.4-0.3-2.9,0-4.1,0.8c-1.3,0.8-2.1,2.1-2.4,3.5
		c-0.7,3.5-1.3,7-1.9,10.5c-1.1,0.3-2.3,0.6-3.4,0.8c-13.8,3.6-24.6,7.7-32.3,12.3C99.1,111.8,115,94.7,137.1,82z M319.3,220.6
		c4.1-11.4,7.2-23.7,9.2-36.7c1.6-0.4,3.2-0.8,4.7-1.2c13.9-3.6,24.7-7.8,32.4-12.4C359,190.3,342.3,207.8,319.3,220.6z
		 M333.2,118.9c-1.5-0.4-3.1-0.8-4.7-1.2c-2-13-5.1-25.4-9.2-36.9c23.1,12.8,39.9,30.5,46.5,50.5C358,126.7,347.2,122.5,333.2,118.9
		z M197.3,46.7c-0.3,1.3-0.7,2.7-1,4.1c-13.2,2-25.7,5.2-37.3,9.4c13.2-23.4,31.2-39.8,51-46.2C205.1,21.7,200.9,32.6,197.3,46.7z
		 M143.6,235.1c8.4,18.1,19.3,33.4,32.1,44.7c-34.5-14.3-62-42.1-76.1-76.7C110.8,215.8,125.8,226.8,143.6,235.1z M280,280.9
		c13.1-11.2,24.3-26.6,32.9-44.9c18.6-8.5,34.2-19.7,45.7-32.8C344.3,238.7,315.7,266.9,280,280.9z M313,65.7
		c-8.6-18.4-19.9-33.8-33-45.1c35.8,14,64.4,42.4,78.7,78C347.3,85.4,331.6,74.2,313,65.7z M143.2,66.7
		c-17.6,8.4-32.5,19.2-43.6,31.8c14-34.5,41.3-62.2,75.6-76.6C162.6,33.1,151.6,48.3,143.2,66.7z"/>
</g>
</svg>
