<?xml version="1.0" encoding="utf-8"?>
<!-- Generator: Adobe Illustrator 24.2.1, SVG Export Plug-In . SVG Version: 6.00 Build 0)  -->
<svg version="1.1" id="ad1db818-b740-459f-8c8c-b7c337b4c82d"
	 xmlns="http://www.w3.org/2000/svg" xmlns:xlink="http://www.w3.org/1999/xlink" x="0px" y="0px" viewBox="0 0 480.5 512"
	 style="enable-background:new 0 0 480.5 512;" xml:space="preserve">
<style type="text/css">
	.st0{fill:#041147;}
</style>
<g>
	<path class="st0" d="M424.3,0h-22c-9.7,0-9.7,15,0,15h22c22.7,0,41.2,18.4,41.2,41.1v173.6c0,22.7-18.5,41.1-41.2,41.1h-25
		c-1.6,0-3.2,0.5-4.6,1.5l-45.8,35v-29.1c0-4.1-3.4-7.5-7.5-7.5h-91.3c-7.5,0-14.7-2-21-5.7v-84.2c0-15.8-8-29.7-20.2-38V56.1
		c0-22.7,18.5-41.1,41.2-41.1h105.1c9.7,0,9.7-15,0-15H250.2c-31,0-56.2,25.2-56.2,56.1v80.2c-3.4-0.8-7-1.3-10.7-1.3H45.9
		C20.6,135,0,155.6,0,180.8V197c0,9.7,15,9.7,15,0v-16.2c0-17,13.9-30.8,30.9-30.8h137.3c17.1,0,30.9,13.8,30.9,30.8V268
		c-0.1,0.7-0.1,1.3,0,2v47.7c0,0.9-0.1,1.9-0.1,2.8h-15.5c-17,0-31.3,12.3-34.2,28.5c-0.7,0.3-1.3,0.6-1.9,1.1L128.9,376v-20
		c0-4.1-3.4-7.5-7.5-7.5H45.9c-17.1,0-30.9-13.8-30.9-30.8V242c0-9.7-15-9.7-15,0v75.7c0,25.3,20.6,45.8,45.9,45.8h67.9v27.7
		c0,6,7.3,9.6,12.1,5.9l37.8-29.2v84.4c0,19.1,15.6,34.7,34.8,34.7h46v17.5c0,6,7.3,9.6,12.1,5.9l30.4-23.4h9
		c19.2,0,34.8-15.6,34.8-34.7v-13.3c0-9.7-15-9.7-15,0v13.3c0,10.9-8.9,19.7-19.8,19.7h-11.5c-1.7,0-3.3,0.6-4.6,1.6l-20.3,15.7
		v-9.7c0-4.1-3.4-7.5-7.5-7.5h-53.5c-10.9,0-19.8-8.8-19.8-19.7v-97.1c0-10.9,8.9-19.7,19.8-19.7H296c10.9,0,19.8,8.8,19.8,19.7
		v36.8c0,9.7,15,9.7,15,0v-36.8c0-19.1-15.6-34.7-34.8-34.7h-66.9c0.1-0.9,0.1-38.8,0.1-38.8c6.6,2.7,13.7,4,21,4H334v36.8
		c0,6,7.3,9.6,12.1,6l55.9-42.7h22.4c31,0,56.2-25.2,56.2-56.1V56.1C480.5,25.2,455.3,0,424.3,0L424.3,0z"/>
	<path class="st0" d="M356,55.4c-9.5-2.4-19.2,5.1-19.2,14.9c0,10.8-3.9,21.1-11,29.2l-20.7,23.4c-1.3-2.1-3.7-3.4-6.3-3.4h-40.3
		c-4.1,0-7.5,3.4-7.5,7.5v90.8c0,4.1,3.4,7.5,7.5,7.5h40.3c3,0,5.6-1.8,6.8-4.4c8.2,5,17.6,7.7,27.3,7.7h71.3
		c10.9,0,19.9-9.5,19.4-20.3c-0.2-4.8,0-69.4,0-70.9c0-10.7-8.7-19.4-19.4-19.4l-37.1-0.1l1.5-3.6c7-16.6,5.9-35.9-3.1-51.5
		C363.5,59.1,360.1,56.5,356,55.4C351.9,54.4,360.1,56.5,356,55.4C346.5,53,360.1,56.5,356,55.4L356,55.4z M291.3,210.3h-25.3v-75.8
		h25.3V210.3z M404.2,133c2.4,0,4.4,2,4.4,4.4c0,1.4,0,5.3,0,10.6c-0.1,29-0.2,56.5,0,61c0.1,1.6-0.7,2.7-1.2,3.3
		c-0.8,0.9-2,1.4-3.2,1.4h-71.3c-8.5,0-16.8-2.9-23.4-8.3l-3.2-2.6v-58.5l30.7-34.7c9.5-10.8,14.8-24.7,14.8-39.1
		c0-0.4,0.6-0.5,0.8-0.2c6.6,11.6,7.5,25.9,2.3,38.3l-5.9,14c-1,2.3-0.7,5,0.7,7.1c1.4,2.1,3.7,3.4,6.2,3.4L404.2,133z"/>
	<path class="st0" d="M64.2,260.5c-4.1,0-7.5,3.4-7.5,7.5c0,4.1,3.4,7.5,7.5,7.5h22.1l-4.1,25c-0.7,4.1,2.1,7.9,6.2,8.6
		c0.4,0.1,0.8,0.1,1.2,0.1c3.6,0,6.8-2.6,7.4-6.3l4.5-27.4h18.1l-4.1,25c-0.7,4.1,2.1,7.9,6.2,8.6c0.4,0.1,0.8,0.1,1.2,0.1
		c3.6,0,6.8-2.6,7.4-6.3l4.5-27.4h30.1c4.1,0,7.5-3.4,7.5-7.5c0-4.1-3.4-7.5-7.5-7.5h-27.6l3-18.3h24.6c4.1,0,7.5-3.4,7.5-7.5
		s-3.4-7.5-7.5-7.5h-22.1l4.1-25c0.7-4.1-2.1-7.9-6.2-8.6c-4.1-0.7-7.9,2.1-8.6,6.2l-4.5,27.4h-18.1l4.1-25c0.7-4.1-2.1-7.9-6.2-8.6
		c-4.1-0.7-7.9,2.1-8.6,6.2l-4.5,27.4H64.2c-4.1,0-7.5,3.4-7.5,7.5s3.4,7.5,7.5,7.5h27.6l-3,18.3L64.2,260.5z M107.1,242.2h18.1
		l-3,18.3H104L107.1,242.2z"/>
	<path class="st0" d="M247.2,374.3c-6.1-5-14.1-7-22.2-5c-10.4,2.5-20.8,12.2-20.8,28.2c0,9.9,3.6,18.6,11.1,26.4
		c6.1,6.4,14.9,12.4,28.5,19.7c1.1,0.6,2.3,0.9,3.5,0.9c1.2,0,2.4-0.3,3.5-0.9c23.8-12.6,39.6-25.2,39.6-46c0-16-10.8-25.6-21.6-28
		C260.8,367.6,253,369.5,247.2,374.3L247.2,374.3z M275.4,397.4c0,11.2-7.4,19.5-28.1,30.9c-20.7-11.4-28.1-19.7-28.1-30.9
		c0-8.3,4.8-12.5,9.3-13.6c0.8-0.2,1.7-0.3,2.6-0.3c3.4,0,7.1,1.6,9.4,6c1.3,2.5,4,4.1,6.8,4.1c2.9-0.1,5.4-1.7,6.6-4.3
		c2.4-5.2,7.5-6.1,11.5-5.2C270.3,385.1,275.4,389.2,275.4,397.4z"/>
</g>
</svg>
