<?xml version="1.0" encoding="utf-8"?>
<!-- Generator: Adobe Illustrator 24.2.1, SVG Export Plug-In . SVG Version: 6.00 Build 0)  -->
<svg version="1.1" id="ea98fdbc-a252-4665-af64-abf278d5674c"
	 xmlns="http://www.w3.org/2000/svg" xmlns:xlink="http://www.w3.org/1999/xlink" x="0px" y="0px" viewBox="0 0 891 711"
	 style="enable-background:new 0 0 891 711;" xml:space="preserve">
<style type="text/css">
	.st0{fill:#F2F2F2;}
	.st1{fill:#F5F5F5;}
	.st2{fill:url(#SVGID_1_);}
	.st3{fill:#FFFFFF;}
	.st4{fill:#FF8300;}
	.st5{fill:#FFFF00;}
	.st6{fill:#041147;}
	.st7{opacity:0.2;}
	.st8{fill:#101734;}
	.st9{opacity:0.5;fill:#101734;enable-background:new    ;}
	.st10{fill:url(#SVGID_2_);}
	.st11{fill:url(#SVGID_3_);}
	.st12{fill:url(#SVGID_4_);}
	.st13{fill:url(#SVGID_5_);}
	.st14{fill:url(#SVGID_6_);}
	.st15{fill:url(#SVGID_7_);}
	.st16{fill:url(#SVGID_8_);}
	.st17{fill:url(#SVGID_9_);}
	.st18{opacity:0.5;fill:#FFFFFF;enable-background:new    ;}
	.st19{fill:url(#SVGID_10_);}
	.st20{fill:none;stroke:#101734;stroke-miterlimit:10;}
	.st21{fill:none;stroke:#101734;stroke-miterlimit:10;stroke-dasharray:11.51,11.51;}
	.st22{fill:none;stroke:#101734;stroke-miterlimit:10;stroke-dasharray:13.06,13.06;}
	.st23{fill:none;stroke:#101734;stroke-miterlimit:10;stroke-dasharray:9.79,9.79;}
	.st24{fill:none;stroke:#101734;stroke-miterlimit:10;stroke-dasharray:11.28,11.28;}
	.st25{fill:none;stroke:#101734;stroke-miterlimit:10;stroke-dasharray:11.93,11.93;}
	.st26{fill:url(#SVGID_11_);}
	.st27{fill:url(#SVGID_12_);}
	.st28{fill:url(#SVGID_13_);}
	.st29{fill:url(#SVGID_14_);}
	.st30{fill:#CA7070;}
	.st31{fill:#1B2E68;}
	.st32{opacity:0.2;fill:#FFFFFF;enable-background:new    ;}
	.st33{fill:#263238;}
	.st34{fill:url(#SVGID_15_);}
	.st35{fill:url(#SVGID_16_);}
	.st36{fill:#F6B9AD;}
	.st37{fill:#FCCC63;}
	.st38{fill:url(#SVGID_17_);}
	.st39{fill:url(#SVGID_18_);}
	.st40{fill:url(#SVGID_19_);}
	.st41{fill:url(#SVGID_20_);}
	.st42{fill:url(#SVGID_21_);}
	.st43{fill:url(#SVGID_22_);}
	.st44{fill:url(#SVGID_23_);}
	.st45{fill:url(#SVGID_24_);}
	.st46{fill:none;stroke:#101734;stroke-width:3;stroke-miterlimit:10;}
	.st47{fill:url(#SVGID_25_);}
	.st48{fill:url(#SVGID_26_);}
	.st49{opacity:0.2;enable-background:new    ;}
	.st50{fill:url(#SVGID_27_);}
	.st51{fill:#985454;}
</style>
<ellipse class="st0" cx="370" cy="694" rx="67" ry="17"/>
<ellipse class="st0" cx="375" cy="506" rx="67" ry="17"/>
<ellipse class="st0" cx="67" cy="514" rx="67" ry="17"/>
<rect x="22.6" y="4" class="st1" width="383" height="14.5"/>
<linearGradient id="SVGID_1_" gradientUnits="userSpaceOnUse" x1="213.62" y1="225" x2="213.62" y2="711" gradientTransform="matrix(1 0 0 -1 0 711)">
	<stop  offset="0" style="stop-color:#808080;stop-opacity:0.25"/>
	<stop  offset="0.54" style="stop-color:#808080;stop-opacity:0.12"/>
	<stop  offset="1" style="stop-color:#808080;stop-opacity:0.1"/>
</linearGradient>
<rect x="15.6" class="st2" width="396" height="486"/>
<rect x="22.6" y="18.5" class="st3" width="383" height="459.5"/>
<circle class="st4" cx="30.5" cy="11.5" r="3.5"/>
<circle class="st5" cx="40.1" cy="11.5" r="3.5"/>
<circle class="st6" cx="49.8" cy="11.5" r="3.5"/>
<g class="st7">
	<rect x="33.6" y="36" class="st8" width="149" height="9"/>
</g>
<rect x="139.6" y="73" class="st1" width="149" height="9"/>
<rect x="33.6" y="363" class="st9" width="149" height="9"/>
<linearGradient id="SVGID_2_" gradientUnits="userSpaceOnUse" x1="227.62" y1="338" x2="227.62" y2="349" gradientTransform="matrix(1 0 0 -1 0 711)">
	<stop  offset="0" style="stop-color:#808080;stop-opacity:0.25"/>
	<stop  offset="0.54" style="stop-color:#808080;stop-opacity:0.12"/>
	<stop  offset="1" style="stop-color:#808080;stop-opacity:0.1"/>
</linearGradient>
<rect x="202.6" y="362" class="st10" width="50" height="11"/>
<linearGradient id="SVGID_3_" gradientUnits="userSpaceOnUse" x1="227.62" y1="282" x2="227.62" y2="293" gradientTransform="matrix(1 0 0 -1 0 711)">
	<stop  offset="0" style="stop-color:#808080;stop-opacity:0.25"/>
	<stop  offset="0.54" style="stop-color:#808080;stop-opacity:0.12"/>
	<stop  offset="1" style="stop-color:#808080;stop-opacity:0.1"/>
</linearGradient>
<rect x="202.6" y="418" class="st11" width="50" height="11"/>
<linearGradient id="SVGID_4_" gradientUnits="userSpaceOnUse" x1="329.62" y1="282" x2="329.62" y2="293" gradientTransform="matrix(1 0 0 -1 0 711)">
	<stop  offset="0" style="stop-color:#808080;stop-opacity:0.25"/>
	<stop  offset="0.54" style="stop-color:#808080;stop-opacity:0.12"/>
	<stop  offset="1" style="stop-color:#808080;stop-opacity:0.1"/>
</linearGradient>
<rect x="304.6" y="418" class="st12" width="50" height="11"/>
<rect x="204.6" y="363" class="st8" width="47" height="9"/>
<rect x="204.6" y="419" class="st8" width="47" height="9"/>
<rect x="305.6" y="419" class="st8" width="47" height="9"/>
<rect x="33.6" y="391" class="st1" width="149" height="9"/>
<rect x="204.6" y="391" class="st9" width="149" height="9"/>
<rect x="204.6" y="447" class="st1" width="149" height="9"/>
<rect x="33.6" y="419" class="st9" width="149" height="9"/>
<rect x="33.6" y="447" class="st1" width="149" height="9"/>
<rect x="139.6" y="88" class="st1" width="84" height="9"/>
<rect x="238.6" y="88" class="st1" width="29" height="9"/>
<rect x="139.6" y="118" class="st1" width="84" height="9"/>
<rect x="238.6" y="118" class="st1" width="29" height="9"/>
<rect x="139.6" y="103" class="st1" width="149" height="9"/>
<g class="st7">
	<rect x="243.6" y="36" class="st8" width="149" height="9"/>
</g>
<linearGradient id="SVGID_5_" gradientUnits="userSpaceOnUse" x1="336.62" y1="628" x2="336.62" y2="639" gradientTransform="matrix(1 0 0 -1 0 711)">
	<stop  offset="0" style="stop-color:#808080;stop-opacity:0.25"/>
	<stop  offset="0.54" style="stop-color:#808080;stop-opacity:0.12"/>
	<stop  offset="1" style="stop-color:#808080;stop-opacity:0.1"/>
</linearGradient>
<rect x="327.6" y="72" class="st13" width="18" height="11"/>
<linearGradient id="SVGID_6_" gradientUnits="userSpaceOnUse" x1="336.62" y1="613" x2="336.62" y2="624" gradientTransform="matrix(1 0 0 -1 0 711)">
	<stop  offset="0" style="stop-color:#808080;stop-opacity:0.25"/>
	<stop  offset="0.54" style="stop-color:#808080;stop-opacity:0.12"/>
	<stop  offset="1" style="stop-color:#808080;stop-opacity:0.1"/>
</linearGradient>
<rect x="327.6" y="87" class="st14" width="18" height="11"/>
<linearGradient id="SVGID_7_" gradientUnits="userSpaceOnUse" x1="336.62" y1="598" x2="336.62" y2="609" gradientTransform="matrix(1 0 0 -1 0 711)">
	<stop  offset="0" style="stop-color:#808080;stop-opacity:0.25"/>
	<stop  offset="0.54" style="stop-color:#808080;stop-opacity:0.12"/>
	<stop  offset="1" style="stop-color:#808080;stop-opacity:0.1"/>
</linearGradient>
<rect x="327.6" y="102" class="st15" width="18" height="11"/>
<rect x="328.6" y="73" class="st4" width="16" height="9"/>
<rect x="328.6" y="88" class="st4" width="16" height="9"/>
<rect x="328.6" y="103" class="st6" width="16" height="9"/>
<linearGradient id="SVGID_8_" gradientUnits="userSpaceOnUse" x1="336.62" y1="583" x2="336.62" y2="594" gradientTransform="matrix(1 0 0 -1 0 711)">
	<stop  offset="0" style="stop-color:#808080;stop-opacity:0.25"/>
	<stop  offset="0.54" style="stop-color:#808080;stop-opacity:0.12"/>
	<stop  offset="1" style="stop-color:#808080;stop-opacity:0.1"/>
</linearGradient>
<rect x="327.6" y="117" class="st16" width="18" height="11"/>
<rect x="328.6" y="118" class="st8" width="16" height="9"/>
<linearGradient id="SVGID_9_" gradientUnits="userSpaceOnUse" x1="214.12" y1="379" x2="214.12" y2="529" gradientTransform="matrix(1 0 0 -1 0 711)">
	<stop  offset="0" style="stop-color:#808080;stop-opacity:0.25"/>
	<stop  offset="0.54" style="stop-color:#808080;stop-opacity:0.12"/>
	<stop  offset="1" style="stop-color:#808080;stop-opacity:0.1"/>
</linearGradient>
<rect x="30.6" y="182" class="st17" width="367" height="150"/>
<rect x="33.6" y="185" class="st9" width="359" height="142"/>
<polygon class="st18" points="44.6,196 392.6,196 392.6,185 33.6,185 33.6,327 44.6,327 "/>
<linearGradient id="SVGID_10_" gradientUnits="userSpaceOnUse" x1="382.1679" y1="223.5574" x2="382.1679" y2="375.5574" gradientTransform="matrix(0.9959 -9.063258e-02 -9.063258e-02 -0.9959 -129.841 597.992)">
	<stop  offset="0" style="stop-color:#808080;stop-opacity:0.25"/>
	<stop  offset="0.54" style="stop-color:#808080;stop-opacity:0.12"/>
	<stop  offset="1" style="stop-color:#808080;stop-opacity:0.1"/>
</linearGradient>
<polygon class="st19" points="32.5,206.1 401,172.6 414.7,324 46.3,357.5 "/>
<rect x="44.5" y="193" transform="matrix(0.9959 -9.063258e-02 9.063258e-02 0.9959 -23.0031 21.3888)" class="st3" width="359" height="142"/>
<path class="st9" d="M65.5,325.6l-6.2-78.8c0,0,32-34,96.6-8.8s95.1,7.4,105.6-9.6s65-36,82.7-7.5c17.7,28.5,38.8-3.5,38.8-3.5
	l7.2,78.7L65.5,325.6z"/>
<line class="st20" x1="98" y1="229.7" x2="98.6" y2="235.6"/>
<line class="st21" x1="99.6" y1="247.1" x2="105.4" y2="310.2"/>
<line class="st20" x1="105.9" y1="315.9" x2="106.4" y2="321.9"/>
<line class="st20" x1="159.5" y1="239.4" x2="160.1" y2="245.4"/>
<line class="st22" x1="161.2" y1="258.4" x2="165.4" y2="303.9"/>
<line class="st20" x1="166" y1="310.4" x2="166.5" y2="316.4"/>
<line class="st20" x1="222.3" y1="250.1" x2="222.9" y2="256.1"/>
<line class="st23" x1="223.8" y1="265.8" x2="227.2" y2="299.9"/>
<line class="st20" x1="227.7" y1="304.8" x2="228.3" y2="310.8"/>
<line class="st20" x1="278.6" y1="214.8" x2="279.2" y2="220.8"/>
<line class="st24" x1="280.2" y1="232.1" x2="285.8" y2="293.8"/>
<line class="st20" x1="286.4" y1="299.5" x2="286.9" y2="305.4"/>
<line class="st20" x1="319.4" y1="206.6" x2="319.9" y2="212.6"/>
<line class="st25" x1="321" y1="224.4" x2="326.9" y2="289.8"/>
<line class="st20" x1="327.5" y1="295.7" x2="328" y2="301.7"/>
<ellipse transform="matrix(7.006083e-02 -0.9975 0.9975 7.006083e-02 -137.7253 310.8138)" class="st4" cx="97.8" cy="229.3" rx="5" ry="5"/>
<circle class="st4" cx="159" cy="239.8" r="5"/>
<circle class="st6" cx="222.2" cy="250.1" r="5"/>
<linearGradient id="SVGID_11_" gradientUnits="userSpaceOnUse" x1="441.1779" y1="337.5675" x2="441.1779" y2="351.5675" gradientTransform="matrix(0.9959 -9.063258e-02 -9.063258e-02 -0.9959 -129.8509 597.9957)">
	<stop  offset="0" style="stop-color:#808080;stop-opacity:0.25"/>
	<stop  offset="0.54" style="stop-color:#808080;stop-opacity:0.12"/>
	<stop  offset="1" style="stop-color:#808080;stop-opacity:0.1"/>
</linearGradient>
<circle class="st26" cx="278.3" cy="214.9" r="7"/>
<linearGradient id="SVGID_12_" gradientUnits="userSpaceOnUse" x1="483.168" y1="341.5575" x2="483.168" y2="355.5575" gradientTransform="matrix(0.9959 -9.063258e-02 -9.063258e-02 -0.9959 -129.8431 597.9894)">
	<stop  offset="0" style="stop-color:#808080;stop-opacity:0.25"/>
	<stop  offset="0.54" style="stop-color:#808080;stop-opacity:0.12"/>
	<stop  offset="1" style="stop-color:#808080;stop-opacity:0.1"/>
</linearGradient>
<circle class="st27" cx="319.7" cy="207.1" r="7"/>
<circle class="st8" cx="278.3" cy="214.9" r="5"/>
<circle class="st8" cx="319.7" cy="207.1" r="5"/>
<circle class="st6" cx="383.1" cy="219.4" r="5"/>
<g class="st7">
	
		<linearGradient id="SVGID_13_" gradientUnits="userSpaceOnUse" x1="547.9575" y1="297.58" x2="547.9575" y2="297.84" gradientTransform="matrix(1 0 0 -1 -154.5 616.52)">
		<stop  offset="0" style="stop-color:#808080;stop-opacity:0.25"/>
		<stop  offset="0.54" style="stop-color:#808080;stop-opacity:0.12"/>
		<stop  offset="1" style="stop-color:#808080;stop-opacity:0.1"/>
	</linearGradient>
	<path class="st28" d="M393.3,318.7l0.1,0.2C394.1,318.5,393.3,318.7,393.3,318.7z"/>
</g>
<g class="st7">
	
		<linearGradient id="SVGID_14_" gradientUnits="userSpaceOnUse" x1="517.6033" y1="129.7399" x2="517.6033" y2="302.5179" gradientTransform="matrix(1 0 0 -1 -154.5 616.52)">
		<stop  offset="0" style="stop-color:#808080;stop-opacity:0.25"/>
		<stop  offset="0.54" style="stop-color:#808080;stop-opacity:0.12"/>
		<stop  offset="1" style="stop-color:#808080;stop-opacity:0.1"/>
	</linearGradient>
	<path class="st29" d="M385,486.7l16.3-2.6l-2.2-10l0,0v-0.1H399l-11.5-53v-38.6c0-0.5,0-1-0.1-1.5c17.2-22.9,7-58.7,6-61.9
		c-0.2,0.1-0.5,0.2-0.8,0.4c-0.1-1.4-0.4-2.8-0.8-4.1c0,0-5-3.2-7.7,0.9c-2.4,3.6-0.6,5.8-0.1,6.3l-0.3,0.1c0.8,1.2,1.3,2.5,1.6,3.9
		c-0.2-0.3-0.3-0.7-0.5-1c-0.6-0.1-1-0.2-1-0.2l-0.1-0.1l-0.3,0.1c1.7,2.5,2.3,7,2.3,12.3c-0.6-0.8-1.3-1.6-2-2.3
		c-3.2-3-7.3-4.8-11.7-4.9h-0.8c-0.5,0-0.9,0-1.4,0.1h-0.3l-0.6,0.1l-0.7,0.1l-0.5,0.1l-0.8,0.2l-0.3,0.1c-0.3,0.1-0.7,0.2-1,0.4
		c-1.1,0.5-2.2,0.9-3.4,1.2c-0.2,0-0.3,0-0.5,0l0,0c-1.3,0.1-2.7-0.3-3.8-1.1l-0.4-0.3c-0.1-0.1-0.3-0.2-0.4-0.4
		c-0.1,0.3-0.2,0.7-0.2,1.1c0.1,0.9,0.5,1.7,1.2,2.3c0.2,0.2,0.4,0.3,0.6,0.4c0.3,0.2,0.7,0.3,1.1,0.3h0.4h-0.1
		c-0.2,0.1-0.5,0.2-0.7,0.3h0c-0.3,0.1-0.5,0.2-0.8,0.2l0,0c-1.3,0.3-2.7,0.4-4,0.1l0,0l-0.4-0.1c-0.2-0.1-0.4-0.1-0.6-0.2
		c0.1,0.2,0.1,0.3,0.2,0.4l0.1,0.1l0.2,0.3l0.1,0.1l0.2,0.2l0.1,0.1l0.2,0.2l0.1,0.1l0.4,0.3l0.1,0.1l0.3,0.2l0.2,0.1l0.2,0.1
		l0.2,0.1l0.2,0.1l0.2,0.1l0.3,0.1l0.4,0.1l0.3,0.1h0.2h0.2h0.3h1c0.5,0,1-0.2,1.5-0.4l-0.9,0.4l0,0l-0.5,0.2l-0.5,0.2l-0.5,0.1
		l-0.5,0.1l-0.5,0.1l-0.5,0.1l-0.5,0.1l-0.5,0.1l-0.4,0.1l-0.6,0.1h-0.4h-0.6h-0.3h-1c0.6,0.2,1.1,0.4,1.5,0.8
		c0.3,0.2,0.6,0.4,0.9,0.5c0.1,0,0.3,0.1,0.5,0.1h0.1h0.3h1.4h0.4c0.9,0.1,1.8,0.4,2.6,0.8c0.4,0.3,0.8,0.6,1.1,1
		c-0.1,0.2-0.3,0.5-0.4,0.7s-0.2,0.4-0.3,0.6c-0.2,0.4-0.4,0.8-0.5,1.3c-0.6,1.6-0.9,3.2-0.9,4.9c0,0.3,0,0.6,0,0.9
		c0,0.1,0,0.2,0,0.2c0,0.2,0,0.5,0.1,0.7v0.2c0,0.3,0.1,0.6,0.2,0.9v0.2c0.1,0.2,0.1,0.5,0.2,0.7l0.1,0.2c0.2,0.6,0.4,1.1,0.6,1.7
		l0.1,0.2c0.1,0.2,0.2,0.5,0.3,0.7v0.1c0.1,0.3,0.3,0.5,0.5,0.8v0.1c0.1,0.2,0.3,0.5,0.5,0.7l0.1,0.1c0.4,0.5,0.8,1,1.2,1.4l0,0
		c1.1,1.1,2.4,2.1,3.8,2.8c0,0.2-0.1,0.4-0.1,0.6l0,0c0,0.2,0,0.5,0,0.7v5.3c-0.3,0.2-0.6,0.3-0.9,0.5c-12.5-5.7-31.2-46-31.2-46
		h-0.5c1.8-1.4,0-7.3,0-7.3c-1.1-0.6-2.3-1-3.5-1.2h-1h-0.2h-0.1h-0.2h-0.1l-0.2,0.1h-0.1l-0.3,0.1l0,0l-0.3,0.1l-0.1,0l-0.2,0.1
		l-0.1,0.6l-0.2,0.1l-0.1,0.1l-0.2,0.1l-0.1,0.1l-0.2,0.2l-0.1,0.1l-0.2,0.2l-0.1,0.1l-0.2,0.3c-2.7,4.1,0,6.4,0,6.4
		c-0.2,1.6-0.3,3.2-0.2,4.8c-0.2,29.5,31.3,52.3,32.9,53.4c-0.7,1.8-6.6,18.1,0.1,38.5c0,0,0,0.1,0.1,0.1
		c-15.4,14.2-22.1,35.4-17.7,55.9l0.1,0.6h0.3c0,0.1-0.1,0.3-0.1,0.4c-0.1,0.2-0.2,0.5-0.3,0.7c-0.2,0.4-0.4,0.7-0.7,1.1l0,0
		c-0.3,0.4-0.7,0.7-1,1.1l-0.4,0.4c-1.6,1.5-3.2,3-2,3.6h17.2v-7.5h0.3c0,0-0.1-0.2-0.3-0.7v-0.1h-0.1c-0.9-2.3-3-9.5,0.4-20.6
		c4.1-13.7,20-20.5,20-20.5l0.3,1h-0.1l12.5,41c0,0.2,0,0.3,0,0.5c-0.1,0.4-0.1,0.8-0.3,1.1c-0.1,0.3-0.2,0.6-0.3,0.8
		c-0.8,1.6-2.1,3.5-2.7,4.9c-0.1,0.2-0.2,0.4-0.2,0.6c-0.1,0.2-0.1,0.5-0.1,0.7c0,0.3,0.2,0.6,0.5,0.7l0,0h0.2L385,486.7L385,486.7z
		 M380.2,370c-0.3-0.2-0.6-0.3-1-0.5v-5c0-0.4,0-0.8-0.1-1.1c1.1-0.5,2.1-1.2,3-1.9C381.5,364.5,380.8,367.4,380.2,370L380.2,370z"
		/>
</g>
<path class="st30" d="M325.9,328.6c0,0-3-2.5,0-7.1s8.6-1,8.6-1s2,6.5,0,8.1S325.9,328.6,325.9,328.6z"/>
<path id="cbb1ca8a-3a06-4d8d-9881-c3637d2b9b50" class="st31" d="M357,497.3h-13.9c0.1,1.3-0.4,2.6-1.3,3.6
	c-1.9,2.2-5.6,4.8-3.9,5.7H357V497.3z"/>
<path class="st32" d="M342.9,500.8c0.9-0.9,1.4-2.2,1.3-3.6h-1c0.1,1.3-0.4,2.6-1.3,3.6c-1.9,2.2-5.6,4.8-3.9,5.7h1
	C337.2,505.6,341,503,342.9,500.8z"/>
<path id="ec846da8-b8c9-4838-98ee-b96510078eab" class="st31" d="M406.5,494.4l-13,2.1c0.4,1.5,0.2,3.2-0.6,4.6
	c-1.4,3-4.6,6.7-2.7,7.5l18.8-3L406.5,494.4z"/>
<path class="st31" d="M400.2,322.5c0,0,14.9,46.9-10.1,72.9l-7.2-5.5c0,0,14.7-51.2,6.5-63.2C403.9,321.8,400.2,322.5,400.2,322.5z"
	/>
<path class="st30" d="M389.9,326.6c0,0-3-2.5,0-7.1s8.6-1,8.6-1s2,6.5,0,8.1S389.9,326.6,389.9,326.6z"/>
<path class="st32" d="M393.9,501.1c0.7-1.4,1-3,0.6-4.6l12-2v-0.2l-13,2.2c0.4,1.5,0.2,3.2-0.6,4.6c-1.4,3-4.6,6.7-2.7,7.5l0.8-0.1
	C389.6,507.5,392.5,503.9,393.9,501.1z"/>
<path class="st30" d="M377.5,366.2L377.5,366.2c3.9,0,7.1,3.2,7.1,7.1v6.8c0,3.9-3.2,7.1-7.1,7.1l0,0c-3.9,0-7.1-3.2-7.1-7.1v-6.8
	C370.5,369.3,373.6,366.2,377.5,366.2z"/>
<path class="st32" d="M383.9,392.8c0,0,14.6-50.6,6.6-63c-0.7-0.1-1.2-0.2-1.2-0.2l-0.1-0.1l-0.4,0.1c8.2,12-6.5,63.2-6.5,63.2
	l7.2,5.5l0.6-0.7L383.9,392.8z"/>
<circle class="st30" cx="377.8" cy="357.9" r="15.6"/>
<path class="st32" d="M372.2,380v-6.8c0-0.5,0.1-1,0.2-1.5c-7.7-3.9-10.7-13.4-6.8-21c2.5-4.9,7.5-8.1,13-8.5h-0.9
	c-8.6,0-15.6,7-15.6,15.6c0,5.9,3.3,11.2,8.5,13.9c-0.1,0.5-0.2,1-0.2,1.5v6.8c0,3.9,3.1,7,6.9,7.1c0.3,0,0.7,0,1-0.1
	C374.9,386.6,372.2,383.6,372.2,380z"/>
<path class="st31" d="M393.7,435.7c0,0-30.1,3.4-31.2,0c-7.8-23.9,0-42.8,0-42.8c0-8.6,7-15.6,15.6-15.6l0,0c8.6,0,15.6,7,15.6,15.6
	V435.7z"/>
<path class="st33" d="M393.7,435.7l13.6,62.5h-13.6l-14.1-46.4c0,0-17.6,7.6-22.2,22.7s0,23.7,0,23.7h-14.6l-0.1-0.7
	c-4.9-22.7,2.6-46.2,19.8-61.8l0,0"/>
<path class="st32" d="M364.2,435.7c-7.8-23.9,0-42.8,0-42.8c0-8.2,6.4-15.1,14.6-15.6c-0.3,0-0.7,0-1,0l0,0c-8.6,0-15.6,7-15.6,15.6
	c0,0-7.8,18.9,0,42.8c0.4,1.2,4.5,1.6,9.6,1.5C367.7,437.1,364.5,436.7,364.2,435.7z"/>
<path class="st31" d="M362.2,392.6c0,0-40.3-28.2-36.3-64h9.1c0,0,21.7,46.9,35.5,51.4S362.2,392.6,362.2,392.6z"/>
<g class="st7">
	<path class="st3" d="M379.8,452.9l13.8,45.5h2l-14.1-46.4C381.5,452.1,380.9,452.4,379.8,452.9z"/>
	<path class="st3" d="M364.4,435.9h-2c-17.2,15.6-24.7,39.1-19.8,61.8l0.1,0.7h2l-0.1-0.7C339.7,475.1,347.3,451.5,364.4,435.9z"/>
</g>
<path class="st32" d="M327.4,329.1h-1.5c-4,35.8,36.3,64,36.3,64l1-0.4C358.5,389.3,323.6,362.5,327.4,329.1z"/>
<path class="st33" d="M365.3,350.9c0.9,2,1.5,4.1,1.8,6.3c1,4.4,3.3,8.8,7.2,11c2.2,1.2,4.6,1.8,7,1.9c3.7,0.2,7.8-0.5,10.4-3.1
	c1.6-1.8,2.7-4,3.2-6.4c1.6-7.2-0.5-14.6-5.7-19.9c-5.3-5.1-13.1-6.8-20-4.2c-1.2,0.6-2.5,1.1-3.8,1.4c-2,0.3-4.1-0.4-5.5-1.8
	c-0.6,1.8,0.5,3.8,2.3,4.4c0.3,0.1,0.7,0.2,1.1,0.2c-2.3,1.1-5,1.3-7.5,0.4c1.4,3,4.9,4.4,8,3.2c-2.8,1.3-5.9,1.9-9,1.8
	c0.6,0,1.9,1.2,2.7,1.4c1,0.2,2,0.2,3,0.2C362.5,347.7,364.4,349,365.3,350.9z"/>
<g class="st7">
	<path class="st3" d="M363.2,340.5c-1.2,0.6-2.4,0.9-3.7,1c1.6,0.1,3.2-0.2,4.7-1c-1.9,0-3.5-1.6-3.6-3.5c0-0.1,0-0.2,0-0.3
		c-0.3-0.2-0.6-0.4-0.8-0.7c-0.6,1.8,0.5,3.8,2.3,4.4C362.5,340.5,362.9,340.5,363.2,340.5z"/>
	<path class="st3" d="M366.4,337.9c1.3-0.3,2.6-0.8,3.8-1.4c1.9-0.8,3.9-1.2,6-1.2c-2.4-0.1-4.8,0.3-7,1.2c-1.2,0.6-2.5,1.1-3.8,1.4
		c-0.2,0-0.4,0-0.5,0.1C365.4,338,365.9,338,366.4,337.9z"/>
	<path class="st3" d="M358.4,347.4c-0.8-0.2-2.1-1.4-2.7-1.4c3.1,0,6.2-0.6,9-1.8c-0.6,0.3-1.3,0.4-2,0.4c-2.6,1-5.3,1.5-8,1.4
		c0.6,0,1.9,1.2,2.7,1.4c0.7,0.2,1.4,0.2,2.1,0.2C359.1,347.6,358.8,347.5,358.4,347.4z"/>
	<path class="st3" d="M382.3,370.1c-2.4-0.1-4.8-0.7-7-1.9c-3.9-2.3-6.1-6.6-7.2-11c-0.3-2.2-0.9-4.3-1.8-6.3
		c-0.9-1.9-2.8-3.1-4.9-3.2c-0.5,0-1,0-1.5,0h0.5c2.1,0.1,4,1.3,4.9,3.2c0.9,2,1.5,4.1,1.8,6.3c1,4.4,3.3,8.8,7.2,11
		c2.2,1.2,4.6,1.8,7,1.9c0.6,0,1.2,0,1.8,0H382.3z"/>
	<path class="st3" d="M362.1,344.5c-2.1-0.2-4.1-1.4-5.1-3.3c-0.4-0.1-0.8-0.2-1.2-0.3C356.9,343.3,359.4,344.7,362.1,344.5z"/>
</g>
<path class="st32" d="M326.9,328.6c0,0-3-2.5,0-7.1c0.8-1.3,2.2-2.2,3.7-2.3c-1.9-0.2-3.7,0.7-4.7,2.3c-3,4.5,0,7.1,0,7.1
	c1.9,0.4,3.9,0.7,5.9,0.7C330.2,329.2,328.5,329,326.9,328.6z"/>
<g class="st7">
	
		<linearGradient id="SVGID_15_" gradientUnits="userSpaceOnUse" x1="191.311" y1="287.67" x2="191.311" y2="287.98" gradientTransform="matrix(1 0 0 -1 -154.5 616.52)">
		<stop  offset="0" style="stop-color:#808080;stop-opacity:0.25"/>
		<stop  offset="0.54" style="stop-color:#808080;stop-opacity:0.12"/>
		<stop  offset="1" style="stop-color:#808080;stop-opacity:0.1"/>
	</linearGradient>
	<path class="st34" d="M37,328.8l0.1-0.3C37.1,328.6,36,328.4,37,328.8z"/>
</g>
<g class="st7">
	
		<linearGradient id="SVGID_16_" gradientUnits="userSpaceOnUse" x1="228.2137" y1="91.17" x2="228.2137" y2="293.6322" gradientTransform="matrix(1 0 0 -1 -154.5 616.52)">
		<stop  offset="0" style="stop-color:#808080;stop-opacity:0.25"/>
		<stop  offset="0.54" style="stop-color:#808080;stop-opacity:0.12"/>
		<stop  offset="1" style="stop-color:#808080;stop-opacity:0.1"/>
	</linearGradient>
	<path class="st35" d="M131.2,345.6c-0.1-0.3-0.2-0.6-0.4-0.9c0-0.1-0.1-0.2-0.1-0.3c-0.1-0.2-0.2-0.4-0.3-0.5l-0.2-0.3
		c-0.1-0.1-0.2-0.3-0.3-0.4l-0.2-0.2c-0.1-0.1-0.2-0.2-0.4-0.3l-0.2-0.2l-0.4-0.2l-0.2-0.1l-0.5-0.2l-0.2-0.1
		c-0.2-0.1-0.4-0.1-0.6-0.2l0,0c-1.5-0.3-3-0.2-4.4,0.1c0,0-4.2,6.2-2.6,8.4l-0.5-0.2c0,0-31.1,34.7-48.7,41.2
		c-0.4-0.3-0.9-0.6-1.4-0.9v-6.5c0-0.3,0-0.5,0-0.8l0,0c0-0.3-0.1-0.5-0.1-0.8l0.1-0.1l0.5-0.3l0.8-0.5l0.5-0.3
		c0.4-0.2,0.7-0.5,1-0.8l0.4-0.3c0.2-0.2,0.5-0.4,0.7-0.6l0.4-0.4c0.3-0.3,0.5-0.6,0.8-0.9l0.3-0.3c0.2-0.3,0.5-0.6,0.7-0.9l0.3-0.4
		c0.2-0.3,0.4-0.6,0.6-0.9l0.2-0.3c0.2-0.4,0.4-0.8,0.6-1.3l0.2-0.4c0.1-0.4,0.3-0.7,0.4-1.1c0-0.1,0.1-0.2,0.1-0.4
		c0.1-0.5,0.3-0.9,0.4-1.4c0-0.1,0-0.2,0.1-0.3c0.1-0.4,0.1-0.8,0.2-1.2c0-0.1,0-0.3,0-0.4c0-0.5,0.1-1,0.1-1.5
		c0-3.9-1.3-7.7-3.8-10.7c1.3-2.1,2.2-3.3,2.2-3.3c-0.8-0.5-1.6-1-2.4-1.5l-0.8-0.5c-0.5-0.3-1-0.6-1.6-0.9l-0.9-0.5
		c-0.5-0.2-0.9-0.5-1.4-0.7l-0.9-0.4l-1.3-0.6l-0.9-0.4c-0.4-0.2-0.9-0.3-1.3-0.5l-0.8-0.3c-0.4-0.1-0.9-0.3-1.3-0.4l-0.7-0.2
		c-0.5-0.1-1-0.2-1.5-0.3l-0.5-0.1c-0.7-0.1-1.3-0.2-2-0.3l0,0c-4.1-0.4-8.2,0.2-12,1.8c0.2-4.8,1-8.7,2.7-11.2l-0.4-0.1l-0.1,0.1
		c0,0-0.5,0.1-1.3,0.2c-0.2,0.4-0.5,0.8-0.6,1.2c0.3-1.7,1-3.3,1.9-4.8l-0.4-0.1c0.6-0.6,2.7-3.2-0.1-7.5c-3.3-4.9-9.3-1.1-9.3-1.1
		c-0.5,1.6-0.8,3.3-0.9,5c-0.5-0.2-0.8-0.3-1-0.4c-2.9,10.2-4.5,20.7-4.7,31.4c-10.9,15.5-15.4,38.3-16.3,43.2l0,0l-0.1,0.4l0,0
		c-0.1,0.4-0.1,0.5-0.1,0.5l28.3,0.7c0,0.1,0,0.2,0,0.3v44.8l-20.6,43.6c0,0,7.8,0.2,19.6,1.8l-3.3,23.3l0,0l-1.1,6.5h19.6
		c2.2-4.4-8.7-6.5-8.7-6.5h-0.2l4.2-21.8c1.9,0.3,3.8,0.6,5.8,1c2.9,0.6,5.9,0.9,8.8,1l0,0c2.5,0.1,4.9,0,7.4-0.3
		c1.4,11.8-0.4,18.8-0.8,20h-0.1l-1.1,6.5h19.6c1.9-3.8-6.1-6-8.2-6.4l0.1-0.6c1-7.4,1.3-14.8,0.8-22.2c2.5-1,4.9-2.4,7-4.2l0,0
		l0.3-0.2l0,0l0.1-0.1l-14.6-41c2.7-11.6-6.8-23.8-1.7-29.9s2-13.9,1.4-15.2c13.7-6,41.5-21,49.2-47c0.6-1.8,1-3.7,1.4-5.6
		C129,352.9,132.9,351.3,131.2,345.6z"/>
</g>
<path class="st4" d="M40.1,336.5c0,0-14.9,46.9,10.1,72.9l7.2-5.5c0,0-14.7-51.2-6.5-63.2C36.3,335.8,40.1,336.5,40.1,336.5z"/>
<path class="st36" d="M50.4,340.6c0,0,3-2.5,0-7.1s-8.6-1-8.6-1s-2,6.5,0,8.1S50.4,340.6,50.4,340.6z"/>
<path class="st36" d="M62.7,401.1L62.7,401.1c-3.9,0-7.1-3.2-7.1-7.1v-6.8c0-3.9,3.2-7.1,7.1-7.1h0c3.9,0,7.1,3.2,7.1,7.1v6.8
	C69.8,397.9,66.6,401.1,62.7,401.1z"/>
<path class="st32" d="M56.3,406.8c0,0-14.6-50.6-6.6-63c0.7-0.1,1.1-0.2,1.1-0.2l0.1-0.1l0.4,0.1c-8.2,12,6.5,63.2,6.5,63.2
	l-7.2,5.5l-0.6-0.7L56.3,406.8z"/>
<circle class="st36" cx="62.5" cy="371.9" r="15.6"/>
<path class="st32" d="M68,394v-6.8c0-0.5-0.1-1-0.2-1.5c7.7-3.9,10.7-13.4,6.8-21c-2.5-4.9-7.5-8.1-13-8.5h0.9
	c8.6,0,15.6,7,15.6,15.6c0,5.9-3.3,11.2-8.5,13.9c0.1,0.5,0.2,1,0.2,1.5v6.8c0,3.9-3.1,7-6.9,7.1c-0.3,0-0.7,0-1-0.1
	C65.4,400.6,68,397.6,68,394z"/>
<path class="st4" d="M46.6,449.7c0,0,30.1,3.4,31.2,0c3.6-11-6-22.9-1.2-28.7c5-6,1.2-14.1,1.2-14.1c0-8.6-7-15.6-15.6-15.6l0,0
	c-8.6,0-15.6,7-15.6,15.6L46.6,449.7z"/>
<path class="st32" d="M76.7,421c5-6,1.2-14.1,1.2-14.1c0-8.6-7-15.6-15.6-15.6c-0.3,0-0.7,0-1,0c8.2,0.5,14.6,7.3,14.6,15.6
	c0,0,3.8,8.1-1.2,14.1c-4.8,5.8,4.8,17.7,1.2,28.7c-0.3,1-3.4,1.5-7.6,1.5c5.1,0,9.2-0.3,9.6-1.5C81.5,438.7,71.8,426.8,76.7,421z"
	/>
<path class="st36" d="M71.4,448.7L71.4,448.7c11,15.6,15.9,39.2,12.7,61.8l-0.1,0.7h-9.4c0,0,2.9-8.6,0-23.7
	c-1.8-9.1-6.9-17.1-14.2-22.7l-9.1,46.4h-8.7l8.7-62.5H71.4z"/>
<path class="st36" d="M124.4,358.8c0,0,3.6-1.5,2.1-6.8s-7.9-3.5-7.9-3.5s-3.9,5.7-2.4,7.7S124.4,358.8,124.4,358.8z"/>
<path class="st4" d="M70.9,409.4c0,0,46.8-15.2,53.4-50.6l-8.7-2.7c0,0-34.4,38.5-49,38.7S70.9,409.4,70.9,409.4z"/>
<path class="st32" d="M122.8,358.9l1.5,0.4c-6.6,35.4-53.4,50.6-53.4,50.6l-0.8-0.6C75.5,407.3,116.6,391.9,122.8,358.9z"/>
<g class="st7">
	<path class="st3" d="M58.4,464.8l-9.1,46.4h2l8.8-45C59.6,465.7,59,465.3,58.4,464.8z"/>
	<path class="st3" d="M71.4,448.7h-2c11,15.6,15.9,39.2,12.7,61.8l-0.1,0.7h2l0.1-0.7C87.3,487.9,82.4,464.3,71.4,448.7z"/>
</g>
<path class="st32" d="M123.4,358.5c0,0,3.6-1.5,2.1-6.8c-0.4-1.5-1.5-2.7-2.9-3.3c1.9,0.3,3.4,1.7,3.9,3.6c1.6,5.2-2.1,6.8-2.1,6.8
	c-2-0.2-4-0.5-5.9-1.1C120.1,358.1,121.8,358.4,123.4,358.5z"/>
<path class="st33" d="M46.6,448l-19,40c11.1,0.6,22.1,1.9,33,4c21,4,31-6,31-6L78,448H46.6z"/>
<path class="st4" d="M51.6,511c0,0,10,2,8,6h-18l1-6H51.6z"/>
<path class="st4" d="M83.6,511c0,0,10,2,8,6h-18l1-6H83.6z"/>
<path class="st37" d="M76.6,359c0,0-24,34-13,48l-43-1C20.6,406,32.6,329,76.6,359z"/>
<path class="st32" d="M76.6,359c-6.2-4.2-11.8-6.3-16.8-6.8c4.2,1.3,8.2,3.3,11.8,5.8c0,0-24,34-13,48l-37.9-0.9
	c-0.1,0.6-0.1,0.9-0.1,0.9l43,1C52.6,393,76.6,359,76.6,359z"/>
<path class="st32" d="M78.1,448h-3l13.6,38c0,0-6.5,6.5-19.9,6.9c15.5,0.5,22.9-6.9,22.9-6.9L78.1,448z"/>
<path class="st32" d="M51.6,511h-2c0,0,10,2,8,6h2C61.6,513,51.6,511,51.6,511z"/>
<path class="st32" d="M83.6,511h-2c0,0,10,2,8,6h2C93.6,513,83.6,511,83.6,511z"/>
<rect x="500.6" y="167.7" class="st1" width="383" height="14.5"/>
<linearGradient id="SVGID_17_" gradientUnits="userSpaceOnUse" x1="692" y1="51.95" x2="692" y2="547.95" gradientTransform="matrix(1 0 0 -1 0 711)">
	<stop  offset="0" style="stop-color:#808080;stop-opacity:0.25"/>
	<stop  offset="0.54" style="stop-color:#808080;stop-opacity:0.12"/>
	<stop  offset="1" style="stop-color:#808080;stop-opacity:0.1"/>
</linearGradient>
<rect x="493" y="163.1" class="st38" width="398" height="496"/>
<rect x="500.6" y="182.2" class="st3" width="383" height="459.5"/>
<circle class="st4" cx="509.5" cy="175.2" r="3.5"/>
<circle class="st5" cx="519.1" cy="175.2" r="3.5"/>
<circle class="st6" cx="528.8" cy="175.2" r="3.5"/>
<g class="st7">
	<rect x="524.6" y="202.7" class="st8" width="336" height="9"/>
</g>
<linearGradient id="SVGID_18_" gradientUnits="userSpaceOnUse" x1="595.12" y1="315.32" x2="595.12" y2="469.32" gradientTransform="matrix(1 0 0 -1 0 711)">
	<stop  offset="0" style="stop-color:#808080;stop-opacity:0.25"/>
	<stop  offset="0.54" style="stop-color:#808080;stop-opacity:0.12"/>
	<stop  offset="1" style="stop-color:#808080;stop-opacity:0.1"/>
</linearGradient>
<rect x="522.6" y="241.7" class="st39" width="145" height="154"/>
<rect x="525.6" y="246.7" class="st3" width="139" height="144"/>
<linearGradient id="SVGID_19_" gradientUnits="userSpaceOnUse" x1="788.12" y1="238.32" x2="788.12" y2="392.32" gradientTransform="matrix(1 0 0 -1 0 711)">
	<stop  offset="0" style="stop-color:#808080;stop-opacity:0.25"/>
	<stop  offset="0.54" style="stop-color:#808080;stop-opacity:0.12"/>
	<stop  offset="1" style="stop-color:#808080;stop-opacity:0.1"/>
</linearGradient>
<rect x="715.6" y="318.7" class="st40" width="145" height="154"/>
<rect x="718.6" y="323.7" class="st3" width="139" height="144"/>
<linearGradient id="SVGID_20_" gradientUnits="userSpaceOnUse" x1="696.12" y1="96.32" x2="696.12" y2="202.32" gradientTransform="matrix(1 0 0 -1 0 711)">
	<stop  offset="0" style="stop-color:#808080;stop-opacity:0.25"/>
	<stop  offset="0.54" style="stop-color:#808080;stop-opacity:0.12"/>
	<stop  offset="1" style="stop-color:#808080;stop-opacity:0.1"/>
</linearGradient>
<rect x="525.6" y="508.7" class="st41" width="341" height="106"/>
<rect x="532.6" y="515.7" class="st9" width="328" height="95"/>
<polygon class="st18" points="540.6,524.7 860.6,524.7 860.6,515.7 532.6,515.7 532.6,610.7 540.6,610.7 "/>
<linearGradient id="SVGID_21_" gradientUnits="userSpaceOnUse" x1="749.0895" y1="235.8538" x2="749.0895" y2="359.856" gradientTransform="matrix(1 0 0 -1 -154.5 616.52)">
	<stop  offset="0" style="stop-color:#808080;stop-opacity:0.25"/>
	<stop  offset="0.54" style="stop-color:#808080;stop-opacity:0.12"/>
	<stop  offset="1" style="stop-color:#808080;stop-opacity:0.1"/>
</linearGradient>
<path class="st42" d="M641.6,278.2c-22.3-26-61.5-28.9-87.4-6.6c-26,22.3-28.9,61.5-6.6,87.4c22.3,26,61.5,28.9,87.4,6.6
	c13.7-11.8,21.6-28.9,21.6-47C656.6,303.8,651.3,289.5,641.6,278.2z M616.6,355.7c-20.4,12.1-46.8,5.4-58.9-15.1
	c-12.1-20.4-5.4-46.8,15.1-58.9s46.8-5.4,58.9,15.1c3.9,6.6,6,14.2,6,21.9C637.7,333.9,629.7,348,616.6,355.7L616.6,355.7z"/>
<path class="st4" d="M625.7,291.9l13.7-11.8c-11.2-13-27.5-20.5-44.7-20.5v18C606.6,277.7,617.9,282.9,625.7,291.9z"/>
<path class="st6" d="M594.6,359.7c-5.8,0-11.6-1.2-16.9-3.7l-7.4,16.4c17.6,8,37.9,6.8,54.5-3l-9.2-15.5
	C609.2,357.7,602,359.7,594.6,359.7z"/>
<path class="st4" d="M653.6,318.7c0-14.1-5.1-27.8-14.3-38.5l-13.7,11.8c14.8,17.1,12.9,42.9-4.2,57.7c-1.8,1.6-3.8,3-5.9,4.3
	l9.2,15.5C642.7,358.8,653.6,339.5,653.6,318.7z"/>
<path class="st8" d="M553.6,318.7c0-22.6,18.4-41,41-41l0,0v-18c-32.6,0-59,26.4-59,59c0,23.2,13.6,44.2,34.6,53.7l7.4-16.4
	C563,349.4,553.6,334.8,553.6,318.7z"/>
<linearGradient id="SVGID_22_" gradientUnits="userSpaceOnUse" x1="790.62" y1="348.32" x2="790.62" y2="366.32" gradientTransform="matrix(1 0 0 -1 0 711)">
	<stop  offset="0" style="stop-color:#808080;stop-opacity:0.25"/>
	<stop  offset="0.54" style="stop-color:#808080;stop-opacity:0.12"/>
	<stop  offset="1" style="stop-color:#808080;stop-opacity:0.1"/>
</linearGradient>
<rect x="737.6" y="344.7" class="st43" width="106" height="18"/>
<rect x="738.6" y="345.7" class="st8" width="104" height="16"/>
<rect x="738.6" y="372.7" class="st4" width="76" height="16"/>
<rect x="738.6" y="399.7" class="st6" width="52" height="16"/>
<rect x="738.6" y="426.7" class="st4" width="94" height="16"/>
<rect x="525.6" y="419.7" class="st1" width="149" height="9"/>
<rect x="525.6" y="434.7" class="st1" width="84" height="9"/>
<rect x="624.6" y="434.7" class="st1" width="29" height="9"/>
<rect x="624.6" y="467.7" class="st1" width="29" height="9"/>
<rect x="525.6" y="464.7" class="st1" width="84" height="9"/>
<rect x="525.6" y="449.7" class="st1" width="149" height="9"/>
<rect x="713.6" y="242.7" class="st1" width="149" height="9"/>
<rect x="713.6" y="257.7" class="st1" width="84" height="9"/>
<rect x="812.6" y="257.7" class="st1" width="29" height="9"/>
<rect x="812.6" y="290.7" class="st1" width="29" height="9"/>
<rect x="713.6" y="287.7" class="st1" width="84" height="9"/>
<rect x="713.6" y="272.7" class="st1" width="149" height="9"/>
<linearGradient id="SVGID_23_" gradientUnits="userSpaceOnUse" x1="760.62" y1="11.32" x2="760.62" y2="33.32" gradientTransform="matrix(1 0 0 -1 0 711)">
	<stop  offset="0" style="stop-color:#808080;stop-opacity:0.25"/>
	<stop  offset="0.54" style="stop-color:#808080;stop-opacity:0.12"/>
	<stop  offset="1" style="stop-color:#808080;stop-opacity:0.1"/>
</linearGradient>
<circle class="st44" cx="760.6" cy="688.7" r="11"/>
<circle class="st4" cx="760.6" cy="688.7" r="8"/>
<linearGradient id="SVGID_24_" gradientUnits="userSpaceOnUse" x1="607.62" y1="23.32" x2="607.62" y2="144.32" gradientTransform="matrix(1 0 0 -1 0 711)">
	<stop  offset="0" style="stop-color:#808080;stop-opacity:0.25"/>
	<stop  offset="0.54" style="stop-color:#808080;stop-opacity:0.12"/>
	<stop  offset="1" style="stop-color:#808080;stop-opacity:0.1"/>
</linearGradient>
<rect x="435.6" y="566.7" class="st45" width="344" height="121"/>
<rect x="445.6" y="571.7" class="st3" width="328" height="95"/>
<line class="st46" x1="456.6" y1="648.7" x2="760.6" y2="648.7"/>
<linearGradient id="SVGID_25_" gradientUnits="userSpaceOnUse" x1="482.12" y1="65.32" x2="482.12" y2="120.32" gradientTransform="matrix(1 0 0 -1 0 711)">
	<stop  offset="0" style="stop-color:#808080;stop-opacity:0.25"/>
	<stop  offset="0.54" style="stop-color:#808080;stop-opacity:0.12"/>
	<stop  offset="1" style="stop-color:#808080;stop-opacity:0.1"/>
</linearGradient>
<rect x="459.6" y="590.7" class="st47" width="45" height="55"/>
<rect x="462.1" y="593.2" class="st8" width="40" height="51"/>
<rect x="712.6" y="629.7" class="st6" width="40" height="16"/>
<rect x="637.6" y="608.7" class="st4" width="40" height="36"/>
<rect x="549.6" y="614.7" class="st4" width="40" height="30"/>
<rect x="445.6" y="666.7" class="st4" width="328" height="14"/>
<linearGradient id="SVGID_26_" gradientUnits="userSpaceOnUse" x1="459.62" y1="11.32" x2="459.62" y2="33.32" gradientTransform="matrix(1 0 0 -1 0 711)">
	<stop  offset="0" style="stop-color:#808080;stop-opacity:0.25"/>
	<stop  offset="0.54" style="stop-color:#808080;stop-opacity:0.12"/>
	<stop  offset="1" style="stop-color:#808080;stop-opacity:0.1"/>
</linearGradient>
<circle class="st48" cx="459.6" cy="688.7" r="11"/>
<circle class="st4" cx="459.6" cy="688.7" r="8"/>
<rect x="437.6" y="575.7" class="st4" width="8" height="105"/>
<rect x="437.6" y="575.7" class="st49" width="8" height="105"/>
<linearGradient id="SVGID_27_" gradientUnits="userSpaceOnUse" x1="486.33" y1="2.185" x2="600.65" y2="2.185" gradientTransform="matrix(1 0 0 -1 -154.5 616.52)">
	<stop  offset="0" style="stop-color:#808080;stop-opacity:0.25"/>
	<stop  offset="0.54" style="stop-color:#808080;stop-opacity:0.12"/>
	<stop  offset="1" style="stop-color:#808080;stop-opacity:0.1"/>
</linearGradient>
<path class="st50" d="M446.2,586.8c0-0.1,0-0.2,0-0.3s0-0.3,0-0.5s0-0.2-0.1-0.3s-0.1-0.3-0.1-0.4s-0.1-0.2-0.1-0.3
	s-0.1-0.3-0.2-0.4l-0.1-0.2c-0.1-0.1-0.2-0.3-0.3-0.4l-0.1-0.2c-0.1-0.2-0.3-0.4-0.4-0.5l0,0l0,0c-0.8-0.9-1.7-1.5-2.8-2.1
	c0.8-0.9,1.4-1.9,1.8-3.1c0.1-0.3,0.2-0.6,0.2-0.9c0-0.1,0-0.2,0-0.3c0-0.2,0-0.4,0-0.6c0-0.1,0-0.2,0-0.3s0-0.3,0-0.5
	s0-0.2-0.1-0.3s-0.1-0.3-0.1-0.4s-0.1-0.2-0.1-0.3s-0.1-0.3-0.2-0.4l-0.1-0.2c-0.1-0.1-0.2-0.3-0.3-0.4l-0.1-0.2
	c-0.1-0.2-0.3-0.4-0.4-0.5l0,0l0,0c-1-1-2.2-1.9-3.5-2.4c0,0-6.3,2.3-6.8,4.9c-4.7,1-31.8,6.7-50.5,6.2l-0.1-0.4
	c0-6.1-3.4-11.8-8.8-14.7V560c0-0.3,0-0.5,0-0.8l0,0c0-0.3-0.1-0.5-0.1-0.8l0.1-0.1l0.5-0.3l0.7-0.5l0.5-0.3c0.3-0.2,0.7-0.5,1-0.8
	l0.4-0.3c0.2-0.2,0.5-0.4,0.7-0.6l0.4-0.4c0.3-0.3,0.5-0.6,0.8-0.9l0.3-0.3c0.2-0.3,0.5-0.6,0.7-0.9l0.3-0.4
	c0.2-0.3,0.4-0.6,0.6-0.9l0.2-0.3c0.2-0.4,0.4-0.8,0.6-1.2l0.2-0.4c0.1-0.3,0.3-0.7,0.4-1l0.1-0.4c0.1-0.5,0.3-0.9,0.4-1.4
	c0-0.1,0-0.2,0-0.3c0.1-0.4,0.1-0.8,0.2-1.2c0-0.1,0-0.3,0-0.4c0-0.5,0.1-1,0.1-1.5c0-2.8-0.7-5.6-2.1-8.1c1.1-0.3,1.7-0.5,1.6-0.6
	c-0.4-0.5-0.8-1.1-1.2-1.6l-0.4-0.5c-0.3-0.3-0.6-0.7-0.9-1l-0.5-0.5c-0.3-0.3-0.6-0.6-0.9-0.8l-0.5-0.4c-0.4-0.3-0.8-0.6-1.1-0.9
	l-0.2-0.2c-0.5-0.3-0.9-0.7-1.4-1l-0.5-0.3c-0.3-0.2-0.6-0.4-0.9-0.5L372,527l-0.9-0.4l-0.6-0.3c-0.3-0.1-0.6-0.2-0.9-0.3l-0.6-0.2
	c-0.5-0.2-0.9-0.3-1.4-0.4l-0.7-0.2l-0.8-0.2l-0.8-0.1l-0.7-0.1l-0.8-0.1h-0.7h-0.8c-0.4,0-0.9,0-1.3,0.1l0,0
	c-10.2,0.8-19.2,9.8-19.2,24v11.7h16v5.3c-5.9,2.7-9.6,8.6-9.6,15v45.5l-13.6,62.4h-0.2l-2.7,11.9l19.2,3.1l0,0l0.8,0.1
	c2-0.9-1.4-4.9-2.9-8c-0.2-0.3-0.3-0.7-0.4-1c-0.2-0.6-0.3-1.3-0.4-1.9l14.7-48.3h-0.1l0.3-1.1c0,0,18.7,8,23.6,24.1
	c3.9,13,1.5,21.5,0.4,24.2h-0.1v0.2c-0.2,0.5-0.4,0.8-0.4,0.8h0.4v8.8h20.3c1.9-1-2.1-3.7-4.1-6c-0.7-0.7-1.1-1.6-1.3-2.5h0.3
	l0.2-0.7c5.2-24.1-2.8-49.1-20.9-65.8c0-0.1,0.1-0.1,0.1-0.2c1.9-5.9,3.1-11.9,3.5-18.1c15.5,1.5,36.1,0.4,51.5-11.5
	c1.5-1.1,2.9-2.3,4.2-3.6c1.3-0.1,3.7-0.8,5-4.6c0.1-0.3,0.2-0.6,0.2-0.9c0-0.1,0-0.2,0-0.3C446.1,587.3,446.1,587.1,446.2,586.8z"
	/>
<path class="st8" d="M365,604.5c0,0,46.9,14.9,72.9-10l-5.5-7.2c0,0-50.4,11.2-62.4,3S365,604.5,365,604.5z"/>
<path class="st32" d="M436.5,593.5l0.9,1.2c-26,24.9-72.9,10-72.9,10s-0.1-0.4-0.3-1C369.9,605.4,412.3,616.8,436.5,593.5z"/>
<path class="st51" d="M436.9,594.5c0,0,3.8,0.9,5.6-4.3s-4.4-7.4-4.4-7.4s-6.4,2.4-6.4,4.9S436.9,594.5,436.9,594.5z"/>
<path class="st32" d="M436.3,593.6c0,0,3.8,0.9,5.6-4.3c0.6-1.4,0.4-3.1-0.5-4.4c1.3,1.4,1.7,3.4,1.1,5.2c-1.8,5.2-5.6,4.3-5.6,4.3
	c-1.5-1.3-2.9-2.7-4.1-4.3C433.8,591.4,435,592.6,436.3,593.6z"/>
<path id="_x34_635430b-7803-4f1f-9770-b56b2b482545" class="st8" d="M387.2,687.3h13.9c-0.1,1.3,0.4,2.6,1.3,3.6
	c1.9,2.2,5.6,4.8,3.9,5.7h-19.1V687.3z"/>
<path class="st32" d="M401.4,690.8c-0.9-0.9-1.4-2.2-1.3-3.6h1c-0.1,1.3,0.4,2.6,1.3,3.6c1.9,2.2,5.6,4.8,3.9,5.7h-1
	C407,695.6,403.3,693,401.4,690.8z"/>
<path id="a892faa3-7b18-4010-9d55-72c2aac7ddb8" class="st8" d="M337.7,684.4l13,2.1c-0.4,1.5-0.2,3.2,0.6,4.6
	c1.4,3,4.6,6.7,2.7,7.5l-18.8-3L337.7,684.4z"/>
<path class="st32" d="M350.3,691.1c-0.7-1.4-0.9-3-0.6-4.6l-12-2v-0.2l13,2.1c-0.4,1.5-0.2,3.2,0.6,4.6c1.4,3,4.6,6.7,2.7,7.5
	l-0.8-0.1C354.7,697.5,351.7,693.9,350.3,691.1z"/>
<path class="st51" d="M366.7,577.1L366.7,577.1c-3.9,0-7.1-3.2-7.1-7.1v-6.8c0-3.9,3.2-7.1,7.1-7.1l0,0c3.9,0,7.1,3.2,7.1,7.1v6.8
	C373.8,573.9,370.6,577.1,366.7,577.1z"/>
<circle class="st51" cx="366.5" cy="547.8" r="15.6"/>
<path class="st32" d="M372,570v-6.8c0-0.5-0.1-1-0.2-1.5c7.7-3.9,10.7-13.4,6.8-21c-2.5-4.9-7.5-8.1-13-8.5h0.9
	c8.6,0,15.6,7,15.6,15.6c0,5.9-3.3,11.2-8.5,13.9c0.1,0.5,0.2,1,0.2,1.5v6.8c0,3.9-3.1,7-6.9,7.1c-0.3,0-0.7,0-1-0.1
	C369.4,576.6,372,573.6,372,570z"/>
<path class="st8" d="M350.6,625.7c0,0,30.1,3.4,31.2,0c7.8-23.9,0-42.8,0-42.8c0-8.6-7-15.6-15.6-15.6l0,0c-8.6,0-15.6,7-15.6,15.6
	L350.6,625.7z"/>
<path class="st33" d="M350.6,625.7L337,688.2h13.6l14.1-46.4c0,0,17.6,7.6,22.2,22.7s0,23.7,0,23.7h14.6l0.2-0.7
	c4.9-22.7-2.6-46.2-19.8-61.8l0,0"/>
<path class="st32" d="M380.1,625.7c7.8-23.9,0-42.8,0-42.8c0-8.2-6.4-15.1-14.6-15.6c0.3,0,0.7,0,1,0l0,0c8.6,0,15.6,7,15.6,15.6
	c0,0,7.8,18.9,0,42.8c-0.4,1.2-4.5,1.6-9.6,1.5C376.6,627.2,379.7,626.8,380.1,625.7z"/>
<g class="st7">
	<path class="st3" d="M364.4,642.9l-13.9,45.5h-2l14.1-46.4C362.7,642.1,363.3,642.4,364.4,642.9z"/>
	<path class="st3" d="M379.8,626h2c17.2,15.6,24.7,39.1,19.8,61.8l-0.2,0.7h-2l0.2-0.7C404.5,665.1,397,641.5,379.8,626z"/>
</g>
<path class="st8" d="M363,594.5c0,0,46.9,14.9,72.9-10l-5.5-7.2c0,0-50.4,11.2-62.4,3S363,594.5,363,594.5z"/>
<path class="st32" d="M434.5,583.5l0.9,1.2c-26,24.9-72.9,10-72.9,10s-0.1-0.4-0.3-1C367.9,595.4,410.3,606.8,434.5,583.5z"/>
<path class="st51" d="M434.9,584.5c0,0,3.8,0.9,5.6-4.3s-4.4-7.4-4.4-7.4s-6.4,2.4-6.4,4.9S434.9,584.5,434.9,584.5z"/>
<path class="st32" d="M434.3,583.6c0,0,3.8,0.9,5.6-4.3c0.6-1.4,0.4-3.1-0.5-4.4c1.3,1.4,1.7,3.4,1.1,5.2c-1.8,5.2-5.6,4.3-5.6,4.3
	c-1.5-1.3-2.9-2.7-4.1-4.3C431.8,581.4,433,582.6,434.3,583.6z"/>
<path class="st33" d="M367.6,542.7l-1,21h-22v-11.2c0-22.4,23.7-30.9,37-12.9C382,540.1,367.6,542.7,367.6,542.7z"/>
<path class="st32" d="M362.7,530c5.6,0.5,11.4,3.5,15.9,9.7c0.3,0.4-14,3-14,3l-1,21h3l1-21c0,0,14.3-2.6,14-3
	C376.2,532.4,369.2,529.5,362.7,530z"/>
</svg>
