<?xml version="1.0" encoding="utf-8"?>
<!-- Generator: Adobe Illustrator 24.2.1, SVG Export Plug-In . SVG Version: 6.00 Build 0)  -->
<svg version="1.1" id="f885adbf-893a-4cbc-9f2f-51541a368feb"
	 xmlns="http://www.w3.org/2000/svg" xmlns:xlink="http://www.w3.org/1999/xlink" x="0px" y="0px" viewBox="0 0 1090.8 795.1"
	 style="enable-background:new 0 0 1090.8 795.1;" xml:space="preserve">
<style type="text/css">
	.st0{fill:#FE9930;}
	.st1{fill:#333366;}
	.st2{fill:none;stroke:#333366;stroke-miterlimit:10;}
	.st3{fill:none;stroke:#333366;stroke-width:0.75;stroke-miterlimit:10;}
	.st4{fill:none;stroke:#444053;stroke-width:0.75;stroke-miterlimit:10;}
	.st5{fill:#E8EAF2;}
	.st6{fill:#041147;}
	.st7{fill:url(#SVGID_1_);}
	.st8{fill:#1A2D6B;}
	.st9{opacity:5.000000e-02;enable-background:new    ;}
	.st10{opacity:0.1;enable-background:new    ;}
	.st11{fill:#EFCA7F;}
	.st12{fill:#E3E8F4;}
	.st13{fill:#EE8E9E;}
	.st14{fill:#E6E8EC;}
	.st15{fill:#3F3D56;}
	.st16{fill:#565387;}
	.st17{opacity:0.1;}
	.st18{fill:#BDC6E5;}
	.st19{fill:#D3D9EA;}
	.st20{fill:#FFFFFF;}
	.st21{fill:#DFE3EF;}
	.st22{fill:#86AAEA;}
	.st23{fill:#A7BCEA;}
</style>
<path class="st0" d="M1090.8,241.4c0,0-15.2-6.2-63.7,16s-54.5,19.4-67,16s-19.5-4.2-33-22.8c0,0-9.5-51.4-18.7-59.4
	s-48.2,4.5-48.2,4.5s-46.8,10.7-55.7-51.7c0,0,6.3-47.1-2.3-61.6c0,0,17.4,7.5,46.1-4.6s51.7,13,51.7,13s7.2,18.7,6.5,29.9
	s3.8,15.4,17.5,10c0,0,6.7-9.6-2.8-25.4s-16.3-27.6-13.7-39.8s10.3-29.3,34.8-37.8s57.9-10.2,73.9-16.8s19.9-11,19.9-11
	s-9.8,9.9,13.3,51.7s8.4,60,8.4,60s-12.3,29.4-66.8,27c0,0-52.5,1.9-23.9,24.2c0,0,18.3-3.7,45.7-12.4s47.2,27.2,52.1,52.2
	S1090.8,241.4,1090.8,241.4z"/>
<path class="st1" d="M1020.2,31.7l0.3-0.1c2.1,8-21.3,40-41.4,65.5l-0.2-0.2C1007.1,61,1021.8,37.8,1020.2,31.7z"/>
<path class="st1" d="M979.3,96.5l0.1,0.3c-16,20.4-36.2,44.7-52.3,62.7c-1.5,1.7-3.1,3.5-4.5,5.4l-0.5-0.4c1.5-1.9,3-3.7,4.5-5.4
	C942.8,141.1,963.3,116.8,979.3,96.5z"/>
<path class="st1" d="M922.5,164l0.3,0.5c-29.3,36.6-31.3,93.5-31.3,94l-6.2-7.1C885.4,250.9,893,200.8,922.5,164z"/>
<path class="st2" d="M1056.7,221.5c0,0-34.6-18-61.6-11.5s-87.7-22.8-87.7-22.8s-25.8-10.5-31-22.4c0,0-17.7-18.7-18.7-28.4
	s-18.2-34-29.5-34.9"/>
<path class="st2" d="M1051.7,238.9c0,0-17.4-11.7-15.4-25.4"/>
<path class="st2" d="M1025,254c0,0-24.9-9-27.4-44.5"/>
<path class="st2" d="M984.8,263.2c0,0-23.8-19.8-15.9-54.3"/>
<path class="st2" d="M936.5,253.5c0,0-15.9-33.2-1.8-54.9"/>
<path class="st2" d="M1057.1,199.6c0,0-18,5.7-14.2,15.2"/>
<path class="st2" d="M1035.4,166.9c0,0-24.1,7.6-24.7,41.8"/>
<path class="st2" d="M1001.8,159c0,0-21.9,27.1-20.3,51.7"/>
<path class="st2" d="M963.4,169.7c0,0-21.8,20.8-19,32.4"/>
<path class="st2" d="M950.2,162.3c0,0-20.4,3.7-23.3-3"/>
<path class="st2" d="M923.6,137.6c0,0,10.3,13.7,13,10.6"/>
<path class="st2" d="M1026,129c0,0-51.5,3.7-63.2-11.8"/>
<path class="st2" d="M912.8,68.7c0,0,24.2,51.9,41.7,58.5"/>
<path class="st2" d="M938.1,44c0,0,14.8,47.7,33.2,62.6"/>
<path class="st3" d="M1047.7,89.5c0,0-39.2,16.8-62.7-0.2"/>
<path class="st3" d="M973.1,33.8c0,0,8.9,35.1,21,43.6"/>
<path class="st4" d="M1041.8,50.3c0,0-22,8.3-30.2,2"/>
<path class="st2" d="M904.8,149.1c0,0-0.1,30.6-8.3,32.8"/>
<path class="st2" d="M836.7,188.7c0,0,33.1,2.8,48.3-14.2"/>
<path class="st2" d="M896.2,113c0,0-8,31-30.1,39.4"/>
<path class="st2" d="M816.8,156c0,0,23.4,8.1,43.5-12.6"/>
<path class="st2" d="M870.2,86.3c0,0-2.2,26.4-16.5,38.7"/>
<path class="st2" d="M817.7,115.9c0,0,19.4,0.1,24-6.2"/>
<path class="st0" d="M187.9,742.6c0,0,13.3-8.8,26.5-2.5c0,0-4.1,7.8-20.8,7.1L187.9,742.6z"/>
<path class="st0" d="M186.3,743.1c0,0-4,15.5,6.1,25.9c0,0,6.1-6.4,0.1-21.9L186.3,743.1z"/>
<path class="st0" d="M169.7,728.3c0,0,1-13.1,30.6-8.8c0,0,0.1,8.5-10.3,12.5S174.9,732.6,169.7,728.3z"/>
<path class="st0" d="M167.9,728.2c0,0-12.5,4-1.4,31.8c0,0,8.3-1.8,9.7-12.9S173.3,732.2,167.9,728.2z"/>
<path class="st0" d="M151.1,709.5c0,0-1.7-21.6,28.6-19.4c0,0,2.1,19.5-23.2,24.5L151.1,709.5z"/>
<path class="st0" d="M131.1,685.2c0,0,4.1-24.5,34.4-17.2c0,0,0.1,21.1-29.5,23L131.1,685.2z"/>
<path class="st0" d="M116.5,660c0,0,7-23.9,36.9-16.7c0,0-7.1,21.4-34.9,21.1L116.5,660z"/>
<path class="st0" d="M102.6,635.4c0,0,6.8-24.7,35.7-17.3c0,0-9.7,23.5-33.8,21.5L102.6,635.4z"/>
<path class="st0" d="M93.7,612.1c0,0,5.2-30.2,32.2-23.5c0,0-7.8,27.5-30.2,27.9L93.7,612.1z"/>
<path class="st0" d="M85.3,583.8c0,0,6.3-30.5,33.5-21.6c0,0-10.7,28.8-31.6,25.8L85.3,583.8z"/>
<path class="st0" d="M80.1,557.5c0,0,9.9-30.5,31.1-29.7c0,0-10.2,32.2-29.3,35.8L80.1,557.5z"/>
<path class="st0" d="M76.8,531.9c0,0,10.8-36.7,28-33.8c0,0-7.5,28-27.4,39.6L76.8,531.9z"/>
<path class="st0" d="M74.9,501.3c0,0,10.2-30.6,27.1-31.8c0,0-6.9,30.1-26.7,39.7L74.9,501.3z"/>
<path class="st0" d="M72.8,472.8c0,0,12.7-30.6,23.9-31.3c0,0-5.5,30.1-22.7,36.3L72.8,472.8z"/>
<path class="st0" d="M71.4,446.2c0,0,7.8-33.2,19-36c0,0-1.5,27.2-17.9,38.5L71.4,446.2z"/>
<path class="st0" d="M67.2,411.5c0,0,8.2-26.5,17.2-30.5c0,0-1.8,31.2-15.1,37L67.2,411.5z"/>
<path class="st0" d="M63.7,388.7L62.1,342c0,0,16.9,35.3,2.9,55L63.7,388.7z"/>
<path class="st0" d="M50.6,342.3c0,0-12.2-34.1-15.1-36c0,0,23.9,22.1,21.6,50.6L50.6,342.3z"/>
<path class="st0" d="M150.3,709.4c0,0-21.5-2.8-20.8,27.5c0,0,19.4,3.2,25.7-21.9L150.3,709.4z"/>
<path class="st0" d="M130.1,684.4c0,0-24.8-0.1-22.8,31c0,0,20.8,3.7,27.7-25.1L130.1,684.4z"/>
<path class="st0" d="M116.2,662c0,0-22.5-10.5-36.9,16.7c0,0,20.8,8.8,38.9-12.3L116.2,662z"/>
<path class="st0" d="M102.1,635.7c0,0-23.1-11.2-36.6,15.4c0,0,24,8.3,38.5-11.2L102.1,635.7z"/>
<path class="st0" d="M93.9,612.7c0,0-22.2-21.2-39.9,0.2c0,0,22.7,17.4,40.9,4.5L93.9,612.7z"/>
<path class="st0" d="M86.5,583.1c0,0-22.3-21.7-39.9,1c0,0,25.1,17.8,40.7,3.5L86.5,583.1z"/>
<path class="st0" d="M82.4,556.7c0,0-17.2-27-37.4-21c0,0,17.8,28.7,37.3,27.4L82.4,556.7z"/>
<path class="st0" d="M77.3,531.8c0,0-17.4-34.1-33.7-28.2c0,0,12.5,26.2,34.2,33.9L77.3,531.8z"/>
<path class="st0" d="M76.1,499.5c0,0-17.8-26.8-34.5-23.6c0,0,14.6,27.2,36.2,31.3L76.1,499.5z"/>
<path class="st0" d="M74.7,472.2c0,0-13.8-30.1-25-30.4c0,0,6.6,29.9,24.1,35.4L74.7,472.2z"/>
<path class="st0" d="M72,445.6c0,0-15.4-30.5-26.9-30.5c0,0,7.9,26.1,26.4,33.2L72,445.6z"/>
<path class="st0" d="M69.7,413.4c0,0-11.5-25.2-21-28.1c0,0,5.7,30.8,19.7,34.8L69.7,413.4z"/>
<path class="st0" d="M62.4,387.8l-25.7-39.1c0,0,6.6,38.5,29.4,46.5L62.4,387.8z"/>
<path class="st0" d="M44.8,345.4c0,0-29.8-20.6-30.9-23.9c0,0,15.2,28.8,43.3,33.9L44.8,345.4z"/>
<path class="st0" d="M43,336.1c0,0-34.2-32.9-43-32.9c0,0,28.2,1.3,43.8,31.1L43,336.1z"/>
<path class="st1" d="M69.4,418.3l-1.2,0.2c-6.4-50.4-15.8-80.1-26.4-83.8l0.4-1.2C53.4,337.4,62.8,366.7,69.4,418.3z"/>
<path class="st1" d="M78.8,538.6l-1.9,0.2c-0.4-4.7-0.7-9.5-0.9-14.3c-1.8-41.7-4.6-79.9-8.2-108.6l1.1-1.3
	c3.7,28.7,7.2,68.2,9,109.9C78.1,529.2,78.4,534,78.8,538.6z"/>
<path class="st1" d="M223.1,766.5c-0.3-0.2-33.5-15-67.9-50.3c-20.2-20.7-36.9-44.4-49.7-70.3C89.6,613.5,79.9,573.7,76.6,535l2,0.9
	c7.3,86.8,46.8,146.2,78.3,178.5c34.1,35,66.9,49.7,67.2,49.8L223.1,766.5z"/>
<path class="st5" d="M1000.6,133.3v604.8c0,18-17.3,32.6-38.8,32.6H141.2c-21.4,0-38.8-14.6-38.8-32.6V133.3
	c0-18,17.4-36.4,38.8-36.4l820.6,2C983.2,98.9,1000.6,115.3,1000.6,133.3z"/>
<path class="st6" d="M1000.6,133.5v28H102.5v-28c0-20.2,16.4-36.6,36.6-36.6l0,0h825C984.2,96.9,1000.6,113.2,1000.6,133.5
	C1000.6,133.4,1000.6,133.4,1000.6,133.5z"/>
<circle class="st0" cx="146" cy="129.2" r="12.9"/>
<circle class="st0" cx="183.6" cy="129.2" r="12.9"/>
<circle class="st0" cx="221.2" cy="129.2" r="12.9"/>
<linearGradient id="SVGID_1_" gradientUnits="userSpaceOnUse" x1="946.6898" y1="-612.7896" x2="946.6898" y2="-401.5247" gradientTransform="matrix(1 0 0 -1 -54.62 181.54)">
	<stop  offset="0" style="stop-color:#808080;stop-opacity:0.25"/>
	<stop  offset="0.54" style="stop-color:#808080;stop-opacity:0.12"/>
	<stop  offset="1" style="stop-color:#808080;stop-opacity:0.1"/>
</linearGradient>
<path class="st7" d="M980.7,758.2l-21.8-31.6c0,0-0.4-7.8-1.8-9.7s-0.3-5.9-0.3-5.9s1.5-2.2,0.2-2.4s-0.2-5.2-0.2-5.2l-0.1-7.9
	c0,0,1.2-7.6,0.2-9.5c-0.6-1-0.6-2.3,0.1-3.2c0,0,1.2-4.4,0-5.5s-0.9-7.9-0.6-13.3s-2.1-8.4-2.1-9.3s-8.1-8.8-8.1-9.5
	s-5.1-3.7-8.2-4.5s-4.6-1.4-4.5-1.8s-4.8-2-4.8-2s-4.3-0.3-5.9-2.4s-6.6-2.8-6.8-2.8s-0.1-0.3-0.1-0.4l-0.1-0.5
	c0.4-0.6,0.7-1.3,1.1-2l0.3-0.6c1.8,0,3.5-0.5,5-1.6c1.5-1.2,2.3-3,2.4-4.9c0.1-1.9-0.3-3.7-1.2-5.4c-0.9-1.8-2.2-3.7-1.8-5.7
	c0.2-0.9,0.7-1.6,1-2.5c0.4-1.6,0.1-3.4-0.7-4.8c-0.8-1.5-1.8-2.8-2.7-4.2c-1.1-1.8-1.8-3.9-2.2-6c-0.1-1.1-0.3-2.2-0.8-3.2
	c-0.5-0.7-1.1-1.3-1.8-1.8c-3.2-2.3-7.1-3.5-11-3.3c-2.8,0.1-5.5,0.8-8.3,0.5c-1.6-0.3-3.3-0.7-4.8-1.3c-3.4-1-7.4-1.4-10.3,0.5
	s-4.2,5.8-6.2,8.8c-1.8,2.7-4.4,4.9-5.8,7.7c0,0,0-0.1,0-0.2c-0.3,0.7-0.6,1.3-0.8,2.1c-0.4,2.3-0.2,4.6,0.5,6.7
	c0.2,1.2,0.7,2.2,1.7,3c1,0.6,2.4,0.5,3.6,0.7c0,0.2-0.1,0.4-0.1,0.6c-2.5,11.9,4.5,23.7,16.2,27.2c0,0.2,0,0.4,0,0.6
	c0,0.6,0,1.2-0.1,1.8l0,0c0,0-10.2-2.1-13-0.7s-8.2,2.5-9,3.4s-2.9,0.2-4.7,5s-2,9.7-4.4,11.9s-3.6,3.8-3.7,5.4s0.3,2-0.6,2.5
	s-2.2,2.7-1.8,3.5c0.3,1.2-0.2,2.4-1.1,3.1c-1,0.7-1.5,1.8-1.4,3c0,0-0.6,2.2-2,2.8s-2.3,3.9-2.3,3.9l-4.6,5.3l-9.2-10.1
	c-1.4-1.6-3.9-1.7-5.5-0.3l-4.5,4c-1.7,0.4-3.3,1.4-4.5,2.7c-1,1-1.8,2.2-2.3,3.5l-2.5,2.2c-1.6,2-1.8,4.7-0.6,6.9l5.9,6.5v0.1
	c-2.1,0.2-4,1.1-5.6,2.4c-8.8,7.7-8.9,14.9-7.5,18.1s12.4,15.8,12.4,15.8s6.5,8.4,15.8,12.9l0,0l-0.1,0.1c-0.2,0.2-0.4,0.4-0.5,0.6
	l-0.2,0.2c0,0.1-0.1,0.1-0.1,0.2l-0.2,0.2l-0.1,0.2l-0.2,0.3l-0.1,0.2l-0.2,0.4c0,0,0,0.1-0.1,0.1s-0.2,0.4-0.2,0.5
	s-0.1,0.1-0.1,0.2c-0.1,0.1-0.1,0.3-0.2,0.4l-0.1,0.3c0,0.1-0.1,0.3-0.1,0.4l-0.1,0.3l-0.1,0.5c0,0.1,0,0.2-0.1,0.3
	s-0.1,0.5-0.2,0.7c0,0.1,0,0.2,0,0.3l-0.1,0.5c0,0.1,0,0.2,0,0.4l-0.1,0.5c0,0.1,0,0.3,0,0.4s0,0.4,0,0.6v0.4c0,0.3,0,0.6,0,1
	c-0.2,11.9,0.5,13.6,0.5,13.6c0.9,2.2,3,3.8,5.4,4.1c0.6,0,1.2,0,1.8-0.1c5.3-0.9,17.7-3.1,22.1-2.2c2.6,0.5,7.5-0.2,11-0.9l0.9-0.2
	l0.6,2l2-0.5l1.7,1c0.5,0.3,0.8,0.5,1.1,0.6c2,6.8,10.2,4.5,10.2,4.5l1.9,1.1L908,791c2.2,1.3,4.6,2.5,7,3.3c0.3,0.1,0.7,0.2,1,0.2
	c1.8,0.1,3.7,0.2,5.5,0.1c1.5,0,2.7-0.1,2.7-0.1s-0.2-5.3-0.5-11.3c6.1-0.1,12.2-0.6,18.2-1.5c10.5-1.8,14.9-11.4,16.5-16.5
	c0.5,2.1,0.8,4.2,1,6.3c0.4,1.9,1,3.7,1.6,5.5c0.6,1.4,1.3,2.8,2.2,4.1c7.8-2.7,3.1-6.6,1.4-8.3s1.1-3.2,1.1-3.2s2.1-1.4,1.9-2.8
	s-0.3-2.8,6.6-2.6S980.7,758.2,980.7,758.2z M873,693.2c0.1,0.6,1.1,6.8,1.9,8.5c0.3,1.1,0.3,2.2,0.2,3.4c-4.1-0.3-8.4-0.5-8.4-0.5
	c0.1,0.2,0.2,0.3,0.2,0.5l-0.6-0.2l-0.9-0.2L873,693.2L873,693.2z M858,717l7.1,1.1l0.6,0.1c-0.2,1.1-0.3,2.2-0.4,3.4
	c0,0.1,0.2,0.2,0.4,0.4c-0.1,0.6-0.1,1.1-0.1,1.7c0.1,0.6,3.4,1.8,7.2,2.8c0,0.2-0.1,0.4-0.2,0.6l0,0c-3.4-1.8-8.7-2.6-9.3-3.9
	s-18.7-7.6-18.7-7.6s-0.7-0.3-1.8-0.9l4.8,0.9l1.3-0.1C851.9,716.2,854.9,716.7,858,717L858,717z"/>
<path class="st8" d="M957.5,762.6c0,0-2.8,17.1-17.2,19.6s-62.3,2-62.3,2s-27.4-4-37.3-27.1s-16.3-32.3-7.8-32.8
	s54.3,15.5,56.9,15.7S960,704.9,957.5,762.6z"/>
<path class="st9" d="M957.5,762.6c0,0-2.8,17.1-17.2,19.6s-62.3,2-62.3,2s-27.4-4-37.3-27.1s-16.3-32.3-7.8-32.8
	s54.3,15.5,56.9,15.7S960,704.9,957.5,762.6z"/>
<path class="st6" d="M829,781.6c0.9,2.2,3,3.7,5.4,4c0.6,0,1.2,0,1.7-0.1c5.3-0.9,17.6-3,21.9-2.2c2.6,0.5,7.5-0.2,10.9-0.9
	c2.3-0.4,4-0.8,4-0.8s-4-13.5-4.5-13.8s-18.2-11-18.2-11l-14-1l0,0c-1.9,0.3-3.6,1.3-4.8,2.8c-1.5,1.8-2.8,4.7-2.8,9.5
	C828.3,779.9,829,781.6,829,781.6z"/>
<path class="st9" d="M829,781.6c0.9,2.2,3,3.7,5.4,4c-1.4-1.8-2.6-3.6-3.8-5.5l0.1-9.8c-0.6-5.5,1.5-10.9,5.5-14.6l0,0
	c0,0-7.4,0.5-7.6,12.3S829,781.6,829,781.6z"/>
<path class="st10" d="M889.7,760.2l13-10.2l20.5-20.2c0,0-2.2-0.1-5.6-0.2c-0.8,0.5-3.2,2.2-3.2,4.2c-0.1,2.5-5.5,0.2-8.4,1.6
	s-16.7,19.1-19.1,19s-4.3-1.2-5.4,0.5l-0.1,0.1L889.7,760.2z"/>
<path class="st10" d="M831.3,758.5l1.4,0.7c9.9,4.2,22.1,13.1,23,14.8c0.6,1,7.7,5.3,13.1,8.5c2.3-0.4,4-0.8,4-0.8s-4-13.5-4.5-13.8
	s-18.2-11-18.2-11l-14-1l0,0C834.2,756,832.5,757,831.3,758.5z"/>
<path class="st8" d="M803.8,729.5c1.3,3.2,12.3,15.7,12.3,15.7s7,9.1,16.9,13.3s22.1,13.1,23,14.8c0.6,1,8.5,5.8,14,9.1l1.2,0.7
	l2.8,1.6l1.5,0.8l6.8-5.5c3.3-2.7,6.6-5.4,6.7-5.6c0.1-0.3,1.4-3.7,1.1-3.9c-0.2-0.1-0.8-1.5-2.1-3.1c-1.4-1.8-3.1-3.3-5.2-4.2
	c-3-1.5-5.3-4-6.7-7c0,0-0.4-0.3-1.1-0.7c-1.4-0.9-2.9-1.6-4.5-2c-2.2-0.3-6.4-4.8-6.4-4.8c-1.6-1.1-3-2.5-4-4.1
	c-1.1-2.2-16.7-13-18.2-14l38,24.4l9.1,5.8l13-10.2l20.5-20.2c0,0-2.8-0.1-6.8-0.3c-10-0.4-27.7-1.1-29.9-0.6
	c-1.8,0.4-3.7,0.5-5.6,0.4c0,0-5,0.2-8.4-1.5s-8.6-2.6-9.2-3.9s-18.5-7.6-18.5-7.6s-24.4-12.9-33.1-5.3S802.5,726.3,803.8,729.5z"/>
<path class="st11" d="M882.4,655.3l3.1,10.4l4,23.5l14.9,1l4.3-7.1l4.3-7.1c0,0,2.7-9.5,4.6-18.6c1.7-8.1,2.8-16,1-16.8
	c-1.6-0.8-2.7-3.5-3.4-6.4c-0.1-0.4-0.2-0.7-0.2-1.1c-0.5-2.5-0.8-5-1-7.5c0,0-31.1-1.6-26.8,11.2c0.8,2.2,1.2,4.5,1.2,6.8
	c0,0.6,0,1.2-0.1,1.7C887.7,649.2,885.6,652.9,882.4,655.3z"/>
<path class="st12" d="M875.9,653.6l1.1,17.7l2.5,15.1l2.8,7l2.5,38.2c0,0,24.4,2.8,30.3,0c0.4-0.2,0.8-0.5,1.1-0.8
	c7.1-10.8,4.8-42.1,4.8-42.1l2.7-20.2l-1.8-10.5l-4.4-0.5l-3.4-0.4c0,0-0.8,0.9-1.9,2.4c-3,4-8.5,11.7-8.1,15c0.5,4.5-0.6,9-2.3,9.7
	s-3.1,1.9-3.4,0.7c-0.4-1-0.5-2.1-0.3-3.2c0.3-1.7-1.3-7-1.3-7s-2.7-6.2-2.5-8.8s-0.3-5.7-1.1-6.4s-1.9-1.4-1-4.7s-4-9.5-4-9.5
	L875.9,653.6z"/>
<path class="st10" d="M908.1,697.8l1,30.2l5.8,3.2c0.4-0.2,0.8-0.5,1.1-0.8c7.2-10.8,4.8-42.1,4.8-42.1l2.7-20.2l-1.8-10.5l-4.4-0.5
	c1.7-8.1,2.8-16,1-16.8c-1.6-0.8-2.7-3.5-3.4-6.4l0,0l-3.2,21.4c0,0,0.3,1.9,0.3,3.9c0.1,1.3,0,2.5-0.2,3.8
	c-0.7,1.8-0.2,5.1-0.2,5.1c-1.8,3.2-2.7,9.2-3.2,14.9C907.9,690.5,908.1,697.8,908.1,697.8z"/>
<path class="st6" d="M915,633.4c0,0,5.1,0.6,6.7,2.8s5.9,2.4,5.9,2.4s4.8,1.6,4.8,2s1.4,1,4.5,1.8s8.1,3.7,8.1,4.5s8,8.6,8,9.4
	s2.4,3.8,2.1,9.2s-0.6,12.1,0.6,13.2s0,5.5,0,5.5c-0.7,1-0.7,2.2-0.1,3.2c1,1.8-0.2,9.4-0.2,9.4l0.1,7.9c0,0-1.1,5,0.2,5.2
	s-0.2,2.4-0.2,2.4s-1.1,4,0.3,5.9s1.8,9.6,1.8,9.6l21.6,31.4c0,0,0.3,5.8-6.6,5.7s-6.8,1.3-6.6,2.6s-1.9,2.7-1.9,2.7
	s-2.7,1.4-1.1,3.1s6.3,5.7-1.4,8.3c-0.9-1.2-1.6-2.6-2.2-4c-0.7-1.8-1.2-3.6-1.6-5.5c0,0-0.7-7.7-2.1-8.7s-1.2-5.9-1.2-5.9
	s2-3.9-0.8-5.6s-43.9-24.4-43.9-24.4l-1-30.2c0,0-0.7-22.3,3.5-29.8c0,0-0.5-3.2,0.2-5.1s-0.1-7.7-0.1-7.7L915,633.4z"/>
<path class="st10" d="M888.5,645.5c0,0-10.2-2.1-12.9-0.7s-8.1,2.5-8.9,3.3s-2.8,0.2-4.7,5s-2,9.6-4.3,11.8s-3.5,3.7-3.6,5.4
	s0.3,2-0.6,2.5s-2.2,2.6-1.8,3.4s21,18.6,21,18.6s1,6.8,1.9,8.5s-1,25.4-3,27s13.7,1.5,13.7,1.5s0.7-15.5,1.3-16.3
	s-0.4-17.4-0.4-17.4s-0.1-14.2,1.2-17.9s1.2-16.2,1.2-16.2s1.2-7.5,2.6-9.2S888.5,645.5,888.5,645.5z"/>
<path class="st6" d="M888.2,645.2c0,0-10.2-2.1-12.9-0.7s-8.1,2.5-8.9,3.3s-2.8,0.2-4.7,5s-2,9.6-4.3,11.8s-3.5,3.7-3.6,5.3
	s0.3,2-0.6,2.5s-2.2,2.6-1.8,3.4s21.1,18.6,21.1,18.6s1,6.8,1.9,8.5s-1,25.4-3,27s13.6,1.5,13.6,1.5s0.7-15.5,1.3-16.3
	s-0.4-17.4-0.4-17.4s-0.1-14.2,1.2-17.9s1.2-16.2,1.2-16.2s1.2-7.5,2.6-9.2S888.2,645.2,888.2,645.2z"/>
<path class="st10" d="M887.1,636.6c0.8,2.2,1.2,4.5,1.2,6.8c10.2,3,21.2-1.3,26.6-10.5c-0.5-2.5-0.8-5-1-7.5
	C913.9,625.4,882.8,623.8,887.1,636.6z"/>
<path class="st11" d="M871.8,620.7c0,12.8,10.4,23.1,23.1,23.1c12.8,0,23.1-10.4,23.1-23.1c0-12.8-10.4-23.1-23.1-23.1
	c-10.9,0-20.3,7.7-22.6,18.3C871.9,617.4,871.7,619,871.8,620.7z"/>
<path class="st6" d="M856.9,674.2l-5.5,1.7c0.3,1.1-0.2,2.3-1.1,3c-1,0.7-1.5,1.8-1.4,3c0,0-0.6,2.2-2,2.7s-2.3,3.8-2.3,3.8
	l-4.7,5.3c0,0-1.7,1.4-1.4,2.1s-1.8,0.9-1.8,0.9l1.1,18l9.6,1.8l6-0.6l4.8-1.8l4.2-2.5l1.9-5l8.5-12.9L856.9,674.2z"/>
<path class="st13" d="M838,698.4c0,0-12.3-17.8-21.5-8.2s3.7,25.2,6.8,24.7s17.5-1.3,17.5-1.3L838,698.4z"/>
<path class="st6" d="M812.4,662.9l54.8,27.9c0.8,0.4,1.1,1.3,0.7,2.1l-21.4,41.9c-0.4,0.8-1.3,1.1-2.1,0.7l-54.8-27.9
	c-0.8-0.4-1.1-1.3-0.7-2.1l21.4-41.9C810.7,662.8,811.6,662.5,812.4,662.9z"/>
<rect x="808.1" y="671.9" transform="matrix(0.4546 -0.8907 0.8907 0.4546 -170.7735 1119.2219)" class="st0" width="40.9" height="54.3"/>
<circle class="st14" cx="802.5" cy="685.8" r="0.9"/>
<circle class="st14" cx="854.8" cy="712.6" r="1.5"/>
<path class="st11" d="M830,702.1c-0.1,13.3,27.5,16.2,27.5,16.2l7,1.1l3.2,0.5l1.3-13c0,0-1.5-0.2-3.3-0.6c-2.7-0.6-6.1-1.7-6.8-3.2
	C857.7,700.5,830.1,688.8,830,702.1z"/>
<path class="st10" d="M872.2,615.8c0.6,0,1.2,0.3,1.7,0.8c0.8,0.8,0.8,2.3,1.8,2.8c0.4,0.2,0.8,0.2,1.2,0.1c2.7-0.4,4.2-3.4,6.8-4.2
	c1.5-0.4,3.1-0.2,4.5,0.4c0.6,0.2,1.1,0.5,1.5,1c0.9,1.1,0.3,2.8,0.7,4.1c0.6,1.9,2.8,2.6,4.7,2.9s4.1,0.4,5.4,1.8
	c0.9,1.1,1.2,2.5,1,3.9c-0.1,0.5-0.1,1,0,1.4c0.5,1.5,3.2,1.3,3.8,0.1c0.5-0.9,0.3-1.6,1.5-1.8c0.8-0.1,1.7,0.1,2.5,0.4
	c2.1,0.7,4.2,1.1,6.4,1c5.4-11.6,0.4-25.4-11.1-30.8c-11.6-5.4-25.4-0.4-30.8,11.1C873.2,612.5,872.7,614.2,872.2,615.8L872.2,615.8
	z"/>
<path class="st6" d="M901.6,630.2c-0.1-0.5-0.1-1,0-1.5c0.2-1.4-0.1-2.8-1-3.9c-1.3-1.5-3.5-1.6-5.4-1.8s-4.2-1-4.7-2.9
	c-0.4-1.3,0.2-3-0.7-4.1c-0.4-0.5-0.9-0.8-1.5-1c-1.4-0.6-3-0.8-4.5-0.4c-2.6,0.8-4.1,3.9-6.8,4.2c-0.4,0.1-0.8,0-1.2-0.1
	c-1-0.5-1.1-2-1.8-2.8c-1.2-1.3-3.5-0.5-5.1-1.4c-0.9-0.8-1.5-1.8-1.6-3c-0.7-2.2-0.8-4.5-0.5-6.7c0.9-3.8,4.2-6.3,6.4-9.5
	c2-3,3.1-6.8,6.1-8.8s6.9-1.5,10.2-0.5c1.6,0.6,3.2,1,4.8,1.3c2.7,0.3,5.5-0.4,8.2-0.5c3.9-0.1,7.7,1,10.9,3.3
	c0.7,0.5,1.3,1.1,1.8,1.8c0.5,1,0.7,2.1,0.8,3.2c0.3,2.1,1,4.1,2.1,5.9c0.8,1.4,1.9,2.7,2.7,4.2c0.9,1.4,1.1,3.2,0.7,4.8
	c-0.3,0.8-0.8,1.6-1,2.4c-0.5,2,0.8,3.9,1.7,5.7c0.9,1.7,1.3,3.5,1.2,5.4s-1,3.6-2.4,4.8c-1.5,1-3.3,1.6-5.1,1.5
	c-2.2,0.1-4.4-0.3-6.5-1c-0.8-0.3-1.6-0.5-2.5-0.4c-1.2,0.2-1,1-1.5,1.8C904.8,631.5,902.1,631.8,901.6,630.2z"/>
<path class="st10" d="M889.1,760.8l13-10.2l20.5-20.2c0,0-2.8-0.1-6.8-0.3c-0.8,0.7-1.3,1.7-1.4,2.8c-0.1,2.5-5.5,0.2-8.4,1.6
	s-16.7,19.1-19.1,19s-4.3-1.2-5.4,0.5l-0.1,0.1c-0.4,0.5-0.9,0.8-1.5,0.9L889.1,760.8z"/>
<path class="st8" d="M862.8,760.1l6.5,20.9l1,3.3l3.1-0.9l6.9-1.9l30.6-8.4c3.8-0.2,7.6-1.2,11-3c5.8-3.2,12.4-4.7,19-4.2
	c4,0.4,8.5-1.4,12.3-8.3c0,0,8.5-25.1-12.9-32.2s-22.5,3.8-22.5,3.8l-0.3,0.2c-0.8,0.5-3.2,2.2-3.2,4.2c-0.1,2.5-5.5,0.2-8.4,1.6
	s-16.7,19.1-19.1,19s-4.3-1.2-5.4,0.5l-0.1,0.1c-0.8,1-3,1.3-4.5,1.3c-0.8,0-1.4,0-1.4,0l-0.2,0.1l-1.6,0.5L862.8,760.1z"/>
<path class="st10" d="M864.5,719.4l3.2,0.5l1.3-13c0,0-1.5-0.2-3.3-0.6C866.2,708.1,865.2,715.1,864.5,719.4z"/>
<path class="st10" d="M947.2,658.5c0,0,9.4-2.7,7.1,24s-19.7,43.6-19.7,43.6s-20,8.8-29,7.4s-15.6-1.7-15.6-1.7
	c-2.8-1.4-5.9-2.3-9.1-2.4c-5-0.2-15.7-3.3-15.9-4.3s2.6-15.9,1.4-17c0,0,14.2,0.6,15.6,1.6s3.4,0.3,5,0s6.2-4.3,15.4-0.8
	c0,0,3.1,0.3,4.3-0.5c1-0.5,2.1-0.5,3.2-0.2c0.8-0.3,1.5-0.6,2.2-1.1c0.3-0.4,2.7,0,2.7,0c0.5,0.3,1.2,0,1.4-0.5
	c0-0.1,0.1-0.1,0.1-0.2c0.3-0.8,0.8-1.6,1.4-2.2c0,0,2.7-15.4,7.9-21.1c0.8-0.7,1.3-1.8,1.1-2.9
	C926.3,678.3,935.1,655.3,947.2,658.5z"/>
<path class="st6" d="M947,656.4c0,0,9.4-2.7,7.1,24S934.3,724,934.3,724s-20,8.8-29,7.4s-15.6-1.7-15.6-1.7
	c-2.8-1.4-5.9-2.3-9.1-2.4c-5-0.2-15.7-3.3-15.9-4.3s2.6-15.9,1.4-17c0,0,14.2,0.6,15.6,1.6s3.4,0.3,5,0s6.2-4.3,15.4-0.8
	c0,0,3.1,0.3,4.3-0.5c1-0.5,2.1-0.5,3.2-0.2c0.8-0.3,1.5-0.6,2.2-1.1c0.3-0.4,2.7,0,2.7,0c0.5,0.3,1.2,0,1.4-0.5
	c0-0.1,0.1-0.1,0.1-0.2c0.3-0.8,0.8-1.6,1.4-2.2c0,0,2.7-15.4,7.9-21.1c0.8-0.7,1.3-1.8,1.1-2.9C926,676.3,934.8,653.2,947,656.4z"
	/>
<path class="st10" d="M873.9,756.7l13.4,16.2l0.1-0.1c0.1-0.3,1.4-3.8,1.1-4s-2.6-5.3-7.3-7.4c-2.4-1.2-4.3-3-5.7-5.2L873.9,756.7z"
	/>
<path class="st10" d="M874.1,784.7l1.5,0.8l6.8-5.5c3.3-2.7,6.6-5.4,6.7-5.6c0.1-0.3,1.4-3.7,1.1-3.9c-0.2-0.1-0.8-1.5-2.1-3.1
	c-9-2.5-3.3,3.8-2.5,4c0,0-11-2.5-11.6,9.5C873.8,782.2,873.9,783.5,874.1,784.7z"/>
<path class="st15" d="M885.3,789.8l1.9,1.1l19.5,0.5c2.2,1.3,4.5,2.4,6.9,3.3c0.3,0.1,0.7,0.2,1,0.2c1.8,0.1,3.6,0.2,5.4,0.1
	c1.5,0,2.7-0.1,2.7-0.1s-0.9-24.6-1.6-27.2c-0.3-1.2-2-1-3.6-0.3c-1.2,0.5-2.4,1.1-3.5,1.8c0,0-8.3,0.8-9.6,1.5s-5.1-0.4-7.4,0
	s-6.5-2.7-6.5-2.7c-11.3-3.7-5,3.2-4.2,3.5c0,0-11-2.5-11.6,9.5S885.3,789.8,885.3,789.8z"/>
<path class="st16" d="M913.5,780.3c0.2,5.1,4.2,11.4,6.6,14.8c1.5,0,2.7-0.1,2.7-0.1s-0.9-24.6-1.6-27.2c-0.3-1.2-2-1-3.6-0.3
	C915.5,771.1,913.4,776.2,913.5,780.3z"/>
<path class="st10" d="M913.5,780.3c0.2,5.1,4.2,11.4,6.6,14.8c1.5,0,2.7-0.1,2.7-0.1s-0.9-24.6-1.6-27.2c-0.3-1.2-2-1-3.6-0.3
	C915.5,771.1,913.4,776.2,913.5,780.3z"/>
<path class="st9" d="M910.2,781c1.3,4.9,1.3,10.4,3.5,13.8c0.3,0.1,0.7,0.2,1,0.2c1.8,0.1,3.6,0.2,5.4,0.1c1.5,0,2.7-0.1,2.7-0.1
	s-0.9-24.6-1.6-27.2c-0.3-1.2-2-1-3.6-0.3c-1.2,0.5-2.4,1.1-3.5,1.8C914,769.2,908.4,774.7,910.2,781z"/>
<path class="st10" d="M842.8,731.1c0,0,9.7,3.2,17.9,14.3L842.8,731.1z"/>
<g class="st17">
	<path d="M921.6,609.8l-0.1,0.2c-0.1,0.3-0.2,0.6-0.3,0.8C921.3,610.5,921.4,610.1,921.6,609.8z"/>
	<path d="M866.8,604.9c0.2-0.7,0.4-1.4,0.8-2c0,0.2-0.1,0.3-0.1,0.5c-0.4,2.2-0.2,4.5,0.5,6.7c0.1,1.2,0.7,2.2,1.6,3
		c1.5,1,3.8,0.1,5.1,1.4c0.8,0.8,0.8,2.3,1.8,2.8c0.4,0.2,0.8,0.2,1.2,0.1c2.7-0.4,4.2-3.4,6.8-4.2c1.5-0.4,3.1-0.3,4.5,0.4
		c0.6,0.2,1.1,0.5,1.5,1c0.9,1.1,0.3,2.8,0.7,4.1c0.5,1.9,2.8,2.6,4.7,2.9s4.1,0.4,5.4,1.8c0.9,1.1,1.2,2.5,1,3.9
		c-0.1,0.5-0.1,1,0,1.5c0.5,1.5,3.2,1.3,3.8,0.1c0.5-0.9,0.3-1.6,1.5-1.8c0.8-0.1,1.7,0.1,2.5,0.4c2.1,0.7,4.3,1.1,6.5,1
		c1.8,0,3.6-0.5,5.1-1.6c0.7-0.5,1.2-1.2,1.6-1.9c-0.3,1.3-1.1,2.6-2.2,3.4c-1.5,1-3.3,1.6-5.1,1.5c-2.2,0.1-4.4-0.3-6.5-1
		c-0.8-0.3-1.6-0.5-2.5-0.4c-1.2,0.2-1,1-1.5,1.8c-0.7,1.2-3.3,1.4-3.8-0.1c-0.1-0.5-0.1-1,0-1.5c0.2-1.4-0.1-2.8-1-3.9
		c-1.3-1.5-3.5-1.6-5.4-1.8s-4.2-1-4.7-2.9c-0.4-1.3,0.2-3-0.7-4.1c-0.4-0.5-0.9-0.8-1.5-1c-1.4-0.6-3-0.8-4.5-0.4
		c-2.6,0.8-4.1,3.9-6.8,4.2c-0.4,0.1-0.8,0-1.2-0.1c-1-0.5-1.1-2-1.8-2.8c-1.2-1.3-3.5-0.5-5.1-1.4c-0.9-0.8-1.5-1.8-1.6-3
		C866.5,609.4,866.4,607.1,866.8,604.9z"/>
</g>
<path class="st10" d="M923.2,685.8c-1.9,2.5-4,4.8-5.6,7.5c-1.8,2.6-2.6,5.7-2.5,8.8c1.7-1.7,2.5-4.1,3.5-6.3
	c1.8-3.7,4.5-6.8,6.8-10.2c0.4-0.7,3.2-4.4,1.8-4.6C926.1,680.8,923.8,684.9,923.2,685.8z"/>
<path class="st18" d="M322.3,305.9h-74.4c-3.8,0-6.9,4-6.9,8.9v44.9c0,4.9,3.1,8.9,6.9,8.9h74.4c3.8,0,6.9-4,6.9-8.9v-44.9
	C329.2,309.9,326.1,305.9,322.3,305.9z M291.3,324.7c0,4.6-3.7,8.3-8.3,8.3s-8.3-3.7-8.3-8.3c0-4.6,3.7-8.3,8.3-8.3
	S291.3,320.1,291.3,324.7z M299,357.6h-30.9V351c0-8.5,7-15.5,15.5-15.5l0,0c8.5,0,15.5,7,15.5,15.5v6.6H299z"/>
<rect x="403.4" y="236.3" class="st19" width="375.7" height="208.6"/>
<rect x="403.4" y="491.5" class="st19" width="375.7" height="208.6"/>
<rect x="477.3" y="381.5" class="st20" width="11.4" height="38.1"/>
<rect x="499" y="334.4" class="st20" width="11.4" height="85.3"/>
<rect x="520.6" y="291.9" class="st21" width="11.4" height="127.8"/>
<rect x="542.3" y="261.5" class="st22" width="11.4" height="158.1"/>
<rect x="520.6" y="261.5" class="st22" width="11.4" height="158.1"/>
<rect x="563.9" y="332.7" class="st22" width="11.4" height="86.9"/>
<rect x="585.6" y="310.3" class="st22" width="11.4" height="109.4"/>
<rect x="607.2" y="276.1" class="st23" width="11.4" height="143.5"/>
<rect x="628.9" y="355.7" class="st20" width="11.4" height="63.9"/>
<rect x="650.6" y="326.2" class="st22" width="11.4" height="93.4"/>
<rect x="672.2" y="291.9" class="st20" width="11.4" height="127.8"/>
<rect x="693.9" y="291.9" class="st23" width="11.4" height="127.8"/>
<path class="st18" d="M329.2,570.6c0-3.5-2.8-6.3-6.3-6.3h-75.6c-3.5,0-6.3,2.8-6.3,6.3v9.5h88.2V570.6z M240.9,621
	c0,3.5,2.8,6.3,6.3,6.3h75.6c3.5,0,6.3-2.8,6.3-6.3v-31.5h-88.2L240.9,621z M268.9,611.6h32.3c1.5-0.1,2.8,1.1,2.9,2.6
	s-1.1,2.8-2.6,2.9c-0.1,0-0.2,0-0.3,0h-32.3c-1.5-0.1-2.7-1.4-2.6-2.9C266.4,612.8,267.5,611.7,268.9,611.6z M254.8,611.6h2.4
	c1.5-0.1,2.8,1.1,2.9,2.6s-1.1,2.8-2.6,2.9c-0.1,0-0.2,0-0.3,0h-2.4c-1.5,0.1-2.8-1.1-2.9-2.6c-0.1-1.5,1.1-2.8,2.6-2.9
	C254.5,611.6,254.6,611.6,254.8,611.6z"/>
<rect x="477.3" y="636.8" class="st20" width="11.4" height="38.1"/>
<rect x="499" y="589.6" class="st20" width="11.4" height="85.3"/>
<rect x="520.6" y="547.1" class="st21" width="11.4" height="127.8"/>
<rect x="542.3" y="516.8" class="st23" width="11.4" height="158.1"/>
<rect x="520.6" y="516.8" class="st20" width="11.4" height="158.1"/>
<rect x="563.9" y="588" class="st20" width="11.4" height="86.9"/>
<rect x="585.6" y="565.5" class="st23" width="11.4" height="109.4"/>
<rect x="607.2" y="531.4" class="st23" width="11.4" height="143.5"/>
<rect x="628.9" y="611" class="st20" width="11.4" height="63.9"/>
<rect x="650.6" y="581.5" class="st20" width="11.4" height="93.4"/>
<rect x="672.2" y="547.1" class="st22" width="11.4" height="127.8"/>
<rect x="693.9" y="547.1" class="st22" width="11.4" height="127.8"/>
</svg>
