<?xml version="1.0" encoding="utf-8"?>
<!-- Generator: Adobe Illustrator 24.2.1, SVG Export Plug-In . SVG Version: 6.00 Build 0)  -->
<svg version="1.1" id="eb113788-f1f1-4c1f-be62-f1d0ea2e1eb6"
	 xmlns="http://www.w3.org/2000/svg" xmlns:xlink="http://www.w3.org/1999/xlink" x="0px" y="0px" viewBox="0 0 795.4 574"
	 style="enable-background:new 0 0 795.4 574;" xml:space="preserve">
<style type="text/css">
	.st0{fill:#E0E0E0;}
	.st1{fill:#DBDBDB;}
	.st2{opacity:0.5;}
	.st3{fill:#47E6B1;}
	.st4{opacity:0.5;fill:#4D8AF0;enable-background:new    ;}
	.st5{opacity:0.5;fill:#F55F44;enable-background:new    ;}
	.st6{opacity:0.5;fill:#47E6B1;enable-background:new    ;}
	.st7{fill:#FF8300;}
	.st8{opacity:5.000000e-02;enable-background:new    ;}
	.st9{fill:url(#SVGID_1_);}
	.st10{fill:#F5F5F5;}
	.st11{fill:#FE9930;}
	.st12{fill:#041147;}
	.st13{fill:#1E3272;}
</style>
<ellipse transform="matrix(0.4445 -0.8958 0.8958 0.4445 -240.5981 186.1492)" class="st0" cx="29.8" cy="287.1" rx="35.1" ry="5.3"/>
<circle class="st1" cx="261.3" cy="563.9" r="2.9"/>
<g class="st2">
	<rect x="29.4" y="482" class="st3" width="3" height="17"/>
	<rect x="22.4" y="489" class="st3" width="17" height="3"/>
</g>
<g class="st2">
	<rect x="785.4" y="270" class="st3" width="3" height="17"/>
	<rect x="778.4" y="277" class="st3" width="17" height="3"/>
</g>
<g class="st2">
	<rect x="47.4" y="59" class="st3" width="3" height="17"/>
	<rect x="40.4" y="66" class="st3" width="17" height="3"/>
</g>
<g class="st2">
	<rect x="695.4" y="33" class="st3" width="3" height="17"/>
	<rect x="688.4" y="40" class="st3" width="17" height="3"/>
</g>
<path class="st4" d="M12.3,253.5c-1.7-0.7-2.6-2.7-2-4.4c0-0.1,0.1-0.3,0.1-0.4l0,0c0.1-1-0.7-1.9-1.7-2c-0.6,0-1.2,0.2-1.6,0.7l0,0
	c-0.1,0.1-0.2,0.2-0.2,0.4c-0.7,1.7-2.7,2.6-4.4,2c-0.1,0-0.3-0.1-0.4-0.1l0,0c-1-0.1-1.9,0.7-2,1.7c0,0.6,0.2,1.2,0.7,1.6l0,0
	c0.1,0.1,0.2,0.2,0.4,0.2c1.7,0.7,2.6,2.7,2,4.4c0,0.1-0.1,0.3-0.1,0.4l0,0c-0.1,1,0.7,1.9,1.7,2c0.6,0,1.2-0.2,1.6-0.7l0,0
	c0.1-0.1,0.2-0.2,0.2-0.4c0.7-1.7,2.7-2.6,4.4-2c0.1,0,0.3,0.1,0.4,0.1l0,0c1,0.1,1.9-0.7,2-1.7c0-0.6-0.2-1.2-0.7-1.6l0,0
	C12.5,253.6,12.4,253.5,12.3,253.5z"/>
<path class="st4" d="M184.3,56.5c-1.7-0.7-2.6-2.7-2-4.4c0-0.1,0.1-0.3,0.1-0.4l0,0c0.1-1-0.7-1.9-1.7-2c-0.6,0-1.2,0.2-1.6,0.7l0,0
	c-0.1,0.1-0.2,0.2-0.2,0.4c-0.7,1.7-2.7,2.6-4.4,2c-0.1,0-0.3-0.1-0.4-0.1l0,0c-1-0.1-1.9,0.7-2,1.7c0,0.6,0.2,1.2,0.7,1.6l0,0
	c0.1,0.1,0.2,0.2,0.4,0.2c1.7,0.7,2.6,2.7,2,4.4c0,0.1-0.1,0.3-0.1,0.4l0,0c-0.1,1,0.7,1.9,1.7,2c0.6,0,1.2-0.2,1.6-0.7l0,0
	c0.1-0.1,0.2-0.2,0.2-0.4c0.7-1.7,2.7-2.6,4.4-2c0.1,0,0.3,0.1,0.4,0.1l0,0c1,0.1,1.9-0.7,2-1.7c0-0.6-0.2-1.2-0.7-1.6l0,0
	C184.5,56.6,184.4,56.5,184.3,56.5z"/>
<path class="st4" d="M394.3,567.5c-1.7-0.7-2.6-2.7-2-4.4c0-0.1,0.1-0.3,0.1-0.4l0,0c0.1-1-0.7-1.9-1.7-2c-0.6,0-1.2,0.2-1.6,0.7
	l0,0c-0.1,0.1-0.2,0.2-0.2,0.4c-0.7,1.7-2.7,2.6-4.4,2c-0.1,0-0.3-0.1-0.4-0.1l0,0c-1-0.1-1.9,0.7-2,1.7c0,0.6,0.2,1.2,0.7,1.6l0,0
	c0.1,0.1,0.2,0.2,0.4,0.2c1.7,0.7,2.6,2.7,2,4.4c0,0.1-0.1,0.3-0.1,0.4l0,0c-0.1,1,0.7,1.9,1.7,2c0.6,0,1.2-0.2,1.6-0.7l0,0
	c0.1-0.1,0.2-0.2,0.2-0.4c0.7-1.7,2.7-2.6,4.4-2c0.1,0,0.3,0.1,0.4,0.1l0,0c1,0.1,1.9-0.7,2-1.7c0-0.6-0.2-1.2-0.7-1.6l0,0
	C394.5,567.6,394.4,567.5,394.3,567.5z"/>
<circle class="st5" cx="759.4" cy="444" r="6"/>
<circle class="st4" cx="627.4" cy="482" r="6"/>
<circle class="st6" cx="103.4" cy="541" r="6"/>
<circle class="st5" cx="411.4" cy="6" r="6"/>
<g>
	
		<ellipse transform="matrix(0.4445 -0.8958 0.8958 0.4445 -174.3257 728.6478)" class="st0" cx="500.3" cy="504.9" rx="35.1" ry="3.6"/>
	
		<rect x="203.1" y="428.5" transform="matrix(0.6367 -0.7711 0.7711 0.6367 -252.003 343.1661)" class="st7" width="70.2" height="21.1"/>
	
		<rect x="215.8" y="433.8" transform="matrix(0.2289 -0.9735 0.9735 0.2289 -240.3617 587.8503)" class="st8" width="70.2" height="23.7"/>
	
		<rect x="217.2" y="435.4" transform="matrix(0.2289 -0.9735 0.9735 0.2289 -239.5946 589.4331)" class="st7" width="70.2" height="21.1"/>
	
		<linearGradient id="SVGID_1_" gradientUnits="userSpaceOnUse" x1="-227.4353" y1="3114.9358" x2="-227.4353" y2="3041.2361" gradientTransform="matrix(0.8958 0.4445 -0.4445 0.8958 1852.973 -2260.3584)">
		<stop  offset="0" style="stop-color:#808080;stop-opacity:0.25"/>
		<stop  offset="0.5351" style="stop-color:#808080;stop-opacity:0.12"/>
		<stop  offset="1" style="stop-color:#808080;stop-opacity:0.1"/>
	</linearGradient>
	<polygon class="st9" points="45.4,320.1 78.1,254.1 516.7,471.7 483.9,537.7 	"/>
	<path class="st10" d="M484.7,536.1C476.1,532,39.9,315.4,46.2,318.5c24.2-37,31.2-62.9,31.2-62.9L516,473.2
		C515.9,473.2,500.5,500.3,484.7,536.1z"/>
	
		<rect x="236.5" y="371" transform="matrix(0.4445 -0.8958 0.8958 0.4445 -199.568 460.623)" class="st8" width="70.2" height="40.4"/>
	
		<rect x="236.5" y="372.8" transform="matrix(0.4445 -0.8958 0.8958 0.4445 -199.568 460.623)" class="st7" width="70.2" height="36.8"/>
	
		<rect x="235.7" y="378.5" transform="matrix(0.4445 -0.8958 0.8958 0.4445 -199.671 459.6931)" class="st8" width="70.2" height="24.6"/>
	
		<rect x="235.7" y="380.3" transform="matrix(0.4445 -0.8958 0.8958 0.4445 -199.666 459.7456)" class="st7" width="70.2" height="21.1"/>
	<path class="st11" d="M236.9,357.5l-24,36c0,0,8,37,185,36s191-36,191-36l-33-48l-101-69L236.9,357.5z"/>
	<path class="st12" d="M236.9,357.5l-24,36c0,0,8,37,185,36s191-36,191-36l-33-48l-101-69L236.9,357.5z"/>
	<polygon class="st11" points="747.4,224 432.4,363 48.4,224 400.4,64 573.2,143.7 579.4,146.5 	"/>
	<polygon class="st12" points="747.4,224 432.4,363 48.4,224 400.4,64 573.2,143.7 579.4,146.5 	"/>
	<polygon class="st10" points="585.9,257.3 579.9,257.7 573.2,143.7 579.4,146.5 	"/>
	<path class="st13" d="M240.9,223.5l-28,170c0,0,201-65,376,0l-26-180C562.9,213.5,327.9,184.5,240.9,223.5z"/>
	<ellipse class="st10" cx="585.4" cy="272" rx="29" ry="20"/>
</g>
</svg>
