<?xml version="1.0" encoding="utf-8"?>
<!-- Generator: Adobe Illustrator 24.2.1, SVG Export Plug-In . SVG Version: 6.00 Build 0)  -->
<svg version="1.1" id="f4916f78-9504-4b7d-8478-1c39a72a8d9f"
	 xmlns="http://www.w3.org/2000/svg" xmlns:xlink="http://www.w3.org/1999/xlink" x="0px" y="0px" viewBox="0 0 736.8 633.9"
	 style="enable-background:new 0 0 736.8 633.9;" xml:space="preserve">
<style type="text/css">
	.st0{fill:#E6E6E6;}
	.st1{fill:#FFFFFF;}
	.st2{opacity:0.2;fill:#FE9930;enable-background:new    ;}
	.st3{fill:#FF8300;}
	.st4{fill:#FAFAFA;}
	.st5{fill:#F0F0F0;}
	.st6{fill:#E0E0E0;}
	.st7{fill:#F5F5F5;}
	.st8{opacity:5.000000e-02;enable-background:new    ;}
	.st9{fill:#041147;}
	.st10{opacity:0.4;fill:#FFFFFF;enable-background:new    ;}
	.st11{opacity:0.2;fill:#FFFFFF;enable-background:new    ;}
	.st12{opacity:0.7;fill:#FFFFFF;enable-background:new    ;}
	.st13{opacity:0.2;enable-background:new    ;}
	.st14{fill:#FFD7D7;}
	.st15{fill:#FE9930;}
</style>
<g>
	<path class="st0" d="M191.8,146c-4.4,0-8,3.6-8,8v337c0,4.4,3.6,8,8,8h494.1c4.4,0,8-3.6,8-8V154c0-4.4-3.6-8-8-8H191.8z"/>
	<path class="st1" d="M203.1,157.4c-4.4,0-8,3.6-8,8v314.2c0,4.4,3.6,8,8,8h471.4c4.4,0,8-3.6,8-8V165.4c0-4.4-3.6-8-8-8H203.1z"/>
	<g>
		<polygon class="st2" points="233.3,462.1 258.3,443.8 356.8,428.2 417.3,412.6 450.6,425.7 495.7,361.8 526.5,368.3 572.8,317.5 
			596.6,325.3 651.2,235.5 651.2,461.9 		"/>
		<path class="st3" d="M236.2,461.5c-1.3,0-2.3-1-2.3-2.3s1-2.3,2.3-2.3c105.2,0,205.6-21.1,282.6-59.3
			C591,361.7,637,313.1,645,264.1c0.2-1.2,1.4-2.1,2.6-1.9c1.2,0.2,2.1,1.4,1.9,2.6l0,0c-4.2,25.4-17.7,50.4-40.2,74.1
			c-22.2,23.4-52,44.5-88.5,62.7C443.2,440.2,342.1,461.5,236.2,461.5z"/>
		<polygon class="st0" points="668.4,461.9 233.5,461.9 233.5,247.1 235.7,247.1 235.7,459.7 668.4,459.7 		"/>
	</g>
</g>
<g>
	<g>
		<path class="st4" d="M18.6,60.7h127.6c0,0-7.7-12.2-21-6.1c0,0-2.5-12.7-11-13c-8.6-0.3-11.6,6.4-11.6,6.4s-9.9-15.5-25.1-12.2
			S60.9,53.2,60.9,53.2S38.2,41.6,18.6,60.7z"/>
		
			<ellipse transform="matrix(0.2306 -0.9731 0.9731 0.2306 287.4034 532.8902)" class="st5" cx="480.7" cy="84.7" rx="12.9" ry="12.9"/>
		<g>
			<path class="st4" d="M279.4,112.6H407c0,0-7.7-12.2-21-6.1c0,0-2.5-12.7-11-13c-8.6-0.3-11.6,6.4-11.6,6.4s-9.9-15.5-25.1-12.2
				s-16.6,17.4-16.6,17.4S299,93.6,279.4,112.6z"/>
			<path class="st4" d="M531,204.4h127.6c0,0-7.7-12.2-21-6.1c0,0-2.5-12.7-11-13c-8.6-0.3-11.6,6.4-11.6,6.4s-9.9-15.5-25.1-12.2
				c-15.2,3.3-16.6,17.4-16.6,17.4S550.6,185.3,531,204.4z"/>
			<path class="st4" d="M34,204.4h127.6c0,0-7.7-12.2-21-6.1c0,0-2.5-12.7-11-13c-8.6-0.3-11.6,6.4-11.6,6.4s-9.9-15.5-25.1-12.2
				s-16.6,17.4-16.6,17.4S53.6,185.3,34,204.4z"/>
		</g>
	</g>
	<g>
		<g>
			<rect x="117.5" y="250.2" class="st0" width="135.3" height="264"/>
			<rect x="117.5" y="250.2" class="st5" width="110.7" height="264"/>
			<rect x="114.6" y="250.2" class="st6" width="139.8" height="4.3"/>
			<rect x="114.6" y="241.6" class="st6" width="139.8" height="4.3"/>
			<rect x="117.5" y="245.9" class="st5" width="133.9" height="4.3"/>
			<g>
				<rect x="128" y="265.8" class="st0" width="20.8" height="20.8"/>
				<rect x="129.9" y="265.8" class="st7" width="19" height="20.8"/>
			</g>
			<g>
				<rect x="159.5" y="265.8" class="st0" width="20.8" height="20.8"/>
				<rect x="161.3" y="265.8" class="st7" width="19" height="20.8"/>
			</g>
			<g>
				<rect x="191" y="265.8" class="st0" width="20.8" height="20.8"/>
				<rect x="192.8" y="265.8" class="st7" width="19" height="20.8"/>
			</g>
			<g>
				<rect x="128" y="296.4" class="st0" width="20.8" height="20.8"/>
				<rect x="129.9" y="296.4" class="st7" width="19" height="20.8"/>
			</g>
			<g>
				<rect x="159.5" y="296.4" class="st0" width="20.8" height="20.8"/>
				<rect x="161.3" y="296.4" class="st7" width="19" height="20.8"/>
			</g>
			<g>
				<rect x="191" y="296.4" class="st0" width="20.8" height="20.8"/>
				<rect x="192.8" y="296.4" class="st7" width="19" height="20.8"/>
			</g>
			<g>
				<rect x="128" y="352.5" class="st0" width="20.8" height="20.8"/>
				<rect x="129.9" y="352.5" class="st7" width="19" height="20.8"/>
			</g>
			<g>
				<rect x="159.5" y="352.5" class="st0" width="20.8" height="20.8"/>
				<rect x="161.3" y="352.5" class="st7" width="19" height="20.8"/>
			</g>
			<g>
				<rect x="191" y="352.5" class="st0" width="20.8" height="20.8"/>
				<rect x="192.8" y="352.5" class="st7" width="19" height="20.8"/>
			</g>
			<g>
				<rect x="128" y="383.1" class="st0" width="20.8" height="20.8"/>
				<rect x="129.9" y="383.1" class="st7" width="19" height="20.8"/>
			</g>
			<g>
				<rect x="159.5" y="383.1" class="st0" width="20.8" height="20.8"/>
				<rect x="161.3" y="383.1" class="st7" width="19" height="20.8"/>
			</g>
			<g>
				<rect x="191" y="383.1" class="st0" width="20.8" height="20.8"/>
				<rect x="192.8" y="383.1" class="st7" width="19" height="20.8"/>
			</g>
			<g>
				<rect x="128" y="445.4" class="st0" width="20.8" height="20.8"/>
				<rect x="129.9" y="445.4" class="st7" width="19" height="20.8"/>
			</g>
			<g>
				<rect x="159.5" y="445.4" class="st0" width="20.8" height="20.8"/>
				<rect x="161.3" y="445.4" class="st7" width="19" height="20.8"/>
			</g>
			<g>
				<rect x="191" y="445.4" class="st0" width="20.8" height="20.8"/>
				<rect x="192.8" y="445.4" class="st7" width="19" height="20.8"/>
			</g>
			<g>
				<rect x="128" y="476" class="st0" width="20.8" height="20.8"/>
				<rect x="129.9" y="476" class="st7" width="19" height="20.8"/>
			</g>
			<g>
				<rect x="159.5" y="476" class="st0" width="20.8" height="20.8"/>
				<rect x="161.3" y="476" class="st7" width="19" height="20.8"/>
			</g>
			<g>
				<rect x="191" y="476" class="st0" width="20.8" height="20.8"/>
				<rect x="192.8" y="476" class="st7" width="19" height="20.8"/>
			</g>
			<rect x="117.5" y="331.8" class="st6" width="135.3" height="1.9"/>
			<rect x="117.5" y="427.6" class="st6" width="135.3" height="1.9"/>
		</g>
		<g>
			<rect x="41.8" y="282.6" class="st6" width="93.6" height="227.7"/>
			<rect x="41.8" y="282.6" class="st5" width="66.9" height="227.7"/>
			<g>
				<rect x="48.7" y="301.3" class="st0" width="24.9" height="12.1"/>
				<rect x="50.4" y="301.3" class="st7" width="23.2" height="12.1"/>
			</g>
			<g>
				<rect x="77.5" y="301.3" class="st0" width="24.9" height="12.1"/>
				<rect x="79.2" y="301.3" class="st7" width="23.2" height="12.1"/>
			</g>
			<g>
				<rect x="48.7" y="324.1" class="st0" width="24.9" height="12.1"/>
				<rect x="50.4" y="324.1" class="st7" width="23.2" height="12.1"/>
			</g>
			<g>
				<rect x="77.5" y="324.1" class="st0" width="24.9" height="12.1"/>
				<rect x="79.2" y="324.1" class="st7" width="23.2" height="12.1"/>
			</g>
			<g>
				<rect x="48.7" y="353.2" class="st0" width="24.9" height="12.1"/>
				<rect x="50.4" y="353.2" class="st7" width="23.2" height="12.1"/>
			</g>
			<g>
				<rect x="77.5" y="353.2" class="st0" width="24.9" height="12.1"/>
				<rect x="79.2" y="353.2" class="st7" width="23.2" height="12.1"/>
			</g>
			<g>
				<rect x="48.7" y="369.9" class="st0" width="24.9" height="12.1"/>
				<rect x="50.4" y="369.9" class="st7" width="23.2" height="12.1"/>
			</g>
			<g>
				<rect x="77.5" y="369.9" class="st0" width="24.9" height="12.1"/>
				<rect x="79.2" y="369.9" class="st7" width="23.2" height="12.1"/>
			</g>
			<g>
				<rect x="48.7" y="397.3" class="st0" width="24.9" height="12.1"/>
				<rect x="50.4" y="397.3" class="st7" width="23.2" height="12.1"/>
			</g>
			<g>
				<rect x="77.5" y="397.3" class="st0" width="24.9" height="12.1"/>
				<rect x="79.2" y="397.3" class="st7" width="23.2" height="12.1"/>
			</g>
			<g>
				<rect x="48.7" y="414" class="st0" width="24.9" height="12.1"/>
				<rect x="50.4" y="414" class="st7" width="23.2" height="12.1"/>
			</g>
			<g>
				<rect x="77.5" y="414" class="st0" width="24.9" height="12.1"/>
				<rect x="79.2" y="414" class="st7" width="23.2" height="12.1"/>
			</g>
			<g>
				<rect x="48.7" y="443.9" class="st0" width="24.9" height="12.1"/>
				<rect x="50.4" y="443.9" class="st7" width="23.2" height="12.1"/>
			</g>
			<g>
				<rect x="77.5" y="443.9" class="st0" width="24.9" height="12.1"/>
				<rect x="79.2" y="443.9" class="st7" width="23.2" height="12.1"/>
			</g>
			<g>
				<rect x="48.7" y="466" class="st0" width="24.9" height="12.1"/>
				<rect x="50.4" y="466" class="st7" width="23.2" height="12.1"/>
			</g>
			<g>
				<rect x="77.5" y="466" class="st0" width="24.9" height="12.1"/>
				<rect x="79.2" y="466" class="st7" width="23.2" height="12.1"/>
			</g>
			<rect x="41.8" y="343.6" class="st8" width="93.6" height="2.1"/>
			<rect x="41.8" y="388.6" class="st8" width="93.6" height="2.1"/>
			<rect x="41.8" y="434" class="st8" width="93.6" height="2.1"/>
			<rect x="37.4" y="275.9" class="st6" width="98" height="7.3"/>
			<rect x="113" y="275.9" class="st8" width="22.4" height="7.3"/>
		</g>
		<g>
			<rect x="308.7" y="210.7" class="st0" width="109.9" height="285.6"/>
			<rect x="268" y="210.7" class="st5" width="109.9" height="285.6"/>
			<g>
				<rect x="277.6" y="230.1" class="st0" width="90.7" height="14.5"/>
				<rect x="281.1" y="230.1" class="st7" width="87.2" height="14.5"/>
			</g>
			<g>
				<rect x="277.6" y="254.6" class="st0" width="90.7" height="14.5"/>
				<rect x="281.1" y="254.6" class="st7" width="87.2" height="14.5"/>
			</g>
			<g>
				<rect x="277.6" y="280" class="st0" width="90.7" height="14.5"/>
				<rect x="281.1" y="280" class="st7" width="87.2" height="14.5"/>
			</g>
			<g>
				<rect x="277.6" y="305.5" class="st0" width="90.7" height="14.5"/>
				<rect x="281.1" y="305.5" class="st7" width="87.2" height="14.5"/>
			</g>
			<g>
				<rect x="277.6" y="330.9" class="st0" width="90.7" height="14.5"/>
				<rect x="281.1" y="330.9" class="st7" width="87.2" height="14.5"/>
			</g>
			<g>
				<rect x="277.6" y="356.4" class="st0" width="90.7" height="14.5"/>
				<rect x="281.1" y="356.4" class="st7" width="87.2" height="14.5"/>
			</g>
			<g>
				<rect x="277.6" y="384.4" class="st0" width="90.7" height="14.5"/>
				<rect x="281.1" y="384.4" class="st7" width="87.2" height="14.5"/>
			</g>
			<g>
				<rect x="277.6" y="412.4" class="st0" width="90.7" height="14.5"/>
				<rect x="281.1" y="412.4" class="st7" width="87.2" height="14.5"/>
			</g>
			<g>
				<rect x="277.6" y="440.5" class="st0" width="90.7" height="14.5"/>
				<rect x="281.1" y="440.5" class="st7" width="87.2" height="14.5"/>
			</g>
			<g>
				<rect x="277.6" y="468.5" class="st0" width="90.7" height="14.5"/>
				<rect x="281.1" y="468.5" class="st7" width="87.2" height="14.5"/>
			</g>
			<rect x="264.9" y="207.8" class="st6" width="156.5" height="7"/>
			<rect x="264.9" y="195.3" class="st6" width="156.5" height="7"/>
			<rect x="268" y="200.9" class="st5" width="148.2" height="7"/>
			<rect x="388" y="230.1" class="st6" width="30.6" height="14.6"/>
			<rect x="388" y="254" class="st6" width="30.6" height="14.6"/>
			<rect x="388" y="278" class="st6" width="30.6" height="14.6"/>
			<rect x="388" y="305.5" class="st6" width="30.6" height="14.6"/>
			<rect x="388" y="330.9" class="st6" width="30.6" height="14.6"/>
			<rect x="388" y="356.4" class="st6" width="30.6" height="14.6"/>
			<rect x="388" y="384.4" class="st6" width="30.6" height="14.6"/>
			<rect x="388" y="412.4" class="st6" width="30.6" height="14.6"/>
			<rect x="388" y="440.5" class="st6" width="30.6" height="14.6"/>
			<rect x="388" y="468.5" class="st6" width="30.6" height="14.6"/>
		</g>
	</g>
	<g>
		<rect x="214.1" y="191.6" class="st9" width="157.8" height="308"/>
		<rect x="214.1" y="191.6" class="st10" width="129.1" height="308"/>
		<rect x="210.7" y="191.6" class="st9" width="163.1" height="5"/>
		<rect x="210.7" y="181.6" class="st9" width="163.1" height="5"/>
		<rect x="214.1" y="186.6" class="st5" width="156.3" height="5"/>
		<g>
			<rect x="226.3" y="209.8" class="st9" width="24.3" height="24.3"/>
			<rect x="228.5" y="209.8" class="st11" width="22.1" height="24.3"/>
		</g>
		<g>
			<rect x="263" y="209.8" class="st9" width="24.3" height="24.3"/>
			<rect x="265.2" y="209.8" class="st11" width="22.1" height="24.3"/>
		</g>
		<g>
			<rect x="299.8" y="209.8" class="st9" width="24.3" height="24.3"/>
			<rect x="301.9" y="209.8" class="st11" width="22.1" height="24.3"/>
		</g>
		<g>
			<rect x="226.3" y="245.5" class="st9" width="24.3" height="24.3"/>
			<rect x="228.5" y="245.5" class="st11" width="22.1" height="24.3"/>
		</g>
		<g>
			<rect x="263" y="245.5" class="st9" width="24.3" height="24.3"/>
			<rect x="265.2" y="245.5" class="st11" width="22.1" height="24.3"/>
		</g>
		<g>
			<rect x="299.8" y="245.5" class="st9" width="24.3" height="24.3"/>
			<rect x="301.9" y="245.5" class="st11" width="22.1" height="24.3"/>
		</g>
		<g>
			<rect x="226.3" y="310.9" class="st9" width="24.3" height="24.3"/>
			<rect x="228.5" y="310.9" class="st11" width="22.1" height="24.3"/>
		</g>
		<g>
			<rect x="263" y="310.9" class="st9" width="24.3" height="24.3"/>
			<rect x="265.2" y="310.9" class="st11" width="22.1" height="24.3"/>
		</g>
		<g>
			<rect x="299.8" y="310.9" class="st9" width="24.3" height="24.3"/>
			<rect x="301.9" y="310.9" class="st11" width="22.1" height="24.3"/>
		</g>
		<g>
			<rect x="226.3" y="346.6" class="st9" width="24.3" height="24.3"/>
			<rect x="228.5" y="346.6" class="st11" width="22.1" height="24.3"/>
		</g>
		<g>
			<rect x="263" y="346.6" class="st9" width="24.3" height="24.3"/>
			<rect x="265.2" y="346.6" class="st11" width="22.1" height="24.3"/>
		</g>
		<g>
			<rect x="299.8" y="346.6" class="st9" width="24.3" height="24.3"/>
			<rect x="301.9" y="346.6" class="st11" width="22.1" height="24.3"/>
		</g>
		<g>
			<rect x="226.3" y="419.3" class="st9" width="24.3" height="24.3"/>
			<rect x="228.5" y="419.3" class="st11" width="22.1" height="24.3"/>
		</g>
		<g>
			<rect x="263" y="419.3" class="st9" width="24.3" height="24.3"/>
			<rect x="265.2" y="419.3" class="st11" width="22.1" height="24.3"/>
		</g>
		<g>
			<rect x="299.8" y="419.3" class="st9" width="24.3" height="24.3"/>
			<rect x="301.9" y="419.3" class="st11" width="22.1" height="24.3"/>
		</g>
		<g>
			<rect x="226.3" y="455" class="st9" width="24.3" height="24.3"/>
			<rect x="228.5" y="455" class="st11" width="22.1" height="24.3"/>
		</g>
		<g>
			<rect x="263" y="455" class="st9" width="24.3" height="24.3"/>
			<rect x="265.2" y="455" class="st11" width="22.1" height="24.3"/>
		</g>
		<g>
			<rect x="299.8" y="455" class="st9" width="24.3" height="24.3"/>
			<rect x="301.9" y="455" class="st11" width="22.1" height="24.3"/>
		</g>
		<rect x="214.1" y="286.8" class="st11" width="157.8" height="2.2"/>
		<rect x="214.1" y="398.6" class="st11" width="157.8" height="2.2"/>
		<polygon class="st9" points="149.2,385.7 76.6,385.7 76.6,499.6 192.4,499.6 192.4,385.7 192.4,335.1 		"/>
		<rect x="192.4" y="335.1" class="st9" width="21.6" height="164.5"/>
		<rect x="192.4" y="335.1" class="st12" width="21.6" height="164.5"/>
		<rect x="343.2" y="196.6" class="st12" width="28.7" height="303"/>
		<rect x="343.2" y="191.6" class="st13" width="30.6" height="5"/>
		<rect x="343.2" y="181.6" class="st13" width="30.6" height="5"/>
		<polygon class="st10" points="149.2,385.7 76.6,385.7 76.6,499.6 192.4,499.6 192.4,385.7 192.4,335.1 		"/>
		<g>
			<rect x="87.1" y="408.8" class="st9" width="17.2" height="17.2"/>
			<rect x="122.2" y="408.8" class="st9" width="17.2" height="17.2"/>
			<rect x="157.3" y="408.8" class="st9" width="17.2" height="17.2"/>
			<rect x="87.1" y="437.8" class="st9" width="17.2" height="17.2"/>
			<rect x="122.2" y="437.8" class="st9" width="17.2" height="17.2"/>
			<rect x="157.3" y="437.8" class="st9" width="17.2" height="17.2"/>
			<rect x="87.1" y="466.8" class="st9" width="17.2" height="17.2"/>
			<rect x="122.2" y="466.8" class="st9" width="17.2" height="17.2"/>
			<rect x="157.3" y="466.8" class="st9" width="17.2" height="17.2"/>
			<g>
				<rect x="89" y="408.8" class="st11" width="17.2" height="17.2"/>
				<rect x="124.1" y="408.8" class="st11" width="17.2" height="17.2"/>
				<rect x="159.2" y="408.8" class="st11" width="17.2" height="17.2"/>
				<rect x="89" y="437.8" class="st11" width="17.2" height="17.2"/>
				<rect x="124.1" y="437.8" class="st11" width="17.2" height="17.2"/>
				<rect x="159.2" y="437.8" class="st11" width="17.2" height="17.2"/>
				<rect x="89" y="466.8" class="st11" width="17.2" height="17.2"/>
				<rect x="124.1" y="466.8" class="st11" width="17.2" height="17.2"/>
				<rect x="159.2" y="466.8" class="st11" width="17.2" height="17.2"/>
			</g>
		</g>
	</g>
</g>
<g>
	<path class="st14" d="M431.9,294.9c0,0,3.9,9.2-4.8,13.5c-8.7,4.3,23.1,12.5,26.5,1.9c0,0-8.7-3.4-4.8-13.5L431.9,294.9z"/>
	<polygon class="st14" points="442.3,483.9 441.8,494 450,495.5 450,485.4 	"/>
	<polygon class="st14" points="411.4,483.9 411.9,494 403.7,495.5 403.7,485.4 	"/>
	<circle class="st14" cx="441.3" cy="286.9" r="13.5"/>
	<polygon class="st14" points="460.1,384.7 459.6,388.6 462,397.7 465.4,389.5 	"/>
	<path class="st9" d="M406.6,386.1l-2.9,34.2c0,0-3.4,6.3-1.4,11.6c0,0-2.9,7.2-1.9,9.6s1.4,4.8,0.5,5.8c-1,1-1.4,27.9,0,30.3
		s2.4,8.2,2.4,8.2s8.2,1.9,10.1-3.4s1-5.8,2.9-7.2s1.9-21.7,1.9-21.7s-2.4-2.4-1-3.4s2.4,0,1-2.4s-3.9-2.4-1.4-3.4
		c1.3-0.5,2.6-1.2,3.9-1.9l14-36.6c0,0,5.3,40.9,6.3,42.9s2.4-0.5,1,1.9s-1.9,1-1.4,2.4s-2.9,22.2-1,26.5c1.1,2.5,2.1,5.1,2.9,7.7
		c0,0,7.7,3.4,8.7,1s0.5-6.7,1.9-7.2s2.9-1.4,2.9-5.3s2.9-22.6,2.9-22.6s-3.4-1.4-2.4-3.9c1-2.4,1-1.9,0.5-3.9s-1.4-2.4-0.5-3.9
		c1-1.4,1-5.8,1-5.8l5.8-38l-4.5-13L406.6,386.1z"/>
	<path class="st9" d="M442.8,491.6c0,0-1.4-1.4-1.9,0s-0.5,14.9-0.5,14.9s3.9,2.9,3.9,4.3c0,1.4,2.9,6.3,9.6,5.3c0.1,0,0.1,0,0.2,0
		c3.5-0.6,5.8-3.8,5.3-7.3c-0.1-0.6-0.3-1.2-0.5-1.7l-6.9-14.5C451.9,492.6,447.1,487.8,442.8,491.6z"/>
	<path class="st9" d="M411,491.6c0,0,1.4-1.4,1.9,0s0.5,14.9,0.5,14.9s-3.9,2.9-3.9,4.3c0,1.4-2.9,6.3-9.6,5.3c-0.1,0-0.1,0-0.2,0
		c-3.5-0.6-5.8-3.8-5.3-7.3c0.1-0.6,0.3-1.2,0.5-1.7l6.9-14.5C401.8,492.6,406.6,487.8,411,491.6z"/>
	<path class="st9" d="M431,272.3l-2.4-1c0,0,5-5.5,12-5.1l-2-2.2c0,0,4.8-1.9,9.2,3.1c2.3,2.7,5,5.8,6.6,9.3h2.6l-1,2.6l3.8,2.4
		l-3.9-0.4c0.4,2,0.2,4.2-0.4,6.1l0.1,1.9c0,0-4.5-6.9-4.5-7.9v2.4c0,0-2.4-2.2-2.4-3.6l-1.3,1.7l-0.7-2.7l-8.1,2.7l1.3-2.2l-5,0.7
		l2-2.7c0,0-5.7,3.1-5.9,5.8c-0.2,2.7-3.1,6-3.1,6l-1.3-2.4C426.7,286.8,424.7,275.9,431,272.3z"/>
	<path class="st15" d="M462,316.8h5.4c0.8,0,1.5,0.6,1.7,1.4c0.8,3.7,3,14.1,2.6,22.2c-0.5,10.1,0.5,17.3,0,18.8
		c-0.5,1.4,0,1.9,0,3.4s1.4,0.5,0,2.4s-1.4,1.4-1.4,2.9c0,1.4-4.8,23.6-4.8,23.6s-3.3-5.4-7-4.4l0.7-19.7l1-8.2l-1.4-14.4L462,316.8
		z"/>
	<path class="st3" d="M438.7,311.7c0,0-8.2-0.3-10.8-3.8c0,0-17.1,5.7-19,10.5s6.7,26.5,6.7,26.5s-14.9,44.3-7.7,44.3
		c7.2,0,23.6,5.8,33.2,2.4c6-2.1,12.1-3.7,18.3-4.8c0,0,1-13,0-15.4s-3.4-1-1.9-4.3c1.4-3.4,1-3.9,0.5-5.3s1-3.4,1-5.3
		s-0.5-6.3-0.5-6.3s13-30.3,10.1-33.2c-2.9-2.9-17.6-8.5-17.6-8.5S446.8,313.7,438.7,311.7z"/>
	<path class="st14" d="M400.9,389.5c0,0-4.3,22.6,2.9,20.7c7.2-1.9,3.9-20.7,3.9-20.7H400.9z"/>
	<path class="st15" d="M411.9,316.8l-1.7,0.9c-1.3,0.7-2.3,1.9-2.6,3.4l-6.8,36.2c0,0-1.9,4.3-1.9,4.8s1,0.5,0,1.9s-2.4,1-1.4,1.9
		c0.5,0.5,0.9,1.2,1,1.9l1,23.6c0,0,8.2-2.4,10.6,0c0,0-2.4-7.2-1-9.6s1.4-5.8,1.4-5.8s-1,0,1.4-2.4s2.9-3.4,2.4-3.9s-1-4.8-1-5.3
		s4.8-32.7,4.8-32.7L411.9,316.8z"/>
</g>
</svg>
