<?xml version="1.0" encoding="utf-8"?>
<!-- Generator: Adobe Illustrator 24.2.1, SVG Export Plug-In . SVG Version: 6.00 Build 0)  -->
<svg version="1.1" id="f885adbf-893a-4cbc-9f2f-51541a368feb"
	 xmlns="http://www.w3.org/2000/svg" xmlns:xlink="http://www.w3.org/1999/xlink" x="0px" y="0px" viewBox="0 0 1090.8 795.1"
	 style="enable-background:new 0 0 1090.8 795.1;" xml:space="preserve">
<style type="text/css">
	.st0{opacity:0.74;fill:#E0E0E0;enable-background:new    ;}
	.st1{fill:#A8CCFF;}
	.st2{opacity:0.6;fill:#FFFFFF;enable-background:new    ;}
	.st3{fill:#345999;}
	.st4{fill:#FFFFFF;}
	.st5{opacity:0.5;fill:#C8DFFD;enable-background:new    ;}
	.st6{fill:#0D458E;}
	.st7{opacity:0.3;}
	.st8{fill:#B8D0FC;}
	.st9{fill:#041147;}
	.st10{fill:#25468F;}
	.st11{fill:#FF912B;}
	.st12{fill:#FFEBD8;}
	.st13{fill:#122A68;}
	.st14{fill:#F9D0B3;}
	.st15{fill:#FC7600;}
	.st16{fill:#FF8300;}
	.st17{fill:#F99352;}
	.st18{fill:#FFAE73;}
	.st19{fill:#FDDBBA;}
	.st20{fill:#EB6600;}
	.st21{fill:#1E3865;}
	.st22{fill:#0B3563;}
	.st23{fill:#F1DDCB;}
	.st24{fill:#F9924F;}
	.st25{fill:#F8CAA4;}
	.st26{fill:#0086D8;}
	.st27{fill:#C8DFFD;enable-background:new    ;}
</style>
<g>
	<path class="st0" d="M94.1,795.1l324.1-1.7h86.4h28.6h86.5l395.4-0.1c0,0,90.4-116-6.2-226.1C908.7,453,860,546,829.2,385.2
		C751.8-19.5-14.5,216,186.5,560.3C258.9,684.3,44.1,618.4,94.1,795.1z"/>
	<g>
		<g>
			<path class="st1" d="M392.2,713.6l-1.8-1c-1.9-1-2.6-3.4-1.5-5.3l8.1-14.7c1-1.9,3.4-2.6,5.3-1.5l2.5,1.4c0.4,0.2,0.5,0.7,0.3,1
				c-0.2,0.4-0.7,0.5-1,0.3l-2.5-1.4c-1.1-0.6-2.6-0.2-3.2,0.9l-8.1,14.7c-0.6,1.1-0.2,2.6,0.9,3.2l1.8,1c1.1,0.6,2.6,0.2,3.2-0.9
				l5.3-9.8c0.2-0.4,0.7-0.5,1-0.3c0.4,0.2,0.5,0.7,0.3,1l-5.3,9.8C396.4,714,394.1,714.6,392.2,713.6z"/>
		</g>
		<g>
			<path class="st1" d="M384.7,729.1l-3.1-1.7c-2.9-1.6-3.9-5.4-2.2-8.6l12.1-22.1c0.2-0.4,0.7-0.5,1-0.3s0.5,0.7,0.3,1l-12.1,22.1
				c-1.3,2.4-0.6,5.3,1.6,6.5l3.1,1.7c2.2,1.2,5,0.2,6.3-2.2l13.8-25.2c1.3-2.4,0.6-5.3-1.6-6.5c-0.4-0.2-0.5-0.7-0.3-1
				c0.2-0.4,0.7-0.5,1-0.3c2.9,1.6,3.9,5.4,2.2,8.6L393,726.3C391.4,729.4,387.6,730.7,384.7,729.1z"/>
		</g>
	</g>
	<g>
		<path class="st2" d="M656.6,631.8H332.5c-26.4,0-47.9-21.4-47.9-47.9V321.7c0-26.4,21.4-47.9,47.9-47.9h324.2
			c26.4,0,47.9,21.4,47.9,47.9V584C704.5,610.4,683.1,631.8,656.6,631.8z"/>
		<path class="st3" d="M704.5,313.6H284.6v-4c0-19.7,16-35.7,35.7-35.7h348.5c19.7,0,35.7,16,35.7,35.7L704.5,313.6L704.5,313.6z"/>
		<g>
			<path class="st4" d="M301.6,293.5c0-2.6,2.1-4.7,4.7-4.7s4.7,2.1,4.7,4.7s-2.1,4.7-4.7,4.7S301.6,296.1,301.6,293.5z"/>
			<path class="st4" d="M321.5,293.5c0-2.6,2.1-4.7,4.7-4.7s4.7,2.1,4.7,4.7s-2.1,4.7-4.7,4.7S321.5,296.1,321.5,293.5z"/>
			<path class="st4" d="M341.4,293.5c0-2.6,2.1-4.7,4.7-4.7s4.7,2.1,4.7,4.7s-2.1,4.7-4.7,4.7C343.6,298.2,341.4,296.1,341.4,293.5z
				"/>
		</g>
		<rect x="317.9" y="345.1" class="st5" width="119" height="119"/>
		<path class="st6" d="M563.9,354h-94.7c-2.5,0-4.5-2-4.5-4.5l0,0c0-2.5,2-4.5,4.5-4.5h94.7c2.5,0,4.5,2,4.5,4.5l0,0
			C568.4,352,566.4,354,563.9,354z"/>
		<path class="st6" d="M677.2,348h-94.7c-2.5,0-4.5-2-4.5-4.5l0,0c0-2.5,2-4.5,4.5-4.5h94.7c2.5,0,4.5,2,4.5,4.5l0,0
			C681.7,345.9,679.7,348,677.2,348z"/>
		<g class="st7">
			<path class="st8" d="M582.7,388.6h-115c-1.6,0-2.9-1.3-2.9-2.9l0,0c0-1.6,1.3-2.9,2.9-2.9h115c1.6,0,2.9,1.3,2.9,2.9l0,0
				C585.6,387.3,584.3,388.6,582.7,388.6z"/>
			<path class="st8" d="M626.4,388.6H596c-1.6,0-2.9-1.3-2.9-2.9l0,0c0-1.6,1.3-2.9,2.9-2.9h30.4c1.6,0,2.9,1.3,2.9,2.9l0,0
				C629.3,387.3,628,388.6,626.4,388.6z"/>
			<path class="st8" d="M511.1,406.7h-43.4c-1.6,0-2.9-1.3-2.9-2.9l0,0c0-1.6,1.3-2.9,2.9-2.9h43.4c1.6,0,2.9,1.3,2.9,2.9l0,0
				C514,405.4,512.7,406.7,511.1,406.7z"/>
			<path class="st8" d="M581.4,406.7h-59.5c-1.6,0-2.9-1.3-2.9-2.9l0,0c0-1.6,1.3-2.9,2.9-2.9h59.5c1.6,0,2.9,1.3,2.9,2.9l0,0
				C584.3,405.4,583,406.7,581.4,406.7z"/>
			<path class="st8" d="M626.4,406.7H596c-1.6,0-2.9-1.3-2.9-2.9l0,0c0-1.6,1.3-2.9,2.9-2.9h30.4c1.6,0,2.9,1.3,2.9,2.9l0,0
				C629.3,405.4,628,406.7,626.4,406.7z"/>
			<path class="st8" d="M526.6,422.3h-58.9c-1.6,0-2.9-1.3-2.9-2.9l0,0c0-1.6,1.3-2.9,2.9-2.9h58.9c1.6,0,2.9,1.3,2.9,2.9l0,0
				C529.5,421,528.2,422.3,526.6,422.3z"/>
			<path class="st8" d="M639,422.3h-96.3c-1.6,0-2.9-1.3-2.9-2.9l0,0c0-1.6,1.3-2.9,2.9-2.9H639c1.6,0,2.9,1.3,2.9,2.9l0,0
				C641.9,421,640.6,422.3,639,422.3z"/>
		</g>
		<g class="st7">
			<path class="st8" d="M582.7,446.1h-115c-1.6,0-2.9-1.3-2.9-2.9l0,0c0-1.6,1.3-2.9,2.9-2.9h115c1.6,0,2.9,1.3,2.9,2.9l0,0
				C585.6,444.8,584.3,446.1,582.7,446.1z"/>
			<path class="st8" d="M626.4,446.1H596c-1.6,0-2.9-1.3-2.9-2.9l0,0c0-1.6,1.3-2.9,2.9-2.9h30.4c1.6,0,2.9,1.3,2.9,2.9l0,0
				C629.3,444.8,628,446.1,626.4,446.1z"/>
			<path class="st8" d="M511.1,464.2h-43.4c-1.6,0-2.9-1.3-2.9-2.9l0,0c0-1.6,1.3-2.9,2.9-2.9h43.4c1.6,0,2.9,1.3,2.9,2.9l0,0
				C514,462.8,512.7,464.2,511.1,464.2z"/>
			<path class="st8" d="M581.4,464.2h-59.5c-1.6,0-2.9-1.3-2.9-2.9l0,0c0-1.6,1.3-2.9,2.9-2.9h59.5c1.6,0,2.9,1.3,2.9,2.9l0,0
				C584.3,462.8,583,464.2,581.4,464.2z"/>
		</g>
		<g>
			<path class="st6" d="M371.2,362.9h12.3l33.2,76h-14l-7.7-18.2h-35.7l-7.8,18.2H338L371.2,362.9z M390.2,408.9l-13-30.2
				l-12.9,30.2H390.2z"/>
		</g>
		<g>
			<rect x="317.9" y="488.1" class="st6" width="66.5" height="12.8"/>
			<rect x="317.9" y="501" class="st6" width="66.5" height="12.8"/>
			<rect x="317.9" y="513.8" class="st6" width="66.5" height="12.8"/>
		</g>
		<g>
			<path class="st6" d="M433.3,495.4h-36.6c-1.5,0-2.8-1.2-2.8-2.8l0,0c0-1.5,1.2-2.8,2.8-2.8h36.6c1.5,0,2.8,1.2,2.8,2.8l0,0
				C436.1,494.2,434.9,495.4,433.3,495.4z"/>
			<path class="st6" d="M421,505.2h-24.3c-1.5,0-2.8-1.2-2.8-2.8l0,0c0-1.5,1.2-2.8,2.8-2.8H421c1.5,0,2.8,1.2,2.8,2.8l0,0
				C423.8,503.9,422.6,505.2,421,505.2z"/>
		</g>
		<polygon class="st5" points="317.9,554.5 317.9,574.3 317.9,580.7 317.9,593 384.4,593 384.4,580.7 384.4,574.3 384.4,554.5 		"/>
		<g>
			<path class="st6" d="M433.3,561.8h-36.6c-1.5,0-2.8-1.2-2.8-2.8l0,0c0-1.5,1.2-2.8,2.8-2.8h36.6c1.5,0,2.8,1.2,2.8,2.8l0,0
				C436.1,560.5,434.9,561.8,433.3,561.8z"/>
			<path class="st6" d="M421,571.5h-24.3c-1.5,0-2.8-1.2-2.8-2.8l0,0c0-1.5,1.2-2.8,2.8-2.8H421c1.5,0,2.8,1.2,2.8,2.8l0,0
				C423.8,570.3,422.6,571.5,421,571.5z"/>
		</g>
	</g>
	<g>
		<path class="st9" d="M708.8,306.3c0,0,1.7,20.6-3,20.3c-4.7-0.3-14-9.4-32.7-7.9s-41.7,5.6-55.5-18.9
			c-13.9-24.5,17.7-31.6,17.7-31.6L708.8,306.3L708.8,306.3z"/>
		<polygon class="st10" points="668.9,304.8 763.3,312.5 765.3,308.3 674.8,241.5 583.3,230.8 581.6,234.6 		"/>
		<g>
			<path class="st11" d="M733.2,375.9c-0.6-1.9-2.6-3.1-4.5-2.5s-3.1,2.6-2.5,4.5s2.6,3.1,4.5,2.5
				C732.6,379.9,733.7,377.8,733.2,375.9L733.2,375.9z"/>
			<path class="st11" d="M730,376.9c3.8-0.3,4.7,34.2,4.7,34.2s-2.5,1.2-3.7,0.9c-1.2-0.3-1.8-4.9-1.8-4.9l-0.1,4.9
				c0,0-4.2,0.1-5.6-0.9C723.5,411,724,377.4,730,376.9L730,376.9z"/>
		</g>
		<polygon class="st11" points="731.3,377.7 730.6,302.4 730.1,302 680.8,265.6 679,268 727.8,304.1 728.9,377.5 		"/>
	</g>
	<g>
		<g>
			<g>
				<path class="st12" d="M786.2,732.8H587.5V654h199.6c21.5,0,39,17.4,39,39l0,0C826,715,808.2,732.8,786.2,732.8z"/>
				<path class="st9" d="M1003.9,686.4v11.9c0,6.3-1.6,12.3-4.4,17.4c-5.6,10.3-16,17.2-27.9,17.2H581.1c-2.6,0-4.7-2.2-4.7-5V726
					c0-2.8,2.1-5,4.7-5h238.1c1.3-1.7,2.4-3.5,3.3-5.4c2.2-4.5,3.5-9.6,3.5-15.1v-15.1c0-2.8-0.3-5.5-1-8c-1.1-4.3-3-8.3-5.5-11.7
					H581.1c-2.6,0-4.7-2.2-4.7-5V659c0-2.8,2.1-5,4.7-5h392.6c13.8,0,25.5,9.9,29.1,23.5C1003.5,680.3,1003.9,683.3,1003.9,686.4z"
					/>
				<path class="st13" d="M1002.8,677.5H825.1c-1.1-4.3-3-8.3-5.5-11.7H581.1c-2.6,0-4.7-2.2-4.7-5V659c0-2.8,2.1-5,4.7-5h392.6
					C987.5,654,999.2,663.9,1002.8,677.5z"/>
			</g>
			<polygon class="st14" points="587.5,679.5 616.4,680.8 587.5,686 			"/>
			<polygon class="st14" points="587.5,705.8 656.3,707.1 587.5,707.9 			"/>
		</g>
		<g>
			<path class="st11" d="M626.1,680.7c0,0-4.4,2.9-5.9,7.5c-0.3,0.8-0.4,1.7-0.5,2.6c-0.2,6.2,0,20.4,0,20.4l-13.1-7.1l-13.1,7.1
				v-19.1c0-3.6,1.1-7.1,3.2-9.4c1-1.1,2.2-2,3.6-2H626.1z"/>
			<path class="st15" d="M626.1,680.7c0,0-4.4,2.9-5.9,7.5l-26.3,0.3c0,0,1-6.7,6.5-7.8H626.1z"/>
		</g>
		<g>
			<g>
				<g>
					<path class="st16" d="M559.4,794h201.4v-61.3H557.4c-16.4,0-29.7,13.3-29.7,29.7l0,0C527.8,779.8,541.9,794,559.4,794z"/>
					<path class="st12" d="M753.2,794H983v-61.3H752.5c-16.7,0-30.3,13.6-30.3,30.3l0,0C722.2,780.1,736.1,794,753.2,794z"/>
					<path class="st11" d="M707.2,794h283.3c2.5,0,4.6-2.1,4.6-4.6l0,0c0-2.5-2.1-4.6-4.6-4.6H707.2c-2.5,0-4.6,2.1-4.6,4.6l0,0
						C702.6,791.9,704.7,794,707.2,794z"/>
					<path class="st16" d="M707.2,741.8h283.3c2.5,0,4.6-2.1,4.6-4.6l0,0c0-2.5-2.1-4.6-4.6-4.6H707.2c-2.5,0-4.6,2.1-4.6,4.6l0,0
						C702.6,739.8,704.7,741.8,707.2,741.8z"/>
				</g>
				<polygon class="st16" points="983,763.3 951.4,764.3 983,765 				"/>
				<polygon class="st16" points="983,749.2 907.8,750.2 983,750.8 				"/>
			</g>
			<g>
				<path class="st10" d="M908.6,750c0,0,3.2,2.6,4.3,7c0.2,0.8,0.3,1.6,0.3,2.4c0.2,5.8,0,18.8,0,18.8l9.5-6.5l9.5,6.5v-17.6
					c0-3.3-0.8-6.6-2.3-8.7c-0.7-1-1.6-1.8-2.6-1.8h-18.7V750z"/>
				<path class="st9" d="M908.6,750c0,0,3.2,2.6,4.3,7l19.1,0.3c0,0-0.7-6.2-4.7-7.2L908.6,750L908.6,750z"/>
			</g>
		</g>
	</g>
	<g id="girl_2_15_">
		<path class="st17" d="M890,515c0,0,38.4,16.7,45.3,16.4c7-0.3,49.8-13.1,49.8-13.1l-1.1,7.4c0,0-33.1,19-44.7,20.1
			c-11.4,1-50.3-10.3-54.1-12.6C881.3,530.9,879.1,517.5,890,515z"/>
		<path class="st9" d="M884.2,453.6c0,0-14.2-2.7-21.2,2.4c-12.8,9.3-13.4,41.4-18.2,46.2c-4.8,4.8-16.3,2.7-17.4,27.5
			c-1,24.7,4.6,26.8-2.1,37.9c-6.7,11,2.8,22.1,2.8,22.1s-3.9-6.1-2.2-10.5c0,0,1.6,9.7,7.8,12c6.2,2.2,7.1,3.9,8.1,7.3
			c0,0,52.6-27,52.7-46.1c0.1-19.1,10.4-38.1,5.3-46.4c0,0,2.2,3.5,2.5,7.5c0,0,3.1-5.8-2.2-11.2c-5.2-5.4,6.2-16.6,4.5-29.6
			C903.5,463.8,897.3,454,884.2,453.6z"/>
		<path class="st18" d="M894.7,533.3c-3.4,2.3-7.6,4.3-12.9,5.5c-19.9,4.6-27.4-12.2-30.3-23.7c2.7-1.6,5.2-1.9,6.7-2.1
			c1.4-0.2,3-0.3,4.2-0.4c2.2-1.7,5.6-8.7,6.3-19.6l0.9,0.3l15.7,4.3c0,0-0.7,4.9-1,9.7c-0.3,3.6-0.3,7.2,0.4,8c1.2,0.3,2,0.5,2,0.5
			l0,0C886.7,516.2,891.2,523.6,894.7,533.3z"/>
		<path class="st17" d="M885.2,497.6c0,0-0.7,4.9-1,9.7c-8.9-0.9-13-9.3-14.6-14L885.2,497.6z"/>
		<path class="st18" d="M887.9,502.3c0,0-21.1-1.1-20.2-14.3c0.9-13.1-1.2-22.1,12.3-21.8c13.4,0.2,15.8,5.4,16.5,9.8
			C897.3,480.4,893.4,502.3,887.9,502.3z"/>
		<path class="st9" d="M896.4,468.7c-3-4.2-5.5-3.5-6.9-2.4c-11-7.2-19.1,1.7-19.1,1.7c-2.1,9.3-9.2,14.2-9.2,14.2s3.6,2.6,12.7,1
			c2.7-0.5,5.3-2.2,7.5-4.4c-4,5.7-9.1,9.7-9.1,9.7c10.9-4.1,16.2-18.5,16.7-20.1c1.2,1.2,3.5,3.9,4.1,6.4c0.8,3.5,4.3,8.8,6.3,8.7
			C899.3,483.5,900.9,474.9,896.4,468.7z"/>
		<path class="st19" d="M845.4,576.1c-1.9-9.7-8.1-48.5-1.9-61c2.2-4.5,10.9-4.9,20.5-4.5c3,2,14.4,9.2,19,8.3c0.1,0,0.2,0,0.3-0.1
			c2.2-0.6,3-2.1,1.2-3.5c0,0,4.8-0.5,10.6,0.7c3.4,0.7,12.3,5.3,12.3,5.3s-4.5,8.2-11.2,11c1.1,10.2-0.6,14.7-11.1,38.1
			c-8.9,19.8,1.2,37.6,1.2,37.6s-52.4,42.1-52.6,20.6C833.5,612.5,847.8,588.5,845.4,576.1z"/>
		<path class="st20" d="M889,653.8c2.9-0.3,5.4-1.9,7-4.3c0.3-0.4,0.6-0.7,0.8-1.2c6-9.1,8.3-36.7,21.7-66.1
			c3.3-7.2,15-8.5,18.2-16.5c0,0,7.8-26.2-15-27.1c-23-0.7-61.4,73.1-62,80.8C859,626.9,844.5,658.8,889,653.8z"/>
		<path class="st21" d="M980.2,653.2h-32.7c0,0-1.2-5.2,0.9-8.8c1.9-3.2,1.2-4.9-0.3-7.5c1.5,0.6,3.4,1.1,5.5,1
			c1.6-0.1,3.4-0.8,4.9-1.7c1.4,1.6,7.4,8.4,9.3,9.8C970,647.5,979.5,647,980.2,653.2z"/>
		<path class="st16" d="M937.4,546.2c2,14.7,9.6,61.2,23.1,83.9c4.4,7.3-11,11.4-11.1,11.4c-2.1-0.6-5.5-3.8-7.1-5.2
			c-11-9.9-33.3-37.9-33.3-60.4c0-10.9-0.2-31.9,7.7-37.2C921.8,535.3,936.7,540.3,937.4,546.2z"/>
		<path class="st11" d="M869.6,653.2c0,0,1.2-1.7,3.4-4.9c2.5-3.8,5.3-11.3,8.7-20.9c3.5-10.1,7.7-22.4,13-35.3c1.6-4,3.4-8,5.1-12
			c3.3-7.2,12.2-6.2,15.4-14.3c0,0,12.5-28.1-10.5-28.8s-66.5,75.1-69,82.5C833,627.4,819.6,660.8,869.6,653.2z"/>
		<path class="st10" d="M956.2,653.2h-32.7c0,0-1.2-5.2,0.9-8.8c1.9-3.2,1.2-4.9-0.3-7.5c1.5,0.6,3.4,1.1,5.5,1
			c1.6-0.1,3.4-0.8,4.9-1.7c1.4,1.6,7.4,8.4,9.3,9.8C946,647.5,955.5,647,956.2,653.2z"/>
		<path class="st15" d="M881.5,627.4c3.5-10.1,7.7-22.4,13-35.3c-1.4-9.8-4.3-18.3-9.3-21.7C885.2,570.3,873.2,607.7,881.5,627.4z"
			/>
		<path class="st11" d="M918.4,545.2c2,14.7,4.8,62.3,18.3,84.9c4.4,7.3-11,11.4-11.1,11.4c-2.1-0.6-5.5-3.8-7.1-5.2
			c-11-9.9-33.3-37.9-33.3-60.4c0-10.9,12.9-31,20.8-36.3C911,536.2,917.6,539.3,918.4,545.2z"/>
		<path class="st4" d="M891.8,494.8c0,0-2-0.7-7.6-0.4c0,0,0.3,2.1,4.4,2.4C891,496.9,891.8,494.8,891.8,494.8z"/>
		<g>
			<g>
				<polygon class="st22" points="989.2,503 982.5,490.8 967.9,531.6 976.4,540.9 				"/>
				<polygon class="st9" points="953.9,510.1 940.3,549 976.4,540.9 989.2,503 				"/>
				<polygon class="st23" points="941.1,547.1 940.4,545.9 953.3,509.2 953.9,510.1 				"/>
				<polygon class="st12" points="953.3,509.2 987.6,502.4 989.2,503 953.9,510.1 				"/>
			</g>
			<polygon class="st23" points="989.2,503 982,491.3 977.3,504.5 987.6,502.4 			"/>
		</g>
		<path class="st18" d="M964.3,515.7c-1.2-0.2-3.7-1.2-6.3-1.9c0.7-0.6,1.6-1.3,1.9-2.1c0.5-1.4,0.7-1.9-0.7-1.5
			c-1.5,0.5-6.8,2.9-6.8,2.9l0,0c-3,0.8-5.8,5.1-5.8,5.1s-37.3,13.2-41.9,13.3c-7,0.4-53.3-16.7-53.3-16.7
			c-10.9,2.4-8.5,15.9-4.8,18.2s37.1,14.5,56.8,14.7c10,0.1,46.4-23.2,46.4-23.2s4.3-2,7.6-1.3c3.4,0.7,11.1,0,12.8-2.7
			C972,517.9,966.4,516.2,964.3,515.7z"/>
		<path class="st19" d="M875.3,523.4c0,0-4.1,13.1-18.4,16.1c0,0-23.5-7.3-11.8-23.2C845.1,516.4,856.7,507.8,875.3,523.4z"/>
		<path class="st18" d="M988.6,516.7L988.6,516.7c0-0.4,0-0.7-0.1-1c0,0-3.4-5.3-4.5-5.5c-3.4-0.7-3.4,3.7-2.6,6.5
			c0.5,2,1.8,3.9,2.8,4.9l0,0l-0.1,4.1C989.7,522.7,988.6,516.7,988.6,516.7z"/>
	</g>
	<g>
		<path class="st21" d="M704.1,636.7c7,12.3,15.8,17.1,15.8,17.1l36.9,0.2C756.7,654,698.7,627.3,704.1,636.7z"/>
		<g>
			<path class="st18" d="M731.7,731.7c1,1.1,1.1,2.3,0.6,3.7l0,0c-0.8,2.4-3.8,5.1-7.2,7.8c-0.4,0.3-0.8,0.6-1.2,1
				c-0.1,0.1-0.2,0.1-0.2,0.2c-0.1,0.1-0.1,0.1-0.2,0.2c-3.2,2.9-2,3.6-7.7,9.4c-6.4,6.7-10.9,6.8-12.2,6.1c-1.1-0.5,1.2-4.1,3.6-8
				c0.1-0.2,0.2-0.4,0.3-0.5c0.3-0.5,0.6-1.1,1-1.6c2.9-4.8,2.1-7.1,1.5-14.3c-0.5-5.8-8.8-32.6-8.8-32.6l12.4-2
				c0,0,3.6,21.3,7.6,24.6c2.2,1.8,4.7,1.8,6.8,3.1c0.1,0.1,0.3,0.2,0.4,0.3C729.5,729.8,730.7,730.7,731.7,731.7z"/>
			<path class="st21" d="M731.7,731.7c1,1.1,1.1,2.3,0.6,3.7l0,0c-1.1,2.4-3.9,5.1-7.2,7.8c-0.4,0.3-0.8,0.6-1.2,1
				c-0.1,0.1-0.2,0.1-0.2,0.2c-0.1,0.1-0.1,0.1-0.2,0.2c-3.2,2.9-2,3.6-7.7,9.4c-6.4,6.7-10.9,6.8-12.2,6.1c-1.1-0.5,1.2-4.1,3.6-8
				c1.3-0.4,7.1-2.7,11.5-8.4c3.9-5,6.6-11.3,9.2-14.9c0.1,0.1,0.3,0.2,0.4,0.3C729.5,729.8,730.7,730.7,731.7,731.7z"/>
			<path class="st18" d="M632.1,723.4c-0.7,3.8-6.2,3.2-12.3,1.6c-6-1.5-4.7,0.2-13.2-0.7c-8.7-1.1-11.2-4.2-11.5-5.5
				c-0.2-1.2,4-1.5,8.7-2c0.5-0.1,1.2-0.1,1.7-0.2c5.2-0.6,9-3.9,13.7-6.7c4.4-2.5,11.2-13.1,11.2-13.1l11.8,1.1
				c0,0-6.2,9.4-8.7,13.5c-1.5,2.4-1.4,5.6-1.3,8C632.3,720.6,632.4,722,632.1,723.4z"/>
			<path class="st21" d="M619.8,725c-6-1.5-4.7,0.2-13.2-0.7c-8.7-1.1-11.2-4.2-11.5-5.5c-0.2-1.2,4-1.5,8.7-2v0.1
				c0,0,5.2,3.7,12.4,3.9c5.8,0.2,12.1-1.5,16.2-1.4c0.1,1.4,0.2,2.7-0.1,4C631.3,727.2,625.9,726.5,619.8,725z"/>
			<path class="st21" d="M678,647.9l10.9,29.9l14.2,39c0,0,3.9,0.4,7.7-0.6c3.5-1,7.5-3.6,7.5-3.6s-3.7-41.9-11-65.9
				c-1.9-6.1-4-11.2-6.3-14C689.4,618.9,678,647.9,678,647.9z"/>
			<path class="st10" d="M689.7,600.6c7.3-2.3,27.9,0.8,48.7,5.1l4.4-7.2l44.9-3.2c0,0,14.6,33,6.3,53.8c-1.2,3.1-4.2,4.3-8.2,4.3
				l0,0c0,0-26.9,0.4-35.5,0.4c-22.3-0.1-47.2-15.6-50.4-16.4c-5.3-1.1-7.5,9.4-12.8,20.5c-5.4,11.1-50,48.7-50,48.7s-6.8,0-9.6-1.1
				c-3.1-1.2-4.1-2.6-4.1-2.6S673.3,605.7,689.7,600.6z"/>
			<path class="st9" d="M743.5,536.7c16,8.9,48.2,27.4,48.4,27.3c0,0,11.9,4.5,18.7,0.1c11.3-7.4,17.6-27.5-3-45
				c-10.3-8.8-17.6-10.9-18.5-24.7c-0.5-7.5-10.6-32.4-27.7-30.1c-1.4,0.2-2.9,0.3-4.3,0.2c-2-0.1-5.3,0.2-8.7,2.2
				C738.8,472.3,719.5,533.1,743.5,536.7z"/>
			<path class="st18" d="M756.9,529.3c-0.1,0,7.8,2.9,13.2,0.5c5-2.2,8.9-10.4,8.8-10.4c-2.2-0.1-4.8-2.1-6.6-15.2l-1,0.3l-16.3,5.7
				c0,0,1.2,5.2,1.9,10.3C757.6,524.7,757.9,528.6,756.9,529.3z"/>
			<path class="st24" d="M755,510.2c0,0,0.7,3.7,1.7,8.9c9.3-1.6,13.3-9.6,14.7-14.6L755,510.2z"/>
			<path class="st18" d="M752.6,515.4c0,0,22.3-2.9,20.3-16.7c-2-13.9-0.4-23.6-14.7-22.3c-14.3,1.3-16.3,6.9-16.8,11.6
				C741,492.9,746.8,515.8,752.6,515.4z"/>
			<path class="st9" d="M742.2,480.5c0,0,14.2,12.4,23.9,13.4c9.7,1.1,13.4-2,13.4-2s-5.7-4.8-9.1-12.5c-1-2.2-3.2-3.8-5.6-4
				C757.9,474.8,744.8,474.4,742.2,480.5z"/>
			<path class="st9" d="M751.2,479.6c0,0-4.8,4.5-6.3,8c-1.5,3.3-2,11.2-0.8,14.3c0,0-7.3-14.5-3.1-21.5
				C745.4,472.9,751.2,479.6,751.2,479.6z"/>
			<path class="st19" d="M738,561.9c0.3,45-0.1,35.6,4.9,40c1.2,1.1,4.5,1.7,8.9,2c13.9,1.1,38.2-1.1,39-3.6
				c3.3-8.8,1.1-11.5,3.8-25.1c0.3-1.5,0.6-3,1.1-4.7c2.3-9.3,4.4-12.4-3.3-27.4c-7.1-13.5-14.4-24.6-15-24.2
				c-18.9,11-20.3,1.6-20.3,1.6S737.8,539.9,738,561.9z"/>
			<path class="st10" d="M688.9,677.7l14.2,39c0,0,3.9,0.4,7.7-0.6c3.5-1,7.5-3.6,7.5-3.6s-3.7-41.9-11-65.9L688.9,677.7z"/>
			<path class="st19" d="M756.9,520.5c0,0-19.3,3.2-21.7,11.4c-2.3,8.4-16.1,57.2-16.1,57.2s9.8,1.8,14.4-2.6
				c4.5-4.5,16.1-42.1,16.1-42.1L756.9,520.5z"/>
			<path class="st25" d="M751.7,603.9c13.9,1.1,38.2-1.1,39-3.6c3.3-8.8,1.1-11.5,3.8-25.1l-6.6-18.8c0,0,1,20.9-5.3,26.3
				c-6.2,5.5-25.3,10.5-28.3,15C753,599.9,752.1,602.1,751.7,603.9z"/>
			<path class="st18" d="M767.6,595.2c0,0-13.6-3.2-15.9-1.9c-2.2,1.2-7.6,5.6-8.2,7.1c-0.6,1.5,4.9-1.2,6.8-1.6
				c1.2-0.3,4.2,0.7,5.8,1.3c6.4,2.2,10.4,1.2,10.4,1.2L767.6,595.2z"/>
			<path class="st19" d="M777.3,518.8c0,0,18.3,1.3,24.5,10.2c8.9,12.5,26.1,65.7,16,72.6c-11.5,7.9-52,1.7-52,1.7s-1.3-6.3,0.6-9.3
				c1.9-3.1,32.5-7.7,33.8-9.2c1.4-1.4-17.4-27.6-17.3-31.8C782.9,548.8,777.3,518.8,777.3,518.8z"/>
			<path class="st18" d="M751.1,597c0,0-2.9,3.7-3.8,4.1c-1,0.4-1.6,0.3-1.6,0.3l1.9-3.5L751.1,597z"/>
			<path class="st18" d="M751.8,593.2l-8.4,4c0,0,0.3,0.5,1.4,0.5s3.6-1,3.6-1L751.8,593.2z"/>
		</g>
		<g>
			<g>
				<polygon class="st11" points="749.1,607.1 683.3,606.7 664,557.4 729.5,557.8 				"/>
				<polygon class="st15" points="682.6,604.7 769.4,605.3 769.4,607.2 683.3,606.7 				"/>
			</g>
			<path class="st4" d="M700.1,582.1c-0.5-1.7,0.5-3.2,2.2-3.1c1.7,0,3.5,1.4,4,3.2c0.5,1.7-0.5,3.2-2.2,3.1
				C702.4,585.3,700.6,583.9,700.1,582.1z"/>
		</g>
	</g>
	<g>
		<rect x="426.4" y="757.1" class="st26" width="188.8" height="37.5"/>
		<path class="st12" d="M426.4,794.6l-27.7-11.9l-16.1-6.9l16.5-7.1l27.4-11.7c0,0,3.7,9.1,3.7,17.7
			C430.2,788.3,426.4,794.6,426.4,794.6z"/>
		<path class="st27" d="M637.1,769.5v11.9c0,7.3-5.9,13.2-13.2,13.2h-8.7v-37.5h9.5C631.5,757.1,637.1,762.7,637.1,769.5z"/>
		<path class="st10" d="M399,768.8c0.7,3.8,1.3,9.6-0.4,14l-16.1-6.9L399,768.8z"/>
	</g>
	<g>
		<path class="st11" d="M154,498.8c0,0,4.3,18.7,16.8,18.7c10.7,0,25.4-24.3,25.4-24.3L154,498.8z"/>
		<path class="st10" d="M297.8,774.2l-8,5.6c0,0-38.8-41.3-48-80.8c-1.7-7.1-2.3-14-1.7-20.6c0,0-0.5-1.8-1.5-5
			c0-0.1-0.1-0.3-0.1-0.4c-0.4-1.4-0.9-3-1.5-4.8c-1.9-6-4.4-14.1-7.4-23.5c-6.7-21.5-22.2-69.8-28.8-89.8l47.5-17.2
			c0,0,5.3,12.3,13.1,45.7c1.1,4.3,2.4,9.1,3.6,14.5c1.3,6,2.4,12.5,3.4,19.6c1.7,11.9,2.8,25.3,2.8,40c0,6-0.1,12.2-0.5,18.6
			c-0.3,4.7,0.4,10.9,1.8,18C278.3,726.5,297.8,774.2,297.8,774.2z"/>
		<path class="st21" d="M323.2,794h-38.4c0,0-1.4-6.1,1.1-10.3c2.3-3.7,1.4-5.8-0.3-8.9c1.8,0.8,3.9,1.4,6.5,1.3
			c1.9-0.1,3.9-1,5.7-2c1.7,1.9,8.8,9.9,10.9,11.4C311.1,787.4,322.3,786.8,323.2,794z"/>
		<path class="st21" d="M268.3,617.2l-29.9,55.7c-0.4-1.4-0.9-3-1.5-4.8c-1.9-6-4.4-14.1-7.4-23.5c-6.7-21.5-22.2-69.8-28.8-89.8
			l47.5-17.2c0,0,5.3,12.3,13.1,45.7c1.1,4.3,2.4,9.1,3.6,14.5C266.1,603.6,267.3,610.2,268.3,617.2z"/>
		<path class="st21" d="M199.9,781.9c0,0-2.7,6.5-0.1,12.1h20.8c0,0,0.4-5-7.1-10.7C207.7,779,199.9,781.9,199.9,781.9z"/>
		<path class="st9" d="M222.7,357.2c0-1,0.5-12.2,17.5-13.2c0,0-8.4,1.1-9.8,5c0,0,5.6-4.7,10.3-3.3c4.7,1.4,7.6,9.4,7.8,12.1
			c0.1,2.7-2.3,11.4-5.2,12.2c-1.1,0.3-2.4,0.3-3.6,0.1c0.8,1.1,1.7,2.5,2.4,4.1c7.1,13.9,1,30.1-4.8,28.7c-3.7-0.9-6,5.6-6,5.6
			l-35.7-30.8C195.5,377.5,208.1,350,222.7,357.2z"/>
		<path class="st18" d="M200.2,450.7c3.9,2.8,8.9,5,15.1,6.5c23.4,5.5,32.4-14.4,35.7-28c-3.2-1.8-6.2-2.3-7.9-2.4
			c-1.7-0.3-3.4-0.4-5-0.4c-2.7-2-6.5-10.3-7.4-23l-1.1,0.3l-18.4,5.1c0,0,0.9,5.8,1.3,11.4c0.4,4.3,0.4,8.5-0.5,9.5
			c-1.4,0.3-2.3,0.5-2.3,0.5l0,0C209.5,430.5,204.1,439.3,200.2,450.7z"/>
		<path class="st17" d="M211.2,408.7c0,0,0.9,5.8,1.3,11.4c10.4-1,15.2-10.9,17.2-16.4L211.2,408.7z"/>
		<path class="st18" d="M211,417.5c0,0,24-6.2,20-21.1c-4.1-14.9-3.7-25.8-19.2-22.5s-16.9,9.8-16.8,15.1
			C195.1,394.3,204.6,418.7,211,417.5z"/>
		<path class="st9" d="M193.3,380.6c2.4-5.5,5.6-5.3,7.5-4.3c11.1-10.8,22.5-2.4,22.5-2.4c4.6,10.3,14,14.2,14,14.2
			s-3.7,3.9-14.4,4.1c-3.3,0-6.6-1.4-9.7-3.4c6,5.7,12.8,9.1,12.8,9.1c-13.6-2.3-23-17.7-23.9-19.3c-1.1,1.7-3.2,5.3-3.3,8.4
			c-0.1,4.1,1.4,12.1-0.9,12.5C197.9,399.4,189.6,388.9,193.3,380.6z"/>
		<path class="st18" d="M204.1,428.9c0,0,40.4-9.8,57.9,4.7L253.3,556l-79-19.1c0,0,2.2-7.8,17.4-28.3
			C206.8,487.9,200.2,457.7,204.1,428.9z"/>
		<path class="st10" d="M227.6,542.2c0,0,0,0.4-0.1,1.1c0,0.4-0.1,0.8-0.1,1.3c-0.4,3.2-1,9.3-1.8,17.2c-2.2,20.7-5.6,54.1-7.9,80.4
			c-1.8,20.6-2.9,36.9-2.3,39.5c1.9,7.9,0,101.9,0,101.9c-6.7,3.2-16.9,0-16.9,0s-17.9-84.8-15.4-96.6s-1.7-21.9-1.7-21.9
			c-13.9-64.7-12.3-100.5-9.7-117.7c0.8-5,1.7-8.4,2.4-10.4c0.5-1.8,0.9-2.5,0.9-2.5C205.8,526.4,227.6,542.2,227.6,542.2z"/>
		<path class="st11" d="M267.5,468.4c-1.9,14.7-9.8,32.8-12.6,42.4c0,0,4.7,33.7,0.3,43c-0.5,1-1.1,1.8-1.9,2.2
			c-16.5,7.1-80.6,0.3-83.4-20.5c-1-7.5,24.4-33.9,25.9-37.1c0.6-1.3,1.3-5.6-1.7-14.5c-4.2,13-27.6,9.3-27.6,9.3
			c2.8-4.7,9.5-37.1,17.2-51.7c5.7-10.9,21-12.6,21-12.6s6.4,10,21.7,8.6c15.4-1.4,18.2-10.8,18.2-10.8s13.6,1.8,17.8,5.2
			C263.3,432.3,270.1,449.1,267.5,468.4z"/>
		<path class="st15" d="M255,510.9c0,0,4.7,33.7,0.3,43c-11.9-6-21.5-22.4-19.3-40.4c1.7-13.5,4.1-16.5,11.2-24.1
			c5.3-5.6,17.4-6,16.5-3.3C260.8,494,256.5,505.8,255,510.9z"/>
		<g>
			<polygon class="st6" points="204.9,471.1 232.3,515.2 185.6,515.2 159.4,472 			"/>
			<polygon class="st23" points="230.9,513 231.4,511.4 205.4,469.7 204.9,471.1 			"/>
			<polygon class="st12" points="205.4,469.7 161.3,471 159.4,472 204.9,471.1 			"/>
			<polygon class="st9" points="159.4,472 134.6,458.6 163.5,503.9 185.6,515.2 			"/>
		</g>
		<path class="st18" d="M290.3,503c-2.7,1.3-9.4,9.3-11.8,10c-10.9,3.7-57.3-6.1-57.3-6.1l1.4-8.1c0,0,45.6,1.3,50.6-0.1
			c0.9-0.3,5.8-8,7.8-9L290.3,503z"/>
		<path class="st18" d="M222.4,498.8c0,0-5.5-4.4-9.1-3.4c-3.7,1-9.1,5.7-11.2,6.9c-2,1.1-7.5,5.1-4.7,7.5c2.8,2.4,11.4,0.4,15-1.5
			c3.4-1.9,8.8-1.3,8.8-1.3L222.4,498.8z"/>
		<path class="st18" d="M214.3,495.1c0,0-6.7-0.8-8.5-0.8s-1.3,0.4-0.4,1.9c1,1.4,4.4,1.9,4.7,2.4
			C210.2,499.2,214.3,495.1,214.3,495.1z"/>
		<path class="st11" d="M244.7,426.6c0,0,19.8,2.3,25.3,10.8c6.9,10.8,23.1,53.5,22.6,64.3c0,0-11.9,20.2-52.7,17c0,0-4.2-15,4.3-20
			c0,0,21-3.7,23.4-5.8l-17-31L244.7,426.6z"/>
		<path class="st18" d="M165.7,488.1c-0.6-2.5-6.1-0.9-7.9,0.5c-0.5,0.4-0.9,0.9-1.4,1.7c0-0.4-0.1-0.8-0.1-1.1
			c-0.1-1.1-1.5-3.3-1.8-1.7c-0.4,1.5-0.9,8.1-0.9,8.1c-0.1,5.3,3.3,7.5,5.6,5.8C161.3,499.7,166.4,490.7,165.7,488.1z"/>
	</g>
</g>
</svg>
