<?xml version="1.0" encoding="utf-8"?>
<!-- Generator: Adobe Illustrator 24.2.1, SVG Export Plug-In . SVG Version: 6.00 Build 0)  -->
<svg version="1.1" id="f7e01b52-fe13-4534-b7fc-d479bcd2a427"
	 xmlns="http://www.w3.org/2000/svg" xmlns:xlink="http://www.w3.org/1999/xlink" x="0px" y="0px" viewBox="0 0 982.9 803"
	 style="enable-background:new 0 0 982.9 803;" xml:space="preserve">
<style type="text/css">
	.st0{opacity:0.8;fill:#E0E0E0;}
	.st1{fill:#08194D;}
	.st2{fill:#504F60;}
	.st3{fill:#1F2A4D;}
	.st4{fill:#FF8300;}
	.st5{fill:#041147;}
	.st6{fill:#A1616A;}
	.st7{opacity:0.1;enable-background:new    ;}
	.st8{opacity:4.000000e-02;enable-background:new    ;}
	.st9{fill:#FFFFFF;}
	.st10{opacity:0.1;}
	.st11{fill:#FBBEBE;}
	.st12{opacity:5.000000e-02;enable-background:new    ;}
	.st13{fill:#E6BA7E;}
	.st14{opacity:7.000000e-02;enable-background:new    ;}
</style>
<path class="st0" d="M959,465.5c0,0.6,0,1.2,0,1.8c-0.1,10.5-0.7,21-1.9,31.5c0,0.1,0,0.1,0,0.2c-0.1,0.9-0.2,1.7-0.3,2.6
	c-0.2,1.5-0.3,2.9-0.6,4.4c-2.3,17.9-6.2,35.6-11.5,52.8l0,0c-7.2,23.3-17.3,45.6-30.1,66.3c-3.9,6.3-8.1,12.5-12.6,18.4l0,0
	c-2.4,3.1-4.8,6.2-7.3,9.2c-1.8,2.1-3.6,4.2-5.4,6.2l-1.1,1.3c-9.6,10.6-20,20.4-31,29.5c-18,14.9-37.4,27.9-57.1,39.9
	c-1.1,0.7-2.2,1.4-3.4,2c-0.1,0.1-0.2,0.1-0.2,0.2c-26.8,16.2-54.5,30.8-83.1,42.5c-31.3,12.8-63.6,22.2-96.8,26.2
	c-46.2,5.7-93,1.1-138.9-6.9c-38.2-6.6-76-15.6-113-27l-6.1-1.9c-3.2-1-6.3-2-9.5-3.1c-19-6.3-37.9-13.3-56.5-21
	c-46.8-19.3-91.4-43.2-133.3-71.6c-5.3-3.6-10.6-7.3-15.8-11c-7.2-5.2-14.4-10.6-21.5-16.1l-4.4-3.4c-18.5-14.5-35.8-30.4-51.8-47.6
	c-21.5-23.4-39.9-49.8-52-80c-1.9-4.7-3.7-9.6-5.2-14.5l-0.2-0.5c-0.8-2.5-1.5-5-2.2-7.6c-1-3.7-1.9-7.5-2.6-11.3
	c-0.2-0.7-0.3-1.5-0.4-2.2C0.8,462-0.2,449,0.1,435.9c0.3-11.4,1.6-22.8,4-34l0,0c2.5-11.6,6.3-22.9,11.3-33.6l0,0
	c4.6-9.6,10.4-18.6,17.3-26.7l0,0c4.9-5.7,10.3-10.8,16.3-15.3c10.9-8.1,22.9-13.7,35.3-18.2l0,0c5.9-2.1,11.8-3.9,17.8-5.6
	c4.2-1.2,8.5-2.4,12.7-3.5l12.5-3.4c8-2.2,16-4.4,23.9-6.8c21.5-6.6,42.5-14.5,62-26.3c3.1-1.9,6.2-3.9,9.4-6.1
	c4-2.8,7.9-5.8,11.8-9.1l0,0c3.9-3.3,7.8-6.8,11.5-10.6c0.6-0.6,1.1-1.2,1.7-1.8c3-3.2,5.9-6.5,8.6-9.9c1.3-1.7,2.6-3.4,3.8-5.1
	c1.7-2.4,3.3-4.9,4.8-7.4l0,0c7.4-12.6,12-26.5,11.5-41.1c-0.1-2.4-0.3-4.8-0.6-7.2c-1.3-8.8-2.5-17.4-3.5-25.9
	c-3.9-34.9-2.2-66.5,23.9-96.2C328.6,5.2,379.7-2.3,426.2,0.6C560.6,9.1,683,85.8,790.5,177.2c9.3,7.9,18.5,15.9,27.6,24
	c2.3,2,4.6,4.1,6.9,6.2c17,15.3,33.7,31.2,49.3,48.2c1.3,1.4,2.5,2.8,3.8,4.2c0.8,0.9,1.5,1.7,2.3,2.6c4.9,5.5,9.6,11.1,14.2,16.9
	c12.3,15.3,23.1,31.7,32.3,49c14.2,27.1,23.8,56.4,28.4,86.7l0,0c1.7,11,2.9,22.1,3.4,33.2c0.2,3.3,0.3,6.5,0.3,9.8c0,1,0,2.1,0,3.1
	C959,462.5,959,464,959,465.5z"/>
<polygon class="st1" points="394,448.7 378,733.5 394,733.7 407,444.7 "/>
<rect x="137" y="593" class="st2" width="198" height="43"/>
<path class="st1" d="M348,631v27H143.4c-7.2-5.2-14.4-10.6-21.5-16.1V631H348z"/>
<path class="st3" d="M388.8,569.6c-0.6,2.6-1.3,5.2-2.1,7.7c-2.3,7.4-5,14.6-5.5,22.3c-0.7,10.1,2,21.9-5,29.2
	c-1.8,1.9-4.1,3.3-5.8,5.3c-0.2,0.3-0.5,0.7-0.7,1c-1.4,2.4-1.6,5.3-1.6,8c0,5.8,0.4,11.6,1.1,17.4c2.4,19.8,7,39.6,0.9,58.3
	c-1.1,3.2-2.4,6.4-3.9,9.5c-3,6.6-6.3,13.1-7.2,20.3c-0.7,5.3-0.5,10.8-0.5,16.2c-3.2-1-6.3-2-9.5-3.1c-19-6.3-37.9-13.3-56.5-21
	c0-0.3,0.1-0.5,0.1-0.8c1.4-8.9-0.5-18-2.9-26.7c-5-18.4-12.1-36.6-16.3-55.1c-1.7-7.2-2.8-14.6-3.3-22c-0.1-1.7-0.2-3.3-0.2-5
	c0-2.2,0-4.4,0.1-6.6c0.2-4.4,0.4-9.6-3.1-12.3c-1.9-1.5-4.5-1.7-6.7-2.6c-4.3-1.7-7.3-5.6-10.8-8.8c-3.3-3.2-8-4.6-12.6-3.7
	c-22.5,5.2-39,24.2-59.9,33.9c-0.8,0.4-1.6,0.7-2.4,1.1c-2.7,1-5.3,2.3-7.7,3.9c-1.7,1.2-2.9,2.9-3.4,4.8c-0.5,2.1-0.1,4.3,0.2,6.5
	c0.4,3.5,0.3,7.1-0.5,10.6c-0.3,1.4-0.6,2.7-1.1,4c-0.8,2.4-1.9,4.7-2.9,7c-5.3-3.6-10.6-7.3-15.8-11c-7.2-5.2-14.4-10.6-21.5-16.1
	l-4.3-3.5c-18.5-14.5-35.8-30.4-51.8-47.6c2.1-6,5.2-11.6,6.7-17.7c0.8-3.5,1.1-7.2,2.3-10.6c1.3-3.6,3.2-6.9,5.5-9.9
	c8.5-11.9,18.9-22.2,30.7-30.8c12.4-8.9,26.7-16,37.9-26.1c4.5-4,8.4-8.6,11.6-13.7c0.2-0.3,0.4-0.6,0.5-1c0.9-1.8,1.5-3.7,1.8-5.7
	c0.8-4.5,0.7-9.4,1.1-13.7c13.6,2.4,27.4,2.8,41.1,1.2c16-1.8,31.5-6.2,47.5-7.9c1.2-0.1,2.4-0.2,3.6-0.4c5.1-0.4,10.2-0.5,15.4-0.4
	c4.3,0,8.6,0.2,12.9,0.3l47.2,1.6c5.2,0.2,10.6,0.4,15.4,2.3c5.8,2.3,10.4,6.8,14.1,11.8c0.5,0.6,0.9,1.3,1.4,1.9
	c3.1,4.5,5.5,9.3,7.3,14.4c0.2,0.5,0.4,1,0.5,1.6c0.5,1.4,0.8,2.8,1.2,4.2c0.3,1.1,0.5,2.2,0.7,3.3c1.1,5.5,1.8,11.2,3.5,16.5
	c0.1,0.4,0.2,0.8,0.4,1.2c2.1,5.9,5.6,11.1,8.2,16.7c1.9,4.1,3.3,8.3,4.3,12.7C390.7,551.6,390.7,560.7,388.8,569.6z"/>
<path class="st4" d="M245.3,211.7c-4.2-3.4-10.3-0.9-15.3,1.3c-4.1,1.8-8.4,3.4-12.8,4.6c-0.9,0.3-1.9,0.4-2.8,0.3
	c-2-0.5-2.8-2.9-4.3-4.3c-2.6-2.5-6.8-1.9-10.2-0.5s-6.6,3.3-10.2,3c-3.8-0.3-7.1-3.1-11-3.2c-6.8-0.2-12.5,8.2-18.9,6
	c-3.9-1.4-7-6.5-10.9-5c-3,1.1-3.3,5.3-5.1,8c-2.1,3.2-6.3,4-9.8,5.5c-11.2,4.4-18.6,16.9-17.1,28.8c0.8,6.6,4,12.6,6.1,18.9
	c6.3,18.3,4.1,38.9,12,56.6c1-0.9,1.6-1.3,2.5-2.2c-2.5,5.2-3,11.1-1.4,16.6c0.8,2.8,2.2,5.4,3.2,8.1c1.1,3,1.9,6.1,2.6,9.3
	l8.7,38.4c3.4,15,6.8,30,7.4,45.4c0.4,10-0.4,20-2.3,29.8c15.8-2.6,30.2-9.6,46.1-9.5c5.9,0,11.7,1,17.5,1.8
	c16.9,2.4,34,3.5,51.1,3.5c2.7,0.2,5.3-0.2,7.8-1.1c2.2-0.9,4-2.6,6.1-3.8c4.1-2.4,9-3,13.7-3c21.4-0.4,42,7.4,63.2,10.2
	c8.4-17.6,8.9-38.7,2.5-57.1c-1.9-5.5-4.5-10.8-5.2-16.5c-0.3-3.5-0.4-7.1-0.2-10.6c0-9.1-1.7-18.1-4.8-26.6
	c-1.2-3.3-2.7-6.7-2.6-10.3s1.9-6.9,3.6-10c3.5-6.4,7-12.9,11.9-18.3c5-5.6,11.4-9.8,17.6-14l15.4-10.4
	c-2.1-13.3-4.8-27.4-10.5-39.6c-5.7-12.3-14.1-23.5-25.5-30.7c-3.9-2.3-7.9-4.3-12.1-6c-5.8-2.5-11.9-4.6-18.2-5
	c-7.2-0.4-14.3,1.5-21.4,2.7C289.4,226.3,263,225.8,245.3,211.7z"/>
<path class="st5" d="M414,443l-7.3,9.3l-13.8,17.5l-16,20.2l-4.5,5.6h-8.7L149,495.8L14.5,496h-6c-0.8-2.5-1.5-5-2.2-7.6
	c-1-3.7-1.9-7.5-2.6-11.3c-0.2-0.7-0.3-1.5-0.4-2.2L52,443l18.3-0.1l0,0l56.1-0.3l0,0l31.3-0.2h5.7h3.6l0,0l20.9-0.1l0,0l159.1-0.9
	l0,0h8.1l0,0h3.5h9.4l34.8-0.2l6.7-2.5l0.5,0.5L414,443z"/>
<path class="st2" d="M411,438l-0.8,1l-5.5,6.4l-11.2,13.3l-23.6,27.8l-208.8-5.3l-157.4-4c-0.2-0.7-0.3-1.5-0.4-2.2
	c-2.4-12.8-3.4-25.9-3.2-38.9l17.5-8.9l4-2.1l31.1-16L80,395l71.3,9.3l15.8,2l7.1,0.9l10.5,1.4l0.9,0.1L349.3,430l18.1,2.4l10.6,1.4
	l32.8,4.3L411,438z"/>
<path class="st1" d="M377,486l-0.2,3.9l-1,22.2l-5.4,122l-1.1,26.4l-3,67.8l-1.7,38.3l-6.1-1.9c-3.2-1-6.3-2-9.5-3.1l14.6-266
	l0.3-5.6l6.4-2L377,486z"/>
<path class="st1" d="M15,485.7L14.5,496l-0.7,15c-1.9-4.7-3.7-9.6-5.2-14.5L8.5,496c-0.8-2.5-1.5-5-2.2-7.6L15,485.7z"/>
<ellipse class="st6" cx="276.5" cy="272.5" rx="46" ry="62"/>
<ellipse class="st7" cx="276.5" cy="272.5" rx="46" ry="62"/>
<circle class="st6" cx="283" cy="235" r="64"/>
<path class="st5" d="M284.2,136.4c-3.9,0.3-7.8,0.9-11.6,1.8c-10.1,2.5-18.9,7.9-27.4,13.3c-3.8,2.4-7.8,4.9-10.1,8.5
	c-4.3,6.4-2.6,14.4-5,21.5c-1.2,3.6-3.5,6.9-5.5,10.2c-5.3,9.2-8.1,19.4-10.8,29.4c-0.6,2.1-0.7,4.9,1.5,5.7
	c1.3,0.3,2.7,0.1,3.9-0.4c7.2-2.4,16.3-3,21.6,1.8s4.9,13.3,11.2,17c7.2,4.2,18.6-0.9,25.2,4.1c2.8,2.1,3.8,5.6,6.1,8.2
	c5.4,6,15.7,5.7,24.3,4.5c4.9-0.7,11-1.2,14,2.3c1.4,1.6,1.8,3.9,3.5,5.4c3,2.7,8.5,1.3,11.4-1.4c2.9-2.8,4.3-6.5,6.8-9.6
	c4.8-6,13.1-9.3,18-15.2c4.1-5,5.3-11.3,6.5-17.3l4.2-22.4c1.7-9.1,3.2-19-1.9-27c-1.8-2.9-4.4-5.4-6-8.3c-1-2-1.6-4.1-2.9-6
	c-1.4-2-3.2-3.7-5.1-5.2l-9.9-8.2c-3.4-3-7-5.6-10.8-8C321.5,132.7,300.3,134.9,284.2,136.4z"/>
<path class="st6" d="M73.4,301.2c-2.4,2.5-4.6,5.2-7.1,7.6c-2.2,2-4.6,3.9-7,5.6c-3.9,2.9-7.8,6-11.5,9.1
	c-3.9,3.1-7.4,6.6-10.5,10.5c-5.3,7.2-7.9,16.1-12.9,23.5c-4.4,6.6-10.7,11.8-15.1,18.3c-2,2.7-3.4,5.8-4.3,9.1
	c-0.7,3.2-1,6.4-0.9,9.6C4,399.8,3.9,405.1,5,410.3s3.4,10.2,7.5,13.6c3.8,3.1,8.6,4.6,13.4,5.8c2.5,0.6,5.1,1.2,7.5,0.2
	c1.7-0.9,3.2-2.1,4.3-3.7l12.2-14c8.1-9.4,16.6-19,27.8-24.5c3.5-1.7,7.2-3,10.7-4.7c14.9-7.2,25.4-21.9,29.5-37.9
	c1-3.9,1.6-7.9,2.3-11.9l1.8-10.9c0.1-0.5,0.1-1.1,0-1.7c-0.3-0.6-0.7-1.1-1.3-1.5c-8.5-6.8-16.4-14.3-23.7-22.4
	c-1.7-1.9-3.4-4.5-5.4-6.2c-2.5-2-2.3-1.9-5.4,0C81.5,293.7,77.2,297.2,73.4,301.2z"/>
<path class="st1" d="M156.7,374.1c-0.4-1-1.5-1.4-2.5-1s-1.4,1.5-1,2.5c0,0,0,0.1,0.1,0.1l-1,0.5l29.8,61.1l5.4-2.6l-29.8-61.2
	L156.7,374.1z"/>
<path class="st8" d="M73.4,301.2c-2.4,2.5-4.6,5.2-7.1,7.6c-2.2,2-4.6,3.9-7,5.6c-3.9,2.9-7.8,6-11.5,9.1
	c-3.9,3.1-7.4,6.6-10.5,10.5c-5.3,7.2-7.9,16.1-12.9,23.5c-4.4,6.6-10.7,11.8-15.1,18.3c-2,2.7-3.4,5.8-4.3,9.1
	c-0.7,3.2-1,6.4-0.9,9.6C4,399.8,3.9,405.1,5,410.3s3.4,10.2,7.5,13.6c3.8,3.1,8.6,4.6,13.4,5.8c2.5,0.6,5.1,1.2,7.5,0.2
	c1.7-0.9,3.2-2.1,4.3-3.7l12.2-14c8.1-9.4,16.6-19,27.8-24.5c3.5-1.7,7.2-3,10.7-4.7c14.9-7.2,25.4-21.9,29.5-37.9
	c1-3.9,1.6-7.9,2.3-11.9l1.8-10.9c0.1-0.5,0.1-1.1,0-1.7c-0.3-0.6-0.7-1.1-1.3-1.5c-8.5-6.8-16.4-14.3-23.7-22.4
	c-1.7-1.9-3.4-4.5-5.4-6.2c-2.5-2-2.3-1.9-5.4,0C81.5,293.7,77.2,297.2,73.4,301.2z"/>
<path class="st6" d="M418.2,413.9c-0.1,6.4-0.3,13-3,18.8c-1.1,2.5-2.9,5-5.6,5.8c-1.6,0.4-3.3,0.4-4.9,0.2
	c-19.6-1.7-39.4-0.2-58.5,4.6c5.1-10.2,2.2-22.4,3.6-33.8c0.4-3.1,1.1-6.1,1.4-9.2c1-11-3.7-21.7-5.9-32.5c-1.9-9.4-1.9-19.1,0-28.5
	c0.4-2.4,1.2-4.7,2.5-6.9c1.5-2,3.4-3.7,5.6-4.9c8.1-4.6,17.7-5.1,26.8-4.5c6.1,0.4,18.4-0.2,23.5,3.6c5.6,4.1,7.4,18,8.9,24.4
	c2.3,9.8,3.8,19.8,4.6,29.9C418.1,391.9,418.3,402.9,418.2,413.9z"/>
<polygon class="st9" points="60,436 96,460 258,454 151,436 "/>
<path class="st4" d="M107.4,245.3c-5.9,5.2-10.9,11.4-16.5,16.9c-7.7,7.6-16.4,14.1-25.1,20.5c6.3,1.8,11.3,6.7,13,13.1
	c0.4,1.5,0.6,3,1,4.4c1,3.4,3.2,6.4,5.6,9c10.1,11.4,24.3,19.9,30.3,34c0.2,0.7,0.6,1.3,1.2,1.7c0.5,0.2,1,0.3,1.6,0.2
	c5.4-0.6,9.6-4.9,13-9.2c7.2-9,13.4-18.9,17-29.9s4.1-23.1,0.2-34c-1.9-5.4-4.9-10.4-7.9-15.3c-2.6-4.3-5.2-8.6-7.8-12.9
	c-1.4-2.3-3.1-6.9-5.7-8C121.6,233.4,111.1,241.7,107.4,245.3z"/>
<path class="st4" d="M402,310l8.5,20c-18.8-6.6-39.6-3.7-55.9,7.8c-4.8,3.5-9.3,7.8-11.5,13.4c-2.2,0.4-4.5-0.5-5.8-2.3
	s-2-3.9-2.1-6.1c-0.8-7.7,2.1-15.2,5-22.4c1.3-3.4,2.7-6.8,5.1-9.5s5.5-4.5,8.7-6.2c10.1-5.6,20.6-10.2,31.5-13.9
	c4.6-1.5,9.4-1.5,12,2.8C400.5,298.6,399.7,304.5,402,310z"/>
<path class="st6" d="M60.2,370c2.1,1.7,4,3.7,6.2,5.3c2.3,1.6,4.8,3,7.4,4.1l9.9,4.7c3.1,1.6,6.3,2.9,9.6,3.9
	c4.2,1.1,8.6,1.2,12.9,2.3c5.4,1.3,10.2,4.1,15.5,5.7s11.4,1.9,15.8-1.5c2.8-2.1,4.8-5.5,8.2-6c2.2-0.3,4.3,0.8,6.3,1.8l25.7,13.5
	c3.5,1.8,7.1,3.8,8.9,7.3s0.6,8.7-3.2,9.6c-1.3,0.2-2.7,0.2-4,0.2c-1.3,0.2-2.8,0.9-2.9,2.3c0,0.8,0.2,1.6,0.6,2.4
	c1.1,2.6,1.5,5.8,0.1,8.4s-4.6,4.1-7.3,3c0.5,3.9-3.8,6.6-7.5,7.6c-9.5,2.6-19.5,1-29.2-0.6c-3.8-0.6-7.7-1.3-11.1-3
	c-1.7-0.8-3.2-1.9-4.9-2.6c-4.6-2-9.9-1.8-14.9-1.7c-23.3,0.4-46.4-3.9-69.3-8.2c-4.2-0.8-8.6-1.6-12.2-4c-7-4.6-9.6-13.9-8.4-22.2
	s5.3-15.8,9.5-23.1l5.4-9.4c0.7-1.4,1.7-2.7,2.9-3.8C37.8,360,53.4,364.6,60.2,370z"/>
<path class="st8" d="M60.2,370c2.1,1.7,4,3.7,6.2,5.3c2.3,1.6,4.8,3,7.4,4.1l9.9,4.7c3.1,1.6,6.3,2.9,9.6,3.9
	c4.2,1.1,8.6,1.2,12.9,2.3c5.4,1.3,10.2,4.1,15.5,5.7s11.4,1.9,15.8-1.5c2.8-2.1,4.8-5.5,8.2-6c2.2-0.3,4.3,0.8,6.3,1.8l25.7,13.5
	c3.5,1.8,7.1,3.8,8.9,7.3s0.6,8.7-3.2,9.6c-1.3,0.2-2.7,0.2-4,0.2c-1.3,0.2-2.8,0.9-2.9,2.3c0,0.8,0.2,1.6,0.6,2.4
	c1.1,2.6,1.5,5.8,0.1,8.4s-4.6,4.1-7.3,3c0.5,3.9-3.8,6.6-7.5,7.6c-9.5,2.6-19.5,1-29.2-0.6c-3.8-0.6-7.7-1.3-11.1-3
	c-1.7-0.8-3.2-1.9-4.9-2.6c-4.6-2-9.9-1.8-14.9-1.7c-23.3,0.4-46.4-3.9-69.3-8.2c-4.2-0.8-8.6-1.6-12.2-4c-7-4.6-9.6-13.9-8.4-22.2
	s5.3-15.8,9.5-23.1l5.4-9.4c0.7-1.4,1.7-2.7,2.9-3.8C37.8,360,53.4,364.6,60.2,370z"/>
<path class="st6" d="M365.5,387.3c-5.2,2.5-11.2,2.7-16.6,4.6s-10.1,5.3-15,8.1c-13,7.3-28,10-42.7,12.6c-8.9,1.6-18,3.2-27,2.8
	c-12.2-0.5-23.9-4.6-35.7-7.6s-24.4-5.1-36.1-1.7c-12.4,3.8-22.2,13.2-26.5,25.4c-2.5,7.2-2.8,14.9-2.3,22.5
	c2.5,1.8,5.9-0.7,7.2-3.5s2.1-6.1,4.7-7.7c4.5,1.5,5.6,7.5,9.3,10.5c2.3,1.9,5.4,2.4,8.4,2.8l15.2,2.2c3.7,0.5,7.9,0.9,10.6-1.7
	c1.3-1.2,2-3,3.2-4.3c2.4-2.7,6.5-3.1,10.1-2.8c11.2,1.1,21.8,8.4,32.9,6.7c3.8-0.6,7.4-2.2,11.1-3.5c21.7-7.7,45.8-3,68.4-7.4
	c8.6-1.7,16.9-4.6,25.1-7.8c4.5-1.7,9-3.5,12.8-6.3c7.3-5.6,11.2-14.6,10.4-23.8c-0.8-6.9-4.3-13.2-9.6-17.6
	c-1.8-1.5-4.1-4.4-6.2-5.3C372.8,382.6,368.9,385.7,365.5,387.3z"/>
<g class="st10">
	<path d="M336.2,259.5c-1.7-1.5-2.1-3.7-3.5-5.4c-3-3.5-9.1-3-14-2.3c-8.6,1.2-19,1.5-24.3-4.5c-2.3-2.6-3.3-6-6.1-8.1
		c-6.6-5-17.9,0.1-25.2-4.1c-6.3-3.7-5.9-12.2-11.2-17s-14.4-4.1-21.6-1.8c-1.2,0.6-2.6,0.7-3.9,0.4c-2.3-0.8-2.1-3.6-1.5-5.7
		c2.7-10.1,5.5-20.2,10.8-29.4c1.9-3.4,4.2-6.6,5.5-10.2c2.2-6.3,1.1-13.5,3.9-19.5c-3.1,2-6,4.2-7.9,7c-4.3,6.4-2.6,14.4-5,21.5
		c-1.2,3.6-3.5,6.9-5.5,10.2c-5.3,9.2-8.1,19.4-10.8,29.4c-0.6,2.1-0.7,4.9,1.5,5.7c1.3,0.3,2.7,0.1,3.9-0.4
		c7.2-2.4,16.3-3,21.6,1.8s4.9,13.3,11.2,17c7.3,4.2,18.6-0.9,25.1,4.1c2.8,2.1,3.8,5.6,6.2,8.2c5.4,6,15.7,5.7,24.3,4.5
		c4.9-0.7,11-1.2,14,2.3c1.4,1.6,1.9,3.9,3.5,5.4c3,2.7,8.5,1.3,11.4-1.4c1.9-2,3.5-4.2,4.8-6.5
		C340.8,261.3,338.1,261.2,336.2,259.5z"/>
	<path d="M354.5,248.5c-0.6,0.8-1.2,1.7-1.8,2.6c3.8-2.7,7.9-5.3,10.8-8.8c0.7-0.9,1.4-1.9,2-2.9
		C361.5,242.3,357.3,244.9,354.5,248.5z"/>
</g>
<polygon class="st1" points="556.5,446.5 559.5,733.5 573.5,731.5 570.5,446.5 "/>
<polygon class="st1" points="640.5,498.5 643.5,785.5 657.5,783.5 654.5,498.5 "/>
<path class="st1" d="M902,643.5L902,643.5V638v-3.3l-0.5-50.5l-0.8-78.9l-0.1-6.8h-14l0.1,6.6l0.4,42.3l0.2,18.3l0,0l0.2,14.8
	l0.3,25.6l0.2,15.1l0,0v1.6l0.2,19.9l0.2,17.5l1.1-1.3c1.8-2,3.6-4.1,5.4-6.2L902,643.5z"/>
<polygon class="st4" points="625,545 617,557 625,611.5 693,630.1 803,630.1 869,634.1 900.4,612.6 895,575.6 871,545 "/>
<path class="st1" d="M617,557l-4,33.2c0,0-21,65.1,148,61.1S901,634,901,634l-1-38.5c0,0,5.9,18.2-80,15.8s-166-10.5-166-10.5
	S624,606.2,617,557z"/>
<path class="st11" d="M757.8,259.2c-9.6,4.4-16.9,12.9-21.8,22.3s-7.6,19.7-10.3,30c-2.9,10.8-5.7,21.7-7.2,32.8
	c-2.6,19.7-0.7,40.5,8.4,58.2s25.8,32,45.4,35.4c7.6,1.3,15.3,1.1,23,0.3c13.8-1.5,27.4-4.5,40.6-9c13.8-4.6,28.1-11.8,34.2-25
	c3.5-7.6,3.8-16.4,3.7-24.8c-0.5-22.9-3.9-45.7-10.3-67.8c-1.8-6.4-4-12.9-7.9-18.2s-9.3-9.3-14.8-13
	C817.3,264.6,786.5,246.2,757.8,259.2z"/>
<path class="st12" d="M757.8,259.2c-9.6,4.4-16.9,12.9-21.8,22.3s-7.6,19.7-10.3,30c-2.9,10.8-5.7,21.7-7.2,32.8
	c-2.6,19.7-0.7,40.5,8.4,58.2s25.8,32,45.4,35.4c7.6,1.3,15.3,1.1,23,0.3c13.8-1.5,27.4-4.5,40.6-9c13.8-4.6,28.1-11.8,34.2-25
	c3.5-7.6,3.8-16.4,3.7-24.8c-0.5-22.9-3.9-45.7-10.3-67.8c-1.8-6.4-4-12.9-7.9-18.2s-9.3-9.3-14.8-13
	C817.3,264.6,786.5,246.2,757.8,259.2z"/>
<path class="st4" d="M747,385.1c2.8,3.8,6.2,7.2,10,10c9.5,6.6,21.7,7.5,33.3,7.8c9.3,0.3,19.9-0.2,25.7-7.5
	c2.6-3.3,3.8-7.4,4.9-11.5c6.5-24.9,11.2-50.2,13.9-75.8l26.5,0.1c11.5,49.1,10.5,100.1,9.5,150.5l-1.5,73.5l-17.1-1.8
	c-40.5-4.3-81.1-8.6-121.8-9.3c-23.9-0.4-47.7,0.3-71.5,2.4L696.1,413c4.8-14.4,9.7-28.9,10.8-44c1.6-21.9-4.5-45,4-65.2
	c0.7-1.6,1.5-3.3,3.1-4.2s3.5-0.6,5.3-0.4c3.4,0.5,13.6,0,16.1,2.1c3.6,3.1,1.2,3.6,0,8.6c-2.3,9-4.4,17.3-4.4,26.7
	C730.9,353.7,736.2,371.7,747,385.1z"/>
<path class="st1" d="M902,643.5L902,643.5c4.5-5.9,8.7-12,12.6-18.4c-2-4.3-4.2-8.5-6-12.8c-2.7-6.7-4.2-13.8-5.7-20.8
	c-0.5-2.4-1-4.8-1.5-7.2c-5.6-26.1-10.9-52.6-12-79.1c-0.1-2.2-0.2-4.4-0.2-6.6c0-0.3,0-0.6,0-1c0-2.4,0-4.8,0-7.2
	c0.1-6,0.5-12,1.2-18.1c0.1-1.2,0.3-2.4,0.4-3.5c0-0.3,0.1-0.5,0.1-0.8l68-2.5l0,0l5.7-0.2c3.9-0.1,8.1-0.4,11.3-2.6
	c5.4-3.7,6.1-11.4,6-18c-0.3-16.7-2.2-33.2-5.6-49.5c-2.6-12.3-6.3-24.8-14.5-34.2c-6.8-7.7-16.6-13.4-20.1-23
	c-1.3-3.6-1.6-7.5-3.3-10.9s-4.5-5.9-7.2-8.6c-9.3-9.2-17.1-20-22.9-31.7c-4-8.2-8.4-17.2-13.7-22.8c-0.3-0.3-0.5-0.6-0.8-0.8
	c-4.5-4.5-9.7-6.4-15.8-3.4c-1.1,0.6-2.1,1.2-3.1,1.9l0,0c-2.2,1.7-4.2,3.6-5.9,5.6c-6.2,7.1-11.6,14.8-16.1,23
	c-3.2,5.8-6,11.8-8.2,18c-1.8,4.9-3.3,9.9-4.5,15c-0.9,3.8-1.5,7.6-2.1,11.4c-2,14.4-2,29-1.7,43.5c0.3,13.4,0.9,26.8,2.1,40.1
	c0.3,3.2,0.6,6.4,1,9.6c0.7,6.4,1.6,12.7,2.7,19c0.4,2.4,0.9,4.8,1.4,7.2c0.1,0.6,0.2,1.3,0.4,1.9l0.1,0.3
	c1.3,5.6,2.3,11.2,3.1,16.9c0.1,0.7,0.1,1.4,0.2,2.1c0.2,3.3,0.1,6.5-0.1,9.8c-0.2,3.9-0.6,7.7-0.8,11.6c0,0.7,0,1.3-0.1,2
	c0,2,0,3.9,0,5.8c0.2,4.7,0.8,9.3,1.7,13.9c1.7,8.5,4.6,16.8,8.7,24.4c0.4,0.7,0.8,1.4,1.2,2.1c5.1,9.1,11.5,17.4,16.2,26.6
	c4,8.3,7.1,17.1,9,26.2c0.7,3,1.3,6,1.9,9c0.9,4.8,1.8,9.6,2.6,14.5c0.1,0.5,0.2,1,0.3,1.4c1.1,6.4,2.3,12.8,3.8,19.1
	c0.9,3.7,1.9,7.2,3.1,10.8L902,643.5z"/>
<path class="st13" d="M888.7,564.7c0,0.9-0.1,1.8-0.1,2.7c-0.2,4.4-0.6,8.8-1.2,13.1c-0.8,5.9-2.3,11.8-4.3,17.4
	c-1.4,3.7-3.1,7.3-5.2,10.6c-1.8,3-4,5.8-6.4,8.3c-6,6.2-14.6,8.2-23,10.9c-3.8,1.1-7.6,2.6-11.1,4.5c-0.6,0.3-1.2,0.7-1.8,1.1
	l-10.5,6.9c-3.3,2.2-6.6,4.4-8.8,7.6c-0.4,0.5-0.7,1.1-1,1.7c-1.4,2.9-2.5,6-3.1,9.2c-5.4,22.7-10.9,45.3-14.6,68.3
	c-0.2,1.5-0.5,3-0.8,4.6l-0.1,0.5c0-0.1-0.1-0.2-0.2-0.3c-26.8,16.2-54.5,30.8-83.1,42.5l-6.2-52c-0.6-4.2-0.9-8.5-0.6-12.8
	c0.6-6.7,3.3-13.1,4.1-19.8c0.7-6.6-0.5-13.2-3.6-19.1c-1.2-2.3-2.7-4.5-2.9-7.1s1.2-4.9,3.8-5.1c2-2.2,2.2-5.2,1.6-8.2
	c-0.3-1.6-0.8-3.1-1.4-4.6c-1.7-4.2-3.8-8.7-2.4-13c0.4-0.8,0.6-1.6,0.5-2.5c0-0.1,0-0.1,0-0.2c-0.3-1.1-1.7-1.6-2.4-2.6
	c-1.3-1.8,0-4.2,0.8-6.2c0.8-2.2,1.2-4.5,1.3-6.8c0.1-1.3,0.2-2.6,0.3-3.9c0.2-1.7,0.5-3.4,0.9-5.1c2.4-9.6,8.3-17.9,16.4-23.5
	c3.9-2.6,8.2-4.5,12.2-7c4.1-2.7,7.9-5.7,11.6-9c8.8-7.3,18-14.2,27.5-20.7c10.2-7,20.8-13.4,31.7-19.3c2.3-1.3,4.7-2.5,7-3.7
	c2.5-1.3,5.1-2.6,7.7-3.8c8.2-3.9,17.6-2.5,26.7,0.2c3.8,1.1,7.6,2.4,11.2,3.6c3.6,1.2,7,2.7,10.2,4.6c8.1,4.7,14.7,11.7,17.5,20.6
	c0,0.1,0,0.1,0,0.2C888.7,552.9,888.8,558.9,888.7,564.7z"/>
<path class="st7" d="M888.7,564.7c0,0.9-0.1,1.8-0.1,2.7c-0.2,4.4-0.6,8.8-1.2,13.1c-0.8,5.9-2.3,11.8-4.3,17.4
	c-1.4,3.7-3.1,7.3-5.2,10.6c-1.8,3-4,5.8-6.4,8.3c-6,6.2-14.6,8.2-23,10.9c-3.8,1.1-7.6,2.6-11.1,4.5c-0.6,0.3-1.2,0.7-1.8,1.1
	l-10.5,6.9c-3.3,2.2-6.6,4.4-8.8,7.6c-0.4,0.5-0.7,1.1-1,1.7c-1.4,2.9-2.5,6-3.1,9.2c-5.4,22.7-10.9,45.3-14.6,68.3
	c-0.2,1.5-0.5,3-0.8,4.6l-0.1,0.5c0-0.1-0.1-0.2-0.2-0.3c-26.8,16.2-54.5,30.8-83.1,42.5l-6.2-52c-0.6-4.2-0.9-8.5-0.6-12.8
	c0.6-6.7,3.3-13.1,4.1-19.8c0.7-6.6-0.5-13.2-3.6-19.1c-1.2-2.3-2.7-4.5-2.9-7.1s1.2-4.9,3.8-5.1c2-2.2,2.2-5.2,1.6-8.2
	c-0.3-1.6-0.8-3.1-1.4-4.6c-1.7-4.2-3.8-8.7-2.4-13c0.4-0.8,0.6-1.6,0.5-2.5c0-0.1,0-0.1,0-0.2c-0.3-1.1-1.7-1.6-2.4-2.6
	c-1.3-1.8,0-4.2,0.8-6.2c0.8-2.2,1.2-4.5,1.3-6.8c0.1-1.3,0.2-2.6,0.3-3.9c0.2-1.7,0.5-3.4,0.9-5.1c2.4-9.6,8.3-17.9,16.4-23.5
	c3.9-2.6,8.2-4.5,12.2-7c4.1-2.7,7.9-5.7,11.6-9c8.8-7.3,18-14.2,27.5-20.7c10.2-7,20.8-13.4,31.7-19.3c2.3-1.3,4.7-2.5,7-3.7
	c2.5-1.3,5.1-2.6,7.7-3.8c8.2-3.9,17.6-2.5,26.7,0.2c3.8,1.1,7.6,2.4,11.2,3.6c3.6,1.2,7,2.7,10.2,4.6c8.1,4.7,14.7,11.7,17.5,20.6
	c0,0.1,0,0.1,0,0.2C888.7,552.9,888.8,558.9,888.7,564.7z"/>
<path class="st1" d="M793.7,399.1c-0.4-1-1.5-1.4-2.5-1s-1.4,1.5-1,2.5c0,0,0,0.1,0.1,0.1l-1,0.5l29.8,61.1l5.4-2.6l-29.8-61.2
	L793.7,399.1z"/>
<circle class="st11" cx="831" cy="271" r="64"/>
<path class="st5" d="M915.5,231.4c-0.3-5.1-1.1-10.1-2.3-15.1c-3.8-16.2-10.6-32.1-22.5-43.7c-0.7-2.8-1.6-5.6-2.6-8.4
	c0-0.1,0-0.1-0.1-0.2c-3.5-9.7-8.6-18.7-15.1-26.8c-3.8-4.7-8.6-9.3-14.6-9.4c-1.7-0.1-3.5,0.2-5-0.5c-1.1-0.7-2.1-1.7-2.8-2.9
	c-6-7.6-15.8-11.3-25.4-9.5l-0.6,0.1c-0.3,0.1-0.7,0.1-1,0.2s-0.8,0.2-1.3,0.4c0.5,0.8,0.9,1.5,1.3,2.3c1.2,2.1,2.3,4.3,3.3,6.5
	c0.8,1.8,1.6,3.7,2.3,5.6c-10.2,1.2-18.6,8.4-26.2,15.4L785,161.7l-0.1,0.1l-0.5,0.5c-0.1,0.1-0.3,0.3-0.4,0.4l-0.1,0.1
	c-0.2,0.2-0.3,0.3-0.4,0.5c-0.2,0.3-0.5,0.6-0.7,1c-0.1,0.2-0.2,0.3-0.3,0.5l-0.1,0.1c-0.1,0.1-0.1,0.3-0.2,0.4c0,0,0,0,0,0.1
	s-0.1,0.2-0.1,0.2c-0.2,0.7-0.1,1.5,0.2,2.1l11.8,0.1h1.4c0.1,1.6,0.1,3.2,0.2,4.8c-1.9,1.4-3.7,2.9-5.4,4.5
	c-1.9,1.7-3.6,3.6-5.3,5.6c-10.7,12.9-16.2,29.5-16.8,46.3c0,0.5,0,1,0,1.5c0,1.5,0,3.1,0,4.6c0,1,0.1,2,0.2,3c0,1.3,0.3,2.6,1,3.7
	c0.1,0.1,0.2,0.2,0.3,0.4c0.6,0.7,1.3,1.2,2.1,1.6l0.9,0.4l0,0c0.4,0.2,0.8,0.4,1.2,0.6c3.8,2.1,6,6.2,9.4,8.9
	c0.2,0.1,0.4,0.3,0.6,0.4l0.5,0.3l0.3,0.2l0.4,0.2c0.2,0.2,0.5,0.3,0.8,0.4l0,0l0,0l0.5,0.2h0.1l0,0c0.4,0.2,0.8,0.4,1.2,0.5
	l0.6,0.2l0.2,0.1c0.2,0,0.3,0.1,0.5,0.1c0.3,0.1,0.7,0.2,1,0.3l1,0.2c0.4,0.1,0.8,0.1,1.2,0.2l0.6,0.1l0.6,0.1
	c1,0.1,1.9,0.1,2.9,0.1l0,0c3,0,6.1-0.2,9.1-0.6l25.5-3c5.8-0.7,11.7-1.3,17.4-0.2c4.8,1,9.3,3.3,14,4.9c1.1,0.4,2.1,0.7,3.2,1
	c0.4,0.1,0.8,0.2,1.2,0.3l0.5,0.1l1.3,0.3c0.5,0.1,0.9,0.2,1.4,0.3c0.7,0.1,1.3,0.3,1.9,0.4c0.4,0.1,0.9,0.2,1.3,0.2h0.1l1.3,0.2
	h0.3l0,0l1,0.1c0.5,0.1,0.9,0.1,1.4,0.2c1,0.1,2,0.2,3.1,0.3c1.7,0.2,3.3,0.3,5,0.4l1.7,0.1l1.7,0.1l5,0.2h0.2h0.7
	c2.1,0.1,4.2,0,6.2-0.3c0.4-0.1,0.7-0.1,1.1-0.2s0.6-0.2,1-0.3c3.8-1.4,6.5-4.8,8.4-8.3c0.4-0.8,0.8-1.5,1.1-2.3s0.7-1.5,0.9-2.3
	c0.3-1,0.7-2,0.9-3c0.1-0.3,0.2-0.5,0.2-0.8s0.2-0.8,0.3-1.2c0.2-1.1,0.4-2.3,0.6-3.5c0-0.4,0.1-0.8,0.1-1.1c0.1-1,0.2-1.9,0.2-2.9
	c0-0.7,0-1.5,0-2.2C915.5,233.5,915.5,232.4,915.5,231.4z M889.8,171.7c-0.8-0.8-1.6-1.5-2.5-2.2
	C888.3,170.1,889.1,170.9,889.8,171.7L889.8,171.7z"/>
<path class="st5" d="M708.2,267.5c-7.5-0.9-15-4.2-22.4-2.6c-4.7,1-8.7,3.9-12.4,6.9c-13.8,11.1-25.6,24.6-34.8,39.8
	c-1.6,2.3-2.6,4.8-3.2,7.5c-0.5,3.1,0.4,6.3,1.4,9.3c6.8,20.2,21.5,37.1,28.1,57.4c7,21.3,4.6,44.6-0.6,66.5
	c-6.4,27-16.8,52.8-30.8,76.7c-1.9,3.6-4.3,6.8-7.1,9.7c-3.6,3.5-8.5,6-10.7,10.6c-1,2-1.3,4.3-2,6.4c-2,6-6.8,11.1-7.3,17.5
	c-0.3,4.8,1.9,9.4,3.3,14c2.3,7.9,2.1,16.3-0.7,24.1c-5.1,13.9-18.3,26.5-14.5,40.8c8.6-2.5,18.1-5.7,22.2-13.7
	c1.4-2.8,2.1-6.2,4.5-8.2c4.8-4.1,13-0.4,18.1-4.2c3.9-2.9,4-8.7,2.3-13.2s-4.7-8.5-6-13.1c-2.3-8.3,1.4-17.2,0.7-25.8
	c-0.3-4-1.5-7.8-1.6-11.8c-0.2-7.7,4.1-15,9.8-20.2s12.7-8.7,19.6-12.2l26.2-13c9.5-4.7,19.9-10.4,23-20.5c1.2-3.8,1.2-7.8,1.2-11.8
	c0.9-60.5,16-119.8,31.1-178.4c2.3-9.1,4.7-18.2,8.2-26.9s10.3-15.7,13.8-23.8C747.5,252.7,729.1,270.1,708.2,267.5z"/>
<path class="st13" d="M852.4,647.1c2.3,14,3.7,28.3,4.8,42.5c-18,14.9-37.4,27.9-57.1,39.9c-1.1,0.7-2.2,1.4-3.4,2l-0.1,0.5
	c0-0.1-0.1-0.2-0.2-0.3c-1.5-3.3-4.2-5.9-7.5-7.4c-7.4-15.5-14.8-31-22.1-46.5c-4-8.4-8-16.8-10-25.8c0-0.2-0.1-0.4-0.1-0.6
	c-1.5-7-1.9-14.3-2.9-21.4c-0.5-4.1-1.4-8.1-2.7-11.9c-1.2-3.5-2.8-6.8-4.3-10.2c-1.8-4.2-3.3-8.4-3.4-12.9c0-1.4,0.1-3-0.6-4.2
	c-0.7-1-1.7-1.9-2.7-2.6c-2.7-2.4-4-6-3.4-9.5c-6,0.3-9.4,6.8-11.8,12.2c-2.2,5.3-5.1,10.4-8.6,15c-2.5,3.3-5.8,6-9.5,7.9
	c-0.3,0.2-0.7,0.3-1,0.5c-8.3,3.7-18.1,2.4-27.2,0.7c-7.9-1.5-16.1-3.2-22.5-8.2l-0.7-0.5c-1.9-1.6-3.6-3.4-5-5.3
	c-5.3-7.3-7.7-16.9-9-26c-0.1-0.9-0.2-1.7-0.3-2.6c-0.9-6.5-1.2-13-0.8-19.5c0.1-1.6,0.3-3.2,0.5-4.8c0.1-1,0.3-2.1,0.5-3.1v-0.1
	c0.3-1.7,0.5-3.3,0.8-5c1-5.7,2-11.5,5-16.4c2-3,4.5-5.7,7.4-7.9c1.1-0.8,2.2-1.7,3.3-2.4c1.8-1.3,3.7-2.5,5.6-3.6
	c4.8-2.9,9.8-5.3,15-7.3c1.2-0.5,2.5-0.9,3.8-1.4c4.9-1.7,10.2-2.2,15.3-1.2c4.5,0.7,9.1,0.9,13.7,0.8c11.7-0.2,23.5-2.5,35.2-3.9
	c16.3-2,33.7-2.2,47.9,6c0.7,0.4,1.3,0.8,2,1.2c7,4.6,12.6,11,17.2,18.2c1,1.5,1.9,3.1,2.7,4.6c2,3.6,3.8,7.3,5.4,11.1
	c0.9,1.9,1.5,3.9,1.5,6c0,0.4-0.1,0.8-0.2,1.2c-0.3,1.4-0.8,2.8-1,4.2c-0.6,5.5,4,10,5.7,15.2c1.1,3.4,1,7,1.6,10.6
	c0.9,5,3.4,9.5,5.6,14c3.5,7.2,6.5,14.7,8.9,22.4c1.7,5.3,3.2,10.7,4.5,16.2c0.4,1.8,0.8,3.5,1.2,5.3
	C850.7,637.6,851.6,642.4,852.4,647.1z"/>
<polygon class="st1" points="959,499 959,506 957.7,506 956.2,506 940.2,505.8 900.5,505.3 889.4,505.1 886.5,505.1 869.9,504.9 
	846.3,504.6 796.4,503.9 709.8,502.8 678.6,502.4 666.1,502.2 654.5,502.1 647.3,502 640.5,501.9 590,501.2 576,501.1 573,501 
	571,495.9 556.6,458.8 554,452 556,444 565,450 570.5,450.7 661.7,462.1 678.8,464.2 715.2,468.7 750.7,473.1 764.7,474.9 
	847.1,485.1 870.2,488 889.3,490.4 957.1,498.8 "/>
<polygon class="st2" points="556,444 574,491 959,499 959,448 "/>
<polygon class="st5" points="576,496 579,783 593,781 590,496 "/>
<path class="st1" d="M957.7,506h-1.4c-2.3,17.9-6.2,35.6-11.5,52.8l-4.6-53l-0.2-2.3l16.8-1.9l0.6-0.1L957.7,506z"/>
<polygon class="st9" points="903,472 756.5,475 711,460 833,453 "/>
<path class="st11" d="M719.2,413.7c-1.6,0.6-2.9,1.6-4,2.9c-0.8,1.4-1.3,2.9-1.5,4.5l-2.5,14.7c-0.4,1.3-0.3,2.8,0.2,4.1
	c0.6,1.2,2.5,1.9,3.4,0.9c-0.1,2.9,0.1,5.9,1.8,8.3s5.2,3.6,7.5,1.9c1.4,2.3,4.4,3,6.7,1.6c0.2-0.1,0.4-0.3,0.6-0.5
	c-1.4,0.5-1.5,2.6-0.5,3.8c1.1,1,2.6,1.6,4.1,1.6c17.6,2.5,35.5,0.2,51.9-6.5c1.5-0.6-2.5-19.8-2.9-21.7c-1-4.6-1.5-10.2-5.4-13.3
	c-9.3-7.4-25.8-8.9-37.2-8C733.8,408.4,726.2,410.4,719.2,413.7z"/>
<path class="st7" d="M868.3,415.9c-36.2,0.7-73.1,1.3-107.6-9.5c3.3,12.8,3.1,26.2-0.7,38.9l169.1,14c7.2,0.6,36.9,4,43.9,2.3
	s-58.7-23.3-56-30c7.3-18.4,31.7-29.2,14.1-29.9C908.9,400.7,890.6,415.5,868.3,415.9z"/>
<path class="st1" d="M869.3,417.9c-36.2,0.7-73.1,1.3-107.6-9.5c3.3,12.8,3.1,26.2-0.7,38.9l169.1,14c7.2,0.6,36.9,4,43.9,2.3
	s5.3-10.3,8-17c7.3-18.4-32.3-42.2-49.9-42.9C909.9,402.7,891.6,417.5,869.3,417.9z"/>
<path class="st11" d="M811.8,420.7c1.6,0.6,2.9,1.6,4,2.9c0.8,1.4,1.3,2.9,1.5,4.5l2.5,14.7c0.4,1.3,0.3,2.8-0.2,4.1
	c-0.6,1.2-2.5,1.9-3.4,0.9c0.1,2.9-0.1,5.9-1.8,8.3s-5.2,3.6-7.5,1.9c-1.4,2.3-4.4,3-6.7,1.6c-0.2-0.1-0.4-0.3-0.6-0.5
	c1.4,0.5,1.5,2.6,0.5,3.8c-1.1,1-2.6,1.6-4.1,1.6c-17.6,2.5-35.5,0.2-51.9-6.5c-1.5-0.6,2.5-19.8,2.9-21.7c1-4.6,1.5-10.2,5.4-13.3
	c9.3-7.4,25.8-8.9,37.2-8C797.2,415.4,804.7,417.4,811.8,420.7z"/>
<path class="st5" d="M572.8,388.9c-3.3,4.3-6.7,8.6-8.8,13.6c-4.1,9.5-3.5,20.3-2.8,30.6c0.2,3,0.4,6.1,2,8.5
	c1.4,1.9,3.1,3.4,5.2,4.5c8.7,4.9,18.8,6.4,28.7,7.5c15.2,1.7,30.4,2.7,45.6,3.1c37.8,0.9,76.2-2.2,113.1,6.4
	c-4.6-6.9-4.5-16.1-2-24s7.5-14.8,12.3-21.5c-16.9-5.3-34.9,3-52.6,2.2c-18.1-0.9-34.9-11.3-53.1-11.3c-3.9,0-7.9,0.5-11.7-0.5
	s-7.5-3.8-7.8-7.7c4.8,1.1,9.4-3,11.4-7.6s2.4-9.7,4.3-14.2c4.8-11.4,17.9-16.6,26-26c1.3-1.5,2.5-3.2,2.5-5.2
	c-0.2-1.7-0.9-3.2-2-4.5c-6.8-9-16.9-14-25.4-21c-2.9-2.4-8.9-11.6-12.2-12.5c-6.1-1.6-11.3,7.3-15.3,11.6
	C610.2,342.7,591,365.4,572.8,388.9z"/>
<path class="st14" d="M773.8,386.3c2.5,1.9,4.8,4.1,6.7,6.6c1.9,2.6,2.7,5.8,2.1,8.9c-0.6-6,2.8-11.6,8.3-13.8L773.8,386.3z"/>
<g class="st10">
	<path d="M829.3,124.1c-1.2-3.1-2.5-6.2-4.1-9.1c-1,0.2-2,0.4-2.9,0.8c1.7,2.8,3.3,5.8,4.6,8.8C827.7,124.3,828.5,124.2,829.3,124.1
		z"/>
	<path d="M887.3,163.5c0.3,0.2,0.5,0.5,0.8,0.7c0-0.1,0-0.1-0.1-0.2C887.8,163.9,887.6,163.7,887.3,163.5z"/>
	<path d="M794.4,167.9c0.5-0.4,1-0.8,1.6-1.2l-0.2-4.8l-10.7-0.1c-1.7,1.6-3.6,3.9-2.5,6L794.4,167.9z"/>
	<path d="M911.1,247.9c-1.9,3.5-4.6,6.9-8.4,8.3c-2.9,1.1-6.1,1-9.2,0.9c-10.5-0.4-21.3-0.9-31.2-4.4c-4.7-1.6-9.1-3.9-14-4.9
		c-5.7-1.2-11.6-0.5-17.4,0.2l-25.5,3c-7.5,0.9-15.9,1.5-21.9-3.1c-3.4-2.6-5.7-6.8-9.4-8.9c-1.6-0.9-3.5-1.5-4.5-3
		c-0.7-1.1-1-2.4-1-3.7c-0.1-1-0.1-2.1-0.2-3.1c-0.1,3.1-0.1,6.1,0.2,9.1c0,1.3,0.3,2.6,1,3.7c1,1.5,2.9,2.1,4.5,3
		c3.8,2.1,6,6.2,9.4,8.9c6,4.6,14.4,4,21.9,3.1l25.5-3c5.8-0.7,11.7-1.4,17.4-0.2c4.8,1,9.3,3.3,14,4.9c10,3.5,20.7,4,31.2,4.4
		c3.1,0.1,6.3,0.2,9.2-0.9c3.8-1.4,6.5-4.8,8.4-8.3c3.7-6.9,4.7-14.6,4.3-22.5C915.2,237.2,913.8,242.8,911.1,247.9z"/>
</g>
<path class="st7" d="M829,130.5l14,13C843,143.5,831,138.5,829,130.5z"/>
</svg>
