<?xml version="1.0" encoding="utf-8"?>
<!-- Generator: Adobe Illustrator 24.2.1, SVG Export Plug-In . SVG Version: 6.00 Build 0)  -->
<svg version="1.1" id="b1d80de4-06cb-4b2d-9c4c-b14d42818646"
	 xmlns="http://www.w3.org/2000/svg" xmlns:xlink="http://www.w3.org/1999/xlink" x="0px" y="0px" viewBox="0 0 1009.5 750.4"
	 style="enable-background:new 0 0 1009.5 750.4;" xml:space="preserve">
<style type="text/css">
	.st0{fill:#FF8300;}
	.st1{fill:#FFFFFF;}
	.st2{fill:url(#SVGID_1_);}
	.st3{fill:#D6D6D6;}
	.st4{fill:#E8E8E8;}
	.st5{fill:#C2C2C2;}
	.st6{fill:#3C4145;}
	.st7{fill:#EEA886;}
	.st8{fill:#041147;}
	.st9{fill:#A77860;}
	.st10{fill:#C4C4C4;}
	.st11{fill:#1E347A;}
	.st12{fill:#6199F2;}
	.st13{fill:#BBD070;}
	.st14{fill:#0086D8;}
	.st15{fill:#3A3F47;}
	.st16{fill:#88C0FF;}
	.st17{fill:#FFC655;}
	.st18{fill:#4471B0;}
	.st19{fill:#5C544D;}
	.st20{fill:#FFD255;}
	.st21{fill:#254380;}
	.st22{fill:#1D3B54;}
	.st23{fill:#DB6A03;}
	.st24{fill:#2F4563;}
	.st25{fill:#EFAA88;}
	.st26{fill:#DB9C7C;}
	.st27{fill:#292C47;}
	.st28{fill:#3D416B;}
	.st29{fill:#CFBEB6;}
	.st30{fill:#EDDAD3;}
	.st31{fill:#23263D;}
	.st32{fill:#323657;}
	.st33{fill:#D44040;}
	.st34{fill:#E3F2FF;}
	.st35{fill:#E2D2CA;}
	.st36{fill:#EAD8CF;}
	.st37{fill:#DA9B5B;}
	.st38{fill:#424773;}
	.st39{fill:#252840;}
</style>
<g>
	<g>
		<path class="st0" d="M560.4,448.3l-11.2-28.1c-14-1-27.8-4-40.9-8.8l-21.7,21l-55-37.9l11.9-27.8c-9.1-10.6-16.8-22.4-22.7-35.2
			l-30.3-0.5l-12.1-65.6l28.1-11.2c1-14,4-27.8,8.7-40.9l-21-21.7l37.9-55l27.8,11.9c10.6-9.1,22.4-16.8,35.2-22.7l0.5-30.4l65.7-12
			l11.2,28.1c14,1,27.8,4,40.9,8.7l21.7-21l55,37.9l-11.9,27.8c9.1,10.6,16.8,22.4,22.7,35.2l30.3,0.5l12.1,65.7l-28.1,11.2
			c-1,14-4,27.8-8.8,40.9l21,21.7l-37.9,55l-27.8-11.9c-10.6,9.1-22.4,16.8-35.2,22.7l-0.5,30.3L560.4,448.3z M507.8,409.4l0.5,0.2
			c13.3,4.9,27.3,7.9,41.5,8.9h0.6l11.1,27.8l62.9-11.5l0.5-29.9l0.5-0.2c12.9-6,24.9-13.8,35.7-23l0.4-0.4l27.5,11.8l36.3-52.6
			L704.5,319l0.2-0.5c4.9-13.3,7.9-27.3,8.9-41.5v-0.6l27.8-11.1l-11.5-62.9l-29.9-0.5l-0.2-0.5c-6-12.9-13.8-24.9-23-35.7l-0.4-0.4
			l11.8-27.5l-52.6-36.3l-21.5,20.8l-0.5-0.2c-13.3-4.9-27.3-7.9-41.5-8.9h-0.6l-11.3-27.8l-62.9,11.5l-0.5,29.9l-0.5,0.2
			c-12.9,6-24.9,13.8-35.7,23l-0.4,0.4l-27.5-11.8l-36.3,52.6l20.8,21.5l-0.2,0.5c-4.9,13.3-7.9,27.3-8.9,41.5v0.6l-27.8,11.1
			l11.5,62.9l29.9,0.5l0.2,0.5c6,12.9,13.8,24.9,23,35.7l0.4,0.4l-11.8,27.5l52.6,36.3L507.8,409.4z M560.7,346.8
			c-15.9,0-31.9-4.6-45.9-14.3c-36.8-25.4-46.1-75.9-20.7-112.7c25.4-36.8,75.9-46.1,112.7-20.7s46.1,75.9,20.7,112.7
			C611.8,334.6,586.5,346.8,560.7,346.8z M515.8,331.1c36,24.8,85.4,15.7,110.2-20.2c12-17.4,16.5-38.5,12.7-59.3
			s-15.5-38.9-32.9-50.9c-36-24.8-85.4-15.7-110.2,20.2S479.9,306.3,515.8,331.1z"/>
	</g>
	<path class="st0" d="M816.6,472.4c3-7.7,4.8-15.7,5.4-23.7l16-6.1l-3.1-18.4l-3.1-18.4l-17.1-0.5c-3.3-7.4-7.6-14.3-12.9-20.6
		l7-15.7l-15.2-10.9l-15.2-10.8L765.9,359c-7.7-3-15.7-4.8-23.7-5.4l-6.1-16l-18.4,3.1l-18.4,3.1l-0.5,17.1
		c-7.4,3.3-14.3,7.6-20.6,12.9l-15.7-7L651.6,382l-10.8,15.2l11.7,12.5c-3,7.7-4.8,15.7-5.4,23.7l-16,6.1l3.1,18.4l3.1,18.4
		l17.1,0.5c3.3,7.4,7.6,14.3,12.9,20.6l-7,15.7l15.2,10.8l15.2,10.8l12.5-11.7c7.7,3,15.7,4.8,23.7,5.4l6.1,16l18.4-3.1l18.4-3.1
		l0.5-17.1c7.4-3.3,14.3-7.6,20.6-12.9l15.7,7l10.8-15.2l10.8-15.2L816.6,472.4z M708.1,478.3c-20.6-14.6-25.4-43.2-10.7-63.7
		c14.6-20.6,43.2-25.4,63.7-10.7c20.6,14.6,25.4,43.2,10.7,63.7S728.7,492.9,708.1,478.3z"/>
	<path class="st0" d="M648.4,328.3c4.2-10.9,6.7-22.1,7.7-33.4l22.5-8.6l-4.4-25.8l-4.4-25.8l-24.1-0.8c-4.6-10.4-10.7-20.1-18.2-29
		l9.8-22l-21.4-15.2l-21.1-15.3l-17.6,16.5c-10.8-4.2-22.1-6.7-33.4-7.7l-8.6-22.5l-25.8,4.4l-25.8,4.4l-0.8,24.1
		c-10.4,4.6-20.1,10.7-29,18.2l-22-9.8l-15.2,21.4l-15.2,21.4l16.5,17.6c-4.2,10.9-6.7,22.1-7.7,33.4l-22.5,8.6l4.4,25.8l4.4,25.8
		l24.1,0.8c4.6,10.4,10.7,20.1,18.2,29l-9.8,22l21.4,15.2l21.4,15.2l17.6-16.5c10.9,4.2,22.1,6.7,33.4,7.7l8.6,22.5l25.8-4.4
		l25.8-4.4l0.8-24.1c10.4-4.6,20.1-10.7,29-18.2l22,9.8l15.2-21.4l15.2-21.4L648.4,328.3z M495.9,336.6
		C467,316,460.2,275.9,480.8,247c20.6-28.9,60.7-35.7,89.6-15.1c28.9,20.6,35.7,60.7,15.1,89.6C564.9,350.4,524.8,357.1,495.9,336.6
		z"/>
	<g>
		<path class="st1" d="M288,632.5v-1.8c3.5-0.1,7.1-0.2,10.6-0.4l0.1,1.8C295.2,632.3,291.6,632.4,288,632.5z M277.3,632.5
			c-3.6-0.1-7.2-0.2-10.7-0.4l0.1-1.8c3.5,0.2,7.1,0.4,10.6,0.4V632.5z M309.4,631.3l-0.2-1.8c6.6-0.6,10.5-1.3,10.5-1.3l0.3,1.7
			C320,630,316.1,630.7,309.4,631.3z M256,631.1c-3.6-0.4-7.1-0.8-10.6-1.3l0.3-1.8c3.5,0.5,7,0.9,10.5,1.3L256,631.1z M234.8,628.1
			c-3.5-0.7-7-1.4-10.5-2.2l0.4-1.7c3.4,0.8,6.9,1.5,10.4,2.2L234.8,628.1z M214,623.3c-3.4-1-6.9-2-10.2-3.1l0.6-1.7
			c3.3,1.1,6.7,2.2,10.1,3.1L214,623.3z M193.7,616.5c-3.3-1.3-6.6-2.7-9.9-4.2l0.7-1.6c3.2,1.4,6.5,2.8,9.8,4.1L193.7,616.5z
			 M174.2,607.7c-3.2-1.7-6.3-3.4-9.3-5.2l0.9-1.5c3,1.8,6.1,3.5,9.2,5.2L174.2,607.7z M155.9,596.7c-2.9-2-5.8-4.1-8.6-6.3l1.1-1.4
			c2.8,2.2,5.6,4.2,8.6,6.2L155.9,596.7z M139,583.5c-2.7-2.3-5.3-4.8-7.8-7.3l1.3-1.3c2.5,2.5,5.1,4.9,7.7,7.2L139,583.5z
			 M123.9,568.5c-2.3-2.6-4.7-5.4-6.9-8.2l1.4-1.1c2.2,2.8,4.5,5.5,6.8,8.1L123.9,568.5z M110.6,551.7c-2-2.9-4-5.9-5.8-8.9l1.5-0.9
			c1.8,3,3.8,6,5.8,8.9L110.6,551.7z M99.4,533.5c-1.7-3.1-3.3-6.3-4.8-9.5l1.6-0.8c1.5,3.2,3.1,6.4,4.8,9.4L99.4,533.5z
			 M90.3,514.2c-1.4-3.2-2.7-6.6-3.9-10l1.7-0.6c1.2,3.3,2.5,6.7,3.8,9.9L90.3,514.2z M83,494.1c-1.1-3.3-2.1-6.8-3-10.2l1.7-0.5
			c0.9,3.4,1.9,6.9,3,10.2L83,494.1z M77.4,473.5c-0.5-2.1-1-4.3-1.4-6.5c-0.3-1.3-0.5-2.7-0.8-4l1.7-0.3c0.3,1.3,0.5,2.6,0.8,3.9
			c0.4,2.2,0.9,4.3,1.4,6.4L77.4,473.5z M73.4,452.5c-0.5-3.5-1-7.1-1.4-10.6l1.8-0.2c0.4,3.5,0.8,7,1.4,10.5L73.4,452.5z
			 M71.1,431.3c-0.2-3.6-0.4-7.2-0.4-10.7h1.8c0.1,3.5,0.2,7.1,0.4,10.6L71.1,431.3z M72.5,409.9h-1.8c0.1-3.6,0.3-7.1,0.5-10.7
			l1.8,0.1C72.8,402.9,72.6,406.4,72.5,409.9z M74.1,388.8l-1.8-0.2c0.4-3.5,1-7.1,1.6-10.6l1.7,0.3C75,381.8,74.5,385.3,74.1,388.8
			z M77.7,367.9l-1.7-0.4c0.8-3.5,1.6-6.9,2.5-10.4l1.7,0.5C79.3,361,78.4,364.5,77.7,367.9z M83.2,347.5l-1.7-0.5
			c1.1-3.4,2.3-6.8,3.5-10.1l1.7,0.6C85.4,340.8,84.3,344.1,83.2,347.5z M90.6,327.6l-1.6-0.7c1.4-3.2,2.8-6.5,4.4-9.8l1.6,0.8
			C93.4,321.1,91.9,324.4,90.6,327.6z M99.6,308.4l-1.6-0.8c1.6-3.1,3.3-6.3,5.1-9.4l1.5,0.9C103,302.2,101.2,305.3,99.6,308.4z
			 M110.2,290l-1.5-0.9c1.8-3,3.8-6,5.8-9l1.5,1C113.9,284,112,287,110.2,290z M121.9,272.3l-1.4-1c2-2.8,4.2-5.7,6.3-8.6l1.4,1.1
			C126.1,266.6,124,269.5,121.9,272.3z M134.8,255.4l-1.4-1.1c2.2-2.7,4.5-5.5,6.8-8.2l1.4,1.1C139.2,249.9,137,252.7,134.8,255.4z
			 M148.5,239.1l-1.3-1.2c2.3-2.6,4.7-5.3,7.1-7.9l1.3,1.2C153.2,233.8,150.8,236.5,148.5,239.1z M162.9,223.4l-1.3-1.2
			c2.4-2.5,4.9-5.1,7.4-7.7l1.3,1.2C167.7,218.4,165.3,220.9,162.9,223.4z M177.8,208.2l-1.2-1.3c2.4-2.4,4.9-4.9,7.6-7.5l1.2,1.3
			C182.7,203.4,180.2,205.8,177.8,208.2z M193.1,193.4l-1.2-1.3c2.6-2.5,5.2-4.9,7.7-7.4l1.2,1.3
			C198.2,188.4,195.7,190.9,193.1,193.4z M208.5,178.7l-1.2-1.3c2.6-2.5,5.2-4.9,7.7-7.4l1.2,1.3
			C213.7,173.7,211.1,176.2,208.5,178.7z M223.9,163.9l-1.2-1.3c2.8-2.7,5.2-5.2,7.6-7.5l1.3,1.2
			C229.2,158.7,226.7,161.2,223.9,163.9z M238.9,148.7l-1.3-1.3c2.6-2.8,4.9-5.4,7.1-7.9l1.4,1.1
			C243.8,143.2,241.5,145.8,238.9,148.7z M252.7,132.3l-1.4-1c2.2-3.1,4.2-6,5.7-8.8l1.5,0.9C256.9,126.1,255,129.1,252.7,132.3z
			 M262.9,113.4l-1.7-0.5c0.1-0.3,0.2-0.6,0.3-0.9c0.9-3.1,2-6.2,3.1-9.3l1.7,0.6c-1.2,3-2.2,6.1-3.1,9.1
			C263.1,112.8,263,113.1,262.9,113.4z M270.6,93.7l-1.6-0.8c1.6-3.2,3.3-6.3,5.2-9.4l1.5,0.9C273.9,87.5,272.1,90.6,270.6,93.7z
			 M281.7,75.8l-1.4-1.1c2.1-2.8,4.4-5.6,6.8-8.3l1.3,1.2C286,70.2,283.7,73,281.7,75.8z M295.7,60l-1.2-1.3
			c2.6-2.4,5.3-4.8,8.1-7.1l1.1,1.4C300.9,55.2,298.2,57.6,295.7,60z M312.2,46.7l-1-1.5c2.9-2,6-3.9,9.1-5.6l0.9,1.5
			C318.1,42.9,315.1,44.8,312.2,46.7z M330.5,36.3l-0.7-1.6c3.2-1.5,6.6-2.9,9.9-4.1l0.6,1.7C337,33.5,333.7,34.9,330.5,36.3z
			 M423.4,29.9c-3.4-1-6.8-1.9-10.2-2.7l0.4-1.7c3.5,0.8,7,1.7,10.4,2.7L423.4,29.9z M350.4,29l-0.5-1.7c3.4-1,6.9-1.8,10.4-2.5
			l0.3,1.7C357.2,27.3,353.8,28.1,350.4,29z M402.8,25.4c-3.5-0.5-7-0.8-10.5-1l0.1-1.8c3.5,0.2,7.1,0.5,10.7,1L402.8,25.4z
			 M371.1,25l-0.2-1.8c3.5-0.4,7.1-0.6,10.7-0.7v1.8C378.2,24.4,374.6,24.6,371.1,25z"/>
	</g>
	<g>
		<g>
			<g>
				<g>
					
						<linearGradient id="SVGID_1_" gradientUnits="userSpaceOnUse" x1="184" y1="56.45" x2="286.1" y2="56.45" gradientTransform="matrix(1 0 0 -1 0 424)">
						<stop  offset="0" style="stop-color:#FF9F55"/>
						<stop  offset="1" style="stop-color:#FFD255"/>
					</linearGradient>
					<path class="st2" d="M278,405.2h-85.9c-4.5,0-8.1-3.6-8.1-8.1V338c0-4.5,3.6-8.1,8.1-8.1H278c4.5,0,8.1,3.6,8.1,8.1v59.1
						C286.1,401.6,282.5,405.2,278,405.2z M192.1,331.1c-3.8,0-6.9,3.1-6.9,6.9v59.1c0,3.8,3.1,6.9,6.9,6.9H278
						c3.8,0,6.9-3.1,6.9-6.9V338c0-3.8-3.1-6.9-6.9-6.9H192.1z"/>
				</g>
			</g>
		</g>
	</g>
	<g>
		<g>
			<g>
				<g>
					<polygon class="st3" points="401.4,620.2 337.3,627.4 352.3,615.1 					"/>
				</g>
			</g>
		</g>
		<g>
			<g>
				<g>
					<polygon class="st4" points="401.4,620.2 371.1,607.6 359.1,615.8 					"/>
				</g>
			</g>
		</g>
		<g>
			<g>
				<g>
					<polygon class="st5" points="352.1,625.8 355.3,632.2 401.4,620.2 					"/>
				</g>
			</g>
		</g>
	</g>
	<g>
		<g>
			<path class="st6" d="M292.5,513.7h133.2c-0.2-1.6-0.5-4-0.7-6.3c-1.3-13.9-2.1-23.1-2.1-23.1s-109.2-54.1-121.2-18.5
				c-3.8,11.4-6.6,25.7-8.4,41.6C293,509.8,292.7,512.2,292.5,513.7z"/>
		</g>
	</g>
	<g>
		<path class="st4" d="M405.2,329.7c0,0,6.1,36.2,11,60.2l0,0c2,9.7,3.8,17.4,4.9,19.8c1.4,3,12.8,15.3,26.8,29.7
			c24.6,25.3,57,57.1,57,57.1l12.7-24.1c0,0-28.8-33.8-48.3-56.3c-9-10.4-16.1-18.5-17.4-19.6c-4.1-3.7-8.8-39.7-15.5-69.3
			c-6.7-29.7-20-46.1-20-46.1L405.2,329.7z"/>
	</g>
	<g>
		<path class="st7" d="M447.9,439.4c24.6,25.3,57,57.1,57,57.1l12.7-24.1c0,0-28.8-33.8-48.3-56.3C463.3,419,452.3,426,447.9,439.4z
			"/>
	</g>
	<g>
		<path class="st4" d="M294.7,491.8c-0.9,3.2,123.3,4.5,123.3,4.5s-5.3-38.7-8.3-47.8c-3-9,8.6-63,10.5-80.6
			c1.5-14.1,5.4-77.2-3.9-86.8c-9.7-10.1-44.7-20.6-44.7-20.6l-51,1.9c0,0-8.4,1.8-14.4,4.6c-6,2.8-40.4,15.1-46,32.2
			c-5.6,17.2,34.3,72.5,34.3,72.5s0.1,2.5,0.2,6.6l0,0c0.2,5.4,0.4,13.7,0.6,22.6c0.3,11.6,0.5,24.4,0.5,33.7
			C295.8,456.5,295.6,488.6,294.7,491.8z"/>
	</g>
	<g>
		<path class="st7" d="M357.7,149.7c0,0,44.3-10,34.2,45.7c-10.1,55.7-20.8,60.1-47.5,48.6s-24.3-47.2-25.7-64.7
			C317.3,161.7,343.5,150.3,357.7,149.7z"/>
	</g>
	<g>
		<path class="st7" d="M369.4,274.8c0,0-19.6,20.8-50.6,1.9c0,0,6.9-45.1,3.3-67s40.4,34,40.4,34c-0.6,0.3-1,2.4-1.1,5.4
			c-0.1,2.5,0.1,5.7,0.5,8.9C362.8,265.3,365.1,273,369.4,274.8z"/>
	</g>
	<g>
		<path class="st7" d="M333.9,188c-0.6-4.9-10.3-6.7-11.1,0.7c-0.8,7.4,4.4,20.3,8.1,19S334.7,194.8,333.9,188z"/>
	</g>
	<g>
		<path class="st8" d="M320.8,207.8c0,0,1.1-17.6,7.6-18.1c6.4-0.5,7.4,6.5,7.4,6.5l6.5,1.2c0,0-2-15.4,4.4-18.1
			c6.4-2.7,41.5,8.5,46.6,4s2.7-35.7-6.6-40c-9.3-4.3-35-13.8-53.8-1.1c0,0-14.7-1.7-16.8,10.2C313.9,164.2,316.8,199,320.8,207.8z"
			/>
	</g>
	<g>
		<path class="st9" d="M361.9,258c-32-9.9-34.4-29.1-34.4-29.4c10.5,18.1,34,20.5,34,20.5C361.4,251.6,361.5,254.8,361.9,258z"/>
	</g>
	<g>
		<path class="st7" d="M305.7,267.2c0,0,23.4,46.6,61.2,43.6s6.4-49.9,4.7-50.3C369.8,260,332.9,250.8,305.7,267.2z"/>
	</g>
	<g>
		<path class="st4" d="M254.3,441.5c1.7,2,24.5,11.2,50.3,21.1l0,0c35.2,13.5,74.8,26.4,74.8,26.4l9-19.4c0,0-41.5-22.6-69.6-38.4
			c-13.3-7.5-23.5-13.5-25-14.8c-4.5-4.3-5.7-11.2-2.4-23.2c3.3-12,11-67.3,11.8-73.7c0.9-6.4-2.1-23.6-18.3-24.5
			c-16.1-0.9-24.3,3.7-24.3,3.7s-4,1.7-7.1,40.8C250.6,378.5,250.2,436.7,254.3,441.5z"/>
	</g>
	<g>
		<path class="st10" d="M294.7,378.2L294.7,378.2c0.2,5.4,0.4,13.7,0.6,22.6c15.7-38.6,6.6-69.3,6.5-69.9
			C303.5,341.5,294.8,377.7,294.7,378.2z"/>
	</g>
	<g>
		<path class="st10" d="M416.2,389.9L416.2,389.9c2,9.7,3.8,17.4,4.9,19.8c5.4-26,0.5-59.3,0.5-59.3
			C420.9,366.3,416.2,389.9,416.2,389.9z"/>
	</g>
	<g>
		<path class="st7" d="M304.5,462.5L304.5,462.5c35.2,13.5,84.8,24.9,84.8,24.9l7-16.9c0,0-49.5-23.5-77.5-39.4
			C318.8,431.1,308.6,436.1,304.5,462.5z"/>
	</g>
	<g>
		<g>
			<path class="st7" d="M396.3,470.5c0,0,10.3-1.6,17.4-3.3c5.5-1.3,19.2,0.5,22.7,4s14.6,28.1,16.7,29.6s-1.1,5-4.8,3.2
				c0,0-2.8,4.9-11.1,0.8c-8.3-4-14.6-6.9-19-8.5c-4.4-1.5-29.8-9.4-29.8-9.4S389.8,467.9,396.3,470.5z"/>
		</g>
	</g>
	<g>
		<g>
			<path class="st7" d="M432.8,473.4c0,0,6.6,3.2,8.3,4.6c1.7,1.4,8.7,6.7,10.4,7.9c1.7,1.2-2.6,4.7-15.1-0.7
				C423.9,479.8,432.8,473.4,432.8,473.4z"/>
		</g>
	</g>
	<g>
		<polygon class="st8" points="433.3,401 421.8,508.1 573.5,508.1 585,401 		"/>
	</g>
	<g>
		<rect x="409.8" y="498.6" class="st11" width="25.3" height="9.6"/>
	</g>
	<g>
		<rect x="145.8" y="507.9" class="st12" width="440.4" height="6.5"/>
	</g>
	<g>
		<g>
			<g>
				<g>
					<path class="st13" d="M605.2,484.3c0,0-35.3,28.9-21.1,54.5s23.3,4.8,23.3,4.8s10.6,4.1-3.2-27.2
						C597.6,501.6,605.2,484.3,605.2,484.3z"/>
				</g>
			</g>
		</g>
	</g>
	<g>
		<path class="st11" d="M495,452.9c-1.2,6,1.6,11.6,6.2,12.5c4.7,1,9.4-3.1,10.6-9.1c1.2-6-1.6-11.6-6.2-12.5
			C500.9,442.8,496.2,446.9,495,452.9z"/>
	</g>
	<g>
		<g>
			<g>
				<g>
					<path class="st13" d="M659.1,434.2c0,0-49.8,23.1-41,57.2c8.9,34.1,25.7,12.6,25.7,12.6s11.1,7.9,4.4-32.7
						C645.1,452.2,659.1,434.2,659.1,434.2z"/>
				</g>
			</g>
		</g>
	</g>
	<g>
		<g>
			<g>
				<g>
					<path class="st14" d="M602.6,371.8c0,0-40.2,24.1-17.6,84c22.6,59.9,8.3,82.6,8.3,82.6S674.3,475,602.6,371.8z"/>
				</g>
			</g>
		</g>
	</g>
	<g>
		<g>
			<g>
				<g>
					<path class="st12" d="M604.9,535.4c16.7,9.7,18.4-46.8-3-71.8c-21.5-25-45-34.7-54.8-55C547,408.5,522.8,487.6,604.9,535.4z"/>
				</g>
			</g>
		</g>
	</g>
	<g>
		<g>
			<path class="st15" d="M678.9,442c0,0,15.3-44.9-13.9-58.9c-29.2-13.9-54.1,6.2-58.8,17.1s-3.4,30.7,0.6,44.5s3.4,34.8-5.3,41.9
				c-8.7,7-19.5,18.7-18.9,42.5c0.3,14.8,58-37.7,58-37.7L678.9,442z"/>
		</g>
		<g>
			<path class="st8" d="M637.8,495.4c0,0-24,5.3-33.6,10.9c-9.5,5.6-30.7,31.2-30.7,42.2s92.6,21.3,92.6,21.3l17.6,64.1
				c0,0,46.8-11.4,52.4-20.9c5.6-9.5-17.8-77.4-21.8-91.1c-4.1-14-20.9-23.8-40.4-26.5S637.8,495.4,637.8,495.4z"/>
		</g>
		<g>
			<path class="st7" d="M672.3,495.2c0,0-0.5,29.2-23.7,30.1c-23.2,0.9-18.3-28-18.3-28S647.2,490.4,672.3,495.2z"/>
		</g>
		<g>
			<path class="st15" d="M682.1,407.1c0,0,8.2,47-15.1,80.9C642.7,523.1,682.1,407.1,682.1,407.1z"/>
		</g>
		<g>
			<path class="st7" d="M667.3,474.6c0,0-1.6,14,1.1,22.7c2.7,8.7-35.4,8.9-35.4,1.8c0-8.1,3.9-14.9,0.2-28.8
				C629.6,456.3,667.3,474.6,667.3,474.6z"/>
		</g>
		<g>
			<path class="st9" d="M637.7,476.3c0,0,12,12.5,27.4,1.3c0,0-1.3,8-12.3,9C641.7,487.7,637.7,476.3,637.7,476.3z"/>
		</g>
		<g>
			<path class="st7" d="M652.8,390.8c0,0,30.4,9,26.1,51.2c-4.3,42.2-24.2,40-26.1,40.3c-1.9,0.3-25.4,1.9-32.9-49.3
				C612.5,381.8,652.8,390.8,652.8,390.8z"/>
		</g>
		<g>
			<path class="st15" d="M644.9,409.6c0,0,16.5,26.3,33.9,32.4c0,0,9.5-44.1-29.7-53.3c-39.2-9.2-33.1,44.5-30.1,58.9
				C619,447.5,627.1,426.4,644.9,409.6z"/>
		</g>
		<g>
			<path class="st16" d="M622.8,405.6c0,0,8.7-16.8,23.4-17.6c14.7-0.8,23.4,12,23.4,12s-5.7-14.3-23.4-14.3
				S622.8,405.6,622.8,405.6z"/>
		</g>
	</g>
	<g>
		<polygon class="st0" points="682.6,538.1 692.9,634 557.1,634 546.8,538.1 		"/>
	</g>
	<g>
		<rect x="681" y="625.4" class="st17" width="22.7" height="8.6"/>
	</g>
	<g>
		<path class="st17" d="M628.3,584.5c1.2,6-1.6,11.6-6.2,12.5c-4.7,0.9-9.4-3.1-10.6-9.1c-1.2-6,1.6-11.6,6.2-12.5
			C622.3,574.5,627.1,578.5,628.3,584.5z"/>
	</g>
	<g>
		<rect x="463.6" y="634" class="st12" width="373.9" height="6.5"/>
	</g>
	<g>
		<g>
			<g>
				<g>
					<g>
						<g>
							<g>
								<g>
									
										<rect x="780.9" y="477.3" transform="matrix(0.9954 -9.582798e-02 9.582798e-02 0.9954 -49.8213 77.4887)" class="st12" width="1.9" height="160.3"/>
								</g>
							</g>
						</g>
					</g>
				</g>
			</g>
			<g>
				<g>
					<g>
						<g>
							<g>
								<g>
									
										<rect x="812" y="474.2" transform="matrix(0.9953 -9.713314e-02 9.713314e-02 0.9953 -50.0033 81.5879)" class="st12" width="1.9" height="160.3"/>
								</g>
							</g>
						</g>
					</g>
				</g>
			</g>
			<g>
				<g>
					<g>
						<g>
							<g>
								<g>
									<g>
										
											<rect x="777.5" y="512" transform="matrix(0.9953 -9.657465e-02 9.657465e-02 0.9953 -45.8294 78.989)" class="st12" width="31.2" height="1.9"/>
									</g>
								</g>
							</g>
						</g>
					</g>
				</g>
				<g>
					<g>
						<g>
							<g>
								<g>
									<g>
										
											<rect x="779" y="526.5" transform="matrix(0.9953 -9.664662e-02 9.664662e-02 0.9953 -47.2555 79.2631)" class="st12" width="31.2" height="1.9"/>
									</g>
								</g>
							</g>
						</g>
					</g>
				</g>
				<g>
					<g>
						<g>
							<g>
								<g>
									<g>
										
											<rect x="780.3" y="540.9" transform="matrix(0.9953 -9.664574e-02 9.664574e-02 0.9953 -48.6407 79.4554)" class="st12" width="31.2" height="1.9"/>
									</g>
								</g>
							</g>
						</g>
					</g>
				</g>
				<g>
					<g>
						<g>
							<g>
								<g>
									<g>
										
											<rect x="781.7" y="555.4" transform="matrix(0.9953 -9.657542e-02 9.657542e-02 0.9953 -50.0014 79.5982)" class="st12" width="31.2" height="1.9"/>
									</g>
								</g>
							</g>
						</g>
					</g>
				</g>
				<g>
					<g>
						<g>
							<g>
								<g>
									<g>
										
											<rect x="783.1" y="569.9" transform="matrix(0.9953 -9.657465e-02 9.657465e-02 0.9953 -51.3948 79.8005)" class="st12" width="31.2" height="1.9"/>
									</g>
								</g>
							</g>
						</g>
					</g>
				</g>
				<g>
					<g>
						<g>
							<g>
								<g>
									<g>
										
											<rect x="784.5" y="584.3" transform="matrix(0.9953 -9.664638e-02 9.664638e-02 0.9953 -52.8157 80.065)" class="st12" width="31.2" height="1.9"/>
									</g>
								</g>
							</g>
						</g>
					</g>
				</g>
				<g>
					<g>
						<g>
							<g>
								<g>
									<g>
										
											<rect x="786" y="598.8" transform="matrix(0.9953 -9.664574e-02 9.664574e-02 0.9953 -54.2097 80.2774)" class="st12" width="31.2" height="1.9"/>
									</g>
								</g>
							</g>
						</g>
					</g>
				</g>
				<g>
					<g>
						<g>
							<g>
								<g>
									<g>
										
											<rect x="787.3" y="613.2" transform="matrix(0.9953 -9.657542e-02 9.657542e-02 0.9953 -55.5571 80.4092)" class="st12" width="31.2" height="1.9"/>
									</g>
								</g>
							</g>
						</g>
					</g>
				</g>
				<g>
					<g>
						<g>
							<g>
								<g>
									<g>
										
											<rect x="788.9" y="626.8" transform="matrix(0.9953 -9.658233e-02 9.658233e-02 0.9953 -56.8669 80.6333)" class="st12" width="31.2" height="1.9"/>
									</g>
								</g>
							</g>
						</g>
					</g>
				</g>
			</g>
		</g>
		<g>
			<g>
				<g>
					<g>
						<g>
							<g>
								<g>
									<g>
										
											<rect x="773.7" y="479.4" transform="matrix(0.9953 -9.656677e-02 9.656677e-02 0.9953 -42.6957 78.463)" class="st18" width="31.2" height="1.9"/>
									</g>
								</g>
							</g>
						</g>
					</g>
				</g>
				<g>
					<g>
						<g>
							<g>
								<g>
									<g>
										
											<rect x="775.1" y="493.9" transform="matrix(0.9953 -9.657542e-02 9.657542e-02 0.9953 -44.093 78.6733)" class="st18" width="31.2" height="1.9"/>
									</g>
								</g>
							</g>
						</g>
					</g>
				</g>
			</g>
		</g>
		<g>
			<g>
				<g>
					<g>
						<g>
							<g>
								<path class="st19" d="M797.6,592.4c0,0-4.2,1.1-4.3,0.7c-0.1-0.4-0.8-3.1-0.8-3.1c0.5-0.4,5.1-0.9,5.1-0.9V592.4z"/>
							</g>
						</g>
					</g>
				</g>
			</g>
		</g>
		<g>
			<g>
				<g>
					<g>
						<g>
							<g>
								<path class="st6" d="M790.8,595.4c1.2-0.9,2.4-2.6,2.4-2.6c3.2,0,4.4-0.7,4.4-0.7s2,5.5,1.5,6.4s-3.2,0.8-8.6,1.5
									c-7.6,1-6.9-1.2-6.4-1.8C784.8,597.4,789.5,596.3,790.8,595.4z"/>
							</g>
						</g>
					</g>
				</g>
			</g>
		</g>
		<g>
			<g>
				<g>
					<g>
						<g>
							<g>
								<path class="st6" d="M783.4,548.9c0.8-4.1,3.9-15.4,3.9-15.4c2.3-3.6,22.9-1.5,22.9-1.5c-1.7,11.4-7.9,11.6-10.6,17.7
									c-2.7,6.2-3.2,5.9-6.6,13.4c-2.3,5,6.6,27.6,6.6,27.6l-8.4,1.4c-1-3.9-10.2-25.6-10-27.9
									C781.3,561.9,782.7,552.5,783.4,548.9z"/>
							</g>
						</g>
					</g>
				</g>
			</g>
		</g>
		<g>
			<g>
				<g>
					<g>
						<g>
							<g>
								<path class="st7" d="M802.3,478.2c1.5,0.7,3.4,2.2,3.5,4.7c0.1,2.6-1.2,6.4-2.7,9.1c-1.4,2.7-5.7,3.2-8.5,2.2
									s-3.1-9.6-0.5-13.8C796.7,476.1,802.3,478.2,802.3,478.2z"/>
							</g>
						</g>
					</g>
				</g>
			</g>
		</g>
		<g>
			<g>
				<g>
					<g>
						<g>
							<g>
								<path class="st7" d="M795.5,494c0,0,9.8-7.6,8.6-4.3c-1.1,3.3-1.7,7.2-1.7,7.2s-7.4,0-7-0.7
									C795.8,495.4,795.5,494,795.5,494z"/>
							</g>
						</g>
					</g>
				</g>
			</g>
		</g>
		<g>
			<g>
				<g>
					<g>
						<g>
							<g>
								<path class="st15" d="M801.3,477.6c0,0,5.1,1.4,5,4.3c-0.2,2.9-0.9,6.3-2.1,7.7c0,0-0.5,0.8-2.6,0.5s-4.6-3.1-5.5-3.4
									s-0.9-0.8-0.9-0.8l-0.5,0.8l-0.9,0.1c0,0,0.8-2.5-0.4-3.5C792,482.3,794.6,475.3,801.3,477.6z"/>
							</g>
						</g>
					</g>
				</g>
			</g>
		</g>
		<g>
			<g>
				<g>
					<g>
						<g>
							<g>
								<path class="st7" d="M797.2,484.5c0.5,1.5-0.7,3.5-1.4,3.3s-0.7-1.7-0.5-3C795.4,484.4,796.7,483,797.2,484.5z"/>
							</g>
						</g>
					</g>
				</g>
			</g>
		</g>
		<g>
			<g>
				<g>
					<g>
						<g>
							<path class="st8" d="M811.5,498.6c0.3,0,5.7,10,5.1,16.7c-0.1,0.7-0.9,1.5-1.5,1.9c-0.4,0.2-0.8,0.4-1.3,0.4h-0.3l0,0
								l-5.8,0.2C807.8,517.9,803.4,503.9,811.5,498.6z"/>
						</g>
					</g>
				</g>
			</g>
		</g>
		<g>
			<g>
				<g>
					<g>
						<g>
							<g>
								<path class="st8" d="M793.2,592.8c3.2,0,4.4-0.7,4.4-0.7s2,5.5,1.5,6.4s-3.2,0.8-8.6,1.5c-1.5,0.2-2.7,0.3-3.6,0.3l-0.3-3.3
									c1.6-0.6,3.4-1.1,4.1-1.6C792,594.6,793.2,592.8,793.2,592.8z"/>
							</g>
						</g>
					</g>
				</g>
			</g>
		</g>
		<g>
			<g>
				<g>
					<g>
						<g>
							<path class="st20" d="M802.7,495.5l0.4,0.4c0,0,0.8,1.5-2.2,1.6c-2.9,0.1-7.6,0.3-5.4-1.8
								C795.5,495.7,800.1,494.7,802.7,495.5z"/>
						</g>
					</g>
				</g>
			</g>
		</g>
		<g>
			<g>
				<g>
					<g>
						<g>
							<g>
								<path class="st19" d="M818.4,605c0,0-4.2,1.1-4.3,0.7c-0.1-0.4-0.8-3.1-0.8-3.1c0.5-0.4,5.1-0.9,5.1-0.9V605z"/>
							</g>
						</g>
					</g>
				</g>
			</g>
		</g>
		<g>
			<g>
				<g>
					<g>
						<g>
							<g>
								<path class="st6" d="M812.2,544.6c0.4,5.9,1.2,12.3,1.8,18.4c0.7,6.8,2.6,17.9,2.7,21.5c0.1,3.7,3.2,19.6,3.2,19.6L812,605
									c0,0-5.1-28.2-6.3-31.1c-1.2-2.9-7.2-23.4-7.4-25.8c-0.2-2.3,11.9-16.3,11.9-16.3S811.7,538.3,812.2,544.6z"/>
							</g>
						</g>
					</g>
				</g>
			</g>
		</g>
		<g>
			<g>
				<g>
					<g>
						<g>
							<g>
								<path class="st8" d="M811.6,608c1.2-0.9,2.4-2.6,2.4-2.6c3.2,0,4.4-0.7,4.4-0.7s2,5.5,1.5,6.4s-3.2,0.8-8.6,1.5
									c-7.6,1-6.9-1.2-6.4-1.8C805.6,609.9,810.4,608.8,811.6,608z"/>
							</g>
						</g>
					</g>
				</g>
			</g>
		</g>
		<g>
			<g>
				<g>
					<g>
						<g>
							<path class="st8" d="M785.6,499.5c0.6-0.3,0.9-0.5,0.9-0.5c0.5-0.2,1-0.4,1.5-0.6c3.3-1.4,7.5-2.6,7.5-2.6h6.7
								c0,0,5.1,1,8.2,2.3c0.4,0.2,0.8,0.4,1.1,0.6l-0.9,19.2l0,0l0,0c-0.4,2.7-0.8,5.9-1,8.1c-0.1,0.9,1,5.8,1.5,10.3l1.9,10.8
								c0,0-1.1,4.5-27.4,0.7c-0.7-0.1,1.7-20.1,1.5-21.3c-0.1-0.8-0.1-7.3-0.1-11.4l-0.7-4.1c-0.4-0.3-1-0.6-1.6-1
								c-1-0.6-2.3-1.3-3.7-2c0.2-1,0.3-1.7,0.3-2.2C781.8,502.2,784.2,500.3,785.6,499.5z"/>
						</g>
					</g>
				</g>
			</g>
		</g>
		<g>
			<g>
				<g>
					<g>
						<g>
							<g>
								<path class="st7" d="M752.1,482.9c0-0.6,0.7-1.3,0.7-1.3c-0.1-0.3,0-0.7,0.4-1c0.2-0.2,1.4-0.1,1.5-0.1
									c0.3,0.1,0.8,0,1.4,0.1c0.1,0,0.1,0,0.2,0.1c0.6,0.3,3.7,4.2,3.7,4.2l-0.5,1.6l-0.8,1.9c0,0-3.3-0.7-4-0.9
									c-0.7-0.2-1.2-0.6-1.5-0.8c-0.1,0-0.2-0.1-0.3-0.1c-0.4-0.2-0.9-0.4-0.9-0.4c-0.3-0.1-0.7-0.6-0.7-0.6
									c-0.2-0.5,0.3-1.2,0.3-1.2C751.5,483.5,752.1,482.9,752.1,482.9z"/>
							</g>
						</g>
					</g>
				</g>
			</g>
		</g>
		<g>
			<g>
				<g>
					<g>
						<g>
							<g>
								<path class="st8" d="M760,484.4c0,0,10.8,10.3,13.2,11.5c2,1.1,12.1,2.2,14.8,2.5c0.5,0,0.7,0.1,0.7,0.1
									c2.9,3.9-0.9,13.4-2.6,12.3c-0.8-0.5-1.7-1.1-5.1-2.8c-6.3-3.1-14-8.8-15.5-9.6c-2.3-1.3-9.4-10-9.4-10
									C756.6,487,760,484.4,760,484.4z"/>
							</g>
						</g>
					</g>
				</g>
			</g>
		</g>
	</g>
	<g>
		<g>
			<g>
				<path class="st8" d="M501.9,708c0,0,0.3,3.2,1.1,4.5c0.8,1.2,3.2,8.6,4.2,10.6c1.1,1.8,5.3,3.2,5,6.5c-0.2,3.3-7.9,3.9-10,2.3
					c-2.1-1.7-9.1-11.6-9.8-13c-0.8-1.5-1.1-6.3,0.3-7.7c1.5-1.4,3-4.2,3-5C495.6,705.4,501.2,706.6,501.9,708z"/>
			</g>
		</g>
		<g>
			<g>
				<path class="st21" d="M493,608.9c0,0,13.9,18.3,16.3,23.7s6.5,13.1,6.5,15.7c0,2.6-2.1,12.7-3.2,14.7c-1.1,2-8.3,34.9-8.8,37
					s-1.8,8-1.8,8l-6.3-1.8c0,0-0.6-29.2,0.5-34.9s4.5-14.2,4.1-16.8c-0.6-2.6-9.1-10-14.8-13.9c-5.9-3.9-12.7-10.1-13.1-16.5
					s2.9-13.6,2.9-13.6S481.5,605.5,493,608.9z"/>
			</g>
		</g>
		<g>
			<g>
				<path class="st21" d="M508.6,607.4c0,0,3.9,5.9,6,7.4c2,1.5,15.9,14.7,19.8,21.1c3.9,6.5,5.3,7.4,4.5,10.3
					c-0.9,2.9-2,10.3-2.9,12.2c-0.9,2-12.5,48-12.5,48s-4.8,1.2-6.2-0.9c0,0,2.7-19.9,2-27.2s0.8-17.8,3.8-23.1s0.9-8.9-2.6-11.3
					c-3.5-2.4-22.8-13.3-22.8-13.3S474.4,598.1,508.6,607.4z"/>
			</g>
		</g>
		<g>
			<g>
				<path class="st8" d="M523.4,706c0,0,0.2,1.2,0.5,1.4s5.9,8.3,6.8,9.4c1.1,1.2,7.6,3,7.7,3.8s-0.9,5.1-6.3,5.3
					c-5.4,0.2-9.8-4.5-12.1-6.3c-2.3-1.7-8.2-3.5-6-7.9c2.3-4.4,3.3-6.2,3.3-6.2L523.4,706z"/>
			</g>
		</g>
		<g>
			<g>
				<path class="st21" d="M493.4,710.1c0,0,1.7,2.7,2.7,6.5c1.1,3.8,5.4,8.6,8.3,8.5c2.9-0.2,2.4-2.3,2.4-2.3s-3.2-8.6-4.4-11.3
					c-0.2-0.5-0.5-2.6-0.6-3.5c-0.2-0.5-4.4-2.3-6.3-1.8C495.7,706,493.9,709.5,493.4,710.1z"/>
			</g>
		</g>
		<g>
			<g>
				<path class="st21" d="M530.9,717c0,0-1.1,2.6-3.5,2.1s-5.3-3.3-6.8-4.8c-1.5-1.7-5.6-4.8-5.6-4.8l2.3-4.1l6,0.3L530.9,717z"/>
			</g>
		</g>
		<g>
			<g>
				<path class="st0" d="M508.4,606.7c0,0,4.2,5.6,5.7,6.8c1.4,1.1,13.6,11,21,23.4c0,0-24-0.8-37.3,13.9c0,0-13-10.7-14.4-11.8
					s-10.7-6.5-11.5-15.3s2.9-13.6,2.9-13.6S501.2,604.2,508.4,606.7z"/>
			</g>
		</g>
		<g>
			<g>
				<path class="st0" d="M511.4,581.5c-3.2,5.3-3.6,24.2-2.9,26c0,0-18.1,5.6-33.8,3.3c0,0,0.8-1.7,1.5-3.9c0.3-0.9,0.6-2,1.1-2.9
					c1.1-3.2,2.4-6.6,3-8.2c1.4-3.3,0.9-8.8-0.2-10.7c-1.1-2-7.6-16.3-7.6-16.3s-3.5-10.3,2.4-13.4c6-3.2,11.5-4.2,11.5-4.2
					l10.6-0.8c0,0,2.3,0.5,5.4,0.8c3,0.3,6.3,0.8,6.9,5.9c0.6,5.1,1.2,7.9,2,9.2C512,567.5,515.1,575.5,511.4,581.5z"/>
			</g>
		</g>
		<g>
			<g>
				<path class="st0" d="M478.9,553.6c0,0-6.2,0.9-8.9,5.6c-2.7,4.7-2.6,11.2-3.2,13.7c-0.6,2.6-4.2,26.4-3.6,28.4
					c0.6,2.1,3.3,5.6,7.1,5.1c3.9-0.5,19.8-8.6,19.8-8.6s-2.1-6.2-2.1-7.4l-15.3,5.3c0,0,3.6-24.9,4.1-27.6
					C477.4,565.2,480.5,556,478.9,553.6z"/>
			</g>
		</g>
		<g>
			<g>
				<path class="st0" d="M505.4,551.5c0,0,4.7,0.9,7.4,4.8c1.8,2.7,2,8.8,2.3,9.8c0.3,1.2,3.8,14,3.8,14l-9.8,6.6L505.4,551.5z"/>
			</g>
		</g>
		<g>
			<g>
				<polygon class="st8" points="509.8,576.2 475.3,566.1 474,567.2 471.1,594.4 509.8,608.9 				"/>
			</g>
		</g>
		<g>
			<g>
				<path class="st22" d="M506,532.7c0,0-3.3,15.7-0.9,20.1c0,0-7.1-2.6-8.5-5.6C495.3,544.2,506,532.7,506,532.7z"/>
			</g>
		</g>
		<g>
			<g>
				<g>
					<path class="st7" d="M498.1,544.7c0,0-0.2,1.7-0.3,3.6c0,0.8-0.2,1.5-0.2,2.3c-0.2,2.6-0.3,5.3-0.3,6.8c0,0-5.1,5.4-10.9-6.3
						c0,0,2.4-4.8,0.6-11.5C485.3,533,498.1,544.7,498.1,544.7z"/>
				</g>
			</g>
		</g>
		<g>
			<g>
				<path class="st7" d="M498.1,513.4c0,0,8.9,0.9,9.4,12.4s-4.5,21-6.2,22.4s-10.4-0.9-11.9-7.1c-1.5-6.2-4.1-10.9-3-15.9
					C487.4,520.3,487.1,511.9,498.1,513.4z"/>
			</g>
		</g>
		<g>
			<g>
				<path class="st15" d="M507.3,530.2c0,0,3.9-13.7-7.7-17.8c-11.6-4.1-16.8,4.1-18.4,9.2c-1.7,5-2,19.8-2,19.8s7.1,8.5,11.6,10.9
					c0,0-2.3-16,0.5-26.9c0,0,9.5,2.9,16,2C507.5,527.1,507.5,529.6,507.3,530.2z"/>
			</g>
		</g>
		<g>
			<g>
				<path class="st9" d="M497.8,548.4c0,0.8-0.2,1.5-0.2,2.3c-5.3-2.7-6.3-6-6.3-6C494.8,548.1,497.8,548.4,497.8,548.4z"/>
			</g>
		</g>
		<g>
			<g>
				<path class="st23" d="M511.4,566.3c0,0,5.6,9.4,4.2,15.4c-1.2,6-5.4,2.6-5.4,2.6S516,577.4,511.4,566.3z"/>
			</g>
		</g>
		<g>
			<g>
				<polygon class="st8" points="512,608.9 534.4,589.4 540.6,557.5 513.5,576.4 				"/>
			</g>
		</g>
		<g>
			<g>
				<polygon class="st8" points="509.8,608.9 512,608.9 513.5,576.4 509.8,576.2 				"/>
			</g>
		</g>
		<g>
			<g>
				<path class="st7" d="M488.2,591.3c0,0,2.9-1.1,3.2-1.2c0.3-0.2,0.8-3.3,2.1-4.4c1.4-1.2,3.3-2.4,3.6-3c0.3-0.6,1.2,1.1-0.2,2.4
					c-1.2,1.4-1.4,2.4,1.8,1.8c1.8-0.5,7.4-3.8,7.4-2.6c0,0.8-5.6,3.8-5.6,3.8s6.2-2.9,6.6-2.6c0.8,0.6-5.4,3.8-5.6,3.8
					c0,0,5.4-2.1,5.7-1.7c0.3,0.6-5.1,2.9-5.1,2.9s4.4-1.7,4.5-1.2c0.2,0.6-3.6,2.3-4.4,2.6s-8.8,3-10.1,3.2
					c-1.4,0.2-2.4,1.5-2.4,1.5L488.2,591.3z"/>
			</g>
		</g>
		<g>
			<g>
				<path class="st0" d="M489.2,590.1c0,0,1.8,4.1,2.1,6.9c0,0-10,5.1-16.3,7.7l-5-10.7l1.1,0.2l1.7,0.6
					C472.8,595,485.6,591.2,489.2,590.1z"/>
			</g>
		</g>
		<g>
			<g>
				<path class="st21" d="M524,704.5c0,0,0.5,4.1,1.1,4.4C525.6,709.2,518.4,707.5,524,704.5z"/>
			</g>
		</g>
		<g>
			<path class="st23" d="M484.2,600.7c-0.2,0.2-5.4,4.2-8,6.2c0.3-0.9,0.6-2,1.1-2.9L484.2,600.7z"/>
		</g>
		<g>
			<polygon class="st8" points="534.4,589.4 542.8,558.6 540.6,557.5 			"/>
		</g>
		<g>
			<g>
				<g>
					<path class="st7" d="M534.7,588.5c0,0,0.8-1.4,1.5-3.2c0.6-1.8,2.6-8.3,2.1-8.6s-5.4,0.9-6,1.8c-0.8,1.1,1.2,0.9,1.2,0.9
						s-2.7,0.9-2.3,1.7c0.5,0.8,2,0.2,2,0.2s-2.1,0.9-1.5,1.5c0.5,0.6,1.5,0.3,1.5,0.3s-1.8,0.8-1.5,1.4c0.5,0.6,3.6,0.6,3.5,1.4
						C534.7,586.7,534.7,588.5,534.7,588.5z"/>
				</g>
			</g>
		</g>
	</g>
	<g>
		<g>
			<g>
				<path class="st7" d="M494.7,63.2c0,0,0.8-2,1-2.3c0.1-0.3-0.1-1.3-0.4-2.4c-0.3-1.1-1.2-2.4-1.4-2.4c-0.2-0.1-0.3-0.2-0.8-0.1
					c-0.5,0.2-0.8,0.5-0.8,0.5s-0.7-0.1-1,0.4c0,0-0.6-0.1-0.9,0.6c0,0-0.6,0-0.8,0.5c0,0,0.2,1,0.2,1.3c0,0.4,0.5,2.3,1.3,4.1
					C490.9,63.5,491.8,65.4,494.7,63.2z"/>
			</g>
		</g>
		<g>
			<g>
				<path class="st7" d="M515.3,55.1c0,0-1.5,2.8-0.8,3.2c0.6,0.4-0.7,3.1-0.9,3.5s1.1,0.8,1.4,1.1c0.3,0.3,1.1,3.8,2.1,3.9
					c1.1,0.1,5.8-1.6,7.1-2.9c1.3-1.4,2.4-7.4,1.5-10C524.9,51.3,518,50.2,515.3,55.1z"/>
			</g>
		</g>
		<g>
			<g>
				<path class="st8" d="M515,55.7c0,0-1.5-3,1.2-5.2c2.8-2.2,7.9,1.7,8.5,1.8s3.8,0.4,2.2,6.1c-1.4,5.1-1.6,4.8-1.6,4.8
					s-1.1-2.6-1.7-3c-0.9-0.7-3-0.5-3-0.5s1-2.6-0.6-3C518.6,56.4,516.6,55.1,515,55.7z"/>
			</g>
		</g>
		<g>
			<g>
				<path class="st7" d="M522.3,58.3c0.1-0.4,0.6-1.9,1.9-1c1.3,0.9-0.8,3.8-1,3.8C522.9,61.1,521.2,61.3,522.3,58.3z"/>
			</g>
		</g>
		<g>
			<path class="st9" d="M520.4,66c0,0,0.1,0.3,0.3,0.7c0.1,0.2,0.2,0.4,0.3,0.6c2.5-1.9,3.1-3.3,3.2-3.3
				C522.9,64.9,520.4,66,520.4,66z"/>
		</g>
		<g>
			<g>
				
					<rect x="476" y="57.6" transform="matrix(0.9997 -2.236466e-02 2.236466e-02 0.9997 -1.1991 11.0747)" class="st24" width="37.1" height="3.1"/>
			</g>
			<g>
				
					<rect x="510.3" y="56.6" transform="matrix(0.9998 -2.224849e-02 2.224849e-02 0.9998 -1.1816 11.3996)" class="st24" width="2.8" height="4.4"/>
			</g>
			<g>
				
					<rect x="470.8" y="56.8" transform="matrix(0.9997 -2.241130e-02 2.241130e-02 0.9997 -1.2145 10.7259)" class="st24" width="14.3" height="5.5"/>
			</g>
			<g>
				
					<rect x="462.4" y="55.4" transform="matrix(0.9997 -2.253015e-02 2.253015e-02 0.9997 -1.2275 10.5396)" class="st24" width="9.5" height="8.7"/>
			</g>
		</g>
		<g>
			<g>
				<path class="st25" d="M498,57.7c0,0-0.2,0.6-0.1,0.9c0,0,0.1,0.5,0.2,0.9c0,0.1,0,0.2,0,0.3c0,0.3,0,0.9,0.2,1.6
					s1.3,2.9,1.3,2.9l2.1-0.6h1.9c0,0,0.9-4.2,0.7-4.8c0-0.1,0-0.1-0.1-0.2c-0.2-0.5-0.5-0.9-0.7-1.1c0-0.1-0.6-1-0.9-1.1
					c-0.4-0.1-0.8,0-1,0.3c0,0-0.9-0.1-1.4,0.2c0,0-0.8-0.1-1.3,0.4C499.1,57.3,498.2,57.3,498,57.7z"/>
			</g>
		</g>
		<g>
			<g>
				<path class="st26" d="M493.9,56.3c0,0,0.7,2.7,0.3,2.9c-0.4,0.2-0.7,0-0.7,0l-0.2,1.3c0,0-0.6,0.8-1.3-0.1c0,0-0.5,0.8-1-0.2
					c0,0-0.6,0.4-0.9,0s-0.7-2.5-0.7-2.5s0.3-0.4,0.8-0.1c0,0,0.3-0.6,0.9-0.6c0,0,0.3-0.5,1-0.4c0,0,0.7-1,1.6-0.5
					C493.8,56,493.9,56.2,493.9,56.3z"/>
			</g>
		</g>
		<g>
			<g>
				<path class="st7" d="M495.6,60.8c0,0-1.3-1.4-2.4-1.9c-0.2-0.1-0.5-0.2-0.7,0s-0.2,0.7,0.4,1.3c0.5,0.7,0.9,1.7,0.9,1.7
					S494.6,62.5,495.6,60.8z"/>
			</g>
		</g>
		<g>
			<path class="st7" d="M490.8,63.2c0,0,0.6,1.8,2.8,3.5c2.2,1.6,2-1.7,2-1.7s-0.9-1.5-0.9-2C494.7,62.6,490.8,63.2,490.8,63.2z"/>
		</g>
		<g>
			<g>
				<path class="st27" d="M504.2,77.1C501.4,76,491.5,65,491.5,65l3.7-2c0,0,5.4,5.7,8.3,7.7c1.5,1,3.7,1.1,3.9,1.2
					c0.3,0.1,9.6-0.7,10.5-0.9c0.8-0.2,3.8-1.5,5.8-1.3c2,0.1,2.8,2.1,2.8,2.1c0.4,4.9-7.2,4.9-7.2,4.9S508.1,78.6,504.2,77.1z"/>
			</g>
		</g>
		<g>
			<g>
				<g>
					<g>
						<path class="st27" d="M509.7,137.1c0,0-2.4,2-3.5,2.8s-5.8,1.7-6.1,2.2c-0.4,0.5,0,1.9,0.8,1.9s6.6-0.4,8.4-1.2s5.5-0.6,6.2-1
							s-0.5-4.5-0.9-5.4C514.1,135.6,509.7,137.1,509.7,137.1z"/>
					</g>
				</g>
			</g>
		</g>
		<g>
			<g>
				<g>
					<g>
						<path class="st28" d="M509.4,135.3v2.1c0,0,4.1,0.2,5.3-0.6l-0.8-2.2L509.4,135.3z"/>
					</g>
				</g>
			</g>
		</g>
		<g>
			<g>
				<g>
					<g>
						<path class="st27" d="M558.7,156.8c0,0-2.6,1.8-3.8,2.4c-1.2,0.7-6-0.1-6.4,0.3c-0.4,0.5-0.4,2.1,0.4,2.2
							c0.8,0.1,6.9,1.3,8.8,0.7c1.9-0.6,5.5-0.1,6.3-0.4c0.8-0.3,0-4.6-0.4-5.5C563.2,155.6,558.7,156.8,558.7,156.8z"/>
					</g>
				</g>
			</g>
		</g>
		<g>
			<g>
				<g>
					<g>
						<path class="st28" d="M558.3,155l0.3,1.7c0,0,3.6,0.4,4.7-0.2l-0.4-1.8L558.3,155z"/>
					</g>
				</g>
			</g>
		</g>
		<g>
			<path class="st27" d="M528.7,101.2c0.4,1.2,1.2,3.7,2.2,6.3c0.2,0.6,0.4,1.2,0.6,1.7c1.3,3.5,2.5,6.7,2.5,6.7
				c1.9,4.3,6.3,13.5,8.5,15.1c2.9,2.2,15.7,25.1,15.7,25.1l5.8-0.7c0,0-6.3-17.2-8.9-21c-2.9-4.2-7.5-9.8-8-14.5
				c-0.3-3-2.1-12.1-2.1-12.1s-2.1-10.3-6.8-17C537.2,89.3,528.7,101.2,528.7,101.2z"/>
		</g>
		<g>
			<g>
				<path class="st27" d="M522.6,100.1c0,0-18.3,4.8-20.1,7.3s1.6,12.1,1.9,13.3c0.3,1.2,4.4,12.7,4.6,14.8c0,0,4.3,0.5,5.6-1.1
					c0,0-1.1-10.9-2.1-14.8c-1.8-7.2,3.7-7.3,6.9-8.7s21-2,20.7-5.1c-0.2-2.1-1-7.9-1-7.9S535.8,95.5,522.6,100.1z"/>
			</g>
		</g>
		<g>
			<g>
				<path class="st29" d="M522.9,68.1c0,0-1.8,5.3-1.8,8.3s2.8,12,3,13.7c0.5,4.5-1.5,10.1-1.5,10.1l16.6,3.2c0,0,0.5-4.8,0.4-10.5
					s-1.4-10.5-2.4-13.6C534,69.5,527,65.6,527,65.6L522.9,68.1z"/>
			</g>
		</g>
		<g>
			<g>
				<path class="st7" d="M520.4,66c0,0,0.1,0.3,0.3,0.7c0.1,0.2,0.2,0.4,0.3,0.6s0.2,0.4,0.2,0.6c0.5,1.2,1,2.7,1.1,3.4
					c0.1,1.4,3.9-5.8,3.9-5.8s-1.8-4-3-8.8C522,52,520.4,66,520.4,66z"/>
			</g>
		</g>
		<g>
			<g>
				<path class="st30" d="M526,64.9c0,0-2.4,4.2-4.1,5.6l0.5,2.7l4.6-7.7L526,64.9z"/>
			</g>
		</g>
		<g>
			<path class="st31" d="M522.6,100.1c0,0,0.5-1.4,0.6-1.8l16.2,3l-0.2,2C539.2,103.3,527.3,101.2,522.6,100.1z"/>
		</g>
		<g>
			<path class="st32" d="M538.8,84.7c0,0,0.7,9.4,7.1,18.6c0.8,1.1-8.9,2.6-8.9,2.6L538.8,84.7z"/>
		</g>
		<g>
			<path class="st25" d="M499.7,64.2c0,0,0.7,1.4,2.3,3.2c1.5,1.8,2.2-2,2.2-2l-0.5-1.8C503.7,63.7,501.4,62.7,499.7,64.2z"/>
		</g>
		<g>
			<g>
				<g>
					<path class="st33" d="M521.2,71.9c0,0-0.7,1.9-0.5,2.4c0,0,1,0.5,1.8,0.1C522.4,74.3,522,73,521.2,71.9z"/>
				</g>
			</g>
			<g>
				<g>
					<path class="st33" d="M522,74.1c0,0,1.8,6.3,0.8,13c-1.1,7-2,9.5-2,9.5l-1.7,1.7l-0.4-2.3c0,0,2.8-8.8,2.4-17.6
						c-0.1-1.6-0.1-4.6-0.1-4.6L522,74.1z"/>
				</g>
			</g>
		</g>
		<g>
			<g>
				<path class="st32" d="M522.3,78.6c0.4,1,0.7,2,1,3l0,0c0.7,2.2,1.3,4.5,1.8,6.7c0.2,0.8,0.3,1.6,0.5,2.3
					c1.9,9.2,6.8,15.9,6.8,15.9s7.3-0.6,9.1-1.8c0,0-0.5-10.5-2.8-20.7c-0.2-0.8-0.4-1.6-0.6-2.3l0,0c-2.2-8.2-5.6-15.5-11.2-16.1
					C526.8,65.6,520.4,73.3,522.3,78.6z"/>
			</g>
		</g>
		<g>
			<g>
				<path class="st32" d="M509.8,78.9c-2.9-0.5-9.9-13.3-9.9-13.3l4.4-2.3c0,0,2.1,4,4.8,6.7c1.3,1.3,2.9,3.6,3.2,3.6
					c0.3,0,8.9-2.3,9.7-2.7c0.8-0.4,3.4-2.1,5.5-2.4c2-0.3,3.2,1.5,3.2,1.5c1.3,4.8-6.2,6.1-6.2,6.1S513.9,79.7,509.8,78.9z"/>
			</g>
		</g>
	</g>
	<path class="st0" d="M293.9,419.3h-95.4c-2.2,0-3.9-1.7-3.9-3.9v-70.8c0-2.2,1.7-3.9,3.9-3.9h95.4c2.2,0,3.9,1.7,3.9,3.9v70.8
		C297.8,417.6,296.1,419.3,293.9,419.3z"/>
	<g>
		<g>
			<g>
				<g>
					<path class="st34" d="M285.9,354.8v2.5c0,1.1-0.9,2-2,2h-43.1c-1.1,0-2-0.9-2-2v-2.5c0-1.1,0.9-2,2-2h43.1
						C285,352.7,285.9,353.7,285.9,354.8z"/>
				</g>
			</g>
		</g>
	</g>
	<g>
		<g>
			<g>
				<g>
					<path class="st34" d="M285.9,367.5v3.4c0,1.1-0.9,2-2,2h-43.1c-1.1,0-2-0.9-2-2v-3.4c0-1.1,0.9-2,2-2h43.1
						C285,365.5,285.9,366.4,285.9,367.5z"/>
				</g>
			</g>
		</g>
	</g>
	<g>
		<g>
			<g>
				<g>
					<path class="st34" d="M285.9,398v3.4c0,1.1-1.5,2-3.3,2h-71c-1.8,0-3.3-0.9-3.3-2V398c0-1.1,1.5-2,3.3-2h71
						C284.4,396,285.9,396.9,285.9,398z"/>
				</g>
			</g>
		</g>
	</g>
	<g>
		<g>
			<g>
				<polygon class="st27" points="197.4,408 209.7,414.8 222.1,395.3 207.1,390.1 				"/>
			</g>
		</g>
		<g>
			<g>
				<polygon class="st35" points="198.2,407.4 209.7,413.8 221.3,395.6 207.3,390.7 				"/>
			</g>
		</g>
		<g>
			<g>
				<path class="st7" d="M194,404c0,0,2.1-1,3.1-1.6c0.9-0.5,3.4-1.3,3.6-1.4c0.2-0.2,7.2-0.6,7.6-1s0.8,0.9-1,1.3s-4.3,1.4-4.5,2.1
					c-0.1,0.7,1.9,0.9,2.1,1.5c0.2,0.6-0.1,0.5-0.3,0.6c-0.3,0.1-2.4-1-3.3-0.7c-0.9,0.3-2.3-0.1-3,0.1s-4.1,1.4-4.1,1.4L194,404z"
					/>
			</g>
		</g>
		<g>
			<g>
				<path class="st36" d="M197.8,405.5l1.1-0.4c0,0-1.4-3.2-2-3.2c-0.7,0.1-1.6,0.3-1.6,0.3L197.8,405.5z"/>
			</g>
		</g>
		<g>
			<g>
				<path class="st37" d="M198.1,406.1c-0.1-0.1-2.3-4.3-2.3-4.3l-4.7,0.6l2.5,5L198.1,406.1z"/>
			</g>
		</g>
		<g>
			<g>
				<path class="st7" d="M210.3,412.3c0,0,1.8-1.6,2.7-2.3c0.9-0.7,2.5-2.7,2.7-2.8c0.2-0.1,3.4-6.5,3.9-6.8s-0.5-1.1-1.6,0.4
					s-3,3.5-3.7,3.4s-0.1-2.1-0.6-2.5s-0.4-0.1-0.7,0.1s0,2.6-0.6,3.4c-0.7,0.7-0.8,2.2-1.3,2.8c-0.5,0.6-2.9,3.3-2.9,3.3
					L210.3,412.3z"/>
			</g>
		</g>
		<g>
			<g>
				<path class="st38" d="M171.6,498.9c0,0-0.4,2.7-0.4,3.1s-4.3-0.2-4.3-0.2l-0.3-3.2C166.4,498.6,171,498.6,171.6,498.9z"/>
			</g>
		</g>
		<g>
			<g>
				<path class="st27" d="M171.2,501.7c0,0,1.4,1.6,2.7,2.3s3.4,1,4.2,1.7c0.6,0.5,2,2.8-3.4,2.8c-5.5,0-8.1,0.3-8.7-0.6
					c-0.6-0.9,0.8-6.5,0.8-6.5S168,502,171.2,501.7z"/>
			</g>
		</g>
		<g>
			<g>
				<path class="st38" d="M202.2,498.9c0,0-0.4,2.7-0.4,3.1s-4.3-0.2-4.3-0.2l-0.3-3.2C197.1,498.6,201.7,498.6,202.2,498.9z"/>
			</g>
		</g>
		<g>
			<g>
				<path class="st27" d="M201.8,501.7c0,0,1.4,1.6,2.7,2.3c1.3,0.7,6.1,1.3,6.9,2c0.6,0.5,1.5,2.7-6.2,2.5
					c-5.4-0.1-8.1,0.3-8.7-0.6c-0.6-0.9,0.8-6.5,0.8-6.5S198.7,502,201.8,501.7z"/>
			</g>
		</g>
		<g>
			<g>
				<path class="st8" d="M175.1,429.5c0,0-4,6.4-3.7,12.2c0.3,5.8-1.5,12.1-2.1,18.1c-0.7,6.7-3.4,22.7-3.5,26.3
					c-0.1,3.6,0.4,15.1,0.4,15.1l5.5,0.1c0,0,4.6-27.9,5.8-30.7c1.2-2.8,7.2-23.1,7.4-25.4C185.1,442.9,175.1,429.5,175.1,429.5z"/>
			</g>
		</g>
		<g>
			<g>
				<path class="st8" d="M196.3,430.3c0,0,3,15.8,3.4,19.4c0.4,3.5,0.7,17.1,0.9,19.3c0.2,2.2,1.3,28.9,2.4,32.2h-7.1
					c0,0-5.4-19.4-5.4-28.6s-4.2-20-6.9-26c-2.7-6.1-8.9-6.2-10.5-17.5C173.1,429.2,194,426.8,196.3,430.3z"/>
			</g>
		</g>
		<g>
			<g>
				<path class="st7" d="M181.8,375.7c0,0,5.4-2,7.9,2.1s2.3,12.3-0.5,13.4c-2.7,1-6.8,0.5-8.2-2.1s-2.7-6.3-2.6-8.8
					C178.5,377.8,180.4,376.4,181.8,375.7z"/>
			</g>
		</g>
		<g>
			<g>
				<path class="st7" d="M188.6,391.4c0,0-0.2,1.5,0.1,2.2c0.4,0.7-7,0.7-7,0.7s-0.6-3.9-1.7-7.2
					C178.9,383.8,188.6,391.4,188.6,391.4z"/>
			</g>
		</g>
		<g>
			<g>
				<path class="st15" d="M180.1,387.1c0,0,0.5,0.8,2.6,0.5s4.6-3.1,5.5-3.4s0.9-0.8,0.9-0.8l0.5,0.8l0.9,0.1c0,0-0.8-2.5,0.4-3.5
					c1.3-1-1.3-8-8-5.7c0,0-5.1,1.4-4.9,4.3S178.9,385.6,180.1,387.1z"/>
			</g>
		</g>
		<g>
			<g>
				<path class="st35" d="M189.2,393.5c0,0,0-1.4-0.6-1.5s-6.9-0.7-7.6-0.4v1.6C181,393.1,182.4,394,189.2,393.5z"/>
			</g>
		</g>
		<g>
			<g>
				<path class="st7" d="M188.9,382.3c-0.1-0.5-1.4-1.9-1.8-0.4c-0.5,1.5,0.7,3.5,1.4,3.3C189.1,385.1,189.2,383.6,188.9,382.3z"/>
			</g>
		</g>
		<g>
			<g>
				<path class="st32" d="M214,409.7L214,409.7C214.1,409.7,214.1,409.7,214,409.7z"/>
			</g>
		</g>
		<g>
			<g>
				<path class="st32" d="M170.6,444.7c0,0,3.3,1,9,1.6c5.6,0.6,19.8-0.2,19.9-0.9c0.1-0.7-3-24.9-2.9-26.1c0.2-1.2,0.3-5.7,0.3-5.7
					c0.1,1.2,1.3,6.2,2.8,8.9c0.5,1,2.4,4,3.2,3.3c4.2-3.4,10.8-16.1,11.2-16.2c-0.3-0.2-3.1-1.4-3.5-1.5c-0.3-0.1-3.4,3.1-5.2,5.1
					c-0.8,0.9-1.4,1.5-1.4,1.5c-0.5-1.2-2.5-8.8-3.1-11.4c-1.4-5.9-1.2-6.2-1.2-6.2c-4.1-1.2-10.4-3.8-10.4-3.8L181,393
					c0,0-7.6,1.7-10.6,3c-0.3,0.1-0.3,6.8-1.1,8.5l2.5,5.2c0,0,1.4,10.4,1.7,15C173.7,427,170.6,444.7,170.6,444.7z"/>
			</g>
		</g>
		<g>
			<g>
				<path class="st32" d="M169,413.3c0.2,0.7,1.2,1.3,1.8,1.5c0.4,0.2,0.9,0.2,1.3,0.1l0.3-0.1l0,0l5.7-1.1c0,0,1.2-14.3-7.7-17.7
					C170.1,396.2,167,406.9,169,413.3z"/>
			</g>
		</g>
		<g>
			<g>
				<path class="st39" d="M170.8,414.8L170.8,414.8c0.4,0.2,0.9,0.2,1.3,0.1l0.3-0.1l0,0l-0.6-7.3L170.8,414.8z"/>
			</g>
		</g>
		<g>
			<g>
				<path class="st39" d="M203.9,414.8l0.7,2.9c0,0,0.8-2.9,0.7-4.5C204.5,414.1,203.9,414.8,203.9,414.8z"/>
			</g>
		</g>
		<g>
			<g>
				<path class="st15" d="M180.3,376.2c0,0-7.1-0.8-0.1,11L180.3,376.2z"/>
			</g>
		</g>
		<g>
			<g>
				<polygon class="st27" points="216.4,394.3 217.1,393 211.4,391.1 210.7,392.3 				"/>
			</g>
		</g>
	</g>
</g>
</svg>
