<?xml version="1.0" encoding="utf-8"?>
<!-- Generator: Adobe Illustrator 24.2.1, SVG Export Plug-In . SVG Version: 6.00 Build 0)  -->
<svg version="1.1" id="a31e7729-94ce-4b70-883a-94bdaa3e886c"
	 xmlns="http://www.w3.org/2000/svg" xmlns:xlink="http://www.w3.org/1999/xlink" x="0px" y="0px" viewBox="0 0 951.6 665.1"
	 style="enable-background:new 0 0 951.6 665.1;" xml:space="preserve">
<style type="text/css">
	.st0{fill:#ECECEC;}
	.st1{fill:#E7E7E7;}
	.st2{fill:#E1E1E1;}
	.st3{fill:#F5F5F5;}
	.st4{fill:#FAFAFA;}
	.st5{fill:#F0F0F0;}
	.st6{opacity:0.1;fill:#FAFAFA;enable-background:new    ;}
	.st7{opacity:0.2;fill:#FAFAFA;enable-background:new    ;}
	.st8{fill:#007CFF;}
	.st9{opacity:0.5;}
	.st10{fill:#1A2E35;}
	.st11{opacity:0.4;fill:#FFFFFF;}
	.st12{opacity:0.2;fill:#FFFFFF;}
	.st13{opacity:0.3;fill:#FFFFFF;}
	.st14{fill:#FFFFFF;}
	.st15{fill:#0458A3;}
	.st16{opacity:0.5;fill:#FFFFFF;enable-background:new    ;}
	.st17{opacity:0.4;}
	.st18{opacity:0.4;fill:#FFFFFF;enable-background:new    ;}
	.st19{fill:#041147;}
	.st20{opacity:0.1;enable-background:new    ;}
	.st21{fill:#FF8B7B;}
	.st22{fill:#FFB570;}
	.st23{opacity:0.3;enable-background:new    ;}
	.st24{opacity:0.2;enable-background:new    ;}
	.st25{fill:#FF8300;}
	.st26{fill:#C15700;}
	.st27{fill:#FFB26C;}
	.st28{fill:#FCC99F;}
	.st29{opacity:0.3;fill:#FFFFFF;enable-background:new    ;}
	.st30{opacity:0.74;fill:#FF8300;}
</style>
<g>
	<rect x="117.6" y="535.2" class="st0" width="716.3" height="0.4"/>
	<path class="st0" d="M457.2,471.3H180.5c-4.5,0-8.2-3.7-8.2-8.2V74.2c0-4.5,3.7-8.2,8.2-8.2h276.6c4.5,0,8.2,3.7,8.2,8.2v388.9
		C465.4,467.6,461.7,471.3,457.2,471.3z M180.5,66.4c-4.3,0-7.8,3.5-7.8,7.8v388.9c0,4.3,3.5,7.8,7.8,7.8h276.6
		c4.3,0,7.8-3.5,7.8-7.8V74.2c0-4.3-3.5-7.8-7.8-7.8C457.1,66.4,180.5,66.4,180.5,66.4z"/>
	<path class="st0" d="M767.1,471.3H490.4c-4.5,0-8.2-3.7-8.2-8.2V74.2c0-4.5,3.7-8.2,8.2-8.2H767c4.5,0,8.2,3.7,8.2,8.2v388.9
		C775.3,467.6,771.6,471.3,767.1,471.3z M490.4,66.4c-4.3,0-7.8,3.5-7.8,7.8v388.9c0,4.3,3.5,7.8,7.8,7.8H767c4.3,0,7.8-3.5,7.8-7.8
		V74.2c0-4.3-3.5-7.8-7.8-7.8C767,66.4,490.4,66.4,490.4,66.4z"/>
	<g>
		<g>
			<g>
				<g>
					<rect x="423" y="422.9" class="st1" width="107.2" height="99.9"/>
					<rect x="426.4" y="525.9" class="st2" width="13.7" height="8.7"/>
					<rect x="530.2" y="422.9" class="st1" width="217.7" height="98.9"/>
					<rect x="750.9" y="415.5" class="st1" width="13.7" height="119.1"/>
					<rect x="540.8" y="430.8" class="st3" width="94.4" height="86.4"/>
					<polygon class="st4" points="556.8,517.2 582,517.2 591.1,430.8 565.9,430.8 					"/>
					<polygon class="st4" points="588.4,517.2 593.4,517.2 602.5,430.8 597.5,430.8 					"/>
					<rect x="433.2" y="430.8" class="st3" width="94.4" height="86.4"/>
					<rect x="649.5" y="430.8" class="st3" width="94.4" height="86.4"/>
					<path class="st5" d="M747.4,415.5h-3.6H534h-0.2h-3.4h-3.6H426.4h-3.6h-3.6v119.1h7.3V528h100.3h7.3h209.8v6.7h7.3V415.5H747.4
						z M426.4,426.3h100.3v41.4H426.4V426.3z M426.4,517.2v-43.4h100.3v43.4H426.4z M635.2,517.2H534v-90.9h101.2V517.2z
						 M743.8,517.2H642.5v-43.4h101.2L743.8,517.2L743.8,517.2z M743.8,467.7H642.5v-41.4h101.2L743.8,467.7L743.8,467.7z"/>
				</g>
				<g>
					<circle class="st0" cx="477.6" cy="441" r="4.4"/>
					<path class="st2" d="M477.6,445.4c-1.8,0-3.3-1.1-4-2.6c-0.3,0.6-0.4,1.2-0.4,1.8c0,2.4,2,4.4,4.4,4.4s4.4-2,4.4-4.4
						c0-0.7-0.2-1.3-0.4-1.8C480.9,444.4,479.3,445.4,477.6,445.4z"/>
				</g>
				<g>
					<path class="st0" d="M482,492c0,2.4-2,4.4-4.4,4.4s-4.4-2-4.4-4.4s2-4.4,4.4-4.4S482,489.6,482,492z"/>
					<path class="st2" d="M477.6,496.4c-1.8,0-3.3-1.1-4-2.6c-0.3,0.6-0.4,1.2-0.4,1.8c0,2.4,2,4.4,4.4,4.4s4.4-2,4.4-4.4
						c0-0.7-0.2-1.3-0.4-1.8C480.9,495.3,479.3,496.4,477.6,496.4z"/>
				</g>
				<g>
					<circle class="st0" cx="698.8" cy="441" r="4.4"/>
					<path class="st2" d="M698.8,445.4c-1.8,0-3.3-1.1-4-2.6c-0.3,0.6-0.4,1.2-0.4,1.8c0,2.4,2,4.4,4.4,4.4s4.4-2,4.4-4.4
						c0-0.7-0.2-1.3-0.4-1.8C702.1,444.4,700.6,445.4,698.8,445.4z"/>
				</g>
				<g>
					<path class="st0" d="M626.3,476.5c0,2.4-2,4.4-4.4,4.4s-4.4-2-4.4-4.4s2-4.4,4.4-4.4C624.4,472.1,626.3,474.1,626.3,476.5z"/>
					<path class="st2" d="M621.9,480.9c-1.8,0-3.3-1.1-4-2.6c-0.3,0.6-0.4,1.2-0.4,1.8c0,2.4,2,4.4,4.4,4.4s4.4-2,4.4-4.4
						c0-0.7-0.2-1.3-0.4-1.8C625.2,479.9,623.7,480.9,621.9,480.9z"/>
				</g>
				<g>
					<path class="st0" d="M703.2,492c0,2.4-2,4.4-4.4,4.4s-4.4-2-4.4-4.4s2-4.4,4.4-4.4S703.2,489.6,703.2,492z"/>
					<path class="st2" d="M698.8,496.4c-1.8,0-3.3-1.1-4-2.6c-0.3,0.6-0.4,1.2-0.4,1.8c0,2.4,2,4.4,4.4,4.4s4.4-2,4.4-4.4
						c0-0.7-0.2-1.3-0.4-1.8C702.1,495.3,700.6,496.4,698.8,496.4z"/>
				</g>
			</g>
		</g>
		<g>
			<g>
				<path class="st2" d="M687.2,409.4h-0.6V287.7h0.6c0.7,0,1.3,0.6,1.3,1.3v119.1C688.5,408.8,687.9,409.4,687.2,409.4z"/>
				<rect x="482.8" y="287.7" class="st0" width="203.8" height="121.7"/>
				<rect x="486.2" y="291.1" class="st2" width="197.1" height="115"/>
				<g>
					<polygon class="st6" points="564.1,406.1 593.8,406.1 612.1,291.1 582.3,291.1 					"/>
					<polygon class="st7" points="599.1,406.1 605.8,406.1 624,291.1 617.3,291.1 					"/>
				</g>
			</g>
			<g>
				<path class="st2" d="M610.5,409.4v4.4h6.1c1.5,0,2.7-1.2,2.7-2.7v-1.7L610.5,409.4L610.5,409.4z"/>
				<g>
					<path class="st5" d="M611.1,413.8h-54.8c-2.4,0-4.4-2-4.4-4.4l0,0h63.5l0,0C615.5,411.8,613.5,413.8,611.1,413.8z"/>
				</g>
			</g>
		</g>
	</g>
	<g>
		<g>
			<path class="st8" d="M647.2,289.3l-70.5,63.3L555,372.2c-2,1.8-3.1,4.4-2.9,7l1.6,33.4L558,504c0.5,6.4-6.6,11.3-12.1,8.3
				l-25.2-14l-36.8-20.5l-27.1-15l27.1,15l36.9,20.3l5.3,2.9c5.5,3,12.7-1.9,12.1-8.3l-2.8-32.8l0,0l-7.1-84.2
				c-0.2-2.6,0.9-5.2,2.9-7l60.1-54l32.1-28.8c5.1-4.5,3.2-12.5-3.2-13.4l-12-1.8l-35.7-5.3l-68.3-10.1c-2.5-0.4-4.6-2-5.6-4.3
				l-14.1-34.7l0,0l-6.4-15.7l-8.8-21.6h0l-3.5-8.5l0,0l-5.7-14.1l-4.8-11.8c-0.9-2.1-2.5-3.5-4.4-4.1l21.1,3.1l3.1,0.4l0.7,0.7
				l3.4,3.3l10.3,25.5l2,4.8l4,9.8l27,66.4c0.9,2.3,3,3.9,5.6,4.3l44.5,6.5l35.7,5.3l35.7,5.3C650.4,276.8,652.3,284.8,647.2,289.3z
				"/>
			<path class="st9" d="M647.2,289.3l-70.5,63.3L555,372.2c-2,1.8-3.1,4.4-2.9,7l1.6,33.4L558,504c0.5,6.4-6.6,11.3-12.1,8.3
				l-25.2-14l-36.8-20.5l-27.1-15l27.1,15l36.9,20.3l5.3,2.9c5.5,3,12.7-1.9,12.1-8.3l-2.8-32.8l0,0l-7.1-84.2
				c-0.2-2.6,0.9-5.2,2.9-7l60.1-54l32.1-28.8c5.1-4.5,3.2-12.5-3.2-13.4l-12-1.8l-35.7-5.3l-68.3-10.1c-2.5-0.4-4.6-2-5.6-4.3
				l-14.1-34.7l0,0l-6.4-15.7l-8.8-21.6h0l-3.5-8.5l0,0l-5.7-14.1l-4.8-11.8c-0.9-2.1-2.5-3.5-4.4-4.1l21.1,3.1l3.1,0.4l0.7,0.7
				l3.4,3.3l10.3,25.5l2,4.8l4,9.8l27,66.4c0.9,2.3,3,3.9,5.6,4.3l44.5,6.5l35.7,5.3l35.7,5.3C650.4,276.8,652.3,284.8,647.2,289.3z
				"/>
			<polygon class="st10" points="475.3,144.2 475.3,144.2 475.3,144.2 			"/>
			<path class="st10" d="M479.3,148.1l-4-3.9C477,144.8,478.5,146.1,479.3,148.1z"/>
			<path class="st10" d="M472.2,143.7c1.1-0.1,2.1,0.1,3.1,0.4L472.2,143.7z"/>
			<path class="st8" d="M440.1,453.7l-58,29.2l0,0l-27.5,13.8l-17.1,8.6c-0.1,0.1-0.2,0.1-0.4,0.2c-2.2,1-5.1,0.8-7.8,0l-0.5,0.2
				l-23.7-3.7l0,0c1.1,0,2.3-0.3,3.5-0.9l13.6-6.8l23.9-12l12.5-6.3l6-3l26.5-13.3l27.4-13.8c2.4-1.2,5.1-1.2,7.3,0L440.1,453.7z"/>
			<path class="st9" d="M440.1,453.7l-58,29.2l0,0l-27.5,13.8l-17.1,8.6c-0.1,0.1-0.2,0.1-0.4,0.2c-2.2,1-5.1,0.8-7.8,0l-0.5,0.2
				l-23.7-3.7l0,0c1.1,0,2.3-0.3,3.5-0.9l13.6-6.8l23.9-12l12.5-6.3l6-3l26.5-13.3l27.4-13.8c2.4-1.2,5.1-1.2,7.3,0L440.1,453.7z"/>
			<path class="st10" d="M469.5,179.1L458.8,159l-10-18.7h0l2.2,0.3c1.9,0.6,3.6,1.9,4.4,4.1l4.8,11.8L469.5,179.1z"/>
			<path class="st10" d="M358.5,475.9l-36.3,18.3l-13.6,6.8c-1.2,0.6-2.3,0.9-3.5,0.9l24.2-44.8l2.1,1.3L358.5,475.9z"/>
			<path class="st8" d="M623.5,285.9l-32.1,28.8l0,0l-60.1,54c-2,1.8-3.1,4.4-2.9,7l7.1,84.2l0,0l2.8,32.8
				c0.5,6.4-6.6,11.3-12.1,8.3l-5.3-2.9l-36.9-20.3l-27.1-15l-0.5-0.3l-16.1-8.9l-14.3-7.9c-2.2-1.2-4.9-1.2-7.3,0L391,459.6
				l-26.5,13.3l-6,3l-12.5,6.3l-23.9,12l-13.6,6.8c-1.2,0.6-2.3,0.9-3.5,0.9c-4.7,0.2-8.6-4-7.2-9.2l1.8-7l28.5-110
				c0.7-2.6,0-5.2-1.6-7l-77.8-82.8c-4.3-4.5-1-12.5,5.5-13.4l119-17.1c2.6-0.4,5-2,6.3-4.3l61.8-106.4c0.5-0.8,1.1-1.5,1.7-2.1
				c1.2-1.1,2.5-1.8,4-2.1c0.6-0.1,1.2-0.2,1.8-0.2h0c0.5,0,1,0,1.5,0.2c0.3,0,0.5,0.1,0.7,0.2c1.9,0.6,3.6,1.9,4.4,4.1l4.8,11.8
				l5.7,14.1l3.5,8.5h0l8.8,21.6l6.4,15.7l0,0l14.1,34.7c0.9,2.3,3,3.9,5.6,4.3l68.3,10.1l35.7,5.3l12,1.8
				C626.7,273.4,628.5,281.4,623.5,285.9z"/>
		</g>
		<path class="st11" d="M466,170.5l-0.5,1.2l-115.2,299l-4.4,11.4l-23.9,12l-13.6,6.8c-1.2,0.6-2.3,0.9-3.5,0.9
			c-4.7,0.2-8.6-4-7.2-9.2l1.8-7l143.4-343.1c1.2-1.1,2.5-1.8,4-2.1l1.9,0l1,0h0.4c0.3,0,0.5,0.1,0.7,0.2c1.9,0.6,3.6,1.9,4.4,4.1
			l4.8,11.8L466,170.5z"/>
		<polygon class="st12" points="484.7,216.4 484.7,216.4 391,459.6 364.5,472.9 478.3,200.7 		"/>
		<path class="st13" d="M608.3,270.6L608.3,270.6l-17,44.1l0,0l-60.1,54c-2,1.8-3.1,4.4-2.9,7l7.1,84.2l0,0l-14.7,38.1l-0.1,0.2
			l-36.8-20.5l0-0.1l88.7-212.3l0-0.1L608.3,270.6z"/>
	</g>
	<g>
		<g>
			<g>
				<g>
					<g>
						<polygon class="st10" points="560.1,166.6 560.1,166.6 560.1,166.6 						"/>
						<path class="st10" d="M560.9,167.3l-0.8-0.7C560.4,166.8,560.7,167,560.9,167.3z"/>
						<path class="st10" d="M559.6,166.6c0.2,0,0.4,0,0.5,0.1L559.6,166.6z"/>
						<path class="st10" d="M559.6,172.7l-2.1-3.5l-2-3.2h0l0.4,0.1c0.3,0.1,0.6,0.3,0.8,0.7l1,2L559.6,172.7z"/>
						<path class="st10" d="M545,223.8l-6,3.1l-2.2,1.2c-0.2,0.1-0.4,0.2-0.6,0.2l3.5-7.7l0.4,0.2L545,223.8z"/>
						<path class="st8" d="M587.8,191.1l-5.1,5v0l-9.5,9.3c-0.3,0.3-0.5,0.8-0.4,1.2l2.5,14.5v0l1,5.6c0.2,1.1-1,2-2,1.4l-1-0.5
							l-6.7-3.5l-4.9-2.6l-0.1-0.1l-2.9-1.5l-2.6-1.4c-0.4-0.2-0.9-0.2-1.3,0l-4.5,2.4l-4.4,2.3l-1,0.5l-2.1,1.1L539,227l-2.2,1.2
							c-0.2,0.1-0.4,0.2-0.6,0.2c-0.8,0-1.5-0.7-1.4-1.6l0.2-1.2l3.2-18.9c0.1-0.4-0.1-0.9-0.4-1.2l-14.6-14.3
							c-0.8-0.8-0.4-2.2,0.8-2.3l20.2-2.9c0.4-0.1,0.8-0.3,1-0.7l9.1-18.3c0.1-0.1,0.2-0.3,0.3-0.4c0.2-0.2,0.4-0.3,0.7-0.4
							c0.1,0,0.2,0,0.3,0h0c0.1,0,0.2,0,0.3,0c0,0,0.1,0,0.1,0c0.3,0.1,0.6,0.3,0.8,0.7l1,2l1.2,2.4l0.7,1.5h0l1.8,3.7l1.3,2.7v0
							l2.9,6c0.2,0.4,0.6,0.7,1,0.7l11.9,1.7l6.2,0.9l2.1,0.3C588.1,188.9,588.6,190.3,587.8,191.1z"/>
						<path class="st8" d="M591.9,191.7l-11.2,10.9l-3.5,3.4c-0.3,0.3-0.5,0.8-0.4,1.2l0.8,5.8l2.1,15.8c0.2,1.1-1,2-2,1.4l-4.6-2.4
							l-6.7-3.5l-4.9-2.6l4.9,2.6l6.7,3.5l1,0.5c1,0.5,2.2-0.3,2-1.4l-1-5.6v0l-2.5-14.5c-0.1-0.4,0.1-0.9,0.4-1.2l9.5-9.3l5.1-5
							c0.8-0.8,0.4-2.2-0.8-2.3l-2.1-0.3l-6.2-0.9l-11.9-1.7c-0.4-0.1-0.8-0.3-1-0.7l-2.9-6v0l-1.3-2.7l-1.8-3.7h0l-0.7-1.5v0
							l-1.2-2.4l-1-2c-0.2-0.4-0.5-0.6-0.8-0.7l3.7,0.5l0.5,0.1l0.1,0.1l0.6,0.6l2.2,4.4l0.4,0.8l0.8,1.7l5.6,11.4
							c0.2,0.4,0.6,0.7,1,0.7l7.8,1.1l6.2,0.9l6.2,0.9C592.3,189.5,592.7,190.9,591.9,191.7z"/>
						<path class="st8" d="M558.7,220l-9.6,5v0l-4.5,2.4l-2.8,1.5c0,0,0,0-0.1,0c-0.4,0.2-0.9,0.1-1.3,0l-0.1,0l-4.1-0.6l0,0
							c0.2,0,0.4-0.1,0.6-0.2l2.2-1.2l3.9-2.1l2.1-1.1l1-0.5l4.4-2.3l4.5-2.4c0.4-0.2,0.9-0.2,1.3,0L558.7,220z"/>
						<path class="st13" d="M591.9,191.7l-11.2,10.9l-3.5,3.4c-0.3,0.3-0.5,0.8-0.4,1.2l0.8,5.8l2.1,15.8c0.2,1.1-1,2-2,1.4
							l-4.6-2.4l-6.7-3.5l-4.9-2.6l4.9,2.6l6.7,3.5l1,0.5c1,0.5,2.2-0.3,2-1.4l-1-5.6v0l-2.5-14.5c-0.1-0.4,0.1-0.9,0.4-1.2l9.5-9.3
							l5.1-5c0.8-0.8,0.4-2.2-0.8-2.3l-2.1-0.3l-6.2-0.9l-11.9-1.7c-0.4-0.1-0.8-0.3-1-0.7l-2.9-6v0l-1.3-2.7l-1.8-3.7h0l-0.7-1.5v0
							l-1.2-2.4l-1-2c-0.2-0.4-0.5-0.6-0.8-0.7l3.7,0.5l0.5,0.1l0.1,0.1l0.6,0.6l2.2,4.4l0.4,0.8l0.8,1.7l5.6,11.4
							c0.2,0.4,0.6,0.7,1,0.7l7.8,1.1l6.2,0.9l6.2,0.9C592.3,189.5,592.7,190.9,591.9,191.7z"/>
						<path class="st13" d="M558.7,220l-9.6,5v0l-4.5,2.4l-2.8,1.5c0,0,0,0-0.1,0c-0.4,0.2-0.9,0.1-1.3,0l-0.1,0l-4.1-0.6l0,0
							c0.2,0,0.4-0.1,0.6-0.2l2.2-1.2l3.9-2.1l2.1-1.1l1-0.5l4.4-2.3l4.5-2.4c0.4-0.2,0.9-0.2,1.3,0L558.7,220z"/>
					</g>
					<path class="st11" d="M558.9,171.2l-0.1,0.2l-15.3,51.5l-0.6,2L539,227l-2.2,1.2c-0.2,0.1-0.4,0.2-0.6,0.2
						c-0.8,0-1.5-0.7-1.4-1.6l0.2-1.2l19.5-59.1c0.2-0.2,0.4-0.3,0.7-0.4l0.3,0l0.2,0h0.1c0,0,0.1,0,0.1,0c0.3,0.1,0.6,0.3,0.8,0.7
						l1,2L558.9,171.2z"/>
					<polygon class="st12" points="562.8,179.1 562.8,179.1 550.3,221 546,223.3 561.5,176.4 					"/>
				</g>
			</g>
			<g class="st9">
				<g>
					<g>
						<polygon class="st14" points="560.1,166.4 560.1,166.4 560.1,166.4 						"/>
						<path class="st14" d="M560.9,167.1l-0.8-0.7C560.4,166.5,560.7,166.7,560.9,167.1z"/>
						<path class="st14" d="M559.6,166.3c0.2,0,0.4,0,0.5,0.1L559.6,166.3z"/>
						<path class="st14" d="M559.6,172.4l-2.1-3.5l-2-3.2h0l0.4,0.1c0.3,0.1,0.6,0.3,0.8,0.7l1,2L559.6,172.4z"/>
					</g>
				</g>
			</g>
			<path class="st11" d="M587.8,190.7l-5.1,5v0l-9.5,9.3c-0.3,0.3-0.5,0.8-0.4,1.2l2.5,14.5v0l1,5.6c0.2,1.1-1,2-2,1.4l-1-0.5
				l-6.7-3.5l-4.9-2.6l-0.1-0.1l-2.9-1.5l-2.6-1.4c-0.4-0.2-0.9-0.2-1.3,0l-4.5,2.4l-4.4,2.3l-1,0.5l-2.1,1.1l-3.9,2.1l-2.2,1.2
				c-0.2,0.1-0.4,0.2-0.6,0.2c-0.8,0-1.5-0.7-1.4-1.6l0.2-1.2l3.2-18.9c0.1-0.4-0.1-0.9-0.4-1.2l-14.6-14.3
				c-0.8-0.8-0.4-2.2,0.8-2.3l20.2-2.9c0.4-0.1,0.8-0.3,1-0.7l9.1-18.3c0.1-0.1,0.2-0.3,0.3-0.4c0.2-0.2,0.4-0.3,0.7-0.4
				c0.1,0,0.2,0,0.3,0h0c0.1,0,0.2,0,0.3,0c0,0,0.1,0,0.1,0c0.3,0.1,0.6,0.3,0.8,0.7l1,2l1.2,2.4l0.7,1.5h0l1.8,3.7l1.3,2.7v0l2.9,6
				c0.2,0.4,0.6,0.7,1,0.7l11.9,1.7l6.2,0.9l2.1,0.3C588.2,188.5,588.6,189.9,587.8,190.7z"/>
		</g>
		<g>
			<g>
				<g>
					<g>
						<polygon class="st10" points="631.7,166.2 631.7,166.2 631.7,166.2 						"/>
						<path class="st10" d="M632.2,166.6l-0.4-0.4C631.9,166.3,632.1,166.4,632.2,166.6z"/>
						<path class="st10" d="M631.4,166.2c0.1,0,0.2,0,0.3,0L631.4,166.2z"/>
						<path class="st10" d="M631.5,169.8l-1.3-2.1l-1.2-1.9h0l0.2,0c0.2,0.1,0.4,0.2,0.5,0.4l0.6,1.2L631.5,169.8z"/>
						<path class="st10" d="M622.7,200.2l-3.6,1.9l-1.3,0.7c-0.1,0.1-0.2,0.1-0.3,0.1l2.1-4.6l0.2,0.1L622.7,200.2z"/>
						<path class="st8" d="M648.2,180.7l-3,3v0l-5.7,5.5c-0.2,0.2-0.3,0.5-0.2,0.7l1.5,8.6v0l0.6,3.4c0.1,0.7-0.6,1.2-1.2,0.8
							l-0.6-0.3l-4-2.1l-2.9-1.5l-0.1,0l-1.7-0.9l-1.5-0.8c-0.2-0.1-0.5-0.1-0.8,0l-2.7,1.4l-2.6,1.4l-0.6,0.3l-1.2,0.6l-2.3,1.2
							l-1.3,0.7c-0.1,0.1-0.2,0.1-0.3,0.1c-0.5,0-0.9-0.4-0.8-0.9l0.1-0.7l1.9-11.3c0-0.3,0-0.5-0.2-0.7l-8.7-8.5
							c-0.5-0.5-0.2-1.3,0.4-1.4l12-1.7c0.3,0,0.5-0.2,0.6-0.4l5.4-10.9c0-0.1,0.1-0.2,0.2-0.2c0.1-0.1,0.2-0.2,0.4-0.2
							c0.1,0,0.1,0,0.2,0h0c0.1,0,0.1,0,0.2,0c0,0,0.1,0,0.1,0c0.2,0.1,0.4,0.2,0.5,0.4l0.6,1.2l0.7,1.4l0.4,0.9h0l1.1,2.2l0.8,1.6
							v0l1.8,3.6c0.1,0.2,0.3,0.4,0.6,0.4l7.1,1l3.7,0.5l1.2,0.2C648.4,179.5,648.6,180.3,648.2,180.7z"/>
						<path class="st8" d="M650.6,181.1l-6.6,6.5l-2.1,2c-0.2,0.2-0.3,0.5-0.2,0.7l0.5,3.4l1.3,9.4c0.1,0.7-0.6,1.2-1.2,0.8
							l-2.7-1.4l-4-2.1l-2.9-1.5l2.9,1.5l4,2.1l0.6,0.3c0.6,0.3,1.3-0.2,1.2-0.8l-0.6-3.4v0l-1.5-8.6c0-0.3,0-0.5,0.2-0.7l5.7-5.5
							l3-3c0.5-0.5,0.2-1.3-0.4-1.4l-1.2-0.2l-3.7-0.5l-7.1-1c-0.3,0-0.5-0.2-0.6-0.4l-1.8-3.6v0l-0.8-1.6l-1.1-2.2h0l-0.4-0.9v0
							l-0.7-1.4l-0.6-1.2c-0.1-0.2-0.3-0.4-0.5-0.4l2.2,0.3l0.3,0l0.1,0.1l0.4,0.3l1.3,2.6l0.2,0.5l0.5,1l3.4,6.8
							c0.1,0.2,0.3,0.4,0.6,0.4l4.6,0.7l3.7,0.5l3.7,0.5C650.8,179.8,651.1,180.6,650.6,181.1z"/>
						<path class="st8" d="M630.9,197.9l-5.7,3v0l-2.7,1.4l-1.7,0.9c0,0,0,0,0,0c-0.2,0.1-0.5,0.1-0.8,0l0,0l-2.5-0.4l0,0
							c0.1,0,0.2,0,0.3-0.1l1.3-0.7l2.3-1.2l1.2-0.6l0.6-0.3l2.6-1.4l2.7-1.4c0.2-0.1,0.5-0.1,0.8,0L630.9,197.9z"/>
						<path class="st13" d="M650.6,181.1l-6.6,6.5l-2.1,2c-0.2,0.2-0.3,0.5-0.2,0.7l0.5,3.4l1.3,9.4c0.1,0.7-0.6,1.2-1.2,0.8
							l-2.7-1.4l-4-2.1l-2.9-1.5l2.9,1.5l4,2.1l0.6,0.3c0.6,0.3,1.3-0.2,1.2-0.8l-0.6-3.4v0l-1.5-8.6c0-0.3,0-0.5,0.2-0.7l5.7-5.5
							l3-3c0.5-0.5,0.2-1.3-0.4-1.4l-1.2-0.2l-3.7-0.5l-7.1-1c-0.3,0-0.5-0.2-0.6-0.4l-1.8-3.6v0l-0.8-1.6l-1.1-2.2h0l-0.4-0.9v0
							l-0.7-1.4l-0.6-1.2c-0.1-0.2-0.3-0.4-0.5-0.4l2.2,0.3l0.3,0l0.1,0.1l0.4,0.3l1.3,2.6l0.2,0.5l0.5,1l3.4,6.8
							c0.1,0.2,0.3,0.4,0.6,0.4l4.6,0.7l3.7,0.5l3.7,0.5C650.8,179.8,651.1,180.6,650.6,181.1z"/>
						<path class="st13" d="M630.9,197.9l-5.7,3v0l-2.7,1.4l-1.7,0.9c0,0,0,0,0,0c-0.2,0.1-0.5,0.1-0.8,0l0,0l-2.5-0.4l0,0
							c0.1,0,0.2,0,0.3-0.1l1.3-0.7l2.3-1.2l1.2-0.6l0.6-0.3l2.6-1.4l2.7-1.4c0.2-0.1,0.5-0.1,0.8,0L630.9,197.9z"/>
					</g>
					<path class="st11" d="M631,168.9l0,0.1l-9.1,30.6l-0.3,1.2l-2.3,1.2l-1.3,0.7c-0.1,0.1-0.2,0.1-0.3,0.1c-0.5,0-0.9-0.4-0.8-0.9
						l0.1-0.7l11.6-35.1c0.1-0.1,0.2-0.2,0.4-0.2l0.2,0l0.1,0h0c0,0,0.1,0,0.1,0c0.2,0.1,0.4,0.2,0.5,0.4l0.6,1.2L631,168.9z"/>
					<polygon class="st12" points="633.3,173.6 633.3,173.6 625.9,198.5 623.3,199.9 632.5,172 					"/>
				</g>
			</g>
			<g class="st9">
				<g>
					<g>
						<polygon class="st14" points="631.7,166.1 631.7,166.1 631.7,166.1 						"/>
						<path class="st14" d="M632.2,166.5l-0.4-0.4C631.9,166.1,632.1,166.3,632.2,166.5z"/>
						<path class="st14" d="M631.4,166c0.1,0,0.2,0,0.3,0L631.4,166z"/>
						<path class="st14" d="M631.5,169.7l-1.3-2.1l-1.2-1.9h0l0.2,0c0.2,0.1,0.4,0.2,0.5,0.4l0.6,1.2L631.5,169.7z"/>
					</g>
				</g>
			</g>
			<path class="st11" d="M648.2,180.5l-3,3v0l-5.7,5.5c-0.2,0.2-0.3,0.5-0.2,0.7l1.5,8.6v0l0.6,3.4c0.1,0.7-0.6,1.2-1.2,0.8
				l-0.6-0.3l-4-2.1l-2.9-1.5l-0.1,0l-1.7-0.9l-1.5-0.8c-0.2-0.1-0.5-0.1-0.8,0l-2.7,1.4l-2.6,1.4l-0.6,0.3l-1.2,0.6l-2.3,1.2
				l-1.3,0.7c-0.1,0.1-0.2,0.1-0.3,0.1c-0.5,0-0.9-0.4-0.8-0.9l0.1-0.7l1.9-11.3c0-0.3,0-0.5-0.2-0.7l-8.7-8.5
				c-0.5-0.5-0.2-1.3,0.4-1.4l12-1.7c0.3,0,0.5-0.2,0.6-0.4l5.4-10.9c0-0.1,0.1-0.2,0.2-0.2c0.1-0.1,0.2-0.2,0.4-0.2
				c0.1,0,0.1,0,0.2,0h0c0.1,0,0.1,0,0.2,0c0,0,0.1,0,0.1,0c0.2,0.1,0.4,0.2,0.5,0.4l0.6,1.2l0.7,1.4l0.4,0.9h0l1.1,2.2l0.8,1.6v0
				l1.8,3.6c0.1,0.2,0.3,0.4,0.6,0.4l7.1,1l3.7,0.5l1.2,0.2C648.4,179.2,648.7,180.1,648.2,180.5z"/>
		</g>
		<g>
			<g>
				<g>
					<g>
						<polygon class="st10" points="618,217.8 618,217.8 618,217.8 						"/>
						<path class="st10" d="M618.4,218.2l-0.4-0.4C618.1,217.9,618.3,218,618.4,218.2z"/>
						<path class="st10" d="M617.6,217.8c0.1,0,0.2,0,0.3,0L617.6,217.8z"/>
						<path class="st10" d="M617.7,221.3l-1.2-2l-1.2-1.9h0l0.2,0c0.2,0.1,0.4,0.2,0.5,0.4l0.6,1.2L617.7,221.3z"/>
						<path class="st10" d="M609.2,250.9l-3.5,1.8l-1.3,0.7c-0.1,0.1-0.2,0.1-0.3,0.1l2-4.5l0.2,0.1L609.2,250.9z"/>
						<path class="st8" d="M633.9,232l-2.9,2.9v0l-5.5,5.4c-0.2,0.2-0.3,0.4-0.2,0.7l1.4,8.4v0l0.6,3.3c0.1,0.6-0.6,1.1-1.1,0.8
							l-0.6-0.3l-3.9-2l-2.8-1.5l-0.1,0l-1.7-0.9l-1.5-0.8c-0.2-0.1-0.5-0.1-0.7,0l-2.6,1.4l-2.5,1.3l-0.6,0.3l-1.2,0.6l-2.3,1.2
							l-1.3,0.7c-0.1,0.1-0.2,0.1-0.3,0.1c-0.5,0-0.9-0.4-0.8-0.9l0.1-0.7l1.9-10.9c0-0.3,0-0.5-0.2-0.7l-8.5-8.2
							c-0.5-0.5-0.2-1.2,0.4-1.3l11.7-1.7c0.3,0,0.5-0.2,0.6-0.4l5.2-10.6c0-0.1,0.1-0.2,0.2-0.2c0.1-0.1,0.2-0.2,0.4-0.2
							c0.1,0,0.1,0,0.2,0h0c0.1,0,0.1,0,0.2,0c0,0,0.1,0,0.1,0c0.2,0.1,0.4,0.2,0.5,0.4l0.6,1.2l0.7,1.4l0.4,0.9h0l1.1,2.1l0.8,1.6
							v0l1.7,3.5c0.1,0.2,0.3,0.4,0.6,0.4l6.9,1l3.6,0.5l1.2,0.2C634.2,230.7,634.4,231.5,633.9,232z"/>
						<path class="st8" d="M636.3,232.3l-6.5,6.3l-2,1.9c-0.2,0.2-0.3,0.4-0.2,0.7l0.4,3.3l1.2,9.1c0.1,0.6-0.6,1.1-1.1,0.8
							l-2.6-1.4l-3.8-2l-2.8-1.5l2.8,1.5l3.9,2l0.6,0.3c0.6,0.3,1.2-0.2,1.1-0.8l-0.6-3.3v0l-1.4-8.4c0-0.3,0-0.5,0.2-0.7l5.5-5.4
							l2.9-2.9c0.5-0.5,0.2-1.2-0.4-1.3l-1.2-0.2l-3.6-0.5l-6.9-1c-0.3,0-0.5-0.2-0.6-0.4l-1.7-3.5v0l-0.8-1.6l-1.1-2.1h0l-0.4-0.9
							v0l-0.7-1.4l-0.6-1.2c-0.1-0.2-0.3-0.3-0.5-0.4l2.1,0.3l0.3,0l0.1,0.1l0.4,0.3l1.3,2.5l0.2,0.5l0.5,1l3.3,6.6
							c0.1,0.2,0.3,0.4,0.6,0.4l4.5,0.7l3.6,0.5l3.6,0.5C636.5,231.1,636.8,231.8,636.3,232.3z"/>
						<path class="st8" d="M617.1,248.7l-5.5,2.9v0l-2.6,1.4l-1.6,0.9c0,0,0,0,0,0c-0.2,0.1-0.5,0.1-0.8,0l0,0l-2.4-0.4l0,0
							c0.1,0,0.2,0,0.3-0.1l1.3-0.7l2.3-1.2l1.2-0.6l0.6-0.3l2.5-1.3l2.6-1.4c0.2-0.1,0.5-0.1,0.7,0L617.1,248.7z"/>
						<path class="st13" d="M636.3,232.3l-6.5,6.3l-2,1.9c-0.2,0.2-0.3,0.4-0.2,0.7l0.4,3.3l1.2,9.1c0.1,0.6-0.6,1.1-1.1,0.8
							l-2.6-1.4l-3.8-2l-2.8-1.5l2.8,1.5l3.9,2l0.6,0.3c0.6,0.3,1.2-0.2,1.1-0.8l-0.6-3.3v0l-1.4-8.4c0-0.3,0-0.5,0.2-0.7l5.5-5.4
							l2.9-2.9c0.5-0.5,0.2-1.2-0.4-1.3l-1.2-0.2l-3.6-0.5l-6.9-1c-0.3,0-0.5-0.2-0.6-0.4l-1.7-3.5v0l-0.8-1.6l-1.1-2.1h0l-0.4-0.9
							v0l-0.7-1.4l-0.6-1.2c-0.1-0.2-0.3-0.3-0.5-0.4l2.1,0.3l0.3,0l0.1,0.1l0.4,0.3l1.3,2.5l0.2,0.5l0.5,1l3.3,6.6
							c0.1,0.2,0.3,0.4,0.6,0.4l4.5,0.7l3.6,0.5l3.6,0.5C636.5,231.1,636.8,231.8,636.3,232.3z"/>
						<path class="st13" d="M617.1,248.7l-5.5,2.9v0l-2.6,1.4l-1.6,0.9c0,0,0,0,0,0c-0.2,0.1-0.5,0.1-0.8,0l0,0l-2.4-0.4l0,0
							c0.1,0,0.2,0,0.3-0.1l1.3-0.7l2.3-1.2l1.2-0.6l0.6-0.3l2.5-1.3l2.6-1.4c0.2-0.1,0.5-0.1,0.7,0L617.1,248.7z"/>
					</g>
					<path class="st11" d="M617.3,220.5l0,0.1l-8.9,29.8l-0.3,1.1l-2.3,1.2l-1.3,0.7c-0.1,0.1-0.2,0.1-0.3,0.1
						c-0.5,0-0.9-0.4-0.8-0.9l0.1-0.7l11.3-34.2c0.1-0.1,0.2-0.2,0.4-0.2l0.2,0l0.1,0h0c0,0,0.1,0,0.1,0c0.2,0.1,0.4,0.2,0.5,0.4
						l0.6,1.2L617.3,220.5z"/>
					<polygon class="st12" points="619.5,225 619.5,225 612.3,249.2 609.8,250.6 618.7,223.5 					"/>
				</g>
			</g>
			<g class="st9">
				<g>
					<g>
						<polygon class="st14" points="618,217.7 618,217.7 618,217.7 						"/>
						<path class="st14" d="M618.4,218.1l-0.4-0.4C618.1,217.8,618.3,217.9,618.4,218.1z"/>
						<path class="st14" d="M617.6,217.7c0.1,0,0.2,0,0.3,0L617.6,217.7z"/>
						<path class="st14" d="M617.7,221.2l-1.2-2l-1.2-1.9h0l0.2,0c0.2,0.1,0.4,0.2,0.5,0.4l0.6,1.2L617.7,221.2z"/>
					</g>
				</g>
			</g>
			<path class="st11" d="M634,231.7l-2.9,2.9v0l-5.5,5.4c-0.2,0.2-0.3,0.4-0.2,0.7l1.4,8.4v0l0.6,3.3c0.1,0.6-0.6,1.1-1.1,0.8
				l-0.6-0.3l-3.9-2l-2.8-1.5l-0.1,0l-1.7-0.9l-1.5-0.8c-0.2-0.1-0.5-0.1-0.7,0l-2.6,1.4l-2.5,1.3l-0.6,0.3l-1.2,0.6l-2.3,1.2
				l-1.3,0.7c-0.1,0.1-0.2,0.1-0.3,0.1c-0.5,0-0.9-0.4-0.8-0.9l0.1-0.7l1.9-10.9c0-0.3,0-0.5-0.2-0.7l-8.5-8.2
				c-0.5-0.5-0.2-1.2,0.4-1.3l11.7-1.7c0.3,0,0.5-0.2,0.6-0.4l5.2-10.6c0-0.1,0.1-0.2,0.2-0.2c0.1-0.1,0.2-0.2,0.4-0.2
				c0.1,0,0.1,0,0.2,0h0c0.1,0,0.1,0,0.2,0c0,0,0.1,0,0.1,0c0.2,0.1,0.4,0.2,0.5,0.4l0.6,1.2l0.7,1.4l0.4,0.9h0l1.1,2.1l0.8,1.6v0
				l1.7,3.5c0.1,0.2,0.3,0.4,0.6,0.4l6.9,1l3.6,0.5l1.2,0.2C634.2,230.5,634.4,231.3,634,231.7z"/>
		</g>
	</g>
	<rect x="714.7" y="558.2" class="st0" width="47.5" height="0.4"/>
	<rect x="579.7" y="562.1" class="st0" width="12.5" height="0.4"/>
	<rect x="685.8" y="544.9" class="st0" width="27.5" height="0.4"/>
	<rect x="192.8" y="547.3" class="st0" width="61.9" height="0.4"/>
	<rect x="267.4" y="547.3" class="st0" width="9.1" height="0.4"/>
	<rect x="306" y="553.4" class="st0" width="134.2" height="0.4"/>
	<g>
		<g>
			<g>
				<g>
					<g>
						<g>
							<g>
								<polygon class="st15" points="251.4,230.3 245.3,230.3 243.6,228.1 253.1,228.2 								"/>
								<polygon class="st16" points="251.4,230.3 245.3,230.3 243.6,228.1 253.1,228.2 								"/>
							</g>
							<g>
								<g>
									<g>
										<path class="st0" d="M261.9,202.9c0,3.8-1.8,7.2-4.5,9.6c-1.9,1.6-3.1,3.9-3.1,6.3v1l-11.6-0.1v-1c0-2.4-1.1-4.7-3-6.3
											c-2.7-2.4-4.4-5.8-4.4-9.7c0.1-7.4,6.4-13.2,14.1-12.8C256.3,190.3,261.9,196.1,261.9,202.9z"/>
										<g>
											<g>
												<path class="st15" d="M246.6,219.8l-2.1-10.5c0-0.2,0.1-0.3,0.3-0.4l0,0c0.2,0,0.3,0.1,0.4,0.3l2.1,10.5L246.6,219.8z"
													/>
											</g>
											<g>
												<path class="st15" d="M250.3,219.8l-0.6-0.1l2.3-10.5c0-0.2,0.2-0.3,0.4-0.2l0,0c0.2,0,0.3,0.2,0.3,0.4L250.3,219.8z"/>
											</g>
											<g>
												<polygon class="st15" points="249.8,213.6 248.5,211.3 247.2,213.6 244.7,210.8 245.2,210.4 247.1,212.5 248.5,210 
													249.9,212.5 251.8,210.5 252.3,210.9 												"/>
											</g>
										</g>
										<g>
											<path class="st15" d="M255.2,221.4c0,0.8-0.7,1.4-1.5,1.4h-1.5c-0.1,0-0.2,0-0.3,0h-8.7c-0.8,0-1.5-0.6-1.5-1.4
												c0-0.8,0.7-1.4,1.5-1.4l0,0h1.5c0.1,0,0.2,0,0.3,0l0,0h8.7C254.5,220,255.2,220.6,255.2,221.4z"/>
											<path class="st15" d="M254.6,224.2c0,0.8-0.6,1.4-1.4,1.4h-1.4c-0.1,0-0.2,0-0.3,0l-8.1-0.1c-0.8,0-1.4-0.7-1.4-1.4
												c0-0.8,0.6-1.4,1.3-1.4l0,0h1.4c0.1,0,0.2,0,0.3,0l0,0l8.1,0.1C254,222.8,254.6,223.4,254.6,224.2z"/>
											<path class="st15" d="M254.1,226.9c0,0.8-0.6,1.4-1.3,1.4h-1.3c-0.1,0-0.2,0-0.3,0l-7.5-0.1c-0.7,0-1.3-0.7-1.3-1.4
												c0-0.8,0.6-1.4,1.2-1.4l0,0h1.3c0.1,0,0.2,0,0.3,0l0,0l7.5,0.1C253.5,225.5,254.1,226.1,254.1,226.9z"/>
										</g>
										<g>
											<polygon class="st15" points="243.4,229.1 243.4,228.3 253.3,228.4 253.3,229.1 											"/>
										</g>
										<g>
											<rect x="242.6" y="219.3" class="st15" width="11.6" height="0.8"/>
										</g>
									</g>
								</g>
							</g>
						</g>
						<g class="st17">
							<path class="st14" d="M236.7,200.5c-0.2,0.7-0.3,1.3-0.2,2l0,0c0.2,0.8,1.4,0.9,1.7,0.1c1-2.5,3.1-4.6,5.8-5.4
								c2-0.6,4.5-0.7,5.1-3.1c0.1-0.4,0-0.9-0.1-1.3l0,0C247.4,189.4,238.4,193.9,236.7,200.5z"/>
						</g>
					</g>
					<path class="st18" d="M250.5,193.5c-0.2,0.7,0,1.5,0.5,1.9c0.4,0.4,1,0.5,1.6,0.5s1.3-0.1,1.7-0.5c0.5-0.5,0.4-1.4,0.1-2
						C253.4,191.5,251.2,191.1,250.5,193.5z"/>
				</g>
				<g>
					<g>
						<g>
							<g>
								<path class="st19" d="M253.1,233.6v3.6c-1.5,0.2-3,0.3-4.6,0.3s-3.1-0.1-4.6-0.3v-3.6H253.1z"/>
							</g>
							<g>
								<path class="st2" d="M248.5,532.2c-1.6,0-2.8-1.3-2.8-2.8V272c0-1.6,1.3-2.8,2.8-2.8s2.8,1.3,2.8,2.8v257.3
									C251.3,530.9,250.1,532.2,248.5,532.2z"/>
							</g>
						</g>
					</g>
				</g>
			</g>
			<g>
				<path class="st2" d="M287.2,200c0,15.4-9.6,28.7-23.4,34.4c-6.4,2.6-10.6,8.6-10.6,15.3V272H244v-22.3c0-6.7-4.3-12.6-10.6-15.3
					c-13.8-5.7-23.4-19-23.4-34.4H287.2z"/>
			</g>
		</g>
		<path class="st15" d="M205.3,533.1c0.1,0.1,0.2,0.2,0.3,0.2c-0.3,0-0.5-0.1-0.7-0.1L205.3,533.1z"/>
		<path class="st15" d="M292.6,533.3c0,0-0.3,0-0.7,0.1c0.1-0.1,0.2-0.2,0.3-0.2L292.6,533.3z"/>
		<path class="st2" d="M292.6,532.3c0,0.3-0.2,0.6-0.4,0.9c-0.1,0.1-0.2,0.2-0.3,0.2c-3.8,2.8-21.6,1.7-43.2,1.7
			c-21.5,0-39.4,1.1-43.1-1.7c-0.1-0.1-0.2-0.2-0.3-0.2c-0.3-0.3-0.4-0.6-0.4-0.9c0-1.5,29.1-7.5,38.2-10.1l1.7-0.5h7.9l1.8,0.5
			C263.4,524.8,292.6,530.8,292.6,532.3z"/>
	</g>
	<ellipse id="_x3C_Path_x3E__359_" class="st3" cx="475.8" cy="582.9" rx="277.8" ry="16.2"/>
	<g>
		<g>
			<g>
				<path class="st14" d="M664.5,413.7c-0.3-4.7-10.3-6.4-14.7-7.6c-1.2-0.3-2.2-0.6-2.7-0.8c-17.7-5.7-29-17.2-29.6-30
					c-1-20.1,24-37.6,55.6-39.2c31.6-1.5,58.1,13.6,59.1,33.6c1,20.1-24,37.6-55.6,39.1c-1,0.1-1.5,1-1.7,1.9
					c-0.9,7.1-5.1,9.2-8.5,10.8l-0.5,0.2c-1.4,0.7-4.1,1.5-6.7,2.3c-1,0.3-1.6-1-0.8-1.6C661.6,420.5,664.7,417.4,664.5,413.7z"/>
				<path class="st8" d="M658.9,425c-0.6,0-1.2-0.3-1.4-0.9c-0.3-0.7-0.1-1.6,0.5-2c2.8-1.9,6-4.9,5.8-8.3l0,0
					c-0.2-3.6-7.7-5.4-12.2-6.5c-0.7-0.2-1.4-0.3-1.9-0.5c-1.3-0.3-2.3-0.6-2.8-0.8c-17.9-5.7-29.4-17.5-30.1-30.6
					c-1-20.5,24.2-38.4,56.2-39.9s58.8,13.9,59.8,34.3c1,20.5-24.3,38.3-56.3,39.9c-0.8,0-0.9,1-1,1.3c-1,7.5-5.6,9.8-8.9,11.4
					l-0.5,0.2c-1.3,0.6-3.6,1.4-6.8,2.4C659.2,425,659.1,425,658.9,425z"/>
			</g>
		</g>
		<g>
			<g>
				<path class="st15" d="M660.6,365.8h-4.2c-2,0-3.7,1.6-3.8,3.6l-1,19.4c-0.1,2,1.4,3.6,3.4,3.6h4.2c2,0,3.7-1.6,3.8-3.6l1-19.4
					C664.1,367.4,662.6,365.8,660.6,365.8z"/>
				<path class="st14" d="M660.6,365.8h-4.2c-2,0-3.7,1.6-3.8,3.6l-1,19.4c-0.1,2,1.4,3.6,3.4,3.6h4.2c2,0,3.7-1.6,3.8-3.6l1-19.4
					C664.1,367.4,662.6,365.8,660.6,365.8z"/>
				<path class="st14" d="M693.8,365.8h-12.3l1.1-5c0.9-2.7,1-8,1-8c-0.1-1-0.8-2.8-2.1-3.5c-1.7-0.9-3.7-1.2-5.6-1l-1.1,1.1
					c-0.1,2.2-0.8,7.8-2.2,9.5l-5.8,7.4c-0.8,1-1.3,2.2-1.3,3.5l-0.9,18.1c-0.1,2.4,1.8,4.4,4.2,4.4H686c1.5,0,3-0.7,4-1.8l1.6-1.8
					c0.6-0.7,1.1-1.5,1.3-2.4l3.8-16.8L693.8,365.8z"/>
			</g>
		</g>
	</g>
	<g>
		<g>
			<path class="st14" d="M396.2,128.7v56c0,2.9-2.4,5.3-5.3,5.3h-83l-16.5,16c-0.7,0.5-0.9,0.6-1.7,0.6c-2.2,0-2.4-1.8-2.4-3.9
				l0.6-12.7H278c-2.9,0-5.3-2.4-5.3-5.3v-56c0-2.9,2.4-5.3,5.3-5.2h113C393.8,123.4,396.2,125.7,396.2,128.7z"/>
			<path class="st2" d="M289.6,207.3c-3.2,0-3.2-3.1-3.2-4.6l0.6-12h-9.1c-3.3,0-6-2.7-6-6v-56c0-1.6,0.6-3.1,1.8-4.2
				c1.1-1.1,2.6-1.8,4.2-1.7h113c3.3,0,6,2.7,6,6v56c0,3.3-2.7,6-6,6h-82.8l-16.3,15.8C291,207.1,290.7,207.3,289.6,207.3z
				 M277.9,124.1c-1.2,0-2.3,0.5-3.2,1.3c-0.9,0.9-1.3,2-1.3,3.2v56c0,2.5,2.1,4.6,4.6,4.6h10.6l-0.6,13.5c0,2.7,0.6,3.2,1.7,3.2
				c0.6,0,0.7,0,1.3-0.5l16.6-16.1h83.3c2.5,0,4.6-2.1,4.6-4.6v-56c0-2.5-2-4.5-4.5-4.5L277.9,124.1
				C277.9,124.1,277.9,124.1,277.9,124.1z"/>
		</g>
		<g>
			<rect x="300.6" y="159.7" class="st2" width="86.4" height="1.4"/>
			<rect x="283.7" y="167.8" class="st2" width="103.2" height="1.4"/>
			<rect x="283.7" y="175.8" class="st2" width="70.8" height="1.4"/>
		</g>
		<g>
			<g>
				<g>
					<path class="st8" d="M301.8,139.6l-3,2.7l-0.9,0.8c-0.1,0.1-0.1,0.2-0.1,0.3l0.1,1.4l0.2,3.9c0,0.3-0.3,0.5-0.5,0.4l-1.1-0.6
						l-1.6-0.9l-1.2-0.6l1.2,0.6l1.6,0.9l0.2,0.1c0.2,0.1,0.5-0.1,0.5-0.4L297,147l0,0l-0.3-3.6c0-0.1,0-0.2,0.1-0.3l2.6-2.3
						l1.4-1.2c0.2-0.2,0.1-0.5-0.1-0.6l-0.5-0.1l-1.5-0.2l-2.9-0.4c-0.1,0-0.2-0.1-0.2-0.2l-0.6-1.5l0,0l-0.3-0.7l-0.4-0.9h0
						l-0.2-0.4v0l-0.2-0.6l-0.2-0.5c0-0.1-0.1-0.2-0.2-0.2l0.9,0.1l0.1,0l0,0l0.1,0.1l0.4,1.1l0.1,0.2l0.2,0.4l1.2,2.9
						c0,0.1,0.1,0.2,0.2,0.2l1.9,0.3l1.5,0.2l1.5,0.2C301.9,139.1,302,139.4,301.8,139.6z"/>
					<path class="st9" d="M301.8,139.6l-3,2.7l-0.9,0.8c-0.1,0.1-0.1,0.2-0.1,0.3l0.1,1.4l0.2,3.9c0,0.3-0.3,0.5-0.5,0.4l-1.1-0.6
						l-1.6-0.9l-1.2-0.6l1.2,0.6l1.6,0.9l0.2,0.1c0.2,0.1,0.5-0.1,0.5-0.4L297,147l0,0l-0.3-3.6c0-0.1,0-0.2,0.1-0.3l2.6-2.3
						l1.4-1.2c0.2-0.2,0.1-0.5-0.1-0.6l-0.5-0.1l-1.5-0.2l-2.9-0.4c-0.1,0-0.2-0.1-0.2-0.2l-0.6-1.5l0,0l-0.3-0.7l-0.4-0.9h0
						l-0.2-0.4v0l-0.2-0.6l-0.2-0.5c0-0.1-0.1-0.2-0.2-0.2l0.9,0.1l0.1,0l0,0l0.1,0.1l0.4,1.1l0.1,0.2l0.2,0.4l1.2,2.9
						c0,0.1,0.1,0.2,0.2,0.2l1.9,0.3l1.5,0.2l1.5,0.2C301.9,139.1,302,139.4,301.8,139.6z"/>
					<polygon class="st10" points="294.4,133.4 294.4,133.4 294.4,133.4 					"/>
					<path class="st10" d="M294.6,133.5l-0.2-0.2C294.5,133.4,294.5,133.4,294.6,133.5z"/>
					<path class="st10" d="M294.3,133.3c0,0,0.1,0,0.1,0L294.3,133.3z"/>
					<path class="st8" d="M292.9,146.7l-2.5,1.3v0l-1.2,0.6l-0.7,0.4c0,0,0,0,0,0c-0.1,0-0.2,0-0.3,0l0,0l-1-0.2l0,0
						c0,0,0.1,0,0.1,0l0.6-0.3l1-0.5l0.5-0.3l0.3-0.1l1.1-0.6l1.2-0.6c0.1-0.1,0.2-0.1,0.3,0L292.9,146.7z"/>
					<path class="st9" d="M292.9,146.7l-2.5,1.3v0l-1.2,0.6l-0.7,0.4c0,0,0,0,0,0c-0.1,0-0.2,0-0.3,0l0,0l-1-0.2l0,0
						c0,0,0.1,0,0.1,0l0.6-0.3l1-0.5l0.5-0.3l0.3-0.1l1.1-0.6l1.2-0.6c0.1-0.1,0.2-0.1,0.3,0L292.9,146.7z"/>
					<path class="st10" d="M294.1,134.9l-0.5-0.9l-0.4-0.8h0l0.1,0c0.1,0,0.2,0.1,0.2,0.2l0.2,0.5L294.1,134.9z"/>
					<path class="st10" d="M289.3,147.7l-1.6,0.8l-0.6,0.3c-0.1,0-0.1,0-0.1,0l1-1.9l0.1,0.1L289.3,147.7z"/>
					<path class="st8" d="M300.8,139.5l-1.4,1.2v0l-2.6,2.3c-0.1,0.1-0.1,0.2-0.1,0.3l0.3,3.6l0,0l0.1,1.4c0,0.3-0.3,0.5-0.5,0.4
						l-0.2-0.1l-1.6-0.9l-1.2-0.6l0,0l-0.7-0.4l-0.6-0.3c-0.1-0.1-0.2-0.1-0.3,0l-1.2,0.6l-1.1,0.6l-0.3,0.1l-0.5,0.3l-1,0.5
						l-0.6,0.3c-0.1,0-0.1,0-0.1,0c-0.2,0-0.4-0.2-0.3-0.4l0.1-0.3l1.2-4.7c0-0.1,0-0.2-0.1-0.3l-3.4-3.6c-0.2-0.2,0-0.5,0.2-0.6
						l5.1-0.7c0.1,0,0.2-0.1,0.3-0.2l2.7-4.6c0,0,0-0.1,0.1-0.1c0.1,0,0.1-0.1,0.2-0.1c0,0,0.1,0,0.1,0h0c0,0,0,0,0.1,0c0,0,0,0,0,0
						c0.1,0,0.2,0.1,0.2,0.2l0.2,0.5l0.2,0.6l0.2,0.4h0l0.4,0.9l0.3,0.7l0,0l0.6,1.5c0,0.1,0.1,0.2,0.2,0.2l2.9,0.4l1.5,0.2l0.5,0.1
						C300.9,138.9,301,139.3,300.8,139.5z"/>
				</g>
				<path class="st11" d="M294,134.5L294,134.5l-5,13l-0.2,0.5l-1,0.5l-0.6,0.3c-0.1,0-0.1,0-0.1,0c-0.2,0-0.4-0.2-0.3-0.4l0.1-0.3
					l6.2-14.8c0.1,0,0.1-0.1,0.2-0.1l0.1,0l0,0h0c0,0,0,0,0,0c0.1,0,0.2,0.1,0.2,0.2l0.2,0.5L294,134.5z"/>
				<polygon class="st12" points="294.8,136.5 294.8,136.5 290.7,147 289.6,147.6 294.5,135.8 				"/>
				<path class="st13" d="M300.1,138.8L300.1,138.8l-0.7,1.9v0l-2.6,2.3c-0.1,0.1-0.1,0.2-0.1,0.3l0.3,3.6l0,0l-0.6,1.6l0,0
					l-1.6-0.9l0,0l3.8-9.2l0,0L300.1,138.8z"/>
			</g>
			<g>
				<g>
					<path class="st8" d="M322.2,139.6l-3,2.7l-0.9,0.8c-0.1,0.1-0.1,0.2-0.1,0.3l0.1,1.4l0.2,3.9c0,0.3-0.3,0.5-0.5,0.4l-1.1-0.6
						l-1.6-0.9l-1.2-0.6l1.2,0.6l1.6,0.9l0.2,0.1c0.2,0.1,0.5-0.1,0.5-0.4l-0.1-1.4v0l-0.3-3.6c0-0.1,0-0.2,0.1-0.3l2.6-2.3l1.4-1.2
						c0.2-0.2,0.1-0.5-0.1-0.6l-0.5-0.1l-1.5-0.2l-2.9-0.4c-0.1,0-0.2-0.1-0.2-0.2l-0.6-1.5v0l-0.3-0.7l-0.4-0.9h0l-0.2-0.4v0
						l-0.2-0.6l-0.2-0.5c0-0.1-0.1-0.2-0.2-0.2l0.9,0.1l0.1,0l0,0l0.1,0.1l0.4,1.1l0.1,0.2l0.2,0.4l1.2,2.9c0,0.1,0.1,0.2,0.2,0.2
						l1.9,0.3l1.5,0.2l1.5,0.2C322.3,139.1,322.4,139.4,322.2,139.6z"/>
					<path class="st9" d="M322.2,139.6l-3,2.7l-0.9,0.8c-0.1,0.1-0.1,0.2-0.1,0.3l0.1,1.4l0.2,3.9c0,0.3-0.3,0.5-0.5,0.4l-1.1-0.6
						l-1.6-0.9l-1.2-0.6l1.2,0.6l1.6,0.9l0.2,0.1c0.2,0.1,0.5-0.1,0.5-0.4l-0.1-1.4v0l-0.3-3.6c0-0.1,0-0.2,0.1-0.3l2.6-2.3l1.4-1.2
						c0.2-0.2,0.1-0.5-0.1-0.6l-0.5-0.1l-1.5-0.2l-2.9-0.4c-0.1,0-0.2-0.1-0.2-0.2l-0.6-1.5v0l-0.3-0.7l-0.4-0.9h0l-0.2-0.4v0
						l-0.2-0.6l-0.2-0.5c0-0.1-0.1-0.2-0.2-0.2l0.9,0.1l0.1,0l0,0l0.1,0.1l0.4,1.1l0.1,0.2l0.2,0.4l1.2,2.9c0,0.1,0.1,0.2,0.2,0.2
						l1.9,0.3l1.5,0.2l1.5,0.2C322.3,139.1,322.4,139.4,322.2,139.6z"/>
					<polygon class="st10" points="314.8,133.4 314.8,133.4 314.8,133.4 					"/>
					<path class="st10" d="M315,133.5l-0.2-0.2C314.9,133.4,314.9,133.4,315,133.5z"/>
					<path class="st10" d="M314.6,133.3c0,0,0.1,0,0.1,0L314.6,133.3z"/>
					<path class="st8" d="M313.3,146.7l-2.5,1.3v0l-1.2,0.6l-0.7,0.4c0,0,0,0,0,0c-0.1,0-0.2,0-0.3,0l0,0l-1-0.2l0,0
						c0,0,0.1,0,0.1,0l0.6-0.3l1-0.5l0.5-0.3l0.3-0.1l1.1-0.6l1.2-0.6c0.1-0.1,0.2-0.1,0.3,0L313.3,146.7z"/>
					<path class="st9" d="M313.3,146.7l-2.5,1.3v0l-1.2,0.6l-0.7,0.4c0,0,0,0,0,0c-0.1,0-0.2,0-0.3,0l0,0l-1-0.2l0,0
						c0,0,0.1,0,0.1,0l0.6-0.3l1-0.5l0.5-0.3l0.3-0.1l1.1-0.6l1.2-0.6c0.1-0.1,0.2-0.1,0.3,0L313.3,146.7z"/>
					<path class="st10" d="M314.5,134.9l-0.5-0.9l-0.4-0.8h0l0.1,0c0.1,0,0.2,0.1,0.2,0.2l0.2,0.5L314.5,134.9z"/>
					<path class="st10" d="M309.7,147.7l-1.6,0.8l-0.6,0.3c-0.1,0-0.1,0-0.1,0l1-1.9l0.1,0.1L309.7,147.7z"/>
					<path class="st8" d="M321.2,139.5l-1.4,1.2l0,0l-2.6,2.3c-0.1,0.1-0.1,0.2-0.1,0.3l0.3,3.6v0l0.1,1.4c0,0.3-0.3,0.5-0.5,0.4
						l-0.2-0.1l-1.6-0.9l-1.2-0.6l0,0l-0.7-0.4l-0.6-0.3c-0.1-0.1-0.2-0.1-0.3,0l-1.2,0.6l-1.1,0.6l-0.3,0.1l-0.5,0.3l-1,0.5
						l-0.6,0.3c-0.1,0-0.1,0-0.1,0c-0.2,0-0.4-0.2-0.3-0.4l0.1-0.3l1.2-4.7c0-0.1,0-0.2-0.1-0.3l-3.4-3.6c-0.2-0.2,0-0.5,0.2-0.6
						l5.1-0.7c0.1,0,0.2-0.1,0.3-0.2l2.7-4.6c0,0,0-0.1,0.1-0.1c0.1,0,0.1-0.1,0.2-0.1c0,0,0.1,0,0.1,0h0c0,0,0,0,0.1,0c0,0,0,0,0,0
						c0.1,0,0.2,0.1,0.2,0.2l0.2,0.5l0.2,0.6l0.2,0.4h0l0.4,0.9l0.3,0.7v0l0.6,1.5c0,0.1,0.1,0.2,0.2,0.2l2.9,0.4l1.5,0.2l0.5,0.1
						C321.3,138.9,321.4,139.3,321.2,139.5z"/>
				</g>
				<path class="st11" d="M314.4,134.5L314.4,134.5l-5,13l-0.2,0.5l-1,0.5l-0.6,0.3c-0.1,0-0.1,0-0.1,0c-0.2,0-0.4-0.2-0.3-0.4
					l0.1-0.3l6.2-14.8c0.1,0,0.1-0.1,0.2-0.1l0.1,0l0,0h0c0,0,0,0,0,0c0.1,0,0.2,0.1,0.2,0.2l0.2,0.5L314.4,134.5z"/>
				<polygon class="st12" points="315.2,136.5 315.2,136.5 311.1,147 310,147.6 314.9,135.8 				"/>
				<path class="st13" d="M320.5,138.8L320.5,138.8l-0.7,1.9l0,0l-2.6,2.3c-0.1,0.1-0.1,0.2-0.1,0.3l0.3,3.6v0l-0.6,1.6l0,0
					l-1.6-0.9l0,0l3.8-9.2l0,0L320.5,138.8z"/>
			</g>
			<g>
				<g>
					<path class="st8" d="M342.6,139.6l-3,2.7l-0.9,0.8c-0.1,0.1-0.1,0.2-0.1,0.3l0.1,1.4l0.2,3.9c0,0.3-0.3,0.5-0.5,0.4l-1.1-0.6
						l-1.6-0.9l-1.2-0.6l1.2,0.6l1.6,0.9l0.2,0.1c0.2,0.1,0.5-0.1,0.5-0.4l-0.1-1.4v0l-0.3-3.6c0-0.1,0-0.2,0.1-0.3l2.6-2.3l1.4-1.2
						c0.2-0.2,0.1-0.5-0.1-0.6l-0.5-0.1l-1.5-0.2l-2.9-0.4c-0.1,0-0.2-0.1-0.2-0.2l-0.6-1.5v0l-0.3-0.7l-0.4-0.9h0l-0.2-0.4l0,0
						l-0.2-0.6l-0.2-0.5c0-0.1-0.1-0.2-0.2-0.2l0.9,0.1l0.1,0l0,0l0.1,0.1l0.4,1.1l0.1,0.2l0.2,0.4l1.2,2.9c0,0.1,0.1,0.2,0.2,0.2
						l1.9,0.3l1.5,0.2l1.5,0.2C342.7,139.1,342.8,139.4,342.6,139.6z"/>
					<path class="st9" d="M342.6,139.6l-3,2.7l-0.9,0.8c-0.1,0.1-0.1,0.2-0.1,0.3l0.1,1.4l0.2,3.9c0,0.3-0.3,0.5-0.5,0.4l-1.1-0.6
						l-1.6-0.9l-1.2-0.6l1.2,0.6l1.6,0.9l0.2,0.1c0.2,0.1,0.5-0.1,0.5-0.4l-0.1-1.4v0l-0.3-3.6c0-0.1,0-0.2,0.1-0.3l2.6-2.3l1.4-1.2
						c0.2-0.2,0.1-0.5-0.1-0.6l-0.5-0.1l-1.5-0.2l-2.9-0.4c-0.1,0-0.2-0.1-0.2-0.2l-0.6-1.5v0l-0.3-0.7l-0.4-0.9h0l-0.2-0.4l0,0
						l-0.2-0.6l-0.2-0.5c0-0.1-0.1-0.2-0.2-0.2l0.9,0.1l0.1,0l0,0l0.1,0.1l0.4,1.1l0.1,0.2l0.2,0.4l1.2,2.9c0,0.1,0.1,0.2,0.2,0.2
						l1.9,0.3l1.5,0.2l1.5,0.2C342.7,139.1,342.8,139.4,342.6,139.6z"/>
					<polygon class="st10" points="335.2,133.4 335.2,133.4 335.2,133.4 					"/>
					<path class="st10" d="M335.3,133.5l-0.2-0.2C335.2,133.4,335.3,133.4,335.3,133.5z"/>
					<path class="st10" d="M335,133.3c0,0,0.1,0,0.1,0L335,133.3z"/>
					<path class="st8" d="M333.7,146.7l-2.5,1.3l0,0l-1.2,0.6l-0.7,0.4c0,0,0,0,0,0c-0.1,0-0.2,0-0.3,0l0,0l-1-0.2l0,0
						c0,0,0.1,0,0.1,0l0.6-0.3l1-0.5l0.5-0.3l0.3-0.1l1.1-0.6l1.2-0.6c0.1-0.1,0.2-0.1,0.3,0L333.7,146.7z"/>
					<path class="st9" d="M333.7,146.7l-2.5,1.3l0,0l-1.2,0.6l-0.7,0.4c0,0,0,0,0,0c-0.1,0-0.2,0-0.3,0l0,0l-1-0.2l0,0
						c0,0,0.1,0,0.1,0l0.6-0.3l1-0.5l0.5-0.3l0.3-0.1l1.1-0.6l1.2-0.6c0.1-0.1,0.2-0.1,0.3,0L333.7,146.7z"/>
					<path class="st10" d="M334.9,134.9l-0.5-0.9l-0.4-0.8h0l0.1,0c0.1,0,0.2,0.1,0.2,0.2l0.2,0.5L334.9,134.9z"/>
					<path class="st10" d="M330.1,147.7l-1.6,0.8l-0.6,0.3c-0.1,0-0.1,0-0.1,0l1-1.9l0.1,0.1L330.1,147.7z"/>
					<path class="st8" d="M341.6,139.5l-1.4,1.2v0l-2.6,2.3c-0.1,0.1-0.1,0.2-0.1,0.3l0.3,3.6v0l0.1,1.4c0,0.3-0.3,0.5-0.5,0.4
						l-0.2-0.1l-1.6-0.9l-1.2-0.6l0,0l-0.7-0.4l-0.6-0.3c-0.1-0.1-0.2-0.1-0.3,0l-1.2,0.6l-1.1,0.6l-0.3,0.1l-0.5,0.3l-1,0.5
						l-0.6,0.3c-0.1,0-0.1,0-0.1,0c-0.2,0-0.4-0.2-0.3-0.4l0.1-0.3l1.2-4.7c0-0.1,0-0.2-0.1-0.3l-3.4-3.6c-0.2-0.2,0-0.5,0.2-0.6
						l5.1-0.7c0.1,0,0.2-0.1,0.3-0.2l2.7-4.6c0,0,0-0.1,0.1-0.1c0.1,0,0.1-0.1,0.2-0.1c0,0,0.1,0,0.1,0h0c0,0,0,0,0.1,0c0,0,0,0,0,0
						c0.1,0,0.2,0.1,0.2,0.2l0.2,0.5l0.2,0.6l0.2,0.4h0l0.4,0.9l0.3,0.7v0l0.6,1.5c0,0.1,0.1,0.2,0.2,0.2l2.9,0.4l1.5,0.2l0.5,0.1
						C341.7,138.9,341.8,139.3,341.6,139.5z"/>
				</g>
				<path class="st11" d="M334.8,134.5L334.8,134.5l-5,13l-0.2,0.5l-1,0.5l-0.6,0.3c-0.1,0-0.1,0-0.1,0c-0.2,0-0.4-0.2-0.3-0.4
					l0.1-0.3l6.2-14.8c0.1,0,0.1-0.1,0.2-0.1l0.1,0l0,0h0c0,0,0,0,0,0c0.1,0,0.2,0.1,0.2,0.2l0.2,0.5L334.8,134.5z"/>
				<polygon class="st12" points="335.6,136.5 335.6,136.5 331.5,147 330.4,147.6 335.3,135.8 				"/>
				<path class="st13" d="M340.9,138.8L340.9,138.8l-0.7,1.9v0l-2.6,2.3c-0.1,0.1-0.1,0.2-0.1,0.3l0.3,3.6v0l-0.6,1.6l0,0l-1.6-0.9
					l0,0l3.8-9.2l0,0L340.9,138.8z"/>
			</g>
			<g>
				<g>
					<path class="st8" d="M363,139.6l-3,2.7l-0.9,0.8c-0.1,0.1-0.1,0.2-0.1,0.3l0.1,1.4l0.2,3.9c0,0.3-0.3,0.5-0.5,0.4l-1.1-0.6
						l-1.6-0.9l-1.2-0.6l1.2,0.6l1.6,0.9l0.2,0.1c0.2,0.1,0.5-0.1,0.5-0.4l-0.1-1.4l0,0l-0.3-3.6c0-0.1,0-0.2,0.1-0.3l2.6-2.3
						l1.4-1.2c0.2-0.2,0.1-0.5-0.1-0.6l-0.5-0.1l-1.5-0.2l-2.9-0.4c-0.1,0-0.2-0.1-0.2-0.2l-0.6-1.5l0,0l-0.3-0.7l-0.4-0.9h0
						l-0.2-0.4v0l-0.2-0.6l-0.2-0.5c0-0.1-0.1-0.2-0.2-0.2l0.9,0.1l0.1,0l0,0l0.1,0.1l0.4,1.1l0.1,0.2l0.2,0.4l1.2,2.9
						c0,0.1,0.1,0.2,0.2,0.2l1.9,0.3l1.5,0.2l1.5,0.2C363.1,139.1,363.2,139.4,363,139.6z"/>
					<path class="st9" d="M363,139.6l-3,2.7l-0.9,0.8c-0.1,0.1-0.1,0.2-0.1,0.3l0.1,1.4l0.2,3.9c0,0.3-0.3,0.5-0.5,0.4l-1.1-0.6
						l-1.6-0.9l-1.2-0.6l1.2,0.6l1.6,0.9l0.2,0.1c0.2,0.1,0.5-0.1,0.5-0.4l-0.1-1.4l0,0l-0.3-3.6c0-0.1,0-0.2,0.1-0.3l2.6-2.3
						l1.4-1.2c0.2-0.2,0.1-0.5-0.1-0.6l-0.5-0.1l-1.5-0.2l-2.9-0.4c-0.1,0-0.2-0.1-0.2-0.2l-0.6-1.5l0,0l-0.3-0.7l-0.4-0.9h0
						l-0.2-0.4v0l-0.2-0.6l-0.2-0.5c0-0.1-0.1-0.2-0.2-0.2l0.9,0.1l0.1,0l0,0l0.1,0.1l0.4,1.1l0.1,0.2l0.2,0.4l1.2,2.9
						c0,0.1,0.1,0.2,0.2,0.2l1.9,0.3l1.5,0.2l1.5,0.2C363.1,139.1,363.2,139.4,363,139.6z"/>
					<polygon class="st10" points="355.6,133.4 355.6,133.4 355.6,133.4 					"/>
					<path class="st10" d="M355.7,133.5l-0.2-0.2C355.6,133.4,355.7,133.4,355.7,133.5z"/>
					<path class="st10" d="M355.4,133.3c0,0,0.1,0,0.1,0L355.4,133.3z"/>
					<path class="st8" d="M354,146.7l-2.5,1.3v0l-1.2,0.6l-0.7,0.4c0,0,0,0,0,0c-0.1,0-0.2,0-0.3,0l0,0l-1-0.2l0,0c0,0,0.1,0,0.1,0
						l0.6-0.3l1-0.5l0.5-0.3l0.3-0.1l1.1-0.6l1.2-0.6c0.1-0.1,0.2-0.1,0.3,0L354,146.7z"/>
					<path class="st9" d="M354,146.7l-2.5,1.3v0l-1.2,0.6l-0.7,0.4c0,0,0,0,0,0c-0.1,0-0.2,0-0.3,0l0,0l-1-0.2l0,0c0,0,0.1,0,0.1,0
						l0.6-0.3l1-0.5l0.5-0.3l0.3-0.1l1.1-0.6l1.2-0.6c0.1-0.1,0.2-0.1,0.3,0L354,146.7z"/>
					<path class="st10" d="M355.3,134.9l-0.5-0.9l-0.4-0.8h0l0.1,0c0.1,0,0.2,0.1,0.2,0.2l0.2,0.5L355.3,134.9z"/>
					<path class="st10" d="M350.5,147.7l-1.6,0.8l-0.6,0.3c-0.1,0-0.1,0-0.1,0l1-1.9l0.1,0.1L350.5,147.7z"/>
					<path class="st8" d="M362,139.5l-1.4,1.2v0l-2.6,2.3c-0.1,0.1-0.1,0.2-0.1,0.3l0.3,3.6l0,0l0.1,1.4c0,0.3-0.3,0.5-0.5,0.4
						l-0.2-0.1l-1.6-0.9l-1.2-0.6l0,0l-0.7-0.4l-0.6-0.3c-0.1-0.1-0.2-0.1-0.3,0l-1.2,0.6l-1.1,0.6l-0.3,0.1L350,148l-1,0.5
						l-0.6,0.3c-0.1,0-0.1,0-0.1,0c-0.2,0-0.4-0.2-0.3-0.4l0.1-0.3l1.2-4.7c0-0.1,0-0.2-0.1-0.3l-3.4-3.6c-0.2-0.2,0-0.5,0.2-0.6
						l5.1-0.7c0.1,0,0.2-0.1,0.3-0.2l2.7-4.6c0,0,0-0.1,0.1-0.1c0.1,0,0.1-0.1,0.2-0.1c0,0,0.1,0,0.1,0h0c0,0,0,0,0.1,0c0,0,0,0,0,0
						c0.1,0,0.2,0.1,0.2,0.2l0.2,0.5l0.2,0.6l0.2,0.4h0l0.4,0.9l0.3,0.7l0,0l0.6,1.5c0,0.1,0.1,0.2,0.2,0.2l2.9,0.4l1.5,0.2l0.5,0.1
						C362.1,138.9,362.2,139.3,362,139.5z"/>
				</g>
				<path class="st11" d="M355.2,134.5L355.2,134.5l-5,13L350,148l-1,0.5l-0.6,0.3c-0.1,0-0.1,0-0.1,0c-0.2,0-0.4-0.2-0.3-0.4
					l0.1-0.3l6.2-14.8c0.1,0,0.1-0.1,0.2-0.1l0.1,0l0,0h0c0,0,0,0,0,0c0.1,0,0.2,0.1,0.2,0.2l0.2,0.5L355.2,134.5z"/>
				<polygon class="st12" points="356,136.5 356,136.5 351.9,147 350.8,147.6 355.7,135.8 				"/>
				<path class="st13" d="M361.3,138.8L361.3,138.8l-0.7,1.9v0l-2.6,2.3c-0.1,0.1-0.1,0.2-0.1,0.3l0.3,3.6l0,0l-0.6,1.6l0,0
					l-1.6-0.9l0,0l3.8-9.2l0,0L361.3,138.8z"/>
			</g>
			<g>
				<g>
					<path class="st8" d="M383.4,139.6l-3,2.7l-0.9,0.8c-0.1,0.1-0.1,0.2-0.1,0.3l0.1,1.4l0.2,3.9c0,0.3-0.3,0.5-0.5,0.4l-1.1-0.6
						l-1.6-0.9l-1.2-0.6l1.2,0.6l1.6,0.9l0.2,0.1c0.2,0.1,0.5-0.1,0.5-0.4l-0.1-1.4v0l-0.3-3.6c0-0.1,0-0.2,0.1-0.3l2.6-2.3l1.4-1.2
						c0.2-0.2,0.1-0.5-0.1-0.6l-0.5-0.1l-1.5-0.2l-2.9-0.4c-0.1,0-0.2-0.1-0.2-0.2l-0.6-1.5v0l-0.3-0.7l-0.4-0.9h0l-0.1-0.4v0
						l-0.2-0.6l-0.2-0.5c0-0.1-0.1-0.2-0.2-0.2l0.9,0.1l0.1,0l0,0l0.1,0.1l0.4,1.1l0.1,0.2l0.2,0.4l1.2,2.9c0,0.1,0.1,0.2,0.2,0.2
						l1.9,0.3l1.5,0.2l1.5,0.2C383.5,139.1,383.6,139.4,383.4,139.6z"/>
					<path class="st9" d="M383.4,139.6l-3,2.7l-0.9,0.8c-0.1,0.1-0.1,0.2-0.1,0.3l0.1,1.4l0.2,3.9c0,0.3-0.3,0.5-0.5,0.4l-1.1-0.6
						l-1.6-0.9l-1.2-0.6l1.2,0.6l1.6,0.9l0.2,0.1c0.2,0.1,0.5-0.1,0.5-0.4l-0.1-1.4v0l-0.3-3.6c0-0.1,0-0.2,0.1-0.3l2.6-2.3l1.4-1.2
						c0.2-0.2,0.1-0.5-0.1-0.6l-0.5-0.1l-1.5-0.2l-2.9-0.4c-0.1,0-0.2-0.1-0.2-0.2l-0.6-1.5v0l-0.3-0.7l-0.4-0.9h0l-0.1-0.4v0
						l-0.2-0.6l-0.2-0.5c0-0.1-0.1-0.2-0.2-0.2l0.9,0.1l0.1,0l0,0l0.1,0.1l0.4,1.1l0.1,0.2l0.2,0.4l1.2,2.9c0,0.1,0.1,0.2,0.2,0.2
						l1.9,0.3l1.5,0.2l1.5,0.2C383.5,139.1,383.6,139.4,383.4,139.6z"/>
					<polygon class="st10" points="376,133.4 376,133.4 376,133.4 					"/>
					<path class="st10" d="M376.1,133.5l-0.2-0.2C376,133.4,376.1,133.4,376.1,133.5z"/>
					<path class="st10" d="M375.8,133.3c0,0,0.1,0,0.1,0L375.8,133.3z"/>
					<path class="st8" d="M374.4,146.7l-2.5,1.3v0l-1.2,0.6l-0.7,0.4c0,0,0,0,0,0c-0.1,0-0.2,0-0.3,0l0,0l-1-0.2l0,0
						c0,0,0.1,0,0.1,0l0.6-0.3l1-0.5l0.5-0.3l0.3-0.1l1.1-0.6l1.2-0.6c0.1-0.1,0.2-0.1,0.3,0L374.4,146.7z"/>
					<path class="st9" d="M374.4,146.7l-2.5,1.3v0l-1.2,0.6l-0.7,0.4c0,0,0,0,0,0c-0.1,0-0.2,0-0.3,0l0,0l-1-0.2l0,0
						c0,0,0.1,0,0.1,0l0.6-0.3l1-0.5l0.5-0.3l0.3-0.1l1.1-0.6l1.2-0.6c0.1-0.1,0.2-0.1,0.3,0L374.4,146.7z"/>
					<path class="st10" d="M375.7,134.9l-0.5-0.9l-0.4-0.8h0l0.1,0c0.1,0,0.2,0.1,0.2,0.2l0.2,0.5L375.7,134.9z"/>
					<path class="st10" d="M370.9,147.7l-1.6,0.8l-0.6,0.3c-0.1,0-0.1,0-0.1,0l1-1.9l0.1,0.1L370.9,147.7z"/>
					<path class="st8" d="M382.4,139.5l-1.4,1.2l0,0l-2.6,2.3c-0.1,0.1-0.1,0.2-0.1,0.3l0.3,3.6v0l0.1,1.4c0,0.3-0.3,0.5-0.5,0.4
						l-0.2-0.1l-1.6-0.9l-1.2-0.6l0,0l-0.7-0.4l-0.6-0.3c-0.1-0.1-0.2-0.1-0.3,0l-1.2,0.6l-1.1,0.6l-0.3,0.1l-0.5,0.3l-1,0.5
						l-0.6,0.3c-0.1,0-0.1,0-0.1,0c-0.2,0-0.4-0.2-0.3-0.4l0.1-0.3l1.2-4.7c0-0.1,0-0.2-0.1-0.3l-3.4-3.6c-0.2-0.2,0-0.5,0.2-0.6
						l5.1-0.7c0.1,0,0.2-0.1,0.3-0.2l2.7-4.6c0,0,0-0.1,0.1-0.1c0.1,0,0.1-0.1,0.2-0.1c0,0,0.1,0,0.1,0h0c0,0,0,0,0.1,0c0,0,0,0,0,0
						c0.1,0,0.2,0.1,0.2,0.2l0.2,0.5l0.2,0.6l0.1,0.4h0l0.4,0.9l0.3,0.7v0l0.6,1.5c0,0.1,0.1,0.2,0.2,0.2l2.9,0.4l1.5,0.2l0.5,0.1
						C382.5,138.9,382.6,139.3,382.4,139.5z"/>
				</g>
				<path class="st11" d="M375.6,134.5L375.6,134.5l-5,13l-0.2,0.5l-1,0.5l-0.6,0.3c-0.1,0-0.1,0-0.1,0c-0.2,0-0.4-0.2-0.3-0.4
					l0.1-0.3l6.2-14.8c0.1,0,0.1-0.1,0.2-0.1l0.1,0l0,0h0c0,0,0,0,0,0c0.1,0,0.2,0.1,0.2,0.2l0.2,0.5L375.6,134.5z"/>
				<polygon class="st12" points="376.4,136.5 376.4,136.5 372.3,147 371.2,147.6 376.1,135.8 				"/>
				<path class="st13" d="M381.7,138.8L381.7,138.8l-0.7,1.9l0,0l-2.6,2.3c-0.1,0.1-0.1,0.2-0.1,0.3l0.3,3.6v0l-0.6,1.6l0,0
					l-1.6-0.9l0,0l3.8-9.2l0,0L381.7,138.8z"/>
			</g>
		</g>
	</g>
	<g>
		<g>
			<g>
				<g>
					<g>
						<path class="st15" d="M514.1,511l-2.1,8.5c0,0-20.6-6.2-27.6,11.1c-6.9,17.3,11.1,54.3,66,41.5c0,0,14.8,4,27.5,0.8
							c18.8-4.7,42.7-15.7,45.2-33.2c4.3-29.2-53.7-18.8-53.7-18.8l-2.2-5.5L514.1,511z"/>
						<path class="st20" d="M521.4,523.3c0,0,13,6.6,17.7,17.6l5.6,2.1C544.7,543,541.4,527.9,521.4,523.3z"/>
						<path class="st15" d="M563.5,551.1c0,0,0.4-18.7,19-33h14.4L569,554.6L563.5,551.1z"/>
						<path class="st15" d="M483.9,532.1c0,0-5.2,15,14.8,31.8c19.9,16.8,30.7-5.5,30.7-5.5l1.6-8.5l-13.6-12.2L500.1,526l-9.5,1.1
							L483.9,532.1z"/>
						<path class="st21" d="M483.8,534.2c0,0,1.7,20.6,22.3,30.5c17.1,8.2,21.5-14.9,21.5-14.9L496,529.2l-11.7,1.5L483.8,534.2z"/>
						<path class="st22" d="M483.8,534.2c0,0,1.7,20.6,22.3,30.5c17.1,8.2,21.5-14.9,21.5-14.9L496,529.2l-11.7,1.5L483.8,534.2z"/>
						<path class="st19" d="M620.4,589c-5.4-9.1-11.1-11.8-16.2-14c-0.7-0.4-1.3-0.9-1.8-1.6c-0.2-0.3-0.3-0.5-0.4-0.8l-3.5-11.5
							c-0.1-0.2-0.1-0.4-0.1-0.6c0-0.3,0.2-0.6,0.4-0.8l9.9-5.7c0.9-0.6,2-0.5,2.7,0.4c0.1,0.1,0.2,0.2,0.2,0.4
							c2,4.8,3.6,9.1,6.2,15c3.1,7,3.1,4.8,6.8,13C626.8,587.6,621.6,590.9,620.4,589z"/>
						<path class="st22" d="M585.2,520.2c0,0,49.6-10.8,57.6,5c7.9,15.8-20.2,26.3-30.2,29.8c-17.5,6.2-78,25.2-78,25.2l3.9-12.3
							l28.9-16.4C567.4,551.4,568.7,534.8,585.2,520.2z"/>
						<path class="st19" d="M538.6,578.6l4.3-13c0.2-0.5,0-1-0.5-1.3l-9.8-5.9c-0.9-0.5-2-0.2-2.5,0.6c-0.1,0.1-0.1,0.2-0.2,0.4
							c-1.5,4.7-2.6,9-4.5,14.8c-2.3,6.9-2.5,4.9-5.3,13c-1.7,4.9,3.6,7.6,4.5,5.6c4.3-9.1,7.5-9.1,12.1-11.7
							C537.6,580.5,538.3,579.6,538.6,578.6z"/>
						<path class="st20" d="M607.5,524.7c-0.5-1.8-28,15.7-36.6,14.6c-1.4,3.1-2.2,5.8-2.7,7.8l0,0c-0.1,0.5-0.2,1-0.3,1.4
							c0,0.1,0,0.1,0,0.2c0,0.2-0.1,0.3-0.1,0.5c0,0.1,0,0.2,0,0.3s0,0.2-0.1,0.4c0,0.1,0,0.2,0,0.2c0,0.1,0,0.2,0,0.3s0,0.1,0,0.2
							c0,0.1,0,0.1,0,0.2c0,0.1,0,0.1,0,0.2v0.1c0,0.1,0,0.1,0,0.1s0,0,0,0.1l0,0l0,0l-27.1,15.4l21.2,4.8
							c12.7-4,27.4-8.7,38.5-12.4l-28.1-10.6C582.4,542.1,607.9,526.3,607.5,524.7z"/>
						<path class="st22" d="M602.4,573.4c-15.4-1.9-44.5-5.7-54.6-7.9c-18.1-3.9-77.9-19.3-62.7-39.6c15.9-21.3,47.6,11,47.6,11
							l65.6,23.5c0,0.2,0,0.4,0.1,0.6l3.5,11.5C602.1,572.8,602.3,573.1,602.4,573.4z"/>
						<path class="st20" d="M507.5,524.9c-4.7,2.1,25.3,11.9,25.3,11.9s-5.4-5.5-12.8-10.4C515.4,524.6,510.7,523.5,507.5,524.9z"/>
					</g>
				</g>
			</g>
		</g>
		<g>
			<g>
				<path class="st22" d="M636.7,449.7l11.4-5.4l-4.5-12.4l-4.7,6.5c-1.2,1.6-2.5,3-3.9,4.4l0,0L636.7,449.7z"/>
				<path class="st22" d="M641.1,432.6l4.9,12.8l7.3-2.8c0.8-0.4,1.2-1.2,0.9-2.1l-2.2-9.9c-0.1-0.5-0.6-0.7-1.1-0.6L641.1,432.6z"
					/>
				<path class="st22" d="M645.6,437.7l-3.1,2.5l-4.6-0.6l0.7-1.6c0.5-1.1,0.6-2.3,0.2-3.5c-0.4-1.2-0.9-2.5-1.4-3.5l-0.2-0.4
					c-0.3-0.7-0.1-1.5,0.5-2c0,0,1.7-0.4,3.4,3.4l1.1,1.7l1.7-0.2L645.6,437.7z"/>
			</g>
			<path class="st22" d="M571.3,437.3l25.8,18.4l39.7-14.3l3.4,6c0,0-31.9,22.8-42.3,22.7C587.7,470,561,448,561,448L571.3,437.3z"
				/>
			<g>
				<g>
					<g>
						<g id="Character--inject-2_3_">
							<path class="st19" d="M564.7,435.9c4.2-2.7,9.5-7.1,27.6,13.8L580,463.9C568.1,459.5,556.7,444.3,564.7,435.9z"/>
							<path class="st19" d="M558.2,428.5l-12.5-3l-15.9-0.1c-5,0-9.3,3.2-10.7,8c-2.6,9.4-4.9,22.8-6.4,34.4
								c-1.8,13,0.4,27.9,0.9,45.6l56.6,2.2c-3-25.8,2.1-48.3,5.5-61.9c0.7-8.3,0.1-18.2-4.5-20.2L558.2,428.5z"/>
							<path class="st23" d="M512.7,467.9c1.2-9.1,2.9-19.4,4.8-28c10.5-2.2,16.5,20.7,13.9,32.3c-2.7,11.6-19.6,5.3-19.6,5.3
								C512,474.1,512.3,470.8,512.7,467.9z"/>
							<path class="st22" d="M549.8,405.3l5.1,7.1l6.9,9.7c-0.8,0.9-1.4,1.9-1.9,3c-1.1,2.5-2,4.3,3.2,7.5c1.1,0.7,1.8,1.9,1.6,3.2
								c-0.2,1.6-1.7,3.1-7.2,2.4c-5.3-0.8-10.2-3.3-14-7c-1.9-1.7-1.5-3.1,0.1-5.1C548.5,420.7,549.6,412.2,549.8,405.3z"/>
							<path class="st24" d="M560.1,419.7l-4.3-6.9c-0.1,0.2-0.2,0.4-0.3,0.6c-0.3,0.9-0.6,1.8-0.7,2.7c-0.6,3.2,2,7.6,4.8,9.6
								l0.3-0.6c0.4-1,1-2,1.7-2.9c0,0,0.1-0.1,0.2-0.1L560.1,419.7z"/>
							<path class="st19" d="M569.1,405.7c5.9-8.6,5.5-13.9,10.7-18.2c2.6-0.8,6.3,4.2,2.5,11.5
								C578.4,406.3,569.1,405.7,569.1,405.7z"/>
							<path class="st22" d="M551.5,393.2c-1.9,10.6-3.4,16.7,0.6,23.1c6,9.8,20.1,7.9,25.1-2c4.5-8.9,6.7-24.6-2.5-31
								c-6.8-4.6-16-2.9-20.7,3.9C552.6,389,551.8,391,551.5,393.2z"/>
							<path class="st19" d="M549,402.5l5.3,4.2l1.9-9.2l5.1-2.1l6.8-7.9c0,0-12-5.2-15.7-6.2c-1.3-0.3-6.3,2.6-7.2,4
								c-2.4,4-2.1,9,0.4,13C546.7,399.7,547.8,401.2,549,402.5z"/>
							<path class="st22" d="M545.3,400.2c0,2.4,0.9,4.7,2.5,6.5c2.1,2.3,5.1,0.3,5.7-2.7c0.5-2.7-0.5-6.7-3.1-7.9
								C547.6,394.9,545.3,397.2,545.3,400.2z"/>
							<path class="st19" d="M568.6,415.4c-2-0.6-3.7-1.9-4.7-3.8c-0.1-0.1,0-0.3,0.1-0.4s0.3,0,0.4,0.1c1.1,2,3,3.4,5.3,3.7
								c0.1,0,0.3,0.1,0.2,0.3c0,0.1-0.1,0.3-0.3,0.2l0,0C569.2,415.6,568.9,415.5,568.6,415.4z"/>
						</g>
						<g>
							<path class="st3" d="M574.3,520.5l-34.6-3.4c0,0-0.1-0.7,2.9-0.8c0.2,0,0.4,0,0.8,0c0.6-0.1,2.9-0.2,6.1-0.3
								c0.2,0,0.5,0,1-0.1c9.1-0.4,23.4-1,23.4-1l0.4,4.7L574.3,520.5z"/>
							<path class="st2" d="M574.2,519.6l-26-2.6c0,0-1-0.8,1.2-1c0.2,0,0.5,0,1-0.1c9.1-0.4,23.4-1,23.4-1L574.2,519.6z"/>
						</g>
						<g>
							<path class="st22" d="M557.9,506l5.2,1.3l-6.9,10.7c0,0-11-3.4-9-8.2l2.7-1.7C552.2,506.6,555.1,505.1,557.9,506z"/>
							<polygon class="st22" points="567.9,514.3 563,519.6 556.2,518 563.1,507.3 							"/>
							<g>
								<path class="st22" d="M527.8,462.5c-3.2,9.8-6.7,11.1-2.8,16.3c4,5.2,26.5,22.8,30.7,28c-2.4,1.8-4.7,3.6-7.1,5.4
									c-8.3-4.6-16.7-9.1-25.1-13.5c-6.1-3.2-12.7-6.7-15.9-12.9c-4.6-8.8-2-17.2,3.1-28.6C515.8,456.3,527.8,462.5,527.8,462.5z"
									/>
							</g>
						</g>
					</g>
					<path class="st19" d="M526.3,425.7c11.1-2.2,17,7.2,12.3,21.7c-2.4,7.8-5.5,15.5-9.3,22.7l-24.5-9.6
						C508.6,446.3,515,427.9,526.3,425.7z"/>
					<g>
						<g>
							<g>
								<path class="st25" d="M570.4,522.3l62.5-2.5c0.6,0,1.2-0.6,1.1-1.2l0,0c0-0.6-0.6-1.2-1.2-1.1l-62.5,2.5
									c-0.6,0-1.2,0.6-1.1,1.2l0,0C569.2,521.8,569.8,522.3,570.4,522.3z"/>
								<path class="st15" d="M540,519.2l30,3.1c0.6,0.1,1.2-0.4,1.3-1.1l0,0c0.1-0.6-0.4-1.2-1.1-1.3l-30-3.1
									c-0.6-0.1-1.2,0.4-1.3,1.1l0,0C538.9,518.6,539.4,519.1,540,519.2z"/>
								<path class="st26" d="M540,519.2l30,3.1c0.6,0.1,1.2-0.4,1.3-1.1l0,0c0.1-0.6-0.4-1.2-1.1-1.3l-30-3.1
									c-0.6-0.1-1.2,0.4-1.3,1.1l0,0C538.9,518.6,539.4,519.1,540,519.2z"/>
							</g>
							<g>
								<path class="st15" d="M572,519.9l58.3-2.4c2.1-0.1,3.8-1.8,3.9-3.9l1.4-29.6c0.1-2.1-1.5-3.7-3.6-3.6l-58.3,2.4
									c-2.1,0.1-3.8,1.8-3.9,3.9l-1.4,29.6C568.4,518.3,570,519.9,572,519.9z"/>
								<path class="st26" d="M572,519.9l58.3-2.4c2.1-0.1,3.8-1.8,3.9-3.9l1.4-29.6c0.1-2.1-1.5-3.7-3.6-3.6l-58.3,2.4
									c-2.1,0.1-3.8,1.8-3.9,3.9l-1.4,29.6C568.4,518.3,570,519.9,572,519.9z"/>
							</g>
							<g>
								<path class="st15" d="M573.8,519.7l58.3-2.4c2.1-0.1,3.8-1.8,3.9-3.9l1.4-29.6c0.1-2.1-1.5-3.7-3.6-3.6l-58.3,2.4
									c-2.1,0.1-3.8,1.8-3.9,3.9l-1.4,29.6C570.1,518.1,571.7,519.8,573.8,519.7z"/>
								<path class="st25" d="M573.8,519.7l58.3-2.4c2.1-0.1,3.8-1.8,3.9-3.9l1.4-29.6c0.1-2.1-1.5-3.7-3.6-3.6l-58.3,2.4
									c-2.1,0.1-3.8,1.8-3.9,3.9l-1.4,29.6C570.1,518.1,571.7,519.8,573.8,519.7z"/>
							</g>
						</g>
						<path class="st27" d="M611.8,501c-0.1,3.3-2.8,6.1-6.1,6.2c-3.3,0.2-5.8-2.3-5.7-5.6c0.1-3.3,2.8-6.1,6.1-6.2
							C609.3,495.2,611.9,497.7,611.8,501z"/>
					</g>
				</g>
			</g>
			<g>
				<path class="st19" d="M550.5,373.8c2.1-2.2,5.4-3,8.5-2.6s5.9,1.6,8.7,2.8c5.5,2.4,11,4.8,16.6,7.3c1.5,0.7,3.1,1.4,3.8,2.9
					c0.9,2.1-0.7,4.7-2.8,5.6s-4.6,0.6-6.8,0.2c-7.8-1.3-15.3-3.3-22.8-5.8C550.9,382.6,545.4,379.4,550.5,373.8z"/>
				<path class="st19" d="M572.5,387.9c-1.6,0.7-2.3,2.9-1.5,4.4c0-1.1,1-2,2-2.5s2-1.8,1.2-2.7
					C573.7,387.2,572.9,387.7,572.5,387.9z"/>
				<g>
					<path class="st19" d="M577,388.1c0.9,2,0.4,4.4-1.2,5.9c2.6-0.2,4.6-3.1,3.9-5.6c-0.8-0.2-1.6-0.4-2.4-0.6L577,388.1z"/>
				</g>
			</g>
		</g>
	</g>
	<g>
		<g>
			<polygon class="st22" points="316,565.8 325.4,567.9 331.9,551.2 321,546.3 			"/>
			<polygon class="st20" points="318.3,556.8 320.8,547.1 325.8,548.5 331.9,551.2 328.8,559.2 			"/>
			<g>
				<path class="st15" d="M312.9,564.9c0,0-0.4-0.4-0.9-0.8c-0.4-0.3-0.8-0.7-1.3-1c-1-0.8-2.3-1.5-3.2-1.5c-0.4,0-0.7,0.1-1,0.4
					c-0.3,0.3-0.5,0.7-0.3,1.1c0.3,0.7,1.6,1.3,3,1.7c0.3,0.1,0.6,0.1,0.9,0.2c0.8,0.2,1.7,0.3,2.6,0.4l0,0c0.1,0,0.2-0.1,0.2-0.2
					C313,565.1,313,564.9,312.9,564.9z M310.9,564.6c-1.9-0.4-3.9-1-4.1-1.7c0-0.1-0.1-0.3,0.2-0.6c0.2-0.2,0.4-0.2,0.6-0.2
					s0.4,0,0.5,0.1c1.2,0.5,2.3,1.2,3.3,2.1c0.2,0.1,0.4,0.3,0.6,0.5C311.6,564.7,311.2,564.6,310.9,564.6z"/>
				<path class="st15" d="M312.5,560.4c-0.3-0.4-0.8-0.7-1.3-0.8c-0.7-0.1-1.1,0.2-1.2,0.5c-0.3,0.6,0.1,1.8,0.8,2.9
					c0.3,0.4,0.5,0.8,0.8,1.2c0.4,0.5,0.7,0.8,1,1.1h0.1l0,0l0,0h0.1c0.1,0,0.2-0.1,0.2-0.2c0-0.1,0.1-0.6,0.1-1.2
					C313.2,562.8,313.1,561.3,312.5,560.4z M312.6,564.5c-0.1-0.1-0.3-0.3-0.4-0.5c-1-1.2-2-3.1-1.7-3.8c0-0.1,0.1-0.2,0.6-0.2
					l0.1,0.1c0.3,0.1,0.6,0.3,0.8,0.6c0.5,1,0.7,2.1,0.6,3.3C312.6,564.1,312.6,564.3,312.6,564.5z"/>
				<path class="st19" d="M314.3,564.1l12.1,3.2c0.5,0.1,0.8,0.5,0.7,1l-0.4,10.4c0,0.9-0.8,1.6-1.7,1.6c-0.1,0-0.2,0-0.4,0
					c-4.3-1.2-8.1-2.5-13.6-3.9c-6.4-1.7-5-0.5-12.5-2.4c-4.5-1.1-4-6.5-2-6.3c9.1,1.2,10.7-1.2,14.9-3.4
					C312.3,563.8,313.3,563.8,314.3,564.1z"/>
			</g>
			<polygon class="st22" points="384,577.2 393.5,577.2 396.4,559.5 384.7,557.1 			"/>
			<polygon class="st20" points="384.7,557.1 396.4,559.5 395.1,567.7 384.3,567.3 			"/>
			<g>
				<path class="st15" d="M380.8,576.4c-0.1,0-0.5-0.3-1.1-0.6c-0.4-0.2-0.9-0.4-1.5-0.6c-1.2-0.5-2.6-0.9-3.5-0.6
					c-0.4,0.1-0.7,0.3-0.8,0.6c-0.3,0.4-0.3,0.8,0,1.2c0.5,0.6,1.9,0.9,3.4,0.8c0.3,0,0.6,0,0.9,0c0.8-0.1,1.7-0.2,2.5-0.3l0,0l0,0
					c0.1,0,0.2-0.1,0.2-0.2C380.9,576.5,380.9,576.4,380.8,576.4z M378.7,576.6c-1.9,0.1-4,0-4.4-0.6c-0.1-0.1-0.2-0.2,0-0.6
					c0.1-0.2,0.3-0.3,0.5-0.4c0.2,0,0.3-0.1,0.5-0.1c1.3,0.2,2.6,0.6,3.8,1.2c0.2,0.1,0.5,0.2,0.7,0.3
					C379.5,576.5,379.1,576.6,378.7,576.6z"/>
				<path class="st15" d="M381,576.6c0-0.1-0.1-0.6-0.2-1.2c-0.2-1-0.7-2.5-1.6-3.2c-0.4-0.3-1-0.5-1.5-0.4c-0.8,0.1-1,0.4-1,0.8
					c-0.1,0.7,0.6,1.7,1.6,2.7c0.3,0.3,0.7,0.7,1.1,0.9c0.5,0.4,0.9,0.6,1.3,0.8h0.1l0,0l0,0l0,0h0.1
					C380.9,576.8,381,576.7,381,576.6z M377.1,572.5c0-0.1,0.1-0.3,0.5-0.3h0.1c0.3,0,0.7,0.1,0.9,0.3c0.7,0.8,1.2,1.9,1.4,3
					c0,0.2,0.1,0.4,0.1,0.5c-0.2-0.1-0.3-0.2-0.5-0.3C378.5,574.8,377.1,573.2,377.1,572.5z"/>
				<path class="st19" d="M381.9,575.3l12.5-0.1c0.5,0,0.9,0.3,1,0.8l2.3,10.2c0.2,0.9-0.3,1.8-1.2,2c-0.1,0-0.2,0-0.4,0
					c-4.5-0.1-8.5-0.3-14.1-0.2c-6.6,0-4.9,0.8-12.7,1c-4.7,0.1-5.6-5.2-3.6-5.5c9.1-1.2,10-3.9,13.5-7.2
					C379.9,575.5,380.9,575.2,381.9,575.3z"/>
			</g>
			<path class="st28" d="M289.4,233.8l3.1,3.9l7.7-0.6l2.6,2.7l35.9,9.9c8.6-7,26.8-15.4,26.8-15.4c9.6,4.1,8.7,11.3,8.7,11.3
				s-23.7,14.3-33.4,16.2c-8.3,1.6-41.3-17-41.3-17l-7.5-0.2c-1,0-1.9-0.4-2.6-1.2l-2.1-2.1c-0.8-0.8-1.2-1.9-1.1-3l0.3-3.5
				C286.6,233.2,288.4,232.7,289.4,233.8z"/>
			<path class="st2" d="M359.2,234.2l-14.7,9.4l10.1,14.8l21.6-14.5c0,0,0-0.2,0-0.6C375.8,234.9,366.5,230,359.2,234.2z"/>
			<path class="st19" d="M442.1,245.4c3.5-1.5,6.3-4.9,6.4-8.7s-3-7.6-6.8-7.7c-3.8,0-7,4.5-5.3,7.9c0.7,1.2,2.1,2,3.5,2.1l0,0
				c-3.8,0.5-4.8-1.4-5.9-4.5c-1-3-0.4-6.4,0.9-9.3c1.3-2.9,3.1-5.6,4.7-8.4c5.2-9.3,6.8-21,2.2-30.5c-4.6-9.6-16.3-15.8-26.3-12.4
				c-1.1,0.4-2.6,1-4.1,1.9c-2.4,1.3-4.7,3.2-5.1,5.2v0.1c0,0.2-0.1,0.5,0,0.7c0.1,3.4,4.5,6.7,6.8,8.3c2.7,1.9,5.6,3.7,7.5,6.3
				c0.5,0.7,0.9,1.4,1.1,2.2c1.7,4.6-0.6,9.6-3.3,13.6c-2.6,4.1-5.7,8.3-5.9,13.1c-0.1,6.5-0.5,21.7,22.6,22.9
				c4.8,0.3,10.4-1.1,12.1-5.6C446.4,244.6,444.2,245.8,442.1,245.4z M438.5,237.2c0.6-0.1,0.9,0.2,1.1,0.5
				C439,237.5,438.5,237.2,438.5,237.2z"/>
			<path class="st2" d="M409.5,313.9l12.4-71.7c0.5-2.7-1.5-5.3-4.3-5.5c0,0-20.2-3.2-27-3.8c-5.2-0.4-17.4-0.5-24.7-0.6l-0.6,5.1
				c-4.5,11.2-5,28.2-3.3,40.4l0.3,2l-2.6,35.8v9.8h48.4L409.5,313.9z"/>
			<path class="st28" d="M380.6,233.3c7.3-1.2,8.7-7.3,8.1-12.8l15.5-9.8c-2.2,6.2-5,17.1-2.7,23.4c0,0,0.1,6-13.3,6
				C374.9,240.1,380.6,233.3,380.6,233.3z"/>
			<path class="st24" d="M388.7,220.4l10.3-6.5c0.5,0.9,0.6,2.9-0.4,4.6c-1.8,3.4-6.4,5.6-9.9,5.8
				C388.9,223.1,388.9,221.7,388.7,220.4z"/>
			<path class="st28" d="M410.4,197.8c-3,10.6-4.2,17-10.8,21.3c-10,6.6-22.2-1.3-22.4-12.6c-0.2-10.2,4.7-25.8,16.2-27.9
				c8.2-1.5,16,4,17.5,12.1C411.2,193.2,411,195.6,410.4,197.8z"/>
			<path class="st19" d="M420.8,188.5c0,0.9-0.6,1.3-1.4,1.4c-2.3,0.2-6.8-2.3-6.8-2.3c2,4.4,1.2,9.7-0.5,13.5
				c-1.2,2.8-2.9,4.9-4.3,5.3c-0.4,0.1-0.7,0.1-1,0c-1.5-0.6-3,0.2-4.3,0.9s-0.2-4.7-0.2-4.7c-3.9-4.4-5.7-7.7-6.5-10.1
				c-0.2-0.6-0.4-1.2-0.5-1.7c-0.6-3.2,0.4-4.6-1.5-5.3c-3.4-1.3-3.7,9.1-6.3,5c-2.6-4.1,3-8.2,3-8.2c-2.9-1.3-6.1,2.1-8.7,5.1
				c-0.1,0.2-0.3,0.3-0.4,0.5c-0.8,0.9-1.4,1.7-2,2.3c-1.5,1.5-3,1.8-2.5-1.1c4.8-26.5,33.9-10.5,33.9-10.5s6.8-8.2,9.2-3.4
				c2.5,4.7-7.4,8.5-7.4,8.5S420.8,184.9,420.8,188.5z"/>
			<path class="st28" d="M413.5,209c-1.9,2-4.6,3.1-7.4,3.1c-3.7,0-4.6-3.5-2.7-6.5c1.6-2.7,5.6-5.9,8.9-4.5
				C415.5,202.6,415.8,206.5,413.5,209z"/>
			<path class="st19" d="M386.5,208.8c-0.5,0-1.1,0-1.6-0.1c-0.2,0-0.3-0.2-0.2-0.3l0,0c0-0.2,0.2-0.3,0.3-0.2
				c2.4,0.5,4.8-0.2,6.6-1.9c0.1-0.1,0.3-0.1,0.4,0s0.1,0.3,0,0.4C390.6,208,388.6,208.8,386.5,208.8z"/>
			<path class="st24" d="M407.5,262.4c2.3,5.2,2.2,11.1,2.2,11.1l-3.5-5.1C406.2,268.4,406.7,266,407.5,262.4z"/>
			<path class="st19" d="M359.8,313.9l-41.9,233.7l15.1,5.2c11.4-30.3,20.4-57.6,27.5-81.9c3.4-11.5,4.7-22.3,7.3-32.5
				c3.1-12.1,7.2-23.2,9.3-33.3c11-53.1,10.2-79.7,10.2-79.7v-11.5L359.8,313.9L359.8,313.9z"/>
			<path class="st23" d="M382.9,353.4l1,13.4c-1.5,10.7-3.7,23.5-6.7,38.3c-1,4.8-2.5,9.9-4.1,15.1c-1.9-34,5.9-75.3,5.9-75.3
				L382.9,353.4z"/>
			<path class="st19" d="M376.2,317.5l6.4,242.5l15.7,1.2c4.4-27.7,7.6-52.9,9.9-75.5c1.5-14.8,1-28.5,1.9-41.2
				c1.5-23.5,3.6-43.3,3.5-59.7c-0.3-40.4-2.6-44.8-4-59.7c-0.3-2.8,0-11.1,0-11.1h-33.3v3.5H376.2z"/>
			<polygon class="st19" points="400.5,557 381.2,555.8 381.2,562 399.4,563.2 			"/>
			<g>
				<path class="st2" d="M397.1,316.5c4.3-0.2,7.8-0.5,10.2-0.7l0.3,5.4c-2.5,0.2-6,0.5-10.4,0.7L397.1,316.5z"/>
				<path class="st2" d="M371.9,322v-5.4c2.3,0.1,4.6,0.2,6.8,0.2l0.3,5.4C376.7,322.2,374.3,322.1,371.9,322z"/>
				<path class="st2" d="M381.6,316.8c4.4,0,8.6-0.1,12.2-0.2l0.4,5.4c-3.3,0.1-6.8,0.2-10.7,0.2c-0.6,0-1.2,0-1.8,0L381.6,316.8z"
					/>
				<path class="st2" d="M361.4,315.9c2.7,0.2,5.4,0.4,8.1,0.6v5.4c-3-0.2-6-0.4-9.1-0.7L361.4,315.9z"/>
			</g>
			<polygon class="st19" points="336,550.2 317.4,544.7 316,550.8 333.5,556 			"/>
		</g>
		<g>
			<g>
				<g>
					<path class="st15" d="M295.8,244.3l8.4-1c1.9-0.2,3.1-1.9,2.7-3.8l-4.8-22.8c-0.2-0.8-1-1.4-1.8-1.3l-10.3,1.2
						c-1.9,0.2-3.1,1.9-2.7,3.8l4.4,20.9C292.1,243.2,293.9,244.5,295.8,244.3z"/>
					<path class="st25" d="M295.8,244.3l8.4-1c1.9-0.2,3.1-1.9,2.7-3.8l-4.8-22.8c-0.2-0.8-1-1.4-1.8-1.3l-10.3,1.2
						c-1.9,0.2-3.1,1.9-2.7,3.8l4.4,20.9C292.1,243.2,293.9,244.5,295.8,244.3z"/>
				</g>
				<g>
					<g>
						<g>
							<path class="st25" d="M295.4,244.7l8.4-1c1.9-0.2,3.1-1.9,2.7-3.8l-4.8-22.8c-0.2-0.8-1-1.4-1.8-1.3l-10.3,1.3
								c-1.9,0.2-3.1,1.9-2.7,3.8l4.4,20.9C291.7,243.6,293.5,245,295.4,244.7z"/>
							<path class="st27" d="M295.5,244.7l8.2-1c1.9-0.2,3.2-2,2.8-3.9l-4.8-22.7c-0.2-0.8-1-1.4-1.9-1.3l-10.1,1.2
								c-1.9,0.2-3.2,2-2.8,3.9l4.4,20.8C291.7,243.6,293.5,245,295.5,244.7z"/>
						</g>
						<path class="st29" d="M297.5,223.1l3.7-0.4c0.9-0.1,1.5-0.9,1.3-1.8l-0.8-3.7c-0.2-0.8-1-1.4-1.8-1.3l-3.8,0.5
							c-0.9,0.1-1.5,0.9-1.3,1.8l0.8,3.6C295.7,222.6,296.6,223.2,297.5,223.1z"/>
						<path class="st19" d="M297.8,222.7l3.3-0.4c0.9-0.1,1.5-0.9,1.3-1.8l-0.7-3.3c-0.2-0.9-1.1-1.5-1.9-1.4l-3.3,0.4
							c-0.9,0.1-1.5,0.9-1.3,1.8l0.7,3.3C296,222.2,296.9,222.9,297.8,222.7z"/>
					</g>
					<path class="st25" d="M297.8,222.7l3.3-0.4c0.9-0.1,1.5-0.9,1.3-1.8l-0.7-3.3c-0.2-0.9-1.1-1.5-1.9-1.4l-3.3,0.4
						c-0.9,0.1-1.5,0.9-1.3,1.8l0.7,3.3C296,222.2,296.9,222.9,297.8,222.7z"/>
				</g>
			</g>
			<path class="st25" d="M295,231c0.2,0.9,1.1,1.6,2.1,1.5c0.9-0.1,1.5-1,1.4-1.9c-0.2-0.9-1.1-1.6-2.1-1.5
				C295.4,229.2,294.8,230,295,231z"/>
		</g>
		<g>
			<path class="st28" d="M360.2,283.3c-1.7,2.5-10.4,0.8-10.4,0.8l-1.8-10.8l10.7,4.3L360.2,283.3z"/>
			<path class="st28" d="M350,272.7l1.7,11.2l-6.4,1c-0.7,0.1-1.4-0.4-1.5-1.1l-2.5-8c-0.1-0.4,0.1-0.8,0.5-0.9L350,272.7z"/>
			<path class="st28" d="M347.1,277.8l3.7,0.6l3.5-2.6l-1.3-1c-0.9-0.6-1.5-1.6-1.8-2.7c-0.3-1.2-0.4-2.4-0.5-3.5v-0.4
				c-0.1-0.7-0.6-1.3-1.3-1.4l-0.9,0.7c-0.6,1.2-0.2,2.7-0.2,3.6l-0.1,1.9l-1.5,0.6L347.1,277.8z"/>
		</g>
		<path class="st28" d="M417.9,240.5l-21.5,29.6l-39.6,7.8v6.5c0,0,37.2,2.8,45.5-2.1s22.4-34.3,22.4-34.3L417.9,240.5z"/>
		<path class="st2" d="M422,239.8c5.1,6,3.6,20.8-3.7,30.2l-17.8-10.5c0,0,10.4-17.6,16.2-21.1C419.2,237,420.2,237.6,422,239.8z"/>
		<path class="st15" d="M401.2,174.8c1.3-2.8,3.6-5,6.3-6.3c0.6,1.5,0.7,2.8,0.5,4.4c2.4,0.5,4.5,0.9,6.9,1.4
			c2.5,0.5,5.4,1.3,6.4,3.7c-2.1,3.5-5.5,6.9-9,9.1c-2.6-2.9-5.3-6.2-6-10c-0.1,0.2-0.2,0.5-0.2,0.7
			C404.4,177.6,402.6,175.8,401.2,174.8z"/>
	</g>
	<g>
		<g>
			<g>
				<g>
					<path class="st25" d="M218.8,428.2l11.7,21.9c0.6,1.2,1.6,2.2,2.7,2.9l2.9,1.9c1.9,1.2,4.2,1.6,6.3,1l23.9-6.6
						c3.4-0.9,5.3-4.4,4.1-7.8l-8.3-24.8c-0.6-1.7-1.7-3.2-3.2-4.3l-14.8-10.8l-3.6-10.8l-6.8,1.9c-2.9,0.8-4.7,3.5-4.2,6.5l1.1,7.3
						c0.2,1.1,0.6,2.1,1.3,2.9l6.3,7.9l-17.1,4.7L218.8,428.2z"/>
				</g>
				<path class="st30" d="M263.9,415.5l8.9,26.5c0.9,2.7,3.9,4.3,6.6,3.5l5.8-1.6c2.8-0.8,4.3-3.6,3.4-6.3l-8.9-26.5
					c-0.9-2.7-3.9-4.3-6.6-3.5l-5.8,1.6C264.5,410,263,412.8,263.9,415.5z"/>
			</g>
			<g>
				<g>
					<path class="st30" d="M189.6,469.3l-6.4-19.2c-0.7-2-2.8-3.1-4.8-2.6l-4.2,1.2c-2,0.6-3.1,2.6-2.4,4.6l6.4,19.2
						c0.7,2,2.8,3.1,4.8,2.6l4.2-1.2C189.1,473.3,190.2,471.3,189.6,469.3z"/>
					<path class="st8" d="M222.2,460.1l-8.5-15.8c-0.5-0.9-1.1-1.6-2-2.1l-2.1-1.3c-1.4-0.9-3-1.1-4.5-0.7l-17.3,4.8
						c-2.5,0.7-3.8,3.2-3,5.6l6,18c0.4,1.2,1.2,2.3,2.3,3.1l10.7,7.8l2.6,7.8l4.9-1.4c2.1-0.6,3.4-2.6,3.1-4.7l-0.8-5.3
						c-0.1-0.8-0.4-1.5-0.9-2.1l-4.6-5.7l12.4-3.4L222.2,460.1z"/>
					<path class="st25" d="M222.2,460.1l-8.5-15.8c-0.5-0.9-1.1-1.6-2-2.1l-2.1-1.3c-1.4-0.9-3-1.1-4.5-0.7l-17.3,4.8
						c-2.5,0.7-3.8,3.2-3,5.6l6,18c0.4,1.2,1.2,2.3,2.3,3.1l10.7,7.8l2.6,7.8l4.9-1.4c2.1-0.6,3.4-2.6,3.1-4.7l-0.8-5.3
						c-0.1-0.8-0.4-1.5-0.9-2.1l-4.6-5.7l12.4-3.4L222.2,460.1z"/>
				</g>
			</g>
		</g>
	</g>
</g>
</svg>
