<?xml version="1.0" encoding="utf-8"?>
<!-- Generator: Adobe Illustrator 24.2.1, SVG Export Plug-In . SVG Version: 6.00 Build 0)  -->
<svg version="1.1" id="fc98b6f9-21a0-4a6d-bd35-cd8a18cd4eab"
	 xmlns="http://www.w3.org/2000/svg" xmlns:xlink="http://www.w3.org/1999/xlink" x="0px" y="0px" viewBox="0 0 854.6 577.9"
	 style="enable-background:new 0 0 854.6 577.9;" xml:space="preserve">
<style type="text/css">
	.st0{fill:#ECEBE4;}
	.st1{fill:#F9F9F7;}
	.st2{fill:#D3D2CD;}
	.st3{fill:#FFFFFF;}
	.st4{fill:#B2B2B2;}
	.st5{fill:#E6E6E6;}
	.st6{fill:#041147;}
	.st7{fill:#FFB9B9;}
	.st8{fill:#FF8300;}
	.st9{fill:#F99746;}
	.st10{fill:#FFEBD8;}
	.st11{fill:#113693;}
	.st12{fill:#F9D0B3;}
	.st13{fill:#5C9CF4;}
	.st14{fill:#478BE0;}
	.st15{fill:#FF912B;}
	.st16{fill:#FC7600;}
</style>
<g>
	<g>
		<g>
			<rect x="465.3" y="121.8" class="st0" width="348.2" height="326.4"/>
		</g>
	</g>
	<g>
		<g>
			<rect x="473.4" y="131.5" class="st1" width="324.9" height="28.8"/>
		</g>
	</g>
	<g>
		<g>
			<rect x="478.1" y="174.7" class="st1" width="123.5" height="259.7"/>
		</g>
	</g>
	<g>
		<g>
			<rect x="488.6" y="343.1" class="st2" width="96.7" height="75.5"/>
		</g>
	</g>
	<g>
		<g>
			<rect x="488.6" y="194.4" class="st2" width="96.7" height="10.7"/>
		</g>
	</g>
	<g>
		<g>
			<rect x="488.6" y="218.4" class="st2" width="96.7" height="10.7"/>
		</g>
	</g>
	<g>
		<g>
			<rect x="488.6" y="247.2" class="st2" width="96.7" height="10.7"/>
		</g>
	</g>
	<g>
		<g>
			<rect x="488.6" y="271.2" class="st2" width="96.7" height="10.7"/>
		</g>
	</g>
	<g>
		<g>
			<rect x="636.5" y="174.7" class="st2" width="161.9" height="12.8"/>
		</g>
	</g>
	<g>
		<g>
			<rect x="636.5" y="198.7" class="st2" width="161.9" height="12.8"/>
		</g>
	</g>
	<g>
		<g>
			<rect x="636.5" y="227.5" class="st2" width="161.9" height="12.8"/>
		</g>
	</g>
	<g>
		<g>
			<rect x="636.5" y="257.9" class="st1" width="161.9" height="169.1"/>
		</g>
	</g>
	<g>
		<g>
			<rect x="650.5" y="276.5" class="st2" width="137.4" height="76.1"/>
		</g>
	</g>
	<g>
		<g>
			<rect x="478.1" y="138.7" class="st2" width="176.4" height="13.6"/>
		</g>
	</g>
	<g>
		<g>
			<rect x="722.1" y="138.7" class="st2" width="69.9" height="13.6"/>
		</g>
	</g>
</g>
<g>
	<rect x="29.5" y="28.9" class="st0" width="412" height="217"/>
	<path class="st3" d="M41.5,233.9h388v-193h-388V233.9z"/>
	<rect x="71.5" y="68.9" class="st0" width="138" height="138"/>
	<rect x="247.5" y="68.9" class="st0" width="138" height="138"/>
</g>
<rect x="151.6" y="268" class="st4" width="110" height="123"/>
<polygon class="st5" points="95.6,576 39.6,576 33.6,528 101.6,528 "/>
<path class="st4" d="M208,541.2l-1.9,25.8c-0.3,4.5,3.1,8.5,7.6,8.8c0.4,0,0.7,0,1.1,0l13.3-0.8c2.3-0.1,4.1-2.1,3.9-4.4
	c0-0.3-0.1-0.5-0.1-0.8l-7.4-29.5L208,541.2z"/>
<path class="st4" d="M319,556.5c15.6,3.7,26.8,8.8,34.1,15.9c2.6,2.5,6,3.9,9.6,4.1c4.6,0.2,8.4-0.3,11.2-1.5l0,0
	c1.5-0.6,2.5-2,2.6-3.7c0.2-1.6-0.5-3.2-1.9-4.2l-37-26.4l-15.7,6.3l-3.7,3.7c-1.4,1.4-1.4,3.7,0,5.1
	C318.4,556.1,318.7,556.3,319,556.5L319,556.5z"/>
<path class="st6" d="M270.9,134.7l-105.9-1c0.3-15.4,3.9-30.6,11.7-44.1c5.2-8.9,5-18.6,3.8-26.7c-1.9-12.6,2.5-25.5,12.4-33.5
	c7.6-6.1,17.1-9.3,26.8-8.9l2.1,0.1c13.6,0.6,26,8,32.9,19.8c3.4,6.2,4.8,13.3,4,20.3c-0.7,6.6,0.9,13.3,4.7,20
	C269.9,95.4,271.3,114.3,270.9,134.7z"/>
<path class="st6" d="M341.8,542.2l-20.8,5.4L219.8,327.2l6.3,215h-20.8C183.1,441,143,324.3,161,287.4l107.5-6.3L341.8,542.2z"/>
<circle class="st7" cx="218.9" cy="69.7" r="28"/>
<path class="st7" d="M243.3,121.2l-46.1-2.7c4.5-10.4,6.3-20.3,4.5-29.8H236C236,95.9,239.6,108.5,243.3,121.2z"/>
<polygon class="st3" points="272.2,289.2 171,296.4 181.4,117.1 199,112.1 218.9,116.7 238.8,106.7 251.4,111.2 "/>
<path class="st2" d="M188.2,418.4l-69.1-15.8c20.6-68.1,57.6-224.1,45.6-279.6l36.1-16.3L188.2,418.4z"/>
<path class="st4" d="M154.8,221.5l-26.2-16.3l22.3-65.4c2.5-6.8,7.3-12.4,13.5-16l7.5-4.4l-4.5,65.9L154.8,221.5z"/>
<path class="st2" d="M332.3,403.5c-21.8,12.6-76.3,19.7-100.3,10.8c-1.8-61.6-5.2-235.7,5.9-309.4l39.8,16.3L274,170
	C255,211.7,310.2,357.1,332.3,403.5z"/>
<polygon class="st4" points="329.1,213.3 304.7,205.2 272.2,168.2 277.6,121.2 331.8,197.1 "/>
<path class="st7" d="M252.7,248.5c0.8,3.6,4.5,5.9,8.1,5.1l20.7-4.7l-3-13.2l-20.7,4.7C254.1,241.2,251.9,244.8,252.7,248.5
	L252.7,248.5z"/>
<path class="st6" d="M243.3,62.5c-15.6-6.4-30.9-6.9-46.1-0.9L190.9,39h57.8L243.3,62.5z"/>
<path class="st4" d="M278.5,235.7l3,13.2c19.8-5.5,38.4-16.9,54.9-37.4l-4.5-14.5l-28,7.2L278.5,235.7z"/>
<polygon class="st8" points="118.2,165.2 140.7,169.2 192.3,242.5 164.9,236.1 "/>
<path class="st9" d="M114.2,164.3c-1.1,0-1.9,0.9-1.9,1.9c0,0.4,0.1,0.7,0.3,1l48.2,73.1c0.3,0.4,0.7,0.7,1.2,0.8l22.4,5.3
	c1,0.2,2.1-0.4,2.3-1.4c0.1-0.5,0-1.1-0.3-1.5l-52.9-75.2c-0.3-0.4-0.7-0.7-1.2-0.8l-17.7-3.2C114.4,164.3,114.3,164.3,114.2,164.3z
	"/>
<path class="st7" d="M144.2,216.6l1.3,13.5l21.1-2.1c3.7-0.4,6.4-3.7,6.1-7.4c-0.4-3.7-3.7-6.4-7.4-6.1L144.2,216.6z"/>
<path class="st4" d="M126.1,216c0.1,9.6,5.6,14,15.2,14h5.9l0.7-13.6l-19.2-11.7L126.1,216z"/>
<path class="st5" d="M25.2,510.2c14.4,19.3,44.4,21.3,44.4,21.3s6.6-29.3-7.9-48.6s-44.4-21.3-44.4-21.3S10.8,490.9,25.2,510.2z"/>
<path class="st5" d="M98.6,517.5c-9.5,12.7-29.3,14.1-29.3,14.1s-4.3-19.3,5.2-32.1c9.5-12.7,29.3-14.1,29.3-14.1
	S108.1,504.8,98.6,517.5z"/>
<g>
	<g>
		<g>
			<path class="st10" d="M642.9,520.5H458.4v-72.3h185.3c18.5,0,33.6,15,33.6,33.6v4.4C677.2,505.1,661.8,520.5,642.9,520.5z"/>
			<path class="st6" d="M840.4,477.9v10.9c0,5.8-1.5,11.3-4,15.9c-5.1,9.4-14.7,15.7-25.6,15.7H452.5c-2.4,0-4.3-2.1-4.3-4.6v-1.6
				c0-2.5,1.9-4.6,4.3-4.6h218.4c1.2-1.5,2.2-3.2,3.1-4.9c2-4.1,3.2-8.8,3.2-13.8v-13.8c0-2.5-0.3-5-0.9-7.4c-1-4-2.7-7.6-5.1-10.7
				H452.5c-2.4,0-4.3-2.1-4.3-4.6v-1.6c0-2.5,1.9-4.6,4.3-4.6h360.1c12.7,0,23.4,9.1,26.7,21.5C840,472.3,840.4,475.1,840.4,477.9z"
				/>
			<path class="st11" d="M839.3,469.7h-163c-1-4-2.7-7.6-5.1-10.7H452.5c-2.4,0-4.3-2.1-4.3-4.6v-1.6c0-2.5,1.9-4.6,4.3-4.6h360.1
				C825.3,448.2,836,457.3,839.3,469.7z"/>
		</g>
		<polygon class="st12" points="458.4,484.3 484.9,485.5 458.4,486.3 		"/>
		<polygon class="st12" points="458.4,495.7 521.5,496.9 458.4,497.6 		"/>
	</g>
	<g>
		<g>
			<g>
				<path class="st8" d="M430.8,576.5h186.5v-56.2H429.2c-14.1,0-25.6,11.5-25.6,25.6v3.4C403.6,564.3,415.8,576.5,430.8,576.5z"/>
				<path class="st10" d="M608.7,576.5h212.5v-56.2H608.1c-14.4,0-26.1,11.7-26.1,26.1v3.4C582,564.6,594,576.5,608.7,576.5z"/>
				<path class="st8" d="M568,576.5h260.4c2.2,0,3.9-1.8,3.9-3.9v-0.5c0-2.2-1.8-3.9-3.9-3.9H568c-2.2,0-3.9,1.8-3.9,3.9v0.5
					C564,574.8,565.8,576.5,568,576.5z"/>
				<path class="st8" d="M568,528.7h260.4c2.2,0,3.9-1.8,3.9-3.9v-0.5c0-2.2-1.8-3.9-3.9-3.9H568c-2.2,0-3.9,1.8-3.9,3.9v0.5
					C564,526.9,565.8,528.7,568,528.7z"/>
			</g>
			<polygon class="st12" points="821.2,548.4 792.2,549.4 821.2,549.9 			"/>
			<polygon class="st12" points="821.2,535.5 752.2,536.4 821.2,537 			"/>
		</g>
		<g>
			<path class="st13" d="M752.9,536.2c0,0,3,2.4,3.9,6.4c0.2,0.7,0.3,1.4,0.3,2.2c0.2,5.3,0,17.2,0,17.2l8.7-6l8.7,6v-16.2
				c0-3.1-0.7-6-2.1-8c-0.7-0.9-1.5-1.7-2.4-1.7L752.9,536.2L752.9,536.2z"/>
			<path class="st14" d="M752.9,536.2c0,0,3,2.4,3.9,6.4l17.5,0.2c0,0-0.7-5.7-4.3-6.6L752.9,536.2L752.9,536.2z"/>
		</g>
	</g>
	<g>
		<g>
			<g>
				<path class="st10" d="M585.2,448.3H410.4v-82.6H586c21.2,0,38.4,17.2,38.4,38.4v5C624.4,430.8,606.8,448.3,585.2,448.3z"/>
				<path class="st15" d="M624.5,397.8v17.8c0,7.6-3.6,14.2-8.7,17.7c-2.5,1.7-5.5,2.7-8.6,2.7H404.7c-2.4,0-4.3,2.3-4.3,5.1v2.1
					c0,2.8,1.9,5.1,4.3,5.1h349.7c10,0,18.9-6,24.3-15.1c3.4-5.7,5.4-12.7,5.4-20.3v-14c0-5.2-1-10.1-2.8-14.4
					c-4.5-11.1-14-18.8-25-18.8H404.7c-2.4,0-4.3,2.3-4.3,5.1v2.1c0,2.8,1.9,5.1,4.3,5.1h203c4.9,0,9.2,2.5,12.3,6.4
					C622.8,388,624.5,392.6,624.5,397.8z"/>
				<path class="st8" d="M400.4,441.1v2.1c0,2.8,1.9,5.1,4.3,5.1h349.7c10,0,18.9-6,24.3-15.1H615.8c-2.5,1.7-5.5,2.7-8.6,2.7H404.7
					C402.4,436,400.4,438.3,400.4,441.1z"/>
			</g>
			<polygon class="st12" points="410.4,407 436.3,408.4 410.4,409.2 			"/>
			<polygon class="st12" points="410.4,388 472.1,389.4 410.4,390.2 			"/>
		</g>
		<g>
			<path class="st15" d="M471.5,389.1c0,0-4.1,2.6-5.4,6.9c-0.2,0.8-0.4,1.6-0.4,2.4c-0.2,5.7,0,18.7,0,18.7l-12-6.5l-12,6.5v-17.5
				c0-3.3,1-6.5,2.9-8.7c0.9-1,2.1-1.8,3.3-1.8H471.5z"/>
			<path class="st16" d="M471.5,389.1c0,0-4.1,2.6-5.4,6.9l-24.1,0.3c0,0,0.9-6.2,5.9-7.2L471.5,389.1L471.5,389.1z"/>
		</g>
	</g>
</g>
</svg>
