<?xml version="1.0" encoding="utf-8"?>
<!-- Generator: Adobe Illustrator 24.2.1, SVG Export Plug-In . SVG Version: 6.00 Build 0)  -->
<svg version="1.1" id="b759170a-51c3-4e2f-999d-77dec9fd6d11"
	 xmlns="http://www.w3.org/2000/svg" xmlns:xlink="http://www.w3.org/1999/xlink" x="0px" y="0px" viewBox="0 0 1140.6 787.3"
	 style="enable-background:new 0 0 1140.6 787.3;" xml:space="preserve">
<style type="text/css">
	.st0{opacity:0.8;fill:#E0E0E0;enable-background:new    ;}
	.st1{fill:#CCCDCE;}
	.st2{fill:#041147;}
	.st3{fill:#06529C;}
	.st4{fill:#DBC6AA;}
	.st5{fill:#002D51;}
	.st6{fill:#0086D8;}
	.st7{fill:#80B631;}
	.st8{fill:#8EC02F;}
	.st9{opacity:7.000000e-02;fill:#FFFFFF;enable-background:new    ;}
	.st10{fill:#B0D57D;}
	.st11{fill:#FFFFFF;}
	.st12{opacity:8.000000e-02;}
	.st13{fill:#FF8300;}
	.st14{fill:#D8B080;}
	.st15{fill:#FFD18F;}
	.st16{fill:#CA7956;}
</style>
<g>
	<path class="st0" d="M1107.5,544.7c-35.3-50.3-132.9-62.8-157.6-116.8c-13.6-29.7,0.4-62.8,20.1-90.4
		c42.3-59.1,113.3-111,117.1-178.5c2.6-46.4-31.6-92.9-84.3-114.8c-55.3-23-132-20.1-172.8,18c-42,39.2-115.8,54.3-179.1,52.3
		C579.2,112.2,511,91,445.8,67.7S316,18.7,246.1,6.4c-45-7.9-96.4-9-132.7,13.1c-34.9,21.3-46.2,58.1-52.2,92.2
		c-4.6,25.7-7.2,52.7,5.2,76.7c8.7,16.7,24.1,30.7,34.7,46.7c37.1,55.6,10.9,124.2-29.3,178.5C53,439,31.1,463.4,16.6,490.5
		c-14.5,27.1-21.3,58.3-8.6,86c12.6,27.4,42.7,48,75.2,62.5c38.3,17,80.5,27,124,33.3c1.8-0.4,3.6-0.7,5.3-1
		c15-2.5,30.4-2.5,46.1-2.6c11,0,22.5,1,33.1,2.4c9.5,1.3,19.2,1.7,28.8,2.5c13,1,27.5,1.2,40.6,0.6c14-0.7,28.1-1,42.1-1.6
		c17.4-0.7,34.5-2.1,51.8-2.9c8.7-0.4,17.1-1.4,25.8-1.8c23-1.2,46-1.4,69-1.5c12.8,0,25.6,0,38.5,0.1c39.4,0,78.7-0.3,118,1.4
		c9.5,0.4,18.8,0.1,28.1,1.1c9.3,0.9,18.7,1.8,28.3,2c22.7,0.4,45.6,0,68.3,0c14.3,0,83.9-0.2,121,4.9c14.5-1.4,29-3.1,43.4-5.2
		c34.1-4.9,69.3-12.7,94-31.6C1120.7,615.2,1128.5,574.7,1107.5,544.7z"/>
	<path class="st1" d="M831,671c-22.7,0-45.6,0.4-68.3,0c-9.6-0.2-19-1-28.3-2s-18.6-0.7-28.1-1.1c-39.3-1.6-78.6-1.4-118-1.4
		c-12.9,0-25.7-0.1-38.5-0.1c-23,0-46,0.3-69,1.5c-8.7,0.4-17.1,1.4-25.8,1.8c-17.3,0.8-34.4,2.3-51.8,2.9
		c-14,0.6-28.1,0.9-42.1,1.6c-13.1,0.7-27.6,0.5-40.6-0.6c-9.6-0.8-19.3-1.3-28.8-2.5c-10.6-1.4-22.1-2.4-33.1-2.4
		c-15.7,0-31.1,0-46.1,2.6c-1.7,0.3-3.5,0.6-5.3,1c-3.9,0.8-7.8,1.9-10.5,3.2c-9.2,4.3-10.4,14.8-1.3,19.2
		c15.5,7.4,48.4,10.3,70.1,10.4c23.7,0.1,46.8-0.7,70.6-1.1c22.1-0.4,44.1-1.1,66.2-1c45.2,0,90.4,0,135.5-1.4
		c42.4-1.3,84.9-0.9,127.3-0.9c43.5,0,86.8,0.2,130,2.8c18.8,1.2,38,1.6,57,2.4c17,0.7,33.2,0,50.1-0.7c14.2-0.6,28.3-2.3,41.2-5.1
		c10.2-2.3,28.4-9.2,31.5-14.5c2.6-4.4-7.2-7.5-22.9-9.7C914.9,670.8,845.2,671,831,671z"/>
</g>
<g>
	<g>
		<polygon class="st2" points="634.9,677.8 636.1,687 618.9,698.6 608.5,690.5 616.5,680.2 633.7,668.6 		"/>
		<g>
			<polygon class="st3" points="635.5,674.7 622.2,557.3 638.2,425.8 634.6,397.8 563.2,395.1 560.6,440.6 572.6,557.4 617.7,680.7 
							"/>
		</g>
		<g>
			<polygon class="st3" points="510.8,408.3 510.6,526.8 534.5,679.3 551.6,679.2 561.1,538.1 583.2,396.9 			"/>
			<polygon class="st2" points="551.6,686.4 533.1,695.9 523.7,686.7 532.9,677.3 551.5,677.1 			"/>
		</g>
		<g>
			<path class="st2" d="M645.6,448.6c-0.2-5.1-0.4-9.4-0.5-11c-0.4-13.8-1.6-27.5-3.3-41.2c-1.5-12.3-3.5-42.7-5.6-54.9
				c-1.7-10.1-7.8-35.2-12.1-44.5c-10.8-23.2-7.5-25.3-55.1-32.2c-20.9-3-25.8,10-42.9,25c-1.7,1.5-1.6,10.3-2,12.6
				c-0.7,4.1-1.4,8.2-2.3,12.3c-0.7,3.2-1.4,6.4-2.2,9.6c-8.5,32.8-18.3,64.3-20.3,98.3c-0.6,9.6-3.5,18.9-3.3,28.6
				c0,1.1,0.1,2.3,0.8,3.2c2.9,3.6,18.8-1.9,23.6-2.4c12.3-1.2,24.8-2,37.2-1.9c12.7,0.1,25.4,1.4,37.9,3.5
				c8.3,1.4,16.8,3.4,24.3,7.3c7.1,3.7,12.3,9.2,19.5,13c0.7,0.4,1.4,0.7,2.2,0.6C645.7,474,645.9,459.4,645.6,448.6z"/>
		</g>
		<g>
			<path class="st4" d="M568.9,271.4c2.4,1.2,8.1,1.6,14-0.7c1.2-0.5,2-1.6,2-2.9c0-3.6-0.3-7.2-0.9-10.7c4.4-1.6,9.6-3.9,10.3-8.5
				c0.2-1.5,0-3-0.3-4.4c-1-6-2.1-12.1-3.1-18.1c-0.4-2.1-0.7-4.2-1.9-6c-2-3.1-5.9-4.5-9.5-5.1c-9.3-1.6-19.5,0.4-26.8,6.5
				c-1.9,1.6-3.7,3.6-4.5,6c-1.3,3.7-0.3,7.7,0.7,11.5c0.9,3.5,1.8,7,2.7,10.4c1,4,2.6,8.5,6.4,10c2,0.8,4.5,0.6,6.3,1.7
				C567.6,263.1,567.2,267.9,568.9,271.4z"/>
			<path class="st5" d="M517.3,210.9c-1.6-15,4.9-30.8,17.3-27.6c7.5,1.9,14.2,5,21.7,2.2c7.1-2.6,12.2-1.6,19.6,1.1
				c8,2.9,18.7,3.5,25.9,7.5c3,1.7,5.4,4.3,7.3,7.2c6.5,10.1,6.5,23.9,0.1,34c-1.4,2.3-3.2,4.3-5,6.3c-3.8,4.1-8.3,9.1-13.5,10.7
				c-0.1-4.6,4.1-19.3,0.5-23.1c-5.7-6-18.4-3.9-25.4-2.4c-7.6,1.6-14.5,7-22.1,8.2C527,237.5,518.8,224.6,517.3,210.9z"/>
		</g>
	</g>
	<g>
		<g>
			<circle class="st6" cx="575.8" cy="214.3" r="161.4"/>
		</g>
		<path class="st7" d="M614.3,57.5c2.9,0.7,5.7,1.5,8.5,2.3L614.3,57.5z"/>
		<g>
			<path class="st8" d="M619,71.4c0.7,0.2,1.4,0.4,2.1,0.7c0.2-0.1,0.4-0.3,0.6-0.4C620.7,71.6,619.8,71.5,619,71.4z"/>
			<path class="st8" d="M611,79.3c5,0,12.4,8.2,16.2,5.7c5.2-3.5,4-6.8,5.4-8.7c-3.8-1.6-7.7-3-11.6-4.3
				C617.7,74.4,614.4,76.9,611,79.3z"/>
			<path class="st8" d="M619,71.4c-1.6-0.5-3.1-0.9-4.7-1.4C615.6,70.6,617.2,71.1,619,71.4z"/>
			<path class="st9" d="M704.9,140c-7.3-12.7-16.5-24.3-27.1-34.3c-0.1-0.1-0.3-0.3-0.4-0.4c-1.1-1-2.2-2-3.3-3
				c-0.2-0.1-0.3-0.3-0.5-0.4c-1.1-1-2.2-1.9-3.3-2.8c-0.1-0.1-0.3-0.2-0.4-0.3c-1.2-1-2.4-1.9-3.6-2.8c-0.1-0.1-0.2-0.1-0.3-0.2
				c-1.3-1-2.5-1.9-3.8-2.8l-0.1-0.1c-1.3-1-2.7-1.9-4.1-2.8l0,0c-2.8-1.9-5.7-3.6-8.6-5.3l0,0l0,0c-15.8-9.1-33.4-15.3-52.1-18.1
				l0,0l0,0c-1.1-0.2-2.2-0.3-3.3-0.5c-0.6-0.1-1.2-0.1-1.8-0.2c-0.7-0.1-1.4-0.2-2.1-0.2l0,0l0,0c-3-0.3-6-0.5-9.1-0.6l0,0l0,0
				c-0.7,0-1.3,0-2-0.1c-1.4,0-2.7-0.1-4.1-0.1c-1.2,0-2.3,0-3.5,0c-0.4,0-0.9,0-1.3,0c-0.7,0-1.4,0-2.1,0.1c-0.6,0-1.1,0.1-1.7,0.1
				c-0.5,0-1.1,0.1-1.6,0.1c-0.7,0-1.3,0.1-2,0.1c-0.3,0-0.6,0.1-0.9,0.1c-3.9,0.3-7.7,0.8-11.5,1.4l0,0l0,0c-1,0.2-2,0.3-3,0.5l0,0
				l0,0c-1.3,0.2-2.6,0.5-3.8,0.8h-0.1c-1.2,0.3-2.5,0.5-3.7,0.8c-0.1,0-0.1,0-0.2,0c-1.2,0.3-2.4,0.6-3.6,0.9c-0.1,0-0.1,0-0.2,0.1
				c-1.2,0.3-2.4,0.7-3.6,1H532c-1.2,0.4-2.5,0.8-3.7,1.2l0,0c-13.7,4.5-26.5,10.9-38.1,19l0,0l0,0c-39.1,27-64.8,72.2-64.8,123.4
				c0,34.4,11.6,66,31.1,91.3c-12.7-22-19.9-47.5-19.9-74.7c0-45.2,20-85.8,51.7-113.2c0.2-0.2,0.5-0.4,0.7-0.6
				c0.6-0.5,1.3-1.1,1.9-1.6c0.4-0.3,0.7-0.6,1.1-0.9c0.5-0.4,1-0.9,1.6-1.3c0.4-0.3,0.8-0.6,1.2-0.9c0.5-0.4,1-0.8,1.5-1.2
				c0.4-0.3,0.8-0.6,1.3-0.9c0.5-0.4,1-0.7,1.5-1.1c0.4-0.3,0.9-0.6,1.3-0.9c0.5-0.4,1-0.7,1.5-1.1c0.4-0.3,0.9-0.6,1.3-0.9
				c0.5-0.3,1-0.7,1.6-1c0.4-0.3,0.9-0.6,1.3-0.9c0.5-0.3,1.1-0.7,1.6-1c0.4-0.3,0.9-0.5,1.3-0.8c0.6-0.3,1.2-0.7,1.7-1
				c0.4-0.2,0.8-0.5,1.2-0.7c0.7-0.4,1.4-0.8,2-1.1c0.3-0.2,0.7-0.4,1-0.5c1-0.5,2-1.1,3-1.6c0.3-0.2,0.6-0.3,0.9-0.5
				c0.7-0.4,1.5-0.7,2.2-1.1c0.4-0.2,0.8-0.4,1.2-0.6c0.6-0.3,1.3-0.6,1.9-0.9c0.5-0.2,0.9-0.4,1.4-0.6c0.6-0.3,1.2-0.5,1.8-0.8
				c0.5-0.2,0.9-0.4,1.4-0.6c0.6-0.3,1.2-0.5,1.8-0.7c0.5-0.2,1-0.4,1.4-0.6c0.6-0.2,1.2-0.5,1.8-0.7c0.5-0.2,1-0.4,1.5-0.5
				c0.6-0.2,1.3-0.4,1.9-0.7c0.5-0.2,1-0.3,1.4-0.5c0.6-0.2,1.3-0.4,2-0.6c0.5-0.1,0.9-0.3,1.4-0.4c0.7-0.2,1.4-0.4,2.1-0.6
				c0.4-0.1,0.8-0.2,1.3-0.4c0.9-0.3,1.8-0.5,2.7-0.7c0.2-0.1,0.5-0.1,0.7-0.2c1.1-0.3,2.3-0.6,3.4-0.8c0.4-0.1,0.7-0.2,1.1-0.2
				c0.8-0.2,1.6-0.4,2.4-0.5c0.4-0.1,0.9-0.2,1.4-0.3c0.7-0.1,1.4-0.3,2.2-0.4c0.5-0.1,1-0.2,1.5-0.3c0.7-0.1,1.4-0.2,2.1-0.3
				c0.5-0.1,1-0.2,1.5-0.2c0.7-0.1,1.4-0.2,2.1-0.3c0.5-0.1,1-0.1,1.5-0.2c0.7-0.1,1.4-0.2,2.1-0.2c0.5-0.1,1-0.1,1.5-0.2
				c0.7-0.1,1.4-0.1,2.1-0.2c0.5,0,1-0.1,1.5-0.1c0.7-0.1,1.5-0.1,2.2-0.1c0.5,0,1-0.1,1.4-0.1c0.8,0,1.6-0.1,2.5-0.1
				c0.4,0,0.8,0,1.2,0c1.2,0,2.5,0,3.7,0c0.3,0,0.6,0,0.9,0l0,0c22.3,0.1,43.4,5.1,62.4,14c0.2,0.1,0.4,0.2,0.6,0.3
				c1,0.5,1.9,0.9,2.9,1.4c0.4,0.2,0.8,0.4,1.2,0.6c0.7,0.4,1.5,0.8,2.2,1.2c0.4,0.2,0.8,0.4,1.2,0.7c0.9,0.5,1.8,1,2.6,1.5
				c0.3,0.2,0.7,0.4,1,0.6c0.9,0.5,1.9,1.1,2.8,1.7c0.4,0.3,0.9,0.5,1.3,0.8c0.7,0.4,1.3,0.8,1.9,1.2c0.4,0.3,0.9,0.6,1.3,0.9
				c0.7,0.5,1.4,0.9,2.1,1.4c0.3,0.2,0.7,0.5,1,0.7l0,0C684.4,117.1,695.6,127.8,704.9,140z"/>
		</g>
		<g>
			<path class="st10" d="M574.4,68c-0.1,0-0.1,0-0.2,0C574.3,68,574.4,68,574.4,68z"/>
			<g>
				<path class="st11" d="M632.5,63.2c-4.3-0.6-8.8-0.6-13.7,0.2c2-1.4,3.3-2.6,4-3.5c-2.8-0.9-5.7-1.6-8.5-2.3
					c-0.2,0.1-0.4,0.1-0.6,0.2c-3.9,1.4-4.5,1.5-3.8,4c-1.5-0.6-3-1.3-4.3-2.1h-18.7c11.8,13.1-11.1,12.2-19.5,12.2
					c-1.5,0-1.9-3.1-1-3.9c0.4-0.4,9.9,0,8.1,0c7.6,0,6.7-0.6,6.7-8.4c-7.6,5.6-7.3,0-15.9,0c-8.1,0-12,0.4-19.1,3.6
					c2.3,2,4.6,3.9,6.9,5.9c-2.9-0.7-12.4-4.4-14.9-3.3c-1.2,0.5-1.5,3.7-3,3.7c-6,0-22.4,3.3-22.4-3.6c0,0-0.1-0.1-0.3-0.1
					c-14.8,6.3-28.5,14.9-40.7,25.1c7.8-1.3,15.9-0.8,17.6-0.8c0.7,0,5.7,12.8,5.7,13.7c0.3,5.6-3.5,7.8-6.3,13.1
					c-5.1,9.6-7.4,22.2-6.8,33.1c0,0.4,6.5,6.2,6.5,8.5c0,9.6,1,9.8,7.6,16.8v-11.8c3.9,10.3,8.7,14.3,12.2,24.4
					c4,11.4,20,2.7,25.4,10.2c2.4,3.3,6.8,1.8,9,5l5.8,8.8c3.5,5.3,7.7,3.5,13.9,3.5c6,0-5.4,20.6-5.4,22.3c0,7.1,9.7,23.4,9.7,26.3
					c-0.2,8.5,10.4,9.7,16.2,14.9c4.6,4.2,1.3,16.1,1.2,21.4c-0.1,4.5,0.8,8.5,2.2,12.3l0,0l0,0c1.3,3.5,2.8,7,4.3,10.5
					c0.2,0.6,0.5,1.2,0.7,1.8c0.1,0.3,0.2,0.5,0.3,0.8c0.2,0.5,0.4,1,0.6,1.6c0.1,0.3,0.2,0.6,0.3,0.9c0.2,0.5,0.3,1.1,0.5,1.7
					c0.1,0.3,0.1,0.5,0.2,0.8c0.2,0.8,0.4,1.7,0.5,2.5c0.8,4.3-0.9,9,0.1,13.2c1,4.3,4.7,6.9,4.6,11.7c-0.1,7.3,20.4,8.7,24.4,8.7
					c0,0-15-7.8-15-6.8c0-6.9,3.6-6.4,3.6-10.7c0-5-4.6-9.1-1.7-16.2c3.1-7.7,2.7-7.4,11-7.4c-0.2-3.5-0.7-7-1.6-10.4
					c7.4-11.6,24.7-22.7,29.3-25.9c6.2-4.2,2.7-15.7,5.4-21.8c2.4-5.4,9.5-10.3,9.9-16.9c0-0.3,0-0.7,0-1c0-0.1,0-0.1,0-0.2
					c0-0.2-0.1-0.5-0.1-0.7c0-0.1,0-0.1-0.1-0.2c-0.1-0.2-0.1-0.4-0.2-0.7v-0.1c-0.1-0.2-0.2-0.5-0.4-0.7l0,0l0,0
					c-1.4-2.1-4.4-2.7-7-2.6c-3.7,0.1-4-6-6.8-6c-7.7,0-15.7-1.3-22.4-6.3c-1.1-0.8-2.3-10.7-4.2-13.1c-2.7-3.5-11.4,2.6-14.7-2.1
					c-1.3-1.8-4.3-8.8-6.3-8.8c-2.8,0-18.2-3-21.5-0.1c0.5-0.5-5.3-2.2-6.1-2.2c0.4,0-19.8,10.4-19.8,5c0-7,3.4-16.1-4.9-16.1
					c-13.4,0-2-3.5-2-9.6c0-7.9-13,2.2-19.8,2.2c0.2,0-7.7-12.9-3.9-12.9c2.7,0,3.1-5.5,5.1-7.9c5.3-6.2,14.3-6.8,20.7-5.7
					c2.6,0.5,11.9,11.3,11.9,13.5c0-0.5,3.8-3,4.3-3.8c1.8-2.8,0.8-4,1.3-6.9c1.5-9.5,1.9-11.4,9.5-17.1c5.6-4.2,13.3-9.1,17.7-14.6
					c3.3-4.2,6.4-6.4,11.3-8.7c-0.5,0.2,4.6,3.1,5.7,3.1c4.4,0,5.4-3.7,7.8-7h-7.6c8.6-6.6-7-10,10.3-10c8.4,0,9.2,0.1,14.4-5.9
					c-8.2,0-6.2-0.1-6.2-8.4c0-1.4-2.3-6.5-4.5-4.3c-6.1,6-5.8-1.1-8.5-5.1c-3.4-5.1-7.1,0.2-8.6,3.3c-1.8,3.9-16.4,9.9-16.3,14.9
					c0,2.9-4.8,2.8-4.7-0.5c0.1-4.9-16.9-9.6-17.2-11.6c-0.4-2.5,8.4-9.4,16.1-9.4c3.5,0,1.8-4.1,2.9-4.1c7.3,0,15.9-2.3,19.9-8.2
					c-1,0-10.4,0.1-10.4,0c0-3.3-1.4-5.4,2.4-5.4c9,0,11.7,7,21.6,7c-3.5,2.6-7.1,5.1-10.6,7.7c5,0,12.4,8.2,16.2,5.7
					c7-4.7,2.3-9,8.1-10c0.6,0.7,1.5,1.3,2.9,1.8c1.8,0.6,8.4,1.8,9.5,3.5c1.3,2,4.8,13.9,2.3,15c-4.1,1.7-16.1,14.7-6.9,17.9
					c7.1,2.5,8.9-0.7,15.2-4.6c5.9-3.7,7.5-2.3,14,0c0.1,0,6.8-0.2,9.4,0.7c5.6,2,5.2-1.5,5.7-1.3c2.3,0.8,6.8,1.4,9.7,0.1
					C679.9,88.2,657.7,72.6,632.5,63.2z"/>
				<path class="st11" d="M565.5,175.5c-1.1,1.1-2.2,2.2-3.3,3.3c10.2,0,16.4,3.3,25.4,3.3C581.6,172.6,576.8,175.5,565.5,175.5z"/>
				<path class="st11" d="M599.1,183.7c-8.2-0.2-8.5,1-13.5,6.6c4.3,0,8.6,0,12.9,0C602.2,190.3,601.7,183.8,599.1,183.7z"/>
				<path class="st11" d="M610.7,192.2C610.7,180.8,599,192.2,610.7,192.2L610.7,192.2z"/>
			</g>
		</g>
		<g class="st12">
			<path d="M660.2,76.5c16.1,25.1,25.4,54.9,25.4,86.9c0,89.1-72.2,161.4-161.4,161.4c-30.9,0-59.9-8.7-84.4-23.8
				c28.7,44.8,78.9,74.4,136,74.4c89.1,0,161.4-72.2,161.4-161.4C737.2,155.9,706.4,104.9,660.2,76.5z"/>
		</g>
	</g>
	<polygon class="st13" points="844.7,277.8 918,357.2 862.3,404.6 854.1,394.6 875.9,349.3 833.1,311.6 	"/>
	<g>
		<g>
			<polygon class="st3" points="862.9,475.8 866.3,552.6 856.6,683.1 842,684.1 824.4,565.6 800,465.3 			"/>
			<polygon class="st2" points="842.6,690.3 858.8,697 866.1,688.6 857.7,681.3 842,682.4 			"/>
		</g>
		<g>
			<polygon class="st3" points="760.2,448.7 757,506.7 766.5,679.2 781,679.9 802.8,566.8 822,442.7 			"/>
			<polygon class="st2" points="780.6,686.1 764.5,693.1 757,684.9 765.3,677.4 781,678.2 			"/>
		</g>
		<g>
			<path class="st13" d="M844.7,277.8l-45.4-4.9c0,0-25.2,2.7-42.4,62.6c-9.5,33.3-12.4,85.9-13.1,125.9c1.1,5.7,7.3,30.7,33.6,26.5
				c45.2-7.3,69.2-14.6,88.9-10.9c16.8,3.6,15.3-19.4,13.5-37.1l-6.7-54.5L844.7,277.8z"/>
		</g>
		<g>
			<path class="st14" d="M835.9,221.3c-11.4-2.5-23.2-4.8-34.6-2.5c-2.5,0.5-5.2,1.4-6.6,3.5c-0.5,0.8-0.8,1.8-1.1,2.8
				c-2.9,10.7-6.6,26.6,0.5,36.5c1.3,1.9,3.2,3.4,5.1,4.6c2.6,1.6,5.5,2.7,8.5,3.3c-0.6,2.7-1.5,5.3-2.6,7.8
				c2.6,3.9,14.8,4.4,17.1,0.6c0.1-3.3,0.3-6.5,0.4-9.8c1.5-0.6,2.9-1.3,4.3-2.2c5.2-3.4,8.7-8.7,10.7-14.5
				c2.2-6.4,5.2-12.4,7.2-18.9c0.7-2.4,1.3-5.1,0.1-7.2c-1.3-2.3-4.2-3-6.7-3.6C837.4,221.6,836.7,221.5,835.9,221.3z"/>
			<path class="st2" d="M797.9,227.4c5.7-3.6,14.1-5.2,19.4-4.8c16.1,1.2,21.9,13,22.8,27.7c4.4-5.6,12.7-12.7,13.2-19.9
				c0.4-5.9-0.4-14-3.7-19.1c-3.1-4.8-11-7.4-15.8-10.2c-4.5-2.6-8.9-5.2-13.4-7.8c-0.9-0.5-1.9-1.1-2.9-1.3
				c-1.3-0.2-2.5,0.1-3.8,0.4c-10.5,2.7-21,5.4-31.6,8.2c-2,0.5-4.3,1.3-5.1,3.2c-0.5,1.2-0.2,2.5,0.1,3.8c1.2,5.5,3.5,11,4.1,16.6
				c0.6,3.2,2.6,19.7,8.3,17.8c1.7-2.7,1.9-6.1,3.2-9C793.8,230.7,795.6,228.9,797.9,227.4z"/>
		</g>
		<polygon class="st13" points="799.3,272.9 782.6,278 721.4,342.1 717.7,363.3 747,411.6 754.9,393.9 742.5,358.2 762.2,344.3 
			788.4,285.3 		"/>
	</g>
	<path class="st15" d="M906,236.9c1.3-8.5-4.5-16.5-13-17.9s-16.6,4.5-17.9,13l0,0l-20.8,64.8c-4.9,15.3-15.9,27.8-30.3,34.7
		l-53,25.3l39.8-43.5c0.7-0.6,1.3-1.3,1.8-2l0,0l0,0c1.4-1.8,2.3-4,2.7-6.4c1.2-7.9-4.1-15.2-12-16.5c-3.6-0.6-7,0.2-9.9,2l0,0
		l-53.1,35.1c-22.9,15.2-38.4,39.3-42.7,66.4l-4.8,30.3c-3.2,20.5,10.7,39.7,31.2,43c7.9,1.3,15.6-0.1,22.3-3.4
		c1.8-0.9,3.6-1.9,5.2-3.1l108.7-64.4c14.5-8.6,24.4-23.2,27-39.8L906,236.9L906,236.9z"/>
	<g>
		<g>
			<g>
				<g>
					<polygon class="st16" points="353.7,480.1 290.6,456.9 303.6,567.3 296.1,662.6 295.9,663.3 296,663.3 295.2,673.3 
						306.4,673.3 306.1,674.4 306.4,673.3 336.7,579.8 351.4,489.4 351.4,489.4 					"/>
					<polygon class="st2" points="307.8,669 294.9,668.7 291.6,679.6 291.9,679.7 291.9,679.7 313.2,692.3 323.3,693.5 324.6,681.9 
						321.9,679.9 					"/>
				</g>
				<g>
					<polygon class="st16" points="396.6,482 376.9,679.3 366.2,679.3 352.7,569.5 330.9,467.8 					"/>
					<polygon class="st2" points="377.7,675.5 394.2,684.9 392.7,692.7 363.1,688.2 364.9,677 					"/>
				</g>
				<g>
					<path class="st2" d="M426.2,529.5c4-2.8,4.1-7.6,4.1-12.4c0-9.1-1.6-18.3-3.7-27.2c-4-16.5-8.4-36.5-10.4-57.9
						c-5.1-55.4-22.6-92.6-22.6-92.6l-5.6-15.1c-1.1-2-2.3-3.9-3.5-5.8c-7-11.1-19.3-29.9-32.4-32.9c-0.3-0.1-0.5-0.1-0.8-0.2
						c-13.8-3-31.4-1.6-43.8,5.1c-2.4,1.3-4.5,3-6.5,4.6c-6.1,4.9-11,7.6-13.7,15c-2.3,6.5-2.8,13.6-4.1,20.3
						c-2.6,13.7-4.1,27.5-6.1,41.2c-3.8,25.8-7.1,51.6-11.1,77.4c-2.1,13.2-4.2,26.5-5.2,39.9c-0.9,11.8-11.6,23.9-17.6,34.5
						c-2.1,3.7,27.9,13.3,30.6,13.9c12.4,2.9,25.7,2.2,38.5,2.2c28.1,0.1,56.2-0.7,84.2-2.6c9.3-0.6,20.8-2.4,29.1-7
						C425.7,529.8,426,529.6,426.2,529.5z"/>
				</g>
				<g>
					<g>
						<path class="st2" d="M357.8,255.6c2.4,7.2-1.1,14.9-4.1,21.4c-2.7,5.8-3.6,9.6,3.2,11.2c3.9,0.9,10.7,2.5,14.1-0.4
							c2.6-2.2,1.1-9.2-0.1-11.9c-1-2.1-3.5-3.2-4.4-5.3c-0.4-0.9-0.4-1.8-0.4-2.8c-0.1-3.9,0.5-7.8,1.6-11.5c0.7-2.5,1.8-5,2-7.6
							c0.3-3.8-2.4-8.2-3.8-11.7c-2.6-6.5-11.8-15.2-19.4-10.1c-1.7,1.2-2.8,3.1-3.6,5c-0.5,1.1-1,2.3-1,3.6c-0.1,5,4.5,5.8,7.6,8.2
							C353.3,246.6,356.3,251,357.8,255.6z"/>
						<path class="st16" d="M343.2,283.7c6.6-1.6,11.8-7.1,14.3-13.5s2.6-13.4,1.9-20.2c-2.3-22.6-30.4-21.2-39.9-3.8
							C311.3,261.2,323.9,288.2,343.2,283.7z"/>
					</g>
					<path class="st16" d="M343.2,281.2c-0.1,2.6-0.2,5.2-0.3,7.7c0,0.4,0,0.8-0.3,1.1c-0.3,0.3-0.8,0.3-1.2,0.3
						c-2.1-0.1-4.2-0.1-6.3-0.2c-1,0-2.1-0.1-3-0.6c-2-1.1-2.4-3.8-2.1-6.1c0.3-2.3,1.1-4.5,0.7-6.8c4.3,2.1,8.5-2.7,12.8-0.6
						L343.2,281.2z"/>
				</g>
				<path class="st2" d="M334.2,210.8c-7.4,2.5-12.1,10-19.3,13c-4.1,1.7-9,1.9-12.4,4.9c-7.6,6.6-1.5,20.4-7.7,28.3
					c-1.3,1.6-3,2.9-4.3,4.5c-2.8,3.5-3.2,8.3-3.4,12.8c-0.1,1-0.1,2.1,0.1,3.1c1,10.4,16,9.7,22,9c6.6-0.7,4.4-4.4,4.4-4.4
					l-0.2-0.3c-0.6-4.2,1.1-8.7,4.4-11.4c1.2-1,2.7-1.8,3.5-3.1c1.9-3,0.1-6.9,0.4-10.4c1.1-14.2,25-11.2,31.8-21.3
					C361.6,223,348.1,206,334.2,210.8z"/>
			</g>
			<polygon class="st2" points="291.6,303.9 214.5,372.7 227.5,394.6 300.9,347.1 			"/>
		</g>
		<path class="st15" d="M191.2,241.8c-2-8.4,3.2-16.8,11.6-18.8c8.4-2,16.9,3.2,18.9,11.6l0,0l25.8,63c6.1,14.8,18,26.5,32.9,32.2
			l54.7,21l-43-40.2c-0.7-0.5-1.4-1.1-1.9-1.8l0,0l0,0c-1.5-1.7-2.6-3.8-3.2-6.2c-1.8-7.7,2.9-15.5,10.7-17.4c3.5-0.8,7-0.3,10,1.2
			l0,0l55.6,30.9c24,13.3,41.4,36.2,47.8,62.9l7.1,29.8c4.8,20.2-7.6,40.4-27.8,45.3c-7.8,1.9-15.6,1.1-22.5-1.6
			c-1.9-0.8-3.7-1.6-5.5-2.7L249,395.2c-15.1-7.4-26.1-21.2-30-37.6L191.2,241.8L191.2,241.8z"/>
		<g>
			<polygon class="st16" points="422.4,423 416,436 410.3,433.5 412.7,423.7 409.5,423.7 416.3,413.3 422.5,415.1 			"/>
			<polygon class="st2" points="371.7,291.3 352,285.5 361.5,311 407.4,363.5 407,359.2 412.2,413.5 424.4,420 438.8,352.7 			"/>
		</g>
		<polygon class="st16" points="226.1,387.6 236.3,386.1 233.6,369.4 217.4,362.7 210.5,376.2 		"/>
	</g>
	<polygon class="st15" points="432.6,303.3 434.2,293 450.9,295.8 457.5,312.1 444.1,318.9 	"/>
	<polygon class="st15" points="712.5,315 713,304.6 696.1,303.9 686.2,318.4 698,327.9 	"/>
	<polygon class="st14" points="694,382.6 703,377.5 711.1,392.4 702.5,407.6 688.8,401.3 	"/>
	<polygon class="st14" points="878.4,393.9 880.5,383.7 863.8,380.6 852,393.5 862.3,404.6 	"/>
</g>
</svg>
