<?xml version="1.0" encoding="utf-8"?>
<!-- Generator: Adobe Illustrator 24.2.1, SVG Export Plug-In . SVG Version: 6.00 Build 0)  -->
<svg version="1.1" id="ad1db818-b740-459f-8c8c-b7c337b4c82d"
	 xmlns="http://www.w3.org/2000/svg" xmlns:xlink="http://www.w3.org/1999/xlink" x="0px" y="0px" viewBox="0 0 829.8 635.9"
	 style="enable-background:new 0 0 829.8 635.9;" xml:space="preserve">
<style type="text/css">
	.st0{fill:#EBEBEB;}
	.st1{fill:#FFFFFF;}
	.st2{fill:#F5F5F5;}
	.st3{fill:#E0E0E0;}
	.st4{fill-rule:evenodd;clip-rule:evenodd;fill:#FFFFFF;}
	.st5{fill:#041147;}
	.st6{fill:#FF8300;}
	.st7{fill:#FFBE9D;}
	.st8{opacity:0.4;}
	.st9{opacity:0.5;}
	.st10{opacity:0.6;}
	.st11{fill:#EB996E;}
</style>
<g>
	<g id="XMLID_68_">
		<path id="XMLID_74_" class="st0" d="M253.9,158.5L253.9,158.5c-24.6,0-44.6-20-44.6-44.6l0,0c0-24.6,20-44.6,44.6-44.6l0,0
			c24.6,0,44.6,20,44.6,44.6l0,0C298.4,138.5,278.5,158.5,253.9,158.5z"/>
		<g id="XMLID_69_">
			<g id="XMLID_71_">
				<rect id="XMLID_73_" x="233.6" y="104" class="st1" width="9.2" height="29.9"/>
				<path id="XMLID_72_" class="st1" d="M238.1,100c3,0,5.5-2.5,5.5-5.5s-2.5-5.5-5.5-5.5s-5.5,2.5-5.5,5.5
					C232.7,97.5,235.1,100,238.1,100z"/>
			</g>
			<path id="XMLID_70_" class="st1" d="M257.6,118.1c0-4.2,1.9-6.7,5.7-6.7c3.4,0,5,2.4,5,6.7c0,4.3,0,15.6,0,15.6h9.2
				c0,0,0-10.9,0-18.8c0-8-4.5-11.9-10.8-11.9s-9,4.9-9,4.9v-4.1h-8.9v29.9h8.9C257.6,133.8,257.6,122.7,257.6,118.1z"/>
		</g>
	</g>
	<polygon class="st2" points="313.6,25.1 319.7,36.2 330.9,42.3 319.7,48.4 313.6,59.6 307.5,48.4 296.3,42.3 307.5,36.2 	"/>
	<polygon class="st0" points="568.3,327.6 572.9,336 581.3,340.6 572.9,345.1 568.3,353.6 563.7,345.1 555.4,340.6 563.7,336 	"/>
	<polygon class="st3" points="581.3,286.3 583.4,290 587.2,292.2 583.4,294.2 581.3,297.9 579.2,294.2 575.5,292.2 579.2,290 	"/>
	<polygon class="st3" points="270,29.3 272.1,33 275.8,35.1 272.1,37.2 270,40.9 267.9,37.2 264.1,35.1 267.9,33 	"/>
	<g>
		<g>
			<path class="st3" d="M166.3,380.3c4.7-2,7.9-7,7.9-12.6c-0.1-7.5-5.8-13.5-12.7-13.4c-7,0.1-12.6,6.2-12.5,13.6
				c0,5.8,3.4,10.6,8.2,12.5c-19.5,3.2-18.3,24.4-18.3,24.4l46.1-0.4C185,404.4,185.7,383,166.3,380.3z"/>
		</g>
	</g>
	<g>
		<path class="st0" d="M608.5,519.9c-0.6-3.3-4-5.9-7.3-5.8s-6.4,2.9-6.8,6.2c-0.5-3.3-3.5-6.1-7-6.1c-3.4-0.1-6.6,2.6-7.3,5.9
			c-0.4,2.5,0.4,4.9,1.7,7c1.4,2,3.2,3.7,5,5.3c2.6,2.2,4.9,4.5,7.5,6.7c2.6-2.4,4.7-4.5,7.3-6.8c1.8-1.6,3.6-3.3,5-5.3
			C608,524.9,608.9,522.3,608.5,519.9z"/>
	</g>
	<g>
		<g>
			<path class="st3" d="M638.4,245.4l4.9-1l7.8-17.1l-1.9-9.8c0,0,7.5-2,9.2,11.1s2,9.6,2,9.6s16.3-3.1,17.9-2
				c1.2,0.9,4.8,16.8,6.7,25.6c1,4.4-1,9-4.8,10.8c-0.5,0.2-1.1,0.4-1.7,0.5c-4.1,0.7-25.4,1.6-25.4,1.6l-8.6,1.7L638.4,245.4z"/>
		</g>
		<g>
			<polygon class="st3" points="623.8,245.5 633.5,278.7 642,277.1 635.4,243.9 			"/>
		</g>
	</g>
	<g id="XMLID_38_">
		<path id="XMLID_44_" class="st0" d="M641.4,381.6L641.4,381.6c-18.8-7.2-28.2-28.2-21.1-47.1l0,0c7.2-18.8,28.2-28.2,47.1-21.1
			l0,0c18.8,7.2,28.2,28.2,21.1,47.1l0,0C681.3,379.4,660.2,388.9,641.4,381.6z"/>
		<g id="XMLID_39_">
			<path id="XMLID_41_" class="st4" d="M673.5,353.8c3.5-10-1.6-21-11.6-24.7c-9.8-3.7-20.9,0.9-25,10.4c-0.1,0.2-0.2,0.5-0.3,0.7
				c-1.3,3.4-1.6,7.1-1,10.4l-7.1,8.6l11.4,0.6c2,2.5,4.8,4.4,8,5.7c10.2,3.9,21.5-1.2,25.4-11.2
				C673.4,354.1,673.5,353.9,673.5,353.8z M649.1,362.6c-3.1-1.2-5.7-3.2-7.5-5.8l-6.6-0.4l4.1-4.9c-0.9-3.2-0.7-6.7,0.5-10.1
				c0.2-0.5,0.4-1,0.6-1.5c3.7-7.5,12.6-11,20.7-7.9c8.1,3.1,12.4,11.9,10,20c-0.1,0.4-0.2,0.9-0.4,1.2
				C667.2,361.6,657.7,365.8,649.1,362.6z"/>
			<path id="XMLID_40_" class="st4" d="M662,354.1c-0.3-0.4-2.1-2.4-2.6-2.7c-0.3-0.3-0.6-0.5-1.1-0.2s-1.7,1-2.1,1.2
				c-0.4,0.2-0.6,0.1-1.1-0.2c-0.3-0.4-1.6-1.4-2.8-3.6c-0.9-1.7-1.3-3.5-1.3-4.1c-0.1-0.5,0.2-0.7,0.5-0.9s0.6-0.3,1-0.5
				c0.1-0.1,0.2-0.1,0.2-0.1c0.2-0.1,0.3-0.2,0.5-0.4c0.3-0.2,0.3-0.5,0.2-0.7c0-0.2-0.1-2.8-0.1-3.9s-0.4-1.1-0.7-1.2
				c-0.2-0.1-0.5-0.2-0.9-0.3s-0.9-0.2-1.4,0.1c-0.5,0.3-2.1,1-3,3.1c-0.2,0.5-0.3,1.1-0.3,1.6c-0.1,1.7,0.3,3.4,0.4,3.7
				c0.1,0.4,1.2,6.1,5.1,9.6c3.9,3.5,4.2,2.9,5,3.2c0.9,0.2,3.1-0.1,3.9-1s1.1-1.8,1.1-2C662.6,354.8,662.4,354.6,662,354.1z"/>
		</g>
	</g>
	<g id="XMLID_24_">
		<path id="XMLID_26_" class="st5" d="M167,213L167,213c-15.4,0-27.8-12.4-27.8-27.8l0,0c0-15.4,12.4-27.8,27.8-27.8l0,0
			c15.4,0,27.8,12.4,27.8,27.8l0,0C194.8,200.6,182.4,213,167,213z"/>
		<path id="XMLID_25_" class="st1" d="M152.2,194.5c2.7,1.7,5.9,2.8,9.3,2.8c11.3,0,17.7-9.5,17.3-18.1c1.2-0.9,2.2-1.9,3-3.1
			c-1.1,0.5-2.2,0.9-3.5,1c1.3-0.7,2.2-1.9,2.7-3.3c-1.2,0.7-2.5,1.2-3.9,1.5c-1.1-1.2-2.7-1.9-4.5-1.9c-4,0-6.8,3.6-5.9,7.5
			c-5-0.2-9.5-2.7-12.5-6.3c-1.6,2.8-0.9,6.3,1.9,8.1c-1,0-1.9-0.3-2.8-0.7c-0.1,2.8,1.9,5.5,4.9,6c-0.9,0.2-1.8,0.3-2.8,0.1
			c0.7,2.5,3,4.2,5.7,4.2C158.6,193.9,155.4,194.9,152.2,194.5z"/>
	</g>
	<g id="XMLID_4_">
		<path id="XMLID_21_" class="st0" d="M216.9,524.7L216.9,524.7c-25.8,6.1-51.6-9.7-57.7-35.5l0,0c-6.1-25.8,9.7-51.6,35.5-57.7l0,0
			c25.8-6.1,51.6,9.7,57.7,35.5l0,0C258.7,492.7,242.7,518.6,216.9,524.7z"/>
		<g id="XMLID_5_">
			<path id="XMLID_14_" class="st1" d="M200.9,457.2c6.8-1.6,7.6-1.8,10.4-2.4c2.6-0.4,4-0.4,4.9-0.2c1.3,0.2,2.2,0.5,3.4,1.2
				c1.1,0.6,1.8,1.4,2.6,2.5c0.5,0.9,1.3,2,2,4.5c0.7,2.7,1,3.4,2.6,10.3s1.8,7.6,2.4,10.4c0.4,2.6,0.4,4,0.2,4.9
				c-0.2,1.3-0.5,2.2-1.2,3.4c-0.6,1.1-1.4,1.8-2.5,2.6c-0.9,0.5-2,1.3-4.5,2c-2.7,0.7-3.4,1-10.3,2.6c-6.8,1.6-7.6,1.8-10.4,2.4
				c-2.6,0.4-4,0.4-4.9,0.2c-1.3-0.2-2.2-0.5-3.4-1.2c-1.1-0.6-1.8-1.4-2.6-2.5c-0.5-0.9-1.3-2-2-4.5c-0.7-2.7-1-3.4-2.6-10.3
				c-1.6-6.8-1.8-7.6-2.4-10.4c-0.4-2.6-0.4-4-0.2-4.9c0.2-1.3,0.5-2.2,1.2-3.4c0.6-1.1,1.4-1.8,2.5-2.6c0.9-0.5,2-1.3,4.5-2
				C193.3,459,194.1,458.8,200.9,457.2 M199.8,452.6c-7,1.6-7.8,1.9-10.5,2.7c-2.7,0.7-4.5,1.6-5.9,2.7c-1.5,1.1-2.8,2.2-3.9,4.1
				c-1.1,1.7-1.6,3.4-1.8,5.2c-0.2,1.8-0.2,3.7,0.3,6.5s0.7,3.6,2.4,10.6s1.9,7.8,2.7,10.5s1.6,4.5,2.7,5.9c1.1,1.5,2.2,2.8,4.1,3.9
				c1.7,1.1,3.4,1.6,5.2,1.8s3.7,0.2,6.5-0.3s3.6-0.7,10.6-2.4c7-1.6,7.8-1.9,10.5-2.7c2.7-0.7,4.5-1.6,5.9-2.7
				c1.5-1.1,2.8-2.2,3.9-4.1c1.1-1.7,1.6-3.4,1.8-5.2c0.2-1.8,0.2-3.7-0.3-6.5s-0.7-3.6-2.4-10.6c-1.6-7-1.9-7.8-2.7-10.5
				c-0.7-2.7-1.6-4.5-2.7-5.9c-1.1-1.5-2.2-2.8-4.1-3.9c-1.7-1.1-3.4-1.6-5.2-1.8s-3.7-0.2-6.5,0.3
				C207.6,450.6,206.8,450.9,199.8,452.6"/>
			<path id="XMLID_8_" class="st1" d="M202.7,465c-7.3,1.7-11.8,9-10,16.3c1.7,7.3,9,11.8,16.3,10c7.3-1.7,11.8-9,10-16.3
				C217.3,467.8,210,463.3,202.7,465 M208,486.6c-4.7,1.1-9.4-1.8-10.6-6.5c-1.1-4.7,1.8-9.4,6.5-10.6c4.7-1.1,9.4,1.8,10.6,6.5
				C215.6,480.7,212.7,485.5,208,486.6"/>
			<path id="XMLID_7_" class="st1" d="M219.3,460.5c0.4,1.7-0.6,3.4-2.4,3.7c-1.7,0.4-3.4-0.6-3.9-2.4c-0.4-1.7,0.6-3.4,2.4-3.7
				C217.3,457.7,219,458.8,219.3,460.5"/>
		</g>
	</g>
	<g id="XMLID_1_">
		<path id="XMLID_3_" class="st5" d="M580,482.5L580,482.5c-12.3,0-22.4-10.1-22.4-22.4l0,0c0-12.3,10.1-22.4,22.4-22.4l0,0
			c12.3,0,22.4,10.1,22.4,22.4l0,0C602.4,472.5,592.3,482.5,580,482.5z"/>
		<path id="XMLID_2_" class="st1" d="M576.6,473.6h5.5V460h3.7l0.4-4.6H582c0,0,0-1.7,0-2.6c0-1.1,0.2-1.5,1.3-1.5c0.9,0,3,0,3,0
			v-4.7c0,0-3.1,0-3.7,0c-4.1,0-5.9,1.8-5.9,5.2c0,3,0,3.6,0,3.6h-2.8v4.6h2.8v13.5h-0.1V473.6z"/>
	</g>
	<g>
		<g>
			<g>
				<g>
					<g>
						<g>
							<g>
								<g>
									<path class="st5" d="M503.8,606l-179.5-0.1c-21.6,0-39.1-17.5-39.1-39.2l0.1-450.1c0-21.6,17.5-39.2,39.2-39.1L504,77.6
										c21.6,0,39.1,17.5,39.1,39.2L543,566.9C542.9,588.5,525.3,606,503.8,606z"/>
								</g>
							</g>
						</g>
						<g>
							<g>
								<g>
									<path class="st1" d="M503.7,93.6h-34.8c-4.7,0-8.5,4-8.5,8.9v6.3c0,4.9-3.7,8.9-8.5,8.9h-67.8c-4.7,0-8.5-4-8.5-8.9v-6.3
										c0-4.9-3.7-8.9-8.5-8.9h-12.2h-30.5c-15.1,0-27.4,12.3-27.4,27.4l-0.1,439.3c0,15.1,12.2,27.4,27.4,27.4l179.2,0.1
										c15.1,0,27.4-12.3,27.4-27.4l0.1-439.3C531.1,105.9,518.8,93.6,503.7,93.6z"/>
								</g>
							</g>
						</g>
					</g>
				</g>
				<g>
					<g>
						<g>
							<g>
								<path class="st5" d="M506.4,129.3c0,0.1-4.5,0.2-10.1,0.3c-5.6,0-10.2,0-10.2-0.1s4.5-0.2,10.1-0.3
									C501.8,129.1,506.4,129.1,506.4,129.3z"/>
							</g>
						</g>
					</g>
					<g>
						<g>
							<g>
								<path class="st5" d="M506.4,134.5c0,0.1-4.5,0.2-10.1,0.3c-5.6,0-10.2,0-10.2-0.1s4.5-0.2,10.1-0.3
									C501.9,134.2,506.4,134.3,506.4,134.5z"/>
							</g>
						</g>
					</g>
					<g>
						<g>
							<g>
								<path class="st5" d="M506.4,139.6c0,0.1-4.5,0.2-10.1,0.3c-5.6,0-10.2,0-10.2-0.1s4.5-0.2,10.1-0.3
									C501.9,139.5,506.4,139.5,506.4,139.6z"/>
							</g>
						</g>
					</g>
				</g>
				<g>
					<g>
						<g>
							<path class="st5" d="M315.9,144.6c0,0,0.2,0,0.5,0c0.4,0,0.9,0,1.5,0c1.4,0,3.2-0.1,5.5-0.1l-0.1,0.1c0-1.2,0-2.6-0.1-4
								c0-0.7-0.1-1.4,0-2.2c0.1-0.9,0.9-1.6,1.8-1.7c0.9,0,1.6-0.1,2.6,0s1.8,1.1,1.8,2.1c0,1.8,0,3.7,0.1,5.8l-0.2-0.2
								c2.2,0,4.5,0,6.8-0.1l-0.2,0.2c0-2.8,0-5.7-0.1-8.6c0-0.7,0-1.5,0-2.1s-0.4-1.1-1-1.6c-1-1-2-2-3-3s-1.9-1.9-2.9-2.9
								c-0.4-0.4-1-1-1.4-1.4c-0.5-0.4-0.9-1-1.4-1.1s-1.2,0-1.6,0.3s-0.9,0.9-1.3,1.3c-0.9,0.9-1.7,1.7-2.5,2.5
								c-1.5,1.6-3.2,3.1-4.4,4.5c-0.5,0.7-0.3,1.7-0.3,2.6c0,0.9,0,1.6,0,2.5c0,1.5,0,2.8,0,3.9c0,1,0,1.8,0,2.5
								C315.9,144.3,315.9,144.6,315.9,144.6s0-0.3,0-0.9c0-0.6,0-1.5-0.1-2.5c0-1.1-0.1-2.5-0.1-4c0-0.7,0-1.6,0-2.5
								c0-0.4,0-0.9,0-1.4s0.1-1,0.4-1.4c1.3-1.6,2.8-2.9,4.4-4.6c0.7-0.9,1.6-1.6,2.5-2.5c0.4-0.4,0.7-0.9,1.3-1.3
								c0.5-0.4,1.3-0.5,2-0.4c0.7,0.2,1.2,0.7,1.6,1.2c0.4,0.4,1,1,1.4,1.4c1,1,1.9,1.9,2.9,2.9s2,1.9,3,3c0.2,0.2,0.5,0.4,0.7,0.9
								c0.2,0.3,0.3,0.7,0.3,1.2c0,0.7,0,1.5,0,2.1c0,2.9,0,5.8,0.1,8.6v0.2h-0.2c-2.4,0-4.7,0-6.8,0h-0.2v-0.2c0-2,0-4,0-5.8
								c0-0.9-0.6-1.6-1.4-1.7c-0.7,0-1.7,0-2.5,0c-0.7,0.1-1.4,0.6-1.5,1.3c-0.1,0.6,0,1.5,0,2.2c0,1.4,0,2.8,0,4v0.1h-0.1
								c-2.2,0-4.1,0-5.6,0c-0.5,0-1.1,0-1.4,0C316.1,144.7,315.9,144.7,315.9,144.6z"/>
						</g>
					</g>
				</g>
				<g>
					<g>
						<g>
							<g>
								<path class="st5" d="M434.4,488c0,0-0.6,0.1-1.9,0.1c-1.4,0-3.1,0.1-5.1,0.1c-4.3,0.1-10.3,0.1-16.9,0.1s-12.6,0-16.9-0.1
									c-2,0-3.7-0.1-5.1-0.1c-1.2,0-1.9-0.1-1.9-0.1s0.6-0.1,1.9-0.1c1.4,0,3.1-0.1,5.1-0.1c4.3-0.1,10.3-0.1,16.9-0.1
									s12.6,0,16.9,0.1c2,0,3.7,0.1,5.1,0.1C433.7,487.9,434.4,487.9,434.4,488z"/>
							</g>
							<g>
								<path class="st5" d="M509.6,499.7c0,0.2-27.6,0.3-61.5,0.3c-34,0-61.5-0.1-61.5-0.3c0-0.2,27.6-0.3,61.5-0.3
									C482.1,499.4,509.6,499.5,509.6,499.7z"/>
							</g>
							<g>
								<path class="st5" d="M471.2,510.9c0,0.2-18.9,0.3-42.4,0.3c-23.4,0-42.4-0.1-42.4-0.3s18.9-0.3,42.4-0.3
									C452.2,510.4,471.2,510.7,471.2,510.9z"/>
							</g>
						</g>
					</g>
					<g>
						<path class="st5" d="M512.1,532.4l-3.9-3.9l-3.6,3.6v-11h7.5V532.4z M508.2,528.1l0.1,0.1l3.3,3.4v-10.1h-6.7v9.8L508.2,528.1
							z"/>
					</g>
					<g>
						<path class="st5" d="M410.2,531l-1.4-0.6c-0.6,0.3-1.2,0.5-1.7,0.5c-2,0-3.7-1.6-3.7-3.7c0-2,1.6-3.7,3.7-3.7
							c2,0,3.7,1.6,3.7,3.7c0,1-0.3,1.8-1,2.5L410.2,531z M407.1,523.6c-1.9,0-3.5,1.6-3.4,3.5c0,1.9,1.6,3.5,3.5,3.4
							c0.5,0,1.1-0.2,1.7-0.5h0.1l1,0.4l-0.2-1l0,0c0.6-0.6,1-1.5,1-2.4C410.5,525.2,409,523.6,407.1,523.6z"/>
					</g>
					<g>
						<path class="st5" d="M418.9,530.4l-1.5-3.7l-2.9-2.7l7.1-0.1L418.9,530.4z M415.1,524.3l2.5,2.2l1.3,3.2l2.2-5.6L415.1,524.3z
							"/>
					</g>
					<g>
						
							<rect x="417.1" y="525.2" transform="matrix(0.8382 -0.5454 0.5454 0.8382 -218.6305 313.7563)" class="st5" width="4.6" height="0.2"/>
					</g>
					<g>
						<path class="st6" d="M399.2,524.8c-0.2-1-1.2-1.8-2.2-1.7c-1,0-1.9,0.9-2,1.9c-0.1-1-1.1-1.8-2.1-1.8s-2,0.7-2.1,1.8
							c-0.1,0.7,0.1,1.5,0.5,2.1s1,1.1,1.5,1.6c0.7,0.6,1.5,1.4,2.2,2c0.7-0.7,1.4-1.4,2.2-2c0.5-0.5,1.1-1,1.5-1.6
							C399.1,526.3,399.3,525.5,399.2,524.8z"/>
					</g>
					<g>
						<path class="st5" d="M519.9,542.1c0,0,0-0.4,0-1.2c0-0.9,0-2,0-3.5c0-3.1,0-7.8-0.1-13.7c0-12-0.1-29.4-0.1-51.3l0.2,0.2
							c-50.1,0-124.9,0.1-208.2,0.1l0,0l0.3-0.3c0,24.3,0,47.7,0,69.8l-0.3-0.3c59.9,0.1,111.9,0.1,149.1,0.1
							c18.5,0,33.3,0.1,43.5,0.1c5,0,9,0,11.7,0c1.3,0,2.4,0,3,0C519.5,542.1,519.9,542.1,519.9,542.1s-0.3,0-1,0c-0.6,0-1.7,0-3,0
							c-2.7,0-6.5,0-11.6,0c-10.2,0-24.9,0-43.4,0.1c-37.1,0-89.2,0.1-149.3,0.1h-0.3V542c0-22,0-45.5,0-69.8v-0.3h0.3l0,0
							c83.4,0,158.1,0.1,208.2,0.1h0.2v0.2c0,21.9-0.1,39.4-0.1,51.4c0,6,0,10.6-0.1,13.7c0,1.5,0,2.7,0,3.5
							C520,541.7,519.9,542.1,519.9,542.1z"/>
					</g>
					<g>
						<g>
							<g>
								<g>
									
										<rect x="326" y="478.4" transform="matrix(5.680988e-03 -1 1 5.680988e-03 -160.2117 853.4019)" class="st0" width="46.1" height="57.7"/>
									<g>
										<path class="st5" d="M378,484.3c0,0-0.1,0-0.3,0c-0.2,0-0.4,0-0.9,0c-0.7,0-1.8,0-3.1,0c-2.8,0-6.7,0-11.9,0
											c-10.2,0-24.5,0-41.6-0.1l0.3-0.3c-0.1,13.7-0.1,29.4-0.2,46.1c0.1,0.1-0.6-0.6-0.3-0.3l0,0l0,0h0.1h0.1h0.2h0.5h1h2
											c1.3,0,2.7,0,4,0c2.6,0,5.2,0,7.8,0c5.1,0,10.2,0.1,15,0.1c9.7,0.1,18.7,0.1,27,0.2l-0.3,0.3c0.1-13.8,0.2-25.4,0.3-33.4
											c0.1-4,0.1-7.2,0.1-9.4c0-1.1,0-1.9,0-2.5C378,484.7,378,484.3,378,484.3s0,0.2,0,0.9c0,0.5,0,1.4,0,2.5
											c0,2.1,0,5.3,0,9.3c0,8.1,0,19.7,0,33.6v0.3h-0.3c-8.2,0-17.3-0.1-27-0.1c-4.8,0-9.8,0-15-0.1c-2.6,0-5.1,0-7.8,0
											c-1.3,0-2.7,0-4,0h-2h-1h-0.5h-0.2h-0.1H320l0,0l0,0c0.3,0.3-0.4-0.4-0.3-0.3c0.1-16.7,0.2-32.4,0.3-46.1V484h0.3
											c17.1,0.1,31.6,0.3,41.8,0.4c5,0.1,9,0.1,11.8,0.1c1.3,0,2.4,0,3.1,0.1c0.3,0,0.5,0,0.7,0
											C377.9,484.3,378,484.3,378,484.3z"/>
									</g>
								</g>
							</g>
						</g>
						
							<rect x="328.8" y="480.4" transform="matrix(5.683584e-03 -1 1 5.683584e-03 -160.1866 853.2771)" class="st3" width="40.3" height="53.6"/>
						<polygon class="st2" points="322,527.2 341,502.3 352.4,518 360.3,509.7 375.7,527.6 						"/>
						<g>
							<g>
								<path class="st2" d="M357.4,499.3c0,2.4-1.9,4.2-4.3,4.2s-4.2-1.9-4.2-4.3s1.9-4.2,4.3-4.2C355.6,495,357.5,497,357.4,499.3
									z"/>
							</g>
						</g>
					</g>
				</g>
				<g>
					<g>
						<g>
							<g>
								<g>
									<path class="st5" d="M417.6,185.2c0,0-0.2,0-0.6,0.1c-0.5,0-1.1,0-1.8,0.1c-1.6,0-3.9,0.1-6.5,0.1
										c-5.5,0.1-13.1,0.1-21.4,0.1s-15.9,0-21.4-0.1c-2.7,0-4.8-0.1-6.5-0.1c-0.7,0-1.3,0-1.8-0.1c-0.4,0-0.6,0-0.6-0.1
										c0,0,0.2,0,0.6-0.1c0.5,0,1.1,0,1.8-0.1c1.6,0,3.9-0.1,6.5-0.1c5.5-0.1,13.1-0.1,21.4-0.1s15.9,0,21.4,0.1
										c2.7,0,4.8,0.1,6.5,0.1c0.7,0,1.3,0,1.8,0.1C417.4,185.2,417.6,185.2,417.6,185.2z"/>
								</g>
							</g>
						</g>
						<g>
							<g>
								<path class="st5" d="M502.9,440.2l-5.7-5.7l-5.5,5.3v-16.4h11.1v16.8H502.9z M497.1,433.7l0.2,0.2l5,5V424h-10.1v14.7
									L497.1,433.7z"/>
							</g>
							<g>
								<path class="st5" d="M358.5,438.4l-2.7-1.2c-1.3,0.6-2.5,1.1-3.4,1.1c-4.1,0-7.4-3.2-7.5-7.3c0-4.1,3.2-7.4,7.3-7.5
									c4.1,0,7.4,3.2,7.5,7.3c0,1.8-0.6,3.5-1.8,4.9L358.5,438.4z M352.2,424c-3.7,0-6.8,3.1-6.8,7c0,3.7,3.1,6.8,7,6.8
									c1,0,2-0.3,3.3-1.1l0.1-0.1l1.9,0.9l-0.4-1.9l0.1-0.1c1.2-1.3,1.8-3,1.8-4.7C359.2,427,356,424,352.2,424z"/>
							</g>
							<g>
								<path class="st5" d="M375.5,437.3l-3-7.4l-5.7-5.2l13.8-0.1L375.5,437.3z M368,425.1l4.8,4.5l2.6,6.3l4.4-10.9L368,425.1z"
									/>
							</g>
							<g>
								
									<rect x="372.2" y="426.9" transform="matrix(0.8382 -0.5453 0.5453 0.8382 -171.9899 274.4973)" class="st5" width="9" height="0.5"/>
							</g>
							<g>
								<path class="st6" d="M336.7,426.1c-0.4-1.9-2.4-3.5-4.4-3.4s-3.9,1.7-4.1,3.7c-0.3-1.9-2.1-3.6-4.2-3.6s-4,1.5-4.3,3.5
									c-0.2,1.5,0.2,3,1.1,4.2s1.9,2.2,3,3.2c1.5,1.4,3,2.7,4.5,4c1.5-1.4,2.8-2.7,4.4-4.1c1.1-1,2.1-2,3-3.2
									C336.5,429.1,337,427.6,336.7,426.1z"/>
							</g>
						</g>
						<circle class="st0" cx="335.4" cy="185.2" r="9.4"/>
					</g>
					<g>
						<g>
							<path class="st5" d="M499.2,386.2c0,0.2-39.4,0.3-88,0.3s-88-0.1-88-0.3s39.4-0.3,88-0.3C459.8,385.9,499.2,386,499.2,386.2z
								"/>
						</g>
						<g>
							<path class="st5" d="M499.2,371.6c0,0.2-39.4,0.3-88,0.3s-88-0.1-88-0.3c0-0.2,39.4-0.3,88-0.3
								C459.8,371.2,499.2,371.4,499.2,371.6z"/>
						</g>
						<g>
							<path class="st5" d="M419.1,401.1c0,0.2-21.4,0.3-47.9,0.3c-26.4,0-47.9-0.1-47.9-0.3c0-0.2,21.4-0.3,47.9-0.3
								C397.6,400.8,419.1,400.9,419.1,401.1z"/>
						</g>
					</g>
				</g>
				<g>
					<g>
						<path class="st5" d="M407.2,560.7c0,2.1-1.7,3.7-3.7,3.7s-3.7-1.7-3.7-3.9c0-2.1,1.7-3.7,3.7-3.7
							C405.6,556.9,407.2,558.6,407.2,560.7z"/>
					</g>
					<g>
						<path class="st5" d="M418.9,560.7c0,2.1-1.7,3.7-3.7,3.7s-3.7-1.7-3.7-3.9c0-2.1,1.7-3.7,3.7-3.7
							C417.1,557,418.9,558.7,418.9,560.7z"/>
					</g>
					<g>
						<path class="st5" d="M430.4,560.8c0,2.1-1.7,3.7-3.7,3.7s-3.7-1.7-3.7-3.9c0-2.1,1.7-3.7,3.7-3.7
							C428.7,557,430.4,558.7,430.4,560.8z"/>
					</g>
				</g>
			</g>
			<g>
				<rect x="312.9" y="203.8" class="st3" width="208.2" height="127.3"/>
				<polygon class="st2" points="332.2,331.1 391.8,251.3 428.8,301.3 453.8,274.5 503.1,331.1 				"/>
				<g>
					<g>
						<path class="st2" d="M444.4,241.5c0,7.4-6,13.5-13.5,13.5c-7.4,0-13.5-6-13.5-13.5c0-7.4,6-13.5,13.5-13.5
							C438.4,228.1,444.4,234.1,444.4,241.5z"/>
					</g>
				</g>
			</g>
			<g>
				<path class="st5" d="M520.6,449.5c0-2.7-0.1-117.8-0.3-288l0.3,0.3c-62.8,0-133.5,0-208.2,0l0,0l0.3-0.3
					c0,107.7,0,207.5-0.1,288l-0.3-0.3C438.7,449.4,518.4,449.5,520.6,449.5c-2.2,0-82,0.1-208.2,0.3h-0.3v-0.3
					c0-80.7,0-180.3-0.1-288v-0.3h0.3l0,0c74.6,0,145.4,0,208.2,0h0.3v0.3c-0.1,85.3-0.1,157.3-0.1,208c0,25.4-0.1,45.4-0.1,59.1
					c0,6.8,0,12.1,0,15.6c0,1.7,0,3.1,0,4C520.6,449,520.6,449.5,520.6,449.5z"/>
			</g>
		</g>
	</g>
	<g>
		<g>
			<g>
				<g>
					<path class="st7" d="M422.7,485.2l4.6-15.5c0.9-3.3,1.8-7.3,3.3-11.9c1.3-4.1,4.6-8.3,7.6-11.4c4.7-4.8,7-4.8,10.1-7.4
						c0.3-0.2,0.6-0.4,0.9-0.6c0.6-0.3,1.2-0.9,1.5-1.3c2.7-3,0.1-7.5-5.5-7.1c-4.2,0.3-10.9,1.5-22,12.9c-0.1,0.2-0.3,0.3-0.4,0.5
						c-5.8,7.5-11.2-14-12.2-21.9c-0.6-5.2-6.2-8.3-11.3-6.5l-26.9,12.6c-2.2-0.7-4.8-0.6-7.8,0.2c-4,1.5-6.2,5.6-5.1,9.5l10.9,43.5
						l-32.1,106.7h69.1L422.7,485.2z"/>
				</g>
				<g>
					<g>
						<g>
							<g>
								<path class="st6" d="M475.8,387.3l-21.4,41.8l-10.7-3L390,469.8c-4.6,3.7-11.2,3.1-15.1-1.4l-20.4-23.8
									c0,0,41.2-17.8,48.8-32.4c7.6-14.7-1.2-18-1.2-18l19.4-22L475.8,387.3z"/>
							</g>
						</g>
						<g>
							<path class="st6" d="M448.1,301.8c0,0-31.2-7-75.2-49.2s-64.6-98.4-70.1-98.2c-5.3,0.3-28.9-10.6-73.6,86.6
								c-44.7,97.3-27.1,119.8-18.2,119.6c8.9-0.2,69.3-17,107-12.7c37.8,4.3,86.2,24,86.2,24L448.1,301.8z"/>
						</g>
						<g>
							<path class="st6" d="M514.5,354.9l-10.7,20.2l-4.8,9.1c-6.5,12.4-21.7,17.7-34.5,11.8l-67-23.3l39.1-89l67,35.6
								C516.3,326,521.3,341.9,514.5,354.9z"/>
						</g>
						<g class="st8">
							<path d="M514.5,354.9l-10.7,20.2l-4.8,9.1c-6.5,12.4-21.7,17.7-34.5,11.8l-67-23.3l39.1-89l67,35.6
								C516.3,326,521.3,341.9,514.5,354.9z"/>
						</g>
						<g>
							<path class="st6" d="M232.9,242.8c-23.8,52.6-33.7,99.6-22.1,104.9c11.6,5.2,40.2-33.3,64.1-85.9
								c23.8-52.6,33.7-99.6,22.1-104.9C285.3,151.7,256.6,190.1,232.9,242.8z"/>
						</g>
						<g class="st9">
							<path d="M232.9,242.8c-23.8,52.6-33.7,99.6-22.1,104.9c11.6,5.2,40.2-33.3,64.1-85.9c23.8-52.6,33.7-99.6,22.1-104.9
								C285.3,151.7,256.6,190.1,232.9,242.8z"/>
						</g>
					</g>
					<g>
						<polygon class="st6" points="520.3,384.1 502.1,378.4 513.3,357 526.9,365.6 						"/>
					</g>
					<g class="st10">
						<polygon points="513.3,357 502.1,378.4 505.8,379.6 514.9,358.1 						"/>
					</g>
					<g>
						<path class="st6" d="M500.8,361.9c-0.2,0.5-9.3-2.9-20.2-7.9c-10.9-4.9-19.6-9.4-19.3-10c0.2-0.5,9.3,2.9,20.2,7.9
							C492.5,356.9,501.1,361.4,500.8,361.9z"/>
					</g>
					<g>
						<path class="st6" d="M506.4,349.3c-0.3,0.5-8.5-2.9-18.3-7.7s-17.5-9.2-17.3-9.8c0.3-0.5,8.5,2.9,18.3,7.7
							C499,344.3,506.7,348.7,506.4,349.3z"/>
					</g>
					<g>
						<path class="st6" d="M493.8,375.3c-0.1,0.3-2.2-0.2-5.7-1.3c-1.7-0.5-3.7-1.2-6-2c-2.2-0.9-4.6-2-7.1-3.1
							c-10-4.6-17.5-9.1-17.2-9.6c0.3-0.6,8.5,3,18.2,7.5c2.5,1.1,4.7,2.4,7,3.2c2.1,0.9,4.1,1.7,5.8,2.5
							C491.9,374,493.9,375,493.8,375.3z"/>
					</g>
					<g>
						<path class="st6" d="M281.4,231.1c0,0-27.2-16.8-42.1,19.9s13.7,42.7,13.7,42.7C264.8,275.6,274.3,254.7,281.4,231.1z"/>
					</g>
					<g class="st9">
						<path d="M310.3,187.3c0.1,0-0.2,2.6-1.1,7.1s-2,11-3.9,18.9c-1.2,4-2.4,8.2-3.7,12.8c-0.6,2.4-1.4,4.7-2.1,7.2
							c-0.3,1.2-0.7,2.5-1.1,3.7c-0.4,1.3-1,2.5-1.4,3.7c-1.9,5-4,10.4-6.1,15.8c-0.5,1.4-1.1,2.8-1.6,4.2c-0.5,1.4-1.3,2.7-1.9,4.1
							c-1.3,2.8-2.7,5.6-4.1,8.3s-2.7,5.6-4.1,8.3c-0.6,1.4-1.3,2.8-2,4.1c-0.7,1.3-1.5,2.6-2.2,3.9c-3,5-5.9,10-8.7,14.7
							c-0.7,1.2-1.4,2.4-2,3.4c-0.7,1.1-1.5,2.1-2.2,3.2c-1.5,2.1-2.9,4.2-4.3,6.1c-2.8,4-5.3,7.6-7.8,10.9
							c-5.2,6.3-9.5,11.2-12.5,14.7c-3,3.4-4.7,5.2-4.8,5.1s1.4-2.1,4.2-5.8c2.9-3.6,7-8.9,12-15.2c2.2-3.3,4.8-7.1,7.5-11
							c1.4-1.9,2.8-4,4.2-6.1c0.7-1.1,1.5-2.1,2.2-3.2s1.3-2.2,2-3.4c2.7-4.6,5.6-9.5,8.5-14.6c0.7-1.3,1.5-2.6,2.2-3.9
							s1.3-2.7,2-4.1c1.3-2.7,2.7-5.5,4-8.2c1.4-2.8,2.7-5.6,4.1-8.2c0.6-1.4,1.4-2.7,1.9-4.1s1.1-2.8,1.6-4.1
							c2.1-5.5,4.3-10.7,6.2-15.7c0.5-1.3,1.1-2.5,1.4-3.7c0.4-1.3,0.7-2.5,1.2-3.7c0.7-2.5,1.5-4.8,2.2-7.1c1.4-4.6,2.8-8.8,4-12.7
							c1.9-7.8,3.4-14.2,4.5-18.7C309.4,189.8,310.1,187.3,310.3,187.3z"/>
					</g>
				</g>
				<g class="st8">
					<path d="M361.1,441.9c2.5,4.5,5,9.1,8.7,12.6c3.6,3.6,8.7,6.1,13.8,5.7c5.1-0.5,10-4.7,10.1-9.8c2.5,1.8,6.2,0.9,8.2-1.5
						c2-2.2,2.7-5.5,2.9-8.6c3.3,1.9,7.9,0.4,10.2-2.8c2.2-3.2,2.4-7.4,1.3-11.1s-3.2-7.1-5.3-10.3c2.6,0.2,5.2,0.4,7.6-0.7
						c2.2-1.2,3.9-4.2,2.5-6.4c-0.7-1.3-2.2-1.9-3.7-2.4c-4.1-1.3-6.8-2.2-11-1.8c-1,0,1.7,11-24.6,26.1
						C366.1,439.7,361.1,441.9,361.1,441.9z"/>
				</g>
			</g>
			<g>
				<path class="st11" d="M420.2,457.7c0,0.1-1.8-0.2-4.6-0.1c-2.8,0.1-6.7,0.6-10.7,2.6c-3.9,1.8-6.8,4.6-8.7,6.7s-2.7,3.7-2.8,3.6
					c0,0,0.1-0.4,0.5-1.2c0.4-0.7,1-1.7,1.9-2.9c1.7-2.2,4.7-5.1,8.8-7.1c4-1.9,8-2.5,10.9-2.5c1.4,0,2.6,0.1,3.4,0.3
					C419.8,457.6,420.2,457.7,420.2,457.7z"/>
			</g>
			<path class="st7" d="M362.8,434.8c4.3,4.1,7.2,8.6,11.6,12.6c2,1.8,5.1,5.3,7.8,5.9c2.7,0.4,4.4,0.1,5.5-2.5
				c0.9-2-0.6-4.8-1.7-6.5c-2.8-4.4-5.6-7.9-7.6-11.3c-1-1.6,0.3-1.9,0.7-1.2c2,2.1,5,4,6.8,6.2c2.5,3.1,3,7.3,9.5,6
				c0.9-0.2,1.7-0.4,2.5-1c2.5-1.9,2.6-5.1,1.5-7.8c-0.9-2-2.2-3.7-3.6-5.5c2.8,3.1,5.8,6.4,10.3,6.8c2.6,0.2,5.1-1,6.2-3.3
				c1.3-3-0.5-5.9-2.5-8.1c-3.3-4.1-7.1-7.9-11.1-11.3c-1.5-1.3-3.4-2-5.3-2c-2.2,0-5.1,0.4-6.5,2.4c-2.6,3.6-1.8,6.8-1.8,6.8
				s-5.8-2.9-10.4,0.1s-5.8,8.2-5.8,8.2L362.8,434.8z"/>
			<path class="st7" d="M393.3,410.4c-1.8-1.8-2.1-5-0.9-7.8c1-1.9,2.2-3.7,3.4-4.2c5.5-1.8,29.3,2.2,29.1,7.6
				c-0.2,5.5-1.9,7.8-14.9,6c-2.2-0.3-5.9-0.7-5.9-0.7L401,416L393.3,410.4z"/>
		</g>
		<g>
			<path class="st11" d="M397.6,432.6c-0.2,0.1-2-3.6-5.7-7c-3.6-3.3-7.5-4.8-7.4-5c0-0.1,1.1,0.2,2.6,0.9c1.5,0.7,3.4,1.9,5.3,3.6
				s3.3,3.5,4.2,5C397.4,431.6,397.7,432.6,397.6,432.6z"/>
		</g>
		<g>
			<path class="st11" d="M401.6,416.4c-0.1,0.1-1.7-1.2-3.9-2.5c-1.1-0.6-2-1.2-2.8-1.5c-0.7-0.3-1.2-0.4-1.2-0.5s0.5-0.1,1.4,0.1
				s1.9,0.7,3,1.4C400.3,414.6,401.7,416.2,401.6,416.4z"/>
		</g>
		<g>
			<path class="st11" d="M405.6,411.5c0,0.1-2.1,0.2-4.6-0.5c-1.3-0.4-2.2-1-2.9-1.5c-0.6-0.5-1-1.1-0.9-1.1c0.1-0.1,1.6,1.3,4,1.9
				S405.7,411.2,405.6,411.5z"/>
		</g>
		<g>
			<path class="st11" d="M382.5,439.2c-0.1,0.1-1-1.1-2.1-2.8c-1.3-1.7-2.9-4.4-5.6-6.3s-5.8-2.4-7.9-2.1s-3.2,1.2-3.3,1.1
				c0,0,0.2-0.3,0.7-0.6c0.5-0.3,1.4-0.7,2.5-1c2.1-0.4,5.6,0,8.3,2c2.8,2,4.4,4.8,5.6,6.6C381.8,437.9,382.5,439.1,382.5,439.2z"/>
		</g>
		<g>
			<path class="st11" d="M400.7,491.9c0,0.2-4.4,0.9-9.7,1.4c-5.5,0.5-9.8,1-9.8,0.7c0-0.2,4.4-0.9,9.7-1.4
				C396.3,492,400.7,491.7,400.7,491.9z"/>
		</g>
	</g>
	<g>
		<polygon class="st6" points="605.8,58.8 607.3,61.6 610,63 607.3,64.5 605.8,67.2 604.3,64.5 601.6,63 604.3,61.6 		"/>
		<polygon class="st6" points="636.5,125.5 638,128.1 640.7,129.6 638,131.1 636.5,133.8 635.1,131.1 632.4,129.6 635.1,128.1 		"/>
		<polygon class="st6" points="143.9,303.2 145.4,306 148,307.4 145.4,308.9 143.9,311.5 142.5,308.9 139.8,307.4 142.5,306 		"/>
		<polygon class="st6" points="565.4,75.4 568.9,81.6 575.1,85 568.9,88.4 565.4,94.6 562.1,88.4 555.9,85 562.1,81.6 		"/>
		<polygon class="st6" points="171.5,261 174.9,267.2 181,270.6 174.9,274 171.5,280.2 168.1,274 161.8,270.6 168.1,267.2 		"/>
		<polygon class="st6" points="644.9,408.8 648.3,414.9 654.5,418.3 648.3,421.7 644.9,428 641.5,421.7 635.3,418.3 641.5,414.9 		
			"/>
	</g>
</g>
</svg>
